<?xml version="1.0" encoding="UTF-8"?>
<svg width="9px" viewBox="0 0 9 16" version="1.1" xmlns="http://www.w3.org/2000/svg" xmlns:xlink="http://www.w3.org/1999/xlink">
    <g id="Icons/Sandbox" stroke="none" stroke-width="1" fill="none" fill-rule="evenodd">
        <g fill-rule="nonzero" id="Path">
            <path d="M4.88864743,4.73937848 L4.88864743,3.54658585 L7.05212606,2.38458678 C7.20926105,2.30036224 7.30910893,2.13474283 7.31283098,1.95264471 C7.31655302,1.77054659 7.22366375,1.60093234 7.07041262,1.50971683 L4.64622908,0.0670802537 C4.49637634,-0.0221378385 4.31092145,-0.0224707418 4.16058323,0.0667473504 C4.01024501,0.155798991 3.91767939,0.32075259 3.91767939,0.499355226 L3.91767939,4.73954493 L4.88864743,4.73937848 Z" fill="#85B7D9"></path>
            <path d="M8.69623888,14.4835843 L7.60221334,9.56633938 L8.27606516,9.56633938 C8.54405234,9.56633938 8.76154919,9.35424188 8.76154919,9.09255494 L8.76154919,6.62492763 C8.76154919,6.36324068 8.54405234,6.15114318 8.27606516,6.15114318 L0.555736428,6.15130111 C0.287587421,6.15130111 0.070252407,6.36339861 0.070252407,6.62508555 L0.070252407,9.09271287 C0.070252407,9.35439981 0.287587421,9.56649731 0.555736428,9.56649731 L1.22942642,9.56649731 L0.135405841,14.4837199 C0.075434009,14.7532714 0.245331868,15.0204028 0.51488333,15.0803746 C0.550537943,15.0883073 0.586954459,15.0923092 0.623480878,15.0923085 L8.20818173,15.0921729 C8.4843241,15.0921679 8.70817773,14.8683063 8.70817279,14.5921639 C8.70817214,14.5556435 8.70417029,14.519233 8.69623888,14.4835843 Z" stroke="#3C4858" stroke-width="1.5"></path>
        </g>
    </g>
</svg>