<svg xmlns="http://www.w3.org/2000/svg" width="20" height="20">
  <path d="M11 20H9a1 1 0 0 1-.95-.68l-.85-2.56L4.79 18a1 1 0 0 1-1.15-.19l-1.42-1.45A1 1 0 0 1 2 15.21l1.24-2.41L.68 12A1 1 0 0 1 0 11V9a1 1 0 0 1 .68-.95l2.56-.85L2 4.79a1 1 0 0 1 .19-1.15l1.45-1.42A1 1 0 0 1 4.79 2L7.2 3.24 8.05.68A1 1 0 0 1 9 0h2a1 1 0 0 1 1 .68l.85 2.56L15.21 2a1 1 0 0 1 1.15.19l1.42 1.42A1 1 0 0 1 18 4.79L16.76 7.2l2.56.85A1 1 0 0 1 20 9v2a1 1 0 0 1-.68.95l-2.56.85L18 15.21a1 1 0 0 1-.19 1.15l-1.42 1.42a1 1 0 0 1-1.15.19l-2.44-1.21-.8 2.56a1 1 0 0 1-1 .68zm-1.28-2h.56l.9-2.71a1.39 1.39 0 0 1 1.72-.71l2.56 1.27.39-.39-1.27-2.56a1.4 1.4 0 0 1 .71-1.72l2.71-.9v-.56l-2.71-.9a1.4 1.4 0 0 1-.71-1.72l1.27-2.56-.39-.39-2.56 1.27a1.41 1.41 0 0 1-1.72-.71L10.28 2h-.56l-.9 2.71a1.41 1.41 0 0 1-1.72.71L4.54 4.15l-.39.39L5.42 7.1a1.4 1.4 0 0 1-.71 1.72L2 9.72v.56l2.71.9a1.4 1.4 0 0 1 .71 1.72l-1.27 2.56.39.39 2.56-1.27a1.39 1.39 0 0 1 1.72.71z" fill="#3c4858"/>
  <circle cx="10" cy="10" r="2" fill="#85b7d9"/>
</svg>