<svg width="417px" height="300px" viewBox="0 0 417 300" xmlns="http://www.w3.org/2000/svg">
    <g id="Master" stroke="none" stroke-width="1" fill="none" fill-rule="evenodd" opacity="0.3">
        <g id="Landing-page" transform="translate(-190.000000, -4363.000000)" fill="#FFFFFF">
            <g id="CTA-2" transform="translate(0.000000, 3713.000000)">
                <g id="air" transform="translate(190.000000, 650.000000)">
                    <g id="Group-12">
                        <path d="M1.07850244,272.530049 C11.2482874,279.335244 21.8319499,285.485113 33.345269,289.624356 C46.0657308,294.197294 59.6703853,296.638427 73.0586948,298.052721 C99.2599614,300.82072 126.817304,301.544609 152.34602,294.029875 C155.247865,293.176834 154.014071,288.55925 151.094981,289.418669 C126.39402,296.68945 99.9042934,295.914538 74.5386204,293.420787 C61.5093182,292.138834 48.2856191,289.745535 35.8661591,285.459601 C24.2603447,281.454294 13.6515987,275.223108 3.4520271,268.400373 C0.915459795,266.703857 -1.44238769,270.8431 1.07850244,272.530049" id="Fill-1"></path>
                        <path d="M136.268269,259.996239 C188.251958,257.317778 242.811133,245.580879 285.886561,214.940981 C304.021683,202.038237 322.092458,184.031197 323.655641,160.455407 C325.190574,137.312689 297.913341,123.564198 279.464326,117.050846 C272.936938,114.747401 264.351986,113.636476 261.173827,121.405111 C258.581077,127.744292 260.382819,134.860179 265.513387,139.296037 C275.9299,148.304264 292.663494,148.789117 305.727687,149.805897 C318.390099,150.792863 331.302055,149.470108 343.441836,145.699551 C355.715022,141.888197 367.015141,135.447024 377.610573,128.266803 C387.407149,121.627923 397.2461,114.094654 404.713596,104.830663 C411.611377,96.2727686 415.320014,86.3701521 416.580291,75.49626 C419.014525,54.4985076 410.765438,33.1382922 394.300222,19.7397114 C374.592499,3.70346651 348.605363,2.18614275 324.291273,0.629591385 C317.296185,0.180827585 310.29325,-0.0639526699 303.284036,0.01450254 C300.254977,0.0474537282 300.247129,4.75476632 303.284036,4.72181513 C315.805197,4.58216486 328.296537,5.51892007 340.759627,6.62984584 C351.841592,7.61838148 362.995752,9.11059957 373.453071,13.0898478 C392.79197,20.4473774 407.468,36.7111424 411.325735,57.2052123 C413.179269,67.0591867 412.488706,77.6396563 409.321534,87.1578424 C406.1575,96.6619065 399.637959,104.331688 392.29602,110.939186 C375.303465,126.233244 354.170672,139.561215 331.451154,143.818195 C315.624709,146.785371 297.530392,145.78899 281.843629,141.775221 C276.339529,140.367735 269.685014,138.246306 266.368743,133.269107 C264.701975,130.767955 264.350416,127.697218 265.025284,124.795945 C266.05642,120.367933 269.292649,119.423332 273.399929,120.206315 C281.771434,121.800525 290.31558,126.24109 297.541378,130.589077 C306.752545,136.134292 318.215889,144.817714 318.978647,156.479297 C319.688043,167.339067 314.593573,178.566007 308.480522,187.261983 C302.507153,195.757113 294.568819,202.739627 286.261662,208.8811 C243.45932,240.528363 188.556434,252.594774 136.268269,255.288926 C133.253334,255.444268 133.234501,260.15158 136.268269,259.996239" id="Fill-3"></path>
                    </g>
                </g>
            </g>
        </g>
    </g>
</svg>
