<svg version="1.1" id="Layer_1" xmlns="http://www.w3.org/2000/svg" xmlns:xlink="http://www.w3.org/1999/xlink" x="0px" y="0px"
	 viewBox="0 0 912.5 736.3" style="enable-background:new 0 0 912.5 736.3;" xml:space="preserve">
<style type="text/css">
	.st0{fill:#E2F2F2;}
	.st1{fill:#EED7C5;}
	.st2{fill:#EADEDA;}
	.st3{fill:#FFFFFF;}
	.st4{fill:#84B85E;}
	.st5{fill:#235127;}
	.st6{fill:#519043;}
	.st7{fill:#7D6A48;}
	.st8{fill:none;stroke:#FFFFFF;stroke-miterlimit:10;}
	.st9{fill:#36602F;}
	.st10{fill:#CAE9EC;}
	.st11{fill:#1CA6C6;}
	.st12{fill:#1995B2;}
	.st13{fill:#FAFAFA;}
	.st14{fill:#1AB9C8;}
	.st15{fill:#17A4B2;}
	.st16{fill:#4E8098;}
	.st17{fill:#3E6679;}
	.st18{fill:#C9D8E0;}
	.st19{fill:#75AA9B;}
</style>
<g>
	<path class="st0" d="M833.4,456.2c0,69-18.5,133.6-50.9,189.3c-19.8,34-44.7,64.6-73.7,90.8H203.6C127.1,667.3,79,567.4,79,456.2
		C79,247.9,247.9,79,456.2,79S833.4,247.9,833.4,456.2z"/>
	<path class="st1" d="M835.1,710.4c-6,8.9-12.2,17.5-18.8,25.9H490.6l86.3-87.8l33,32.1l65.1-82l78.6,89.5l1.5,1.7l36-19.3
		L835.1,710.4z"/>
	<polygon class="st2" points="650.6,629.7 662.3,645.1 674.6,631.1 694.9,641.1 698.6,625.6 675.1,598.9 	"/>
	<path class="st3" d="M721.5,586.1c0-0.1,0-0.1,0-0.2c0-7.3-5.9-13.1-13.1-13.1h-0.1c-0.9-6.4-6.4-11.3-13-11.3
		c-5.9,0-10.9,3.9-12.6,9.3c-1.5-0.6-3.1-0.9-4.9-0.9c-4.6,0-8.7,2.4-11,6c-1.7-0.8-3.5-1.2-5.5-1.2c-6.7,0-12.2,5-13,11.5
		L721.5,586.1L721.5,586.1z"/>
	<path class="st3" d="M491,580.3c0-0.1,0-0.1,0-0.2c0-7.3,5.9-13.1,13.1-13.1h0.1c0.9-6.4,6.4-11.3,13-11.3c5.9,0,10.9,3.9,12.6,9.3
		c1.5-0.6,3.1-0.9,4.9-0.9c4.6,0,8.7,2.4,11,6c1.7-0.8,3.5-1.2,5.5-1.2c6.7,0,12.2,5,13,11.5L491,580.3L491,580.3z"/>
	<path class="st3" d="M410.8,302.9c0-0.2,0-0.4,0-0.7c0-25.5,20.6-46.1,46.1-46.1c0.2,0,0.3,0,0.5,0c3.1-22.5,22.3-39.8,45.6-39.8
		c20.7,0,38.3,13.7,44.1,32.5c5.3-2.1,11-3.3,17.1-3.3c16.2,0,30.5,8.4,38.7,21.1c5.8-2.7,12.3-4.2,19.2-4.2
		c23.5,0,42.9,17.6,45.7,40.4h-257V302.9z"/>
	<path class="st3" d="M286.5,502.9c0-0.2,0-0.4,0-0.5c0-20.2-16.3-36.5-36.5-36.5c-0.1,0-0.3,0-0.4,0c-2.5-17.8-17.7-31.5-36.1-31.5
		c-16.4,0-30.3,10.8-34.9,25.7c-4.2-1.7-8.7-2.6-13.5-2.6c-12.9,0-24.1,6.7-30.6,16.7c-4.6-2.1-9.7-3.3-15.2-3.3
		c-18.6,0-34,14-36.2,32L286.5,502.9L286.5,502.9z"/>
	<path class="st3" d="M488.8,614.7L488.8,614.7c0-5.7-4.5-10.2-10.1-10.2h-0.1c-0.7-4.9-4.9-8.7-10-8.7c-4.5,0-8.4,3-9.6,7.1
		c-1.2-0.5-2.4-0.7-3.7-0.7c-3.6,0-6.7,1.8-8.5,4.6c-1.3-0.6-2.7-0.9-4.2-0.9c-5.1,0-9.4,3.9-10,8.8L488.8,614.7L488.8,614.7z"/>
	<path class="st4" d="M623.1,711.7c0,3.2-2.6,5.8-5.8,5.8s-5.8-2.6-5.8-5.8s2.6-5.8,5.8-5.8S623.1,708.5,623.1,711.7z"/>
	<path class="st5" d="M630.9,705.4c0,3.8-3.1,6.8-6.8,6.8c-3.8,0-6.8-3.1-6.8-6.8c0-3.8,3.1-6.8,6.8-6.8
		C627.9,698.6,630.9,701.7,630.9,705.4z"/>
	<path class="st5" d="M627.1,695.9c0,3.8-3.1,6.8-6.8,6.8c-3.8,0-6.8-3.1-6.8-6.8c0-3.8,3.1-6.8,6.8-6.8
		C624.1,689.1,627.1,692.2,627.1,695.9z"/>
	<circle class="st6" cx="615.8" cy="704.6" r="6.8"/>
	<path class="st4" d="M629,685.8c0,3.8-3.1,6.8-6.8,6.8c-3.8,0-6.8-3.1-6.8-6.8c0-3.8,3.1-6.8,6.8-6.8C626,678.9,629,682,629,685.8z
		"/>
	<path class="st4" d="M636.8,711c0,3.8-3.1,6.8-6.8,6.8s-6.8-3.1-6.8-6.8c0-3.8,3.1-6.8,6.8-6.8S636.8,707.3,636.8,711z"/>
	<path class="st6" d="M634.6,694.3c0,3.8-3.1,6.8-6.8,6.8c-3.8,0-6.8-3.1-6.8-6.8s3.1-6.8,6.8-6.8
		C631.6,687.5,634.6,690.6,634.6,694.3z"/>
	<polygon class="st7" points="624.1,736.3 620.3,736.3 621.7,685.8 622.7,685.8 	"/>
	<polygon class="st7" points="623,719.2 622.2,718.3 629.8,711.4 630,711.6 	"/>
	<polygon class="st7" points="621.8,710.4 621.1,711 615.3,704.8 615.5,704.6 	"/>
	<polygon class="st7" points="622.9,699.4 622.2,698.8 628.5,693 628.7,693.2 	"/>
	<path class="st8" d="M615.8,534.8c13.4,0,13.4,6.7,26.8,6.7c13.4,0,13.4-6.7,26.8-6.7c13.4,0,13.4,6.7,26.8,6.7"/>
	<path class="st8" d="M615.8,542.4c13.4,0,13.4,6.7,26.8,6.7c13.4,0,13.4-6.7,26.8-6.7c13.4,0,13.4,6.7,26.8,6.7"/>
	<path class="st8" d="M615.8,550c13.4,0,13.4,6.7,26.8,6.7c13.4,0,13.4-6.7,26.8-6.7c13.4,0,13.4,6.7,26.8,6.7"/>
	<path class="st8" d="M562.1,584.9c13.4,0,13.4,6.7,26.8,6.7c13.4,0,13.4-6.7,26.8-6.7c13.4,0,13.4,6.7,26.8,6.7"/>
	<path class="st8" d="M562.1,592.5c13.4,0,13.4,6.7,26.8,6.7c13.4,0,13.4-6.7,26.8-6.7c13.4,0,13.4,6.7,26.8,6.7"/>
	<path class="st8" d="M562.1,600c13.4,0,13.4,6.7,26.8,6.7c13.4,0,13.4-6.7,26.8-6.7c13.4,0,13.4,6.7,26.8,6.7"/>
	<path class="st9" d="M490.5,736.3c0.9-2.1,3.6-3.9,6.1-3.9c0-2,1.6-3.6,3.6-3.6c0-2,1.6-3.6,3.6-3.6c0.6,0,1.1,0.1,1.6,0.4
		c0.6-2.7,3-4.8,5.9-4.8c0.1,0,0.2,0,0.3,0c0.8-2.3,3.1-4,5.7-4c3.3,0,6,2.7,6,6.1v0.1c2.9,0.5,5,3,5,6c0,0.1,0,0.2,0,0.3
		c0,0,0.1,0,0.1,0.1c0.6-0.2,1.3-0.4,2-0.3c1.4,0,2.7,0.5,3.7,1.3c0.4-0.1,0.8-0.1,1.2-0.1c3.3,0,6,2.7,6,6.1L490.5,736.3z"/>
	<path class="st10" d="M912.5,456.2c0,94.1-28.5,181.6-77.3,254.2c-6,8.9-12.2,17.5-18.8,25.9H708.9c16.3-14.7,31.4-30.9,44.9-48.2
		c49.9-64,79.7-144.4,79.7-231.9C833.4,247.9,664.6,79,456.2,79S79,247.9,79,456.2c0,111.1,48.1,211.1,124.6,280.1H96.1
		C35.9,659,0,561.8,0,456.2C0,204.3,204.3,0,456.2,0S912.5,204.3,912.5,456.2z"/>
	<rect x="705.3" y="601" class="st11" width="43.5" height="135.3"/>
	<rect x="738.8" y="601" class="st12" width="10" height="135.3"/>
	<rect x="712.4" y="590.8" class="st11" width="29.3" height="10.2"/>
	<rect x="735" y="590.8" class="st12" width="6.7" height="10.2"/>
	<rect x="718.1" y="583.3" class="st11" width="18" height="7.5"/>
	<rect x="712.4" y="598.9" class="st12" width="22.6" height="2.1"/>
	<rect x="718.1" y="589.2" class="st12" width="18" height="1.6"/>
	<rect x="731.9" y="583.3" class="st12" width="4.1" height="7.5"/>
	<rect x="720.3" y="635.7" class="st13" width="6.7" height="5.2"/>
	<rect x="712.4" y="635.7" class="st13" width="6.7" height="5.2"/>
	<rect x="728.3" y="642.3" class="st13" width="6.7" height="5.2"/>
	<rect x="720.3" y="642.3" class="st13" width="6.7" height="5.2"/>
	<rect x="728.3" y="648.9" class="st13" width="6.7" height="5.2"/>
	<rect x="712.4" y="648.9" class="st13" width="6.7" height="5.2"/>
	<rect x="728.3" y="655.5" class="st13" width="6.7" height="5.2"/>
	<rect x="720.3" y="655.5" class="st13" width="6.7" height="5.2"/>
	<rect x="525.4" y="622.1" class="st14" width="71" height="114.2"/>
	<rect x="583.6" y="622.1" class="st15" width="12.9" height="114.2"/>
	<rect x="528.9" y="625.7" class="st13" width="5.4" height="5.4"/>
	<rect x="536.5" y="625.7" class="st13" width="5.4" height="5.4"/>
	<rect x="551.8" y="625.7" class="st13" width="5.4" height="5.4"/>
	<rect x="567.1" y="625.7" class="st13" width="5.4" height="5.4"/>
	<rect x="528.9" y="633.3" class="st13" width="5.4" height="5.4"/>
	<rect x="536.5" y="633.3" class="st13" width="5.4" height="5.4"/>
	<rect x="544.1" y="633.3" class="st13" width="5.4" height="5.4"/>
	<rect x="551.8" y="633.3" class="st13" width="5.4" height="5.4"/>
	<rect x="559.4" y="633.3" class="st13" width="5.4" height="5.4"/>
	<rect x="567.1" y="633.3" class="st13" width="5.4" height="5.4"/>
	<rect x="528.9" y="640.9" class="st13" width="5.4" height="5.4"/>
	<rect x="544.1" y="640.9" class="st13" width="5.4" height="5.4"/>
	<rect x="559.4" y="640.9" class="st13" width="5.4" height="5.4"/>
	<rect x="536.5" y="648.5" class="st13" width="5.4" height="5.4"/>
	<rect x="551.8" y="648.5" class="st13" width="5.4" height="5.4"/>
	<rect x="559.4" y="648.5" class="st13" width="5.4" height="5.4"/>
	<rect x="567.1" y="648.5" class="st13" width="5.4" height="5.4"/>
	<rect x="528.9" y="656.2" class="st13" width="5.4" height="5.4"/>
	<rect x="544.1" y="656.2" class="st13" width="5.4" height="5.4"/>
	<rect x="551.8" y="656.2" class="st13" width="5.4" height="5.4"/>
	<rect x="536.5" y="663.7" class="st13" width="5.4" height="5.4"/>
	<rect x="551.8" y="663.7" class="st13" width="5.4" height="5.4"/>
	<rect x="559.4" y="663.7" class="st13" width="5.4" height="5.4"/>
	<rect x="648.3" y="638.3" class="st16" width="31.5" height="98.1"/>
	<rect x="672.6" y="638.3" class="st17" width="7.2" height="98.1"/>
	<rect x="653.4" y="630.9" class="st16" width="21.2" height="7.4"/>
	<rect x="669.8" y="630.9" class="st17" width="4.9" height="7.4"/>
	<rect x="657.5" y="625.4" class="st16" width="13" height="5.4"/>
	<rect x="653.4" y="636.7" class="st17" width="16.4" height="1.5"/>
	<rect x="657.5" y="629.7" class="st17" width="13" height="1.1"/>
	<rect x="667.6" y="625.4" class="st17" width="3" height="5.4"/>
	<rect x="659.2" y="677.7" class="st13" width="4.9" height="3.8"/>
	<rect x="653.4" y="677.7" class="st13" width="4.9" height="3.8"/>
	<rect x="664.9" y="672.9" class="st13" width="4.9" height="3.8"/>
	<rect x="659.2" y="672.9" class="st13" width="4.9" height="3.8"/>
	<rect x="664.9" y="668.2" class="st13" width="4.9" height="3.8"/>
	<rect x="653.4" y="668.2" class="st13" width="4.9" height="3.8"/>
	<rect x="664.9" y="663.4" class="st13" width="4.9" height="3.8"/>
	<rect x="659.2" y="663.4" class="st13" width="4.9" height="3.8"/>
</g>
<g>
	
		<animateTransform  accumulate="none" additive="replace" attributeName="transform" attributeType="xml" calcMode="linear" dur="1s" fill="remove" from="0 726.063 548.341" repeatCount="indefinite" restart="always" to="-360 726.063 548.341" type="rotate">
		</animateTransform>
	<g>
		<path class="st18" d="M726.2,548.3c1.6-1.2,1.4-9.5,0.9-15.4c-0.3,0-0.6,0-0.9,0c-0.3,0-0.6,0-0.9,0
			C724.8,538.8,724.6,547.1,726.2,548.3z"/>
		<path class="st16" d="M727.1,532.9c-0.3-3.3-0.7-5.9-0.9-5.9s-0.6,2.5-0.9,5.9c0.3,0,0.6,0,0.9,0S726.8,532.9,727.1,532.9z"/>
	</g>
	<g>
		<path class="st18" d="M726.2,548.3c-1.8-0.8-9,3.5-13.8,6.9c0.3,0.5,0.6,1.1,0.9,1.6C718.6,554.3,725.9,550.3,726.2,548.3z"/>
		<path class="st16" d="M707.8,559c0.1,0.2,2.5-0.7,5.5-2.1c-0.3-0.5-0.6-1-0.9-1.6C709.7,557.2,707.7,558.8,707.8,559z"/>
	</g>
	<g>
		<path class="st16" d="M740,555.2c-0.3,0.5-0.6,1.1-0.9,1.6c3,1.4,5.4,2.4,5.5,2.1C744.7,558.8,742.7,557.2,740,555.2z"/>
		<path class="st18" d="M726.2,548.3c0.3,2,7.5,6,12.9,8.5c0.3-0.5,0.6-1,0.9-1.6C735.2,551.9,728,547.6,726.2,548.3z"/>
	</g>
</g>
<g>
	
		<animateTransform  accumulate="none" additive="replace" attributeName="transform" attributeType="xml" calcMode="linear" dur="1s" fill="remove" from="0 726.203 549.412" repeatCount="indefinite" restart="always" to="-360 726.203 549.412" type="rotate">
		</animateTransform>
	<path class="st19" d="M728.8,540.4c3.7,1.1,6.4,4.7,6.4,8.8c0,0.7-0.1,1.3-0.2,1.9l0.3,0.4c0.2-0.8,0.3-1.5,0.3-2.3
		c0-4.4-2.9-8.1-6.9-9.2L728.8,540.4z"/>
	<path class="st19" d="M717.4,551.3c-0.2-0.7-0.2-1.4-0.2-2.1c0-4.1,2.7-7.7,6.4-8.8c0-0.1,0.1-0.3,0.1-0.4c-4,1.1-6.9,4.8-6.9,9.2
		c0,0.8,0.1,1.5,0.3,2.2C717.2,551.4,717.3,551.4,717.4,551.3z"/>
	<path class="st19" d="M732.7,555.7c-1.6,1.7-3.9,2.8-6.5,2.8c-2.5,0-4.8-1.1-6.4-2.7c-0.1,0.1-0.3,0.1-0.4,0.2c1.7,1.8,4.1,3,6.8,3
		s5.1-1.2,6.8-3C732.9,555.8,732.8,555.7,732.7,555.7z"/>
	<path class="st19" d="M729.6,537.5c4.9,1.5,8.5,6.2,8.5,11.7c0,0.9-0.1,1.7-0.3,2.5l0.4,0.6c0.2-1,0.4-2,0.4-3.1
		c0-5.8-3.9-10.7-9.1-12.3L729.6,537.5z"/>
	<path class="st19" d="M714.5,551.9c-0.2-0.9-0.3-1.8-0.3-2.8c0-5.5,3.6-10.1,8.5-11.7c0-0.2,0.1-0.4,0.1-0.6
		c-5.3,1.5-9.1,6.4-9.1,12.3c0,1,0.1,2,0.4,2.9C714.2,552.1,714.4,552,714.5,551.9z"/>
	<path class="st19" d="M734.8,557.7c-2.2,2.3-5.2,3.7-8.6,3.7c-3.3,0-6.3-1.4-8.5-3.6c-0.2,0.1-0.3,0.1-0.5,0.2c2.3,2.4,5.5,4,9,4
		c3.6,0,6.8-1.5,9.1-4C735.1,557.8,734.9,557.8,734.8,557.7z"/>
</g>
<polygon class="st17" points="729.3,583.4 725.6,583.4 726.8,549.1 728.2,549.1 "/>
<rect x="727" y="547.8" class="st16" width="5.4" height="2.4"/>
<path class="st16" d="M727,547.4h-0.2c-2.5,0-4.5,0.7-4.5,1.6c0,0.9,2,1.6,4.5,1.6c0.1,0,0.1,0,0.2,0V547.4z"/>
<g>
	
		<animateTransform  accumulate="none" additive="replace" attributeName="transform" attributeType="xml" calcMode="linear" dur="1s" fill="remove" from="0 663.658 597.647" repeatCount="indefinite" restart="always" to="-360 663.658 597.647" type="rotate">
		</animateTransform>
	<g>
		<path class="st18" d="M663.7,597.5c1.3-1,1.1-7.6,0.7-12.2c-0.2,0-0.5,0-0.7,0s-0.5,0-0.7,0C662.5,589.9,662.4,596.5,663.7,597.5z
			"/>
		<path class="st16" d="M664.4,585.3c-0.2-2.6-0.5-4.7-0.7-4.7s-0.5,2-0.7,4.7c0.2,0,0.5,0,0.7,0S664.1,585.3,664.4,585.3z"/>
	</g>
	<g>
		<path class="st18" d="M663.7,597.5c-1.5-0.6-7.1,2.8-11,5.5c0.2,0.4,0.5,0.9,0.7,1.3C657.7,602.3,663.5,599.1,663.7,597.5z"/>
		<path class="st16" d="M649,606c0.1,0.2,2-0.6,4.4-1.7c-0.3-0.4-0.5-0.8-0.7-1.3C650.5,604.5,648.9,605.8,649,606z"/>
	</g>
	<g>
		<path class="st16" d="M674.6,603c-0.2,0.4-0.5,0.9-0.7,1.3c2.4,1.1,4.3,1.9,4.4,1.7S676.8,604.5,674.6,603z"/>
		<path class="st18" d="M663.7,597.5c0.2,1.6,6,4.8,10.2,6.7c0.3-0.4,0.5-0.8,0.7-1.3C670.8,600.3,665.1,596.9,663.7,597.5z"/>
	</g>
</g>
<g>
	
		<animateTransform  accumulate="none" additive="replace" attributeName="transform" attributeType="xml" calcMode="linear" dur="1s" fill="remove" from="0 663.669 598.358" repeatCount="indefinite" restart="always" to="-360 663.669 598.358" type="rotate">
		</animateTransform>
	<path class="st19" d="M665.7,591.2c3,0.9,5.1,3.7,5.1,7c0,0.5-0.1,1-0.2,1.5l0.2,0.3c0.1-0.6,0.2-1.2,0.2-1.9
		c0-3.5-2.3-6.4-5.5-7.3L665.7,591.2z"/>
	<path class="st19" d="M656.7,599.9c-0.1-0.5-0.2-1.1-0.2-1.7c0-3.3,2.1-6.1,5.1-7c0-0.1,0.1-0.2,0.1-0.4c-3.2,0.9-5.5,3.8-5.5,7.3
		c0,0.6,0.1,1.2,0.2,1.8C656.5,599.9,656.6,599.9,656.7,599.9z"/>
	<path class="st19" d="M668.8,603.3c-1.3,1.4-3.1,2.2-5.1,2.2s-3.8-0.8-5.1-2.2c-0.1,0-0.2,0.1-0.3,0.1c1.4,1.5,3.3,2.4,5.4,2.4
		c2.1,0,4.1-0.9,5.4-2.4C669,603.4,668.9,603.4,668.8,603.3z"/>
	<path class="st19" d="M666.4,588.9c3.9,1.2,6.8,4.9,6.8,9.3c0,0.7-0.1,1.4-0.2,2l0.3,0.5c0.2-0.8,0.3-1.6,0.3-2.5
		c0-4.6-3.1-8.5-7.2-9.7L666.4,588.9z"/>
	<path class="st19" d="M654.4,600.4c-0.2-0.7-0.3-1.4-0.3-2.2c0-4.4,2.8-8.1,6.7-9.3c0-0.2,0.1-0.3,0.1-0.5
		c-4.2,1.2-7.3,5.1-7.3,9.7c0,0.8,0.1,1.6,0.3,2.3C654.1,600.5,654.3,600.4,654.4,600.4z"/>
	<path class="st19" d="M670.5,604.9c-1.7,1.8-4.1,2.9-6.8,2.9c-2.6,0-5-1.1-6.8-2.9c-0.1,0.1-0.3,0.1-0.4,0.2
		c1.8,1.9,4.4,3.1,7.2,3.1s5.4-1.2,7.2-3.2C670.7,605.1,670.6,605,670.5,604.9z"/>
</g>
<polygon class="st17" points="666.2,625.4 663.2,625.4 664.1,598.1 665.2,598.1 "/>
<rect x="664.3" y="597" class="st16" width="4.3" height="1.9"/>
<path class="st16" d="M664.3,596.8L664.3,596.8c-2.1,0-3.6,0.6-3.6,1.3s1.6,1.3,3.5,1.3h0.1V596.8z"/>
</svg>
