<svg width="492px" height="612px" viewBox="0 0 492 612" version="1.1" xmlns="http://www.w3.org/2000/svg" xmlns:xlink="http://www.w3.org/1999/xlink">
    <g id="404" stroke="none" stroke-width="1" fill="none" fill-rule="evenodd">
        <g id="404-page" transform="translate(-704.000000, -92.000000)">
            <g id="Group" transform="translate(684.000000, 69.000000)">
                <path d="M233.40082,599.949421 C239.88782,604.217421 246.63882,608.074421 253.98282,610.670421 C262.09682,613.538421 270.77482,615.069421 279.31482,615.956421 C296.02782,617.692421 313.60582,618.146421 329.88982,613.433421 C331.74082,612.898421 330.95382,610.002421 329.09182,610.541421 C313.33582,615.101421 296.43882,614.615421 280.25882,613.051421 C271.94782,612.247421 263.51282,610.746421 255.59082,608.058421 C248.18782,605.546421 241.42082,601.638421 234.91482,597.359421 C233.29682,596.295421 231.79282,598.891421 233.40082,599.949421" id="Fill-1" fill="#FFFFFF" transform="translate(281.828860, 607.143006) scale(-1, 1) translate(-281.828860, -607.143006) "></path>
                <path d="M67.1559311,592.176021 C100.277931,590.469021 135.040931,582.989021 162.486931,563.462021 C174.041931,555.239021 185.555931,543.763021 186.551931,528.738021 C187.529931,513.989021 170.149931,505.227021 158.394931,501.076021 C154.235931,499.608021 148.765931,498.900021 146.740931,503.851021 C145.088931,507.891021 146.236931,512.426021 149.505931,515.253021 C156.142931,520.994021 166.804931,521.303021 175.128931,521.951021 C183.196931,522.580021 191.423931,521.737021 199.158931,519.334021 C206.978931,516.905021 214.178931,512.800021 220.929931,508.224021 C227.171931,503.993021 233.440931,499.192021 238.198931,493.288021 C242.593931,487.834021 244.956931,481.523021 245.759931,474.593021 C247.310931,461.211021 242.054931,447.598021 231.563931,439.059021 C219.006931,428.839021 202.448931,427.872021 186.956931,426.880021 C182.499931,426.594021 178.037931,426.438021 173.571931,426.488021 C171.641931,426.509021 171.636931,429.509021 173.571931,429.488021 C181.549931,429.399021 189.508931,429.996021 197.449931,430.704021 C204.510931,431.334021 211.617931,432.285021 218.280931,434.821021 C230.602931,439.510021 239.953931,449.875021 242.411931,462.936021 C243.592931,469.216021 243.152931,475.959021 241.134931,482.025021 C239.118931,488.082021 234.964931,492.970021 230.286931,497.181021 C219.459931,506.928021 205.994931,515.422021 191.518931,518.135021 C181.434931,520.026021 169.905931,519.391021 159.910931,516.833021 C156.403931,515.936021 152.163931,514.584021 150.050931,511.412021 C148.988931,509.818021 148.764931,507.861021 149.194931,506.012021 C149.851931,503.190021 151.913931,502.588021 154.530931,503.087021 C159.864931,504.103021 165.308931,506.933021 169.912931,509.704021 C175.781931,513.238021 183.085931,518.772021 183.571931,526.204021 C184.023931,533.125021 180.777931,540.280021 176.882931,545.822021 C173.076931,551.236021 168.018931,555.686021 162.725931,559.600021 C135.453931,579.769021 100.471931,587.459021 67.1559311,589.176021 C65.2349311,589.275021 65.2229311,592.275021 67.1559311,592.176021" id="Fill-3" fill="#FFFFFF" transform="translate(155.869016, 509.328598) scale(-1, 1) translate(-155.869016, -509.328598) "></path>
                <path d="M338.198057,555.429069 C338.198057,555.429069 369.543839,548.294433 378.838322,575.184669 C388.132804,602.076242 360.766163,599.073733 365.086719,611.571711 C369.405935,624.069688 402.589995,604.989184 414.198057,638.571567" id="Stroke-1" stroke="#C67022" stroke-width="2" transform="translate(376.198057, 596.571567) rotate(-6.000000) translate(-376.198057, -596.571567) "></path>
                <polygon id="Fill-3" fill="#F9DBBD" transform="translate(301.588038, 570.728868) rotate(-6.000000) translate(-301.588038, -570.728868) " points="268.088038 580.228868 335.088038 580.228868 335.088038 561.228868 268.088038 561.228868"></polygon>
                <polygon id="Stroke-5" stroke="#313638" stroke-width="2" transform="translate(301.588038, 570.728868) rotate(-6.000000) translate(-301.588038, -570.728868) " points="268.088038 580.228868 335.088038 580.228868 335.088038 561.228868 268.088038 561.228868"></polygon>
                <path d="M324.765984,621.012261 L285.691203,621.012261 C280.459677,621.012261 276.221153,616.776568 276.221153,611.551554 L276.221153,580.012261 L334.221153,580.012261 L334.221153,611.566421 C334.221153,616.783325 329.98804,621.012261 324.765984,621.012261" id="Fill-6" fill="#F9DBBD" transform="translate(305.221153, 600.512261) rotate(-6.000000) translate(-305.221153, -600.512261) "></path>
                <path d="M324.765984,621.012261 L285.691203,621.012261 C280.459677,621.012261 276.221153,616.776568 276.221153,611.551554 L276.221153,580.012261 L334.221153,580.012261 L334.221153,611.566421 C334.221153,616.783325 329.98804,621.012261 324.765984,621.012261 Z" id="Stroke-7" stroke="#313638" stroke-width="2" transform="translate(305.221153, 600.512261) rotate(-6.000000) translate(-305.221153, -600.512261) "></path>
                <path d="M262.740959,535.443933 L276.740959,564.443933" id="Stroke-8" stroke="#313638" transform="translate(269.740959, 549.943933) rotate(-6.000000) translate(-269.740959, -549.943933) "></path>
                <path d="M335.415012,529.224489 L322.415012,558.224489" id="Stroke-9" stroke="#313638" transform="translate(328.915012, 543.724489) rotate(-6.000000) translate(-328.915012, -543.724489) "></path>
                <path d="M261.264297,570.024138 L167.264297,450.024138" id="Stroke-10" stroke="#313638" transform="translate(214.264297, 510.024138) rotate(-6.000000) translate(-214.264297, -510.024138) "></path>
                <path d="M421.382322,433.195055 L327.382322,553.195055" id="Stroke-11" stroke="#313638" transform="translate(374.382322, 493.195055) rotate(-6.000000) translate(-374.382322, -493.195055) "></path>
                <path d="M310.322186,515.046996 C310.322186,515.046996 514.296432,373.367127 514.296432,237.920602 C514.296432,102.472733 404.642487,24.5498809 269.37698,24.5498809 C134.110131,24.5498809 24.4561859,102.472733 24.4561859,237.920602 C24.4561859,373.367127 228.430432,515.046996 228.430432,515.046996" id="Fill-12" fill="#EB5160" transform="translate(269.376309, 269.798438) rotate(-6.000000) translate(-269.376309, -269.798438) "></path>
                <path d="M310.322186,515.046996 C310.322186,515.046996 514.296432,373.367127 514.296432,237.920602 C514.296432,102.472733 404.642487,24.5498809 269.37698,24.5498809 C134.110131,24.5498809 24.4561859,102.472733 24.4561859,237.920602 C24.4561859,373.367127 228.430432,515.046996 228.430432,515.046996" id="Stroke-13" stroke="#313638" stroke-width="2" stroke-linejoin="round" transform="translate(269.376309, 269.798438) rotate(-6.000000) translate(-269.376309, -269.798438) "></path>
                <path d="M311.082212,514.976695 C311.082212,514.976695 417.324684,373.296826 417.324684,237.850302 C417.324684,102.402433 351.385302,24.4795803 270.045848,24.4795803 C188.705048,24.4795803 122.765666,102.402433 122.765666,237.850302 C122.765666,373.296826 229.008139,514.976695 229.008139,514.976695" id="Fill-15" fill="#FFFFFF" transform="translate(270.045175, 269.728138) rotate(-6.000000) translate(-270.045175, -269.728138) "></path>
                <path d="M311.082212,514.976695 C311.082212,514.976695 417.324684,373.296826 417.324684,237.850302 C417.324684,102.402433 351.385302,24.4795803 270.045848,24.4795803 C188.705048,24.4795803 122.765666,102.402433 122.765666,237.850302 C122.765666,373.296826 229.008139,514.976695 229.008139,514.976695" id="Stroke-16" stroke="#313638" stroke-width="2" transform="translate(270.045175, 269.728138) rotate(-6.000000) translate(-270.045175, -269.728138) "></path>
                <path d="M281.667844,515.047015 C281.667844,515.047015 313.488889,373.367146 313.488889,237.920621 C313.488889,102.472752 293.73859,24.5499 269.376799,24.5499 C245.013665,24.5499 225.263366,102.472752 225.263366,237.920621 C225.263366,373.367146 257.085754,515.047015 257.085754,515.047015" id="Fill-18" fill="#EB5160" transform="translate(269.376127, 269.798457) rotate(-6.000000) translate(-269.376127, -269.798457) "></path>
                <path d="M281.667844,515.047015 C281.667844,515.047015 313.488889,373.367146 313.488889,237.920621 C313.488889,102.472752 293.73859,24.5499 269.376799,24.5499 C245.013665,24.5499 225.263366,102.472752 225.263366,237.920621 C225.263366,373.367146 257.085754,515.047015 257.085754,515.047015" id="Stroke-19" stroke="#313638" stroke-width="2" stroke-linejoin="round" transform="translate(269.376127, 269.798457) rotate(-6.000000) translate(-269.376127, -269.798457) "></path>
                <polygon id="Fill-21" fill="#EB5160" transform="translate(296.466143, 521.997296) rotate(-6.000000) translate(-296.466143, -521.997296) " points="333.25212 531.497296 259.802941 531.497296 254.966143 512.497296 337.966143 512.497296"></polygon>
                <polygon id="Stroke-22" stroke="#313638" stroke-width="2" stroke-linejoin="round" transform="translate(296.466143, 521.997296) rotate(-6.000000) translate(-296.466143, -521.997296) " points="333.25212 531.497296 259.802941 531.497296 254.966143 512.497296 337.966143 512.497296"></polygon>
                <path d="M500.479749,323.491602 C500.479749,323.491602 511.948322,293.452 517.865666,244.390188 C526.38648,128.474712 421.230443,-0.710832173 219.179005,46.6624259 L500.479749,323.491602 Z" id="Fill-23" fill-opacity="0.2" fill="#313638" transform="translate(368.762288, 180.052129) rotate(-351.000000) translate(-368.762288, -180.052129) "></path>
            </g>
        </g>
    </g>
</svg>