<svg xmlns="http://www.w3.org/2000/svg" viewBox="0 0 368 464"><defs><style>.balloon-svg-1{fill:#c67022;}.balloon-svg-2{fill:#f9dbbd;}.balloon-svg-3,.balloon-svg-6{fill:#313638;}.balloon-svg-4{fill:#eb5160;}.balloon-svg-5{fill:#fff;}.balloon-svg-6{opacity:0.2;}</style></defs><g id="Layer_2" data-name="Layer 2"><g id="Place"><path class="balloon-svg-1" d="M265.15,464C260,449.1,249,448.72,240.21,448.41c-5.58-.2-10.4-.36-11.85-4.54-1.55-4.47,1.63-6.78,4.71-9,4.45-3.23,9.49-6.88,5.59-18.11-2.75-7.92-8.47-12.71-17-14.21a34.92,34.92,0,0,0-12.27.13l-.45-1.94c.25-.06,24.45-5.28,31.62,15.37,4.38,12.62-1.79,17.1-6.3,20.37-3.34,2.42-5,3.82-4,6.76,1,2.74,4.43,3,10,3.2,8.92.31,21.14.73,26.77,16.93Z"/><rect class="balloon-svg-2" x="158.84" y="400.67" width="50.33" height="14.32"/><path class="balloon-svg-3" d="M210.17,416H157.83V399.67h52.34Zm-50.33-2h48.32V401.66H159.84Z"/><path class="balloon-svg-2" d="M162.5,415h43a0,0,0,0,1,0,0v23.25a7,7,0,0,1-7,7h-29a7,7,0,0,1-7-7V415A0,0,0,0,1,162.5,415Z"/><path class="balloon-svg-3" d="M198.49,446.22h-29a8,8,0,0,1-8-8V414h45v24.27A8,8,0,0,1,198.49,446.22ZM163.5,416v22.26a6,6,0,0,0,6,6h29a6,6,0,0,0,6-6V416Z"/><polygon class="balloon-svg-3" points="167.11 400.89 156.29 379.12 157.19 378.68 168.01 400.45 167.11 400.89"/><polygon class="balloon-svg-3" points="201.79 400.87 200.88 400.46 210.89 378.69 211.81 379.1 201.79 400.87"/><polygon class="balloon-svg-3" points="158.44 400.97 88.24 311.58 89.03 310.97 159.23 400.36 158.44 400.97"/><polygon class="balloon-svg-3" points="209.56 400.97 208.77 400.36 278.97 310.97 279.76 311.58 209.56 400.97"/><path class="balloon-svg-4" d="M214.59,364.66S367,259.62,367,159.19,285.07,1,184,1,1,58.77,1,159.19,153.41,364.66,153.41,364.66"/><path class="balloon-svg-3" d="M215.17,365.48,214,363.84a590.91,590.91,0,0,0,76.08-65C324.72,263.59,366,210.73,366,159.19c0-47.49-18.4-87.59-53.23-116C280.16,16.63,234.43,2,184,2S87.84,16.63,55.24,43.21C20.41,71.6,2,111.7,2,159.19,2,187.64,15.17,235,77.9,298.87a590.91,590.91,0,0,0,76.08,65l-1.15,1.64a593.61,593.61,0,0,1-76.34-65.2C41.59,264.74,0,211.41,0,159.19c0-48.1,18.66-88.74,54-117.52C86.92,14.8,133.1,0,184,0s97.07,14.8,130,41.67c35.31,28.78,54,69.42,54,117.52,0,23.09-8.06,48.32-23.95,75-12.68,21.28-30.36,43.52-52.54,66.11A593.61,593.61,0,0,1,215.17,365.48Z"/><path class="balloon-svg-5" d="M214.59,364.66s79.21-105,79.21-205.47S244.64,1,184,1,74.2,58.77,74.2,159.19s79.21,205.47,79.21,205.47"/><path class="balloon-svg-3" d="M215.4,365.26l-1.61-1.2a489,489,0,0,0,39.53-65c18-35.31,39.47-88.24,39.47-139.91,0-47.58-11.05-87.75-32-116.16C241.35,16.57,214.07,2,184,2s-57.36,14.58-76.83,41c-20.91,28.41-32,68.58-32,116.16,0,51.67,21.46,104.6,39.47,139.91a489,489,0,0,0,39.53,65l-1.61,1.2A492.16,492.16,0,0,1,112.91,300C94.79,264.53,73.2,211.27,73.2,159.19c0-48,11.19-88.58,32.35-117.34C125.41,14.86,153.27,0,184,0s58.59,14.86,78.45,41.85c21.16,28.76,32.35,69.33,32.35,117.34,0,52.08-21.59,105.34-39.71,140.85A492.16,492.16,0,0,1,215.4,365.26Z"/><path class="balloon-svg-4" d="M193.18,364.66s23.76-105,23.76-205.47S202.19,1,184,1s-32.94,57.77-32.94,158.19,23.76,205.47,23.76,205.47"/><path class="balloon-svg-3" d="M194.16,364.88l-2-.44c.24-1.05,23.74-106.09,23.74-205.25C215.94,51.19,199.38,2,184,2s-31.94,49.2-31.94,157.2c0,99.17,23.5,204.2,23.74,205.25l-2,.44c-.24-1.05-23.78-106.3-23.78-205.69C150.06,64,163.7,0,184,0s33.94,64,33.94,159.19C217.94,258.58,194.39,363.83,194.16,364.88Z"/><polygon class="balloon-svg-4" points="211.35 378.9 156.74 378.9 153.15 364.58 214.85 364.58 211.35 378.9"/><path class="balloon-svg-3" d="M211.35,379.89H156.74a1,1,0,0,1-1-.75l-3.6-14.32a1,1,0,0,1,.19-.86,1,1,0,0,1,.79-.38h61.7a1,1,0,0,1,1,1.23l-3.51,14.32A1,1,0,0,1,211.35,379.89Zm-53.82-2h53l3-12.33H154.43Z"/><path class="balloon-svg-6" d="M356.22,208.07S367,191.46,367,159.19C367,58.77,279.36,1,184,1"/></g></g></svg>