<svg width="72px" height="59px" viewBox="0 0 72 59" version="1.1" xmlns="http://www.w3.org/2000/svg" xmlns:xlink="http://www.w3.org/1999/xlink">
    <defs></defs>
    <g id="Master" stroke="none" stroke-width="1" fill="none" fill-rule="evenodd">
        <g id="Landing-page" transform="translate(-1288.000000, -1313.000000)" fill="#160F29" fill-rule="nonzero">
            <g id="Group-6" transform="translate(1165.000000, 1313.000000)">
                <path d="M192.488372,40.4571429 C191.734884,40.4571429 191.065116,40.71 190.646512,41.2157143 L172.897674,29.4157143 L178.339535,18.4585714 C178.590698,18.5428571 178.84186,18.5428571 179.093023,18.5428571 C180.516279,18.5428571 181.604651,17.4471429 181.604651,16.0142857 C181.604651,14.5814286 180.516279,13.4857143 179.093023,13.4857143 C178.339535,13.4857143 177.669767,13.8228571 177.251163,14.3285714 L161.427907,3.11857143 C161.511628,2.95 161.511628,2.78142857 161.511628,2.52857143 C161.511628,1.09571429 160.423256,0 159,0 C157.576744,0 156.488372,1.09571429 156.488372,2.52857143 C156.488372,2.69714286 156.572093,2.86571429 156.572093,3.03428571 L127.688372,14.6657143 C127.186047,13.9914286 126.432558,13.4857143 125.511628,13.4857143 C124.088372,13.4857143 123,14.5814286 123,16.0142857 C123,17.4471429 124.088372,18.5428571 125.511628,18.5428571 C126.181395,18.5428571 126.851163,18.29 127.269767,17.7842857 L143.176744,28.9942857 C143.093023,29.1628571 143.093023,29.3314286 143.093023,29.5 C143.093023,30.3428571 143.511628,31.1014286 144.181395,31.5228571 L139.660465,40.5414286 C139.409302,40.4571429 139.15814,40.4571429 138.906977,40.4571429 C137.483721,40.4571429 136.395349,41.5528571 136.395349,42.9857143 C136.395349,44.4185714 137.483721,45.5142857 138.906977,45.5142857 C139.660465,45.5142857 140.246512,45.1771429 140.748837,44.7557143 L156.739535,55.46 C156.572093,55.7128571 156.488372,56.1342857 156.488372,56.4714286 C156.488372,57.9042857 157.576744,59 159,59 C160.423256,59 161.511628,57.9042857 161.511628,56.4714286 C161.511628,56.3028571 161.427907,56.1342857 161.427907,55.9657143 L190.311628,44.3342857 C190.813953,45.0085714 191.567442,45.5142857 192.488372,45.5142857 C193.911628,45.5142857 195,44.4185714 195,42.9857143 C195,41.5528571 193.911628,40.4571429 192.488372,40.4571429 Z M177.586047,18.0371429 L172.227907,28.8257143 L166.451163,24.9485714 L177.251163,17.7 C177.334884,17.8685714 177.502326,17.9528571 177.586047,18.0371429 Z M159,5.05714286 C159.837209,5.05714286 160.674419,4.63571429 161.093023,3.96142857 L176.748837,15.0028571 C176.665116,15.34 176.581395,15.6771429 176.581395,16.0142857 C176.581395,16.3514286 176.665116,16.7728571 176.832558,17.11 L165.697674,24.5271429 L154.562791,17.0257143 C154.730233,16.7728571 154.813953,16.3514286 154.813953,16.0142857 C154.813953,15.1714286 154.395349,14.4128571 153.809302,13.9914286 L158.246512,4.97285714 C158.497674,5.05714286 158.748837,5.05714286 159,5.05714286 Z M164.944186,24.9485714 L160.84186,27.73 C160.339535,27.3085714 159.753488,26.9714286 159,26.9714286 C158.748837,26.9714286 158.497674,26.9714286 158.330233,27.14 L153.809302,18.1214286 C153.893023,18.0371429 154.060465,17.8685714 154.144186,17.7842857 L164.944186,24.9485714 Z M127.939535,15.5085714 L156.906977,3.79285714 C157.074419,4.13 157.325581,4.38285714 157.576744,4.55142857 L153.055814,13.57 C152.804651,13.4857143 152.553488,13.4857143 152.302326,13.4857143 C150.87907,13.4857143 149.790698,14.5814286 149.790698,16.0142857 C149.790698,17.4471429 150.87907,18.5428571 152.302326,18.5428571 C152.553488,18.5428571 152.804651,18.5428571 152.972093,18.3742857 L157.493023,27.3928571 C157.24186,27.6457143 156.990698,27.8985714 156.823256,28.1514286 L127.939535,16.52 C128.023256,16.3514286 128.023256,16.1828571 128.023256,16.0142857 C128.023256,15.8457143 127.939535,15.6771429 127.939535,15.5085714 Z M143.427907,28.2357143 L128.693023,17.7842857 L156.572093,28.9942857 C156.488372,29.1628571 156.488372,29.3314286 156.488372,29.5 C156.488372,30.9328571 157.576744,32.0285714 159,32.0285714 C160.423256,32.0285714 161.511628,30.9328571 161.511628,29.5 C161.511628,29.1628571 161.427907,28.8257143 161.260465,28.4885714 L165.697674,25.5385714 L171.893023,29.6685714 L165.446512,42.5642857 L152.553488,42.5642857 L147.111628,31.5228571 C147.697674,31.1014286 148.116279,30.3428571 148.116279,29.5 C148.116279,28.0671429 147.027907,26.9714286 145.604651,26.9714286 C144.683721,26.9714286 143.930233,27.4771429 143.427907,28.2357143 Z M140.413953,40.9628571 L144.851163,31.9442857 C145.102326,32.0285714 145.353488,32.0285714 145.604651,32.0285714 C145.855814,32.0285714 146.106977,32.0285714 146.35814,31.9442857 L151.632558,42.5642857 L141.418605,42.5642857 C141.334884,41.89 140.916279,41.3842857 140.413953,40.9628571 Z M157.24186,54.7014286 L141.251163,43.9971429 C141.334884,43.8285714 141.418605,43.66 141.418605,43.4071429 L141.418605,43.3228571 L152.134884,43.3228571 L157.576744,54.3642857 C157.493023,54.4485714 157.325581,54.6171429 157.24186,54.7014286 Z M159,53.9428571 C158.748837,53.9428571 158.497674,53.9428571 158.246512,54.0271429 L152.972093,43.4071429 L165.027907,43.4071429 L159.753488,54.0271429 C159.502326,53.9428571 159.251163,53.9428571 159,53.9428571 Z M161.176744,55.2071429 C161.009302,54.87 160.75814,54.6171429 160.506977,54.4485714 L165.948837,43.4071429 L189.976744,43.4071429 C189.976744,43.4071429 190.060465,43.4914286 190.060465,43.5757143 L161.176744,55.2071429 Z M189.976744,42.6485714 L166.367442,42.6485714 L172.562791,30.1742857 L190.227907,41.9742857 C190.144186,42.1428571 190.060465,42.3114286 189.976744,42.6485714 Z" id="Shape"></path>
            </g>
        </g>
    </g>
</svg>