<svg width="50px" height="80px" viewBox="0 0 50 80" xmlns="http://www.w3.org/2000/svg">
    <g id="Master" stroke="none" stroke-width="1" fill="none" fill-rule="evenodd">
        <g id="Landing-page" transform="translate(-1436.000000, -1589.000000)">
            <g id="Page-1" transform="translate(1436.000000, 1589.000000)">
                <polygon id="Fill-1" fill="#1AB9C8" points="0 80 50 80 50 0 0 0"></polygon>
                <polygon id="Fill-2" fill="#17A4B2" points="41 80 50 80 50 0 41 0"></polygon>
                <polygon id="Fill-3" fill="#FAFAFA" points="3 7 7 7 7 3 3 3"></polygon>
                <polygon id="Fill-4" fill="#FAFAFA" points="8 7 12 7 12 3 8 3"></polygon>
                <polygon id="Fill-5" fill="#FAFAFA" points="18 7 22 7 22 3 18 3"></polygon>
                <polygon id="Fill-6" fill="#FAFAFA" points="29 7 33 7 33 3 29 3"></polygon>
                <polygon id="Fill-7" fill="#FAFAFA" points="3 12 7 12 7 8 3 8"></polygon>
                <polygon id="Fill-8" fill="#FAFAFA" points="8 12 12 12 12 8 8 8"></polygon>
                <polygon id="Fill-9" fill="#FAFAFA" points="14 12 18 12 18 8 14 8"></polygon>
                <polygon id="Fill-10" fill="#FAFAFA" points="18 12 22 12 22 8 18 8"></polygon>
                <polygon id="Fill-11" fill="#FAFAFA" points="24 12 28 12 28 8 24 8"></polygon>
                <polygon id="Fill-12" fill="#FAFAFA" points="29 12 33 12 33 8 29 8"></polygon>
                <polygon id="Fill-13" fill="#FAFAFA" points="3 18 7 18 7 14 3 14"></polygon>
                <polygon id="Fill-14" fill="#FAFAFA" points="14 18 18 18 18 14 14 14"></polygon>
                <polygon id="Fill-15" fill="#FAFAFA" points="24 18 28 18 28 14 24 14"></polygon>
                <polygon id="Fill-16" fill="#FAFAFA" points="8 22 12 22 12 18 8 18"></polygon>
                <polygon id="Fill-17" fill="#FAFAFA" points="18 22 22 22 22 18 18 18"></polygon>
                <polygon id="Fill-18" fill="#FAFAFA" points="24 22 28 22 28 18 24 18"></polygon>
                <polygon id="Fill-19" fill="#FAFAFA" points="29 22 33 22 33 18 29 18"></polygon>
                <polygon id="Fill-20" fill="#FAFAFA" points="3 28 7 28 7 24 3 24"></polygon>
                <polygon id="Fill-21" fill="#FAFAFA" points="14 28 18 28 18 24 14 24"></polygon>
                <polygon id="Fill-22" fill="#FAFAFA" points="18 28 22 28 22 24 18 24"></polygon>
                <polygon id="Fill-23" fill="#FAFAFA" points="8 33 12 33 12 29 8 29"></polygon>
                <polygon id="Fill-24" fill="#FAFAFA" points="18 33 22 33 22 29 18 29"></polygon>
                <polygon id="Fill-25" fill="#FAFAFA" points="24 33 28 33 28 29 24 29"></polygon>
            </g>
        </g>
    </g>
</svg>