<svg xmlns="http://www.w3.org/2000/svg" viewBox="0 0 28.35 17.35"><defs><style>.cls-1{fill:#55dde0;}.cls-2{fill:#fff;}.cls-3{fill:#313638;}.cls-4{fill:#f8f8f8;}.cls-5{fill:#eb5160;}.cls-6{fill:#e3e66e;}.cls-7{fill:#dbe5ea;}</style></defs><g id="Layer_2" data-name="Layer 2"><g id="Place"><path class="cls-1" d="M24.06,0H12.94S4.29,1.3.23,14.14H28.35S28.43,3.25,24.06,0Z"/><path class="cls-2" d="M4.3,6C8.36.69,12.94,0,12.94,0H24.06c1.66,1.24,2.68,3.58,3.3,6Z"/><path class="cls-3" d="M19.56,14.14a3.21,3.21,0,1,0,3.21-3.22A3.21,3.21,0,0,0,19.56,14.14Z"/><path class="cls-4" d="M21.39,14.14a1.39,1.39,0,1,0,1.38-1.39A1.38,1.38,0,0,0,21.39,14.14Z"/><path class="cls-2" d="M10.54,14.14l-1-1.39h7.84s2.57-5.19,8-6.74l1.88-.53c.05.18.1.35.14.53h0s-5.11,2.19-7.11,4.51-1.82,3.62-1.82,3.62Z"/><path class="cls-3" d="M4.49,14.14A3.21,3.21,0,1,0,7.7,10.92,3.21,3.21,0,0,0,4.49,14.14Z"/><path class="cls-4" d="M6.32,14.14A1.38,1.38,0,1,0,7.7,12.75,1.38,1.38,0,0,0,6.32,14.14Z"/><ellipse class="cls-5" cx="27.22" cy="8.21" rx="0.81" ry="0.75"/><path class="cls-5" d="M27.48,9.86a.42.42,0,0,0,.84,0,.42.42,0,0,0-.84,0Z"/><rect class="cls-4" y="11.65" width="2.14" height="2.48" rx="1" ry="1" transform="translate(2.14 25.79) rotate(-180)"/><path class="cls-6" d="M2.13,9.48c.81,0,1.43.35,1.43.72s-.74.72-1.66.72a3.19,3.19,0,0,1-.45,0C1.67,10.4,1.9,9.93,2.13,9.48Z"/><path class="cls-7" d="M17.05,6H6.83c3.25-4.21,6.9-4.76,6.9-4.76h3.32Z"/><path class="cls-7" d="M17.73,1.25h5A8.59,8.59,0,0,1,25.34,6H17.73Z"/></g></g></svg>