<svg width="183px" height="62px" viewBox="0 0 183 62" xmlns="http://www.w3.org/2000/svg">
    <defs>
        <linearGradient x1="143.825988%" y1="50%" x2="0%" y2="50%" id="linearGradient-1">
            <stop stop-color="#E2F2F2" offset="0%"></stop>
            <stop stop-color="#61C0DA" offset="100%"></stop>
        </linearGradient>
    </defs>
    <g id="Master" stroke="none" stroke-width="1" fill="none" fill-rule="evenodd">
        <g id="Landing-page" transform="translate(-324.000000, -1610.000000)" fill="url(#linearGradient-1)" class="cloud-fill">
            <path d="M324.022789,1672 C324.021364,1671.83735 324,1671.68044 324,1671.51851 C324,1653.27003 338.702896,1638.47649 356.840457,1638.47649 C356.955824,1638.47649 357.069767,1638.49297 357.185846,1638.49441 C359.3942,1622.40401 373.080157,1610 389.679489,1610 C404.445766,1610 416.930338,1619.80456 421.063614,1633.29406 C424.826576,1631.78369 428.92282,1630.9289 433.222025,1630.9289 C444.788645,1630.9289 454.939526,1636.9611 460.789066,1646.05561 C464.950115,1644.13826 469.560526,1643.0413 474.435142,1643.0413 C491.194707,1643.0413 504.996743,1655.68248 507,1672 L324.022789,1672 Z" id="Fill-1-Copy-4"></path>
        </g>
    </g>
</svg>