<svg width="11px" height="20px" viewBox="0 0 11 20" xmlns="http://www.w3.org/2000/svg">
    <g id="Master" stroke="none" stroke-width="1" fill="none" fill-rule="evenodd">
        <g id="Landing-page" transform="translate(-1760.000000, -6384.000000)" fill="#373737" fill-rule="nonzero">
            <g id="footer" transform="translate(0.000000, 6353.000000)">
                <g id="Group-40" transform="translate(1665.000000, 31.000000)">
                    <g id="Social-Media" transform="translate(95.000000, 0.000000)">
                        <path d="M10.4253818,0.00416133496 L7.82695774,0 C4.90771742,0 3.02117609,1.93189975 3.02117609,4.92202699 L3.02117609,7.191411 L0.408576908,7.191411 C0.182817321,7.191411 0,7.37409361 0,7.5994299 L0,10.8875087 C0,11.112845 0.183025778,11.2953195 0.408576908,11.2953195 L3.02117609,11.2953195 L3.02117609,19.5921892 C3.02117609,19.8175255 3.20399341,20 3.42975299,20 L6.83845177,20 C7.06421136,20 7.24702868,19.8173174 7.24702868,19.5921892 L7.24702868,11.2953195 L10.3017664,11.2953195 C10.527526,11.2953195 10.7103433,11.112845 10.7103433,10.8875087 L10.7115941,7.5994299 C10.7115941,7.49123519 10.6684434,7.38761795 10.5919394,7.31104938 C10.5154355,7.23448082 10.4112067,7.191411 10.3028087,7.191411 L7.24702868,7.191411 L7.24702868,5.26762585 C7.24702868,4.34297723 7.46778528,3.87357864 8.67454636,3.87357864 L10.4249649,3.87295444 C10.650516,3.87295444 10.8333333,3.69027184 10.8333333,3.46514362 L10.8333333,0.411972161 C10.8333333,0.187052006 10.6507245,0.00457746845 10.4253818,0.00416133496 Z" id="Shape"></path>
                    </g>
                </g>
            </g>
        </g>
    </g>
</svg>