<svg width="63px" height="56px" viewBox="0 0 63 56" version="1.1" xmlns="http://www.w3.org/2000/svg" xmlns:xlink="http://www.w3.org/1999/xlink">
    <defs></defs>
    <g id="Master" stroke="none" stroke-width="1" fill="none" fill-rule="evenodd">
        <g id="Landing-page" transform="translate(-930.000000, -1314.000000)" fill="#160F29" fill-rule="nonzero">
            <g id="Group-4" transform="translate(799.000000, 1314.000000)">
                <path d="M192.342105,26.3529412 C191.596053,26.3529412 190.932895,26.8470588 190.767105,27.5882353 L169.131579,27.5882353 C169.048684,27.1764706 168.965789,26.8470588 168.8,26.5176471 L184.632895,16.0588235 C184.881579,16.3058824 185.296053,16.4705882 185.710526,16.4705882 C186.622368,16.4705882 187.368421,15.7294118 187.368421,14.8235294 C187.368421,13.9176471 186.622368,13.1764706 185.710526,13.1764706 C184.798684,13.1764706 184.052632,13.9176471 184.052632,14.8235294 C184.052632,14.9882353 184.052632,15.2352941 184.135526,15.4 L168.302632,25.8588235 C167.805263,25.2 167.059211,24.7882353 166.230263,24.7058824 L166.230263,3.21176471 C166.976316,3.04705882 167.473684,2.38823529 167.473684,1.64705882 C167.473684,0.741176471 166.727632,0 165.815789,0 C164.903947,0 164.157895,0.741176471 164.157895,1.64705882 C164.157895,2.38823529 164.655263,3.04705882 165.401316,3.21176471 L165.401316,24.7058824 C165.152632,24.7058824 164.986842,24.7882353 164.738158,24.8705882 L160.261842,16.0588235 C160.593421,15.7294118 160.842105,15.3176471 160.842105,14.8235294 C160.842105,13.9176471 160.096053,13.1764706 159.184211,13.1764706 C158.272368,13.1764706 157.526316,13.9176471 157.526316,14.8235294 C157.526316,15.7294118 158.272368,16.4705882 159.184211,16.4705882 C159.267105,16.4705882 159.432895,16.4705882 159.515789,16.4705882 L163.992105,25.2823529 C163.494737,25.6117647 163.163158,25.9411765 162.914474,26.4352941 L134.315789,15.0705882 C134.315789,14.9882353 134.315789,14.9058824 134.315789,14.8235294 C134.315789,13.9176471 133.569737,13.1764706 132.657895,13.1764706 C131.746053,13.1764706 131,13.9176471 131,14.8235294 C131,15.7294118 131.746053,16.4705882 132.657895,16.4705882 C133.155263,16.4705882 133.652632,16.2235294 133.984211,15.8117647 L162.582895,27.1764706 C162.5,27.4235294 162.5,27.7529412 162.5,28 C162.5,28.7411765 162.748684,29.4823529 163.163158,30.0588235 L140.118421,52.9529412 C139.869737,52.7882353 139.621053,52.7058824 139.289474,52.7058824 C138.377632,52.7058824 137.631579,53.4470588 137.631579,54.3529412 C137.631579,55.2588235 138.377632,56 139.289474,56 C140.201316,56 140.947368,55.2588235 140.947368,54.3529412 C140.947368,54.0235294 140.864474,53.7764706 140.698684,53.5294118 L163.826316,30.5529412 C163.826316,30.6352941 163.909211,30.6352941 163.992105,30.7176471 L159.515789,39.5294118 C159.432895,39.5294118 159.267105,39.5294118 159.184211,39.5294118 C158.272368,39.5294118 157.526316,40.2705882 157.526316,41.1764706 C157.526316,42.0823529 158.272368,42.8235294 159.184211,42.8235294 C160.096053,42.8235294 160.842105,42.0823529 160.842105,41.1764706 C160.842105,40.6823529 160.593421,40.2705882 160.261842,39.9411765 L164.738158,31.1294118 C165.069737,31.2117647 165.401316,31.2941176 165.815789,31.2941176 C166.230263,31.2941176 166.561842,31.2117647 166.893421,31.1294118 L178.001316,53.1176471 C177.669737,53.4470588 177.421053,53.8588235 177.421053,54.3529412 C177.421053,55.2588235 178.167105,56 179.078947,56 C179.990789,56 180.736842,55.2588235 180.736842,54.3529412 C180.736842,53.4470588 179.990789,52.7058824 179.078947,52.7058824 C178.996053,52.7058824 178.830263,52.7058824 178.747368,52.7058824 L167.722368,30.7176471 C168.468421,30.2235294 169.048684,29.4 169.131579,28.4117647 L190.767105,28.4117647 C190.932895,29.1529412 191.596053,29.6470588 192.342105,29.6470588 C193.253947,29.6470588 194,28.9058824 194,28 C194,27.0941176 193.253947,26.3529412 192.342105,26.3529412 Z" id="Shape"></path>
            </g>
        </g>
    </g>
</svg>