<svg viewBox="0 0 16 17" xmlns="http://www.w3.org/2000/svg">
  <g fill-rule="nonzero" fill="none">
    <path d="M6.4 7.7H.8c-.4418278 0-.8-.3581722-.8-.8V1.3C0 .8581722.3581722.5.8.5h5.6c.4418278 0 .8.3581722.8.8v5.6c0 .4418278-.3581722.8-.8.8zM1.6 6.1h4v-4h-4v4z" fill="#3C4858"/>
    <path d="M15.2 7.7H9.6c-.4418278 0-.8-.3581722-.8-.8V1.3c0-.4418278.3581722-.8.8-.8h5.6c.4418278 0 .8.3581722.8.8v5.6c0 .4418278-.3581722.8-.8.8z" fill="#85B7D9"/>
    <path d="M15.2 16.5H9.6c-.4418278 0-.8-.3581722-.8-.8v-5.6c0-.4418278.3581722-.8.8-.8h5.6c.4418278 0 .8.3581722.8.8v5.6c0 .4418278-.3581722.8-.8.8zm-4.8-1.6h4v-4h-4v4z" fill="#3C4858"/>
    <path d="M1.2000002 16.50000019v-1.13831551c0-.99411255.8058874-1.8 1.8-1.8h2.12l-.744.8c-.143041.23628027-.1062985.53968587.0890078.73499215.1953063.19530629.4987119.23204883.7349922.08900785l1.82399996-1.8c.23396271-.23425404.23396271-.61374597 0-.848l-1.82399996-1.8c-.2404456-.13670881-.5431894-.09133565-.7329928.1098559-.1898033.20119157-.217479.50606304-.0670072.7381441l.744.8h-2.12c-.7956571-.00639072-1.5612621.30356701-2.1283777.86168075C.3285069 13.80547916.00634 14.5660272 2e-7 15.36168468v1.13831551h1.2z" fill="#85B7D9"/>
  </g>
</svg>
