<svg width="20px" height="20px" viewBox="0 0 20 20" xmlns="http://www.w3.org/2000/svg">
    <g id="Master" stroke="none" stroke-width="1" fill="none" fill-rule="evenodd">
        <g id="Landing-page" transform="translate(-1828.000000, -6384.000000)" fill="#373737" fill-rule="nonzero">
            <g id="footer" transform="translate(0.000000, 6353.000000)">
                <g id="Group-40" transform="translate(1665.000000, 31.000000)">
                    <g id="Social-Media" transform="translate(95.000000, 0.000000)">
                        <path d="M88,12.2619841 L88,20 L83.7133524,20 L83.7133524,12.7802298 C83.7133524,10.9665646 83.0933351,9.72880911 81.5417107,9.72880911 C80.3572423,9.72880911 79.6523644,10.5629656 79.3422627,11.3698717 C79.2291772,11.6583374 79.2000688,12.059844 79.2000688,12.4636376 L79.2000688,20 L74.9119798,20 C74.9119798,20 74.9697315,7.77207897 74.9119798,6.50517516 L79.1996503,6.50517516 L79.1996503,8.41801256 C79.190955,8.43231906 79.1796558,8.44774478 79.1714719,8.46161333 L79.1996503,8.46161333 L79.1996503,8.41801256 C79.7693093,7.49981752 80.7866604,6.18814507 83.0638082,6.18814507 C85.8850406,6.18809641 88,8.11689481 88,12.2619841 Z M70.4264561,0 C68.9595064,0 68,1.00695374 68,2.33113221 C68,3.62645437 68.9317465,4.66396757 70.3695413,4.66396757 L70.3981847,4.66396757 C71.8935452,4.66396757 72.8235248,3.62664902 72.8235248,2.33113221 C72.7953464,1.00695374 71.8935452,0 70.4264561,0 Z M68.2546749,20 L72.5411365,20 L72.5411365,6.50517516 L68.2546749,6.50517516 L68.2546749,20 Z" id="LinkedIn"></path>
                    </g>
                </g>
            </g>
        </g>
    </g>
</svg>