<svg version="1.1" id="Layer_1" xmlns="http://www.w3.org/2000/svg" xmlns:xlink="http://www.w3.org/1999/xlink" x="0px" y="0px"
	 viewBox="0 0 34.7 24" style="enable-background:new 0 0 34.7 24;" xml:space="preserve">
<style type="text/css">
	.st0{fill:#0E0E0E;}
</style>
<desc>Created with Sketch.</desc>
<g>
	<polygon class="st0" points="24.6,0 34.1,0 31.4,3 21.9,3 	"/>
	<polygon class="st0" points="14,0 23.4,0 20.7,3 11.2,3 	"/>
	<polygon class="st0" points="32,3.7 34.7,0.7 34.7,9.4 32,12.7 	"/>
	<polygon class="st0" points="21.3,3.9 31.1,3.9 31.1,13.5 24.4,13.5 21.3,13.5 	"/>
	<rect x="10.7" y="3.9" class="st0" width="9.8" height="9.6"/>
	<polygon class="st0" points="3.3,10.5 9.8,10.5 9.8,13.5 0.6,13.5 	"/>
	<polygon class="st0" points="21.3,14.4 24,14.4 24,19.9 21.3,23.2 	"/>
	<rect x="10.7" y="14.4" class="st0" width="9.8" height="9.6"/>
	<rect y="14.4" class="st0" width="9.8" height="9.6"/>
</g>
</svg>
