<?xml version="1.0" encoding="UTF-8"?>
<svg width="101px" height="40px" viewBox="0 0 101 40" version="1.1" xmlns="http://www.w3.org/2000/svg" xmlns:xlink="http://www.w3.org/1999/xlink">
    <!-- Generator: Sketch 49.3 (51167) - http://www.bohemiancoding.com/sketch -->
    <defs>
        <linearGradient x1="0%" y1="50%" x2="148.074248%" y2="50%" id="linearGradient-1">
            <stop stop-color="#17EAD9" offset="0%"></stop>
            <stop stop-color="#6078EA" offset="100%"></stop>
        </linearGradient>
        <path d="M22.7586207,0 C22.5634483,0 22.377931,0.0820689655 22.2468966,0.226896552 L16.7303448,6.32482759 C16.7055172,6.35103448 16.6965517,6.38413793 16.6772414,6.41310345 C16.6496552,6.45448276 16.6193103,6.49310345 16.6013793,6.54068966 C16.582069,6.58965517 16.5786207,6.64 16.5710345,6.69034483 C16.5662069,6.72344828 16.5517241,6.75310345 16.5517241,6.78758621 L16.5517241,16.2613793 L6.20689655,16.2613793 C6.01172414,16.2613793 5.8262069,16.3434483 5.69517241,16.4882759 L0.177931034,22.5862069 C0.153793103,22.6124138 0.144827586,22.6455172 0.126206897,22.6744828 C0.0979310345,22.7158621 0.0675862069,22.7544828 0.0496551724,22.802069 C0.0310344828,22.8510345 0.0268965517,22.9013793 0.0193103448,22.9524138 C0.0151724138,22.9848276 0,23.0151724 0,23.0489655 L0,39.3103448 C0,39.6910345 0.308275862,40 0.689655172,40 L17.2413793,40 L33.7931034,40 C33.8937931,40 33.9875862,39.9758621 34.0737931,39.9372414 C34.097931,39.9268966 34.1165517,39.9068966 34.1386207,39.8937931 C34.1993103,39.857931 34.2558621,39.8172414 34.3027586,39.7655172 C34.3096552,39.7572414 34.3213793,39.7544828 34.3275862,39.7455172 L39.8448276,32.9703448 C39.9448276,32.8468966 40,32.6931034 40,32.5351724 L40,23.7386207 L50.3448276,23.7386207 C50.4462069,23.7386207 50.54,23.7144828 50.6268966,23.6758621 C50.6503448,23.6655172 50.6682759,23.6455172 50.6903448,23.6324138 C50.7510345,23.5965517 50.8068966,23.5558621 50.8544828,23.5041379 C50.862069,23.4958621 50.8731034,23.4924138 50.88,23.4841379 L56.3965517,16.7082759 C56.4972414,16.5855172 56.5517241,16.4317241 56.5517241,16.2737931 L56.5517241,0.689655172 C56.5517241,0.604137931 56.5324138,0.524137931 56.5027586,0.447586207 C56.4937931,0.424137931 56.4813793,0.403448276 56.4710345,0.38137931 C56.4441379,0.329655172 56.4124138,0.282758621 56.3751724,0.24 C56.3586207,0.22 56.3427586,0.202068966 56.3234483,0.184827586 C56.2765517,0.142068966 56.2248276,0.106896552 56.1662069,0.0779310345 C56.1503448,0.0703448276 56.137931,0.0593103448 56.1206897,0.0524137931 C56.1165517,0.0503448276 56.1137931,0.0482758621 56.1096552,0.0462068966 C56.0351724,0.0172413793 55.957931,0.00551724138 55.88,0.00413793103 C55.8737931,0.00344827586 55.8689655,0 55.862069,0 L22.7586207,0 Z M39.6165517,1.37931034 L54.3075862,1.37931034 L50.0386207,6.09793103 L35.3468966,6.09793103 L39.6165517,1.37931034 Z M23.0648276,1.37931034 L37.7558621,1.37931034 L33.4868966,6.09793103 L18.7951724,6.09793103 L23.0648276,1.37931034 Z M51.0344828,7.05310345 L55.1724138,2.48 L55.1724138,16.0282759 L51.0344828,21.1096552 L51.0344828,7.05310345 Z M34.482069,7.47724138 L49.6551724,7.47724138 L49.6551724,22.3593103 L39.3103448,22.3593103 L34.482069,22.3593103 L34.482069,7.47724138 Z M17.9310345,22.3593103 L33.1034483,22.3593103 L33.1034483,7.47724138 L17.9310345,7.47724138 L17.9310345,22.3593103 Z M6.51310345,17.64 L16.5517241,17.64 L16.5517241,22.3593103 L2.24344828,22.3593103 L6.51310345,17.64 Z M34.482069,23.7386207 L38.6206897,23.7386207 L38.6206897,32.2896552 L34.482069,37.3710345 L34.482069,23.7386207 Z M17.9310345,38.6206897 L33.1034483,38.6206897 L33.1034483,23.7386207 L17.9310345,23.7386207 L17.9310345,38.6206897 Z M1.37931034,38.6206897 L16.5524138,38.6206897 L16.5524138,23.7386207 L1.37931034,23.7386207 L1.37931034,38.6206897 Z" id="path-2"></path>
    </defs>
    <g id="Master" stroke="none" stroke-width="1" fill="none" fill-rule="evenodd">
        <g id="Landing-page" transform="translate(-72.000000, -6373.000000)">
            <g id="footer" transform="translate(0.000000, 6353.000000)">
                <g id="Logo" transform="translate(72.000000, 20.000000)">
                    <g id="Shape">
                        <mask id="mask-3" fill="white">
                            <use xlink:href="#path-2"></use>
                        </mask>
                        <use id="Logo" fill="url(#linearGradient-1)" xlink:href="#path-2"></use>
                    </g>
                    <g id="Text" class="hide-logo-text" transform="translate(66.206897, 11.034483)">
                        <path d="M16.734,15.7181379 C14.4808966,15.7181379 12.6071034,14.0546897 12.5650345,11.654 C12.5650345,9.14917241 14.4602069,7.40089655 16.734,7.40089655 C19.0077931,7.40089655 20.8402069,9.16986207 20.8402069,11.5491724 C20.8402069,13.9071034 19.0077931,15.7181379 16.734,15.7181379 M16.734,6.43262069 C14.9864138,6.43262069 13.3650345,7.29606897 12.5650345,8.74848276 L12.5436552,8.80503448 L12.5436552,0.818827586 C12.5436552,0.556758621 12.331931,0.344344828 12.0698621,0.344344828 C11.8084828,0.344344828 11.596069,0.556758621 11.596069,0.818827586 L11.596069,16.7105517 C11.596069,16.9726207 11.8084828,17.1843448 12.0698621,17.1843448 C12.331931,17.1843448 12.5436552,16.9726207 12.5436552,16.7105517 L12.5436552,14.3084828 L12.5650345,14.3491724 C13.3650345,15.7815862 14.9864138,16.6871034 16.734,16.6871034 C19.5346897,16.6871034 21.8084828,14.4967586 21.8084828,11.5491724 C21.8084828,8.60158621 19.5346897,6.43262069 16.734,6.43262069" id="Fill-1" fill="#313638"></path>
                        <path d="M16.734,15.7181379 C14.4808966,15.7181379 12.6071034,14.0546897 12.5650345,11.654 C12.5650345,9.14917241 14.4602069,7.40089655 16.734,7.40089655 C19.0077931,7.40089655 20.8402069,9.16986207 20.8402069,11.5491724 C20.8402069,13.9071034 19.0077931,15.7181379 16.734,15.7181379 Z M16.734,6.43262069 C14.9864138,6.43262069 13.3650345,7.29606897 12.5650345,8.74848276 L12.5436552,8.80503448 L12.5436552,0.818827586 C12.5436552,0.556758621 12.331931,0.344344828 12.0698621,0.344344828 C11.8084828,0.344344828 11.596069,0.556758621 11.596069,0.818827586 L11.596069,16.7105517 C11.596069,16.9726207 11.8084828,17.1843448 12.0698621,17.1843448 C12.331931,17.1843448 12.5436552,16.9726207 12.5436552,16.7105517 L12.5436552,14.3084828 L12.5650345,14.3491724 C13.3650345,15.7815862 14.9864138,16.6871034 16.734,16.6871034 C19.5346897,16.6871034 21.8084828,14.4967586 21.8084828,11.5491724 C21.8084828,8.60158621 19.5346897,6.43262069 16.734,6.43262069 Z" id="Stroke-3" stroke="#313638"></path>
                        <path d="M25.1122759,2.22103448 C24.6495172,2.22103448 24.2702069,2.55827586 24.2702069,3.00034483 C24.2702069,3.44241379 24.6495172,3.77965517 25.1122759,3.77965517 C25.5757241,3.77965517 25.9336552,3.44241379 25.9336552,3.00034483 C25.9336552,2.55827586 25.5757241,2.22103448 25.1122759,2.22103448" id="Fill-5" fill="#313638"></path>
                        <path d="M25.1122759,2.22103448 C24.6495172,2.22103448 24.2702069,2.55827586 24.2702069,3.00034483 C24.2702069,3.44241379 24.6495172,3.77965517 25.1122759,3.77965517 C25.5757241,3.77965517 25.9336552,3.44241379 25.9336552,3.00034483 C25.9336552,2.55827586 25.5757241,2.22103448 25.1122759,2.22103448 Z" id="Stroke-7" stroke="#313638"></path>
                        <path d="M8.79055172,6.78027586 C8.54986207,6.6782069 8.27193103,6.79062069 8.16917241,7.03131034 L4.69675862,15.049931 L1.25468966,7.03131034 C1.15262069,6.79062069 0.874689655,6.6782069 0.633310345,6.78027586 C0.39262069,6.88234483 0.280206897,7.16096552 0.382965517,7.40165517 L4.17882759,16.2457931 L2.30365517,20.5761379 C2.20158621,20.8168276 2.314,21.0947586 2.55468966,21.1975172 C2.79537931,21.2995862 3.07331034,21.1871724 3.17606897,20.9464828 L9.04158621,7.40165517 C9.14365517,7.16096552 9.03193103,6.88234483 8.79055172,6.78027586" id="Fill-9" fill="#313638"></path>
                        <path d="M8.79055172,6.78027586 C8.54986207,6.6782069 8.27193103,6.79062069 8.16917241,7.03131034 L4.69675862,15.049931 L1.25468966,7.03131034 C1.15262069,6.79062069 0.874689655,6.6782069 0.633310345,6.78027586 C0.39262069,6.88234483 0.280206897,7.16096552 0.382965517,7.40165517 L4.17882759,16.2457931 L2.30365517,20.5761379 C2.20158621,20.8168276 2.314,21.0947586 2.55468966,21.1975172 C2.79537931,21.2995862 3.07331034,21.1871724 3.17606897,20.9464828 L9.04158621,7.40165517 C9.14365517,7.16096552 9.03193103,6.88234483 8.79055172,6.78027586 Z" id="Stroke-11" stroke="#313638"></path>
                        <path d="M25.1021379,6.40682759 C24.840069,6.40682759 24.6283448,6.61924138 24.6283448,6.88062069 L24.6283448,16.7109655 C24.6283448,16.9723448 24.840069,17.1847586 25.1021379,17.1847586 C25.3635172,17.1847586 25.575931,16.9723448 25.575931,16.7109655 L25.575931,6.88062069 C25.575931,6.61924138 25.3635172,6.40682759 25.1021379,6.40682759" id="Fill-13" fill="#313638"></path>
                        <path d="M25.1021379,6.40682759 C24.840069,6.40682759 24.6283448,6.61924138 24.6283448,6.88062069 L24.6283448,16.7109655 C24.6283448,16.9723448 24.840069,17.1847586 25.1021379,17.1847586 C25.3635172,17.1847586 25.575931,16.9723448 25.575931,16.7109655 L25.575931,6.88062069 C25.575931,6.61924138 25.3635172,6.40682759 25.1021379,6.40682759 Z" id="Stroke-15" stroke="#313638"></path>
                        <path d="M33.1894483,6.59841379 L30.6701379,6.59841379 L30.6701379,2.69496552 C30.6701379,2.43289655 30.4584138,2.22117241 30.1963448,2.22117241 C29.9349655,2.22117241 29.7225517,2.43289655 29.7225517,2.69496552 L29.7225517,6.59841379 L28.0722069,6.59841379 C27.8101379,6.59841379 27.5984138,6.81082759 27.5984138,7.0722069 C27.5984138,7.33358621 27.8101379,7.546 28.0722069,7.546 L29.7225517,7.546 L29.7225517,16.7108276 C29.7225517,16.9722069 29.9349655,17.1846207 30.1963448,17.1846207 C30.4584138,17.1846207 30.6701379,16.9722069 30.6701379,16.7108276 L30.6701379,7.546 L33.1894483,7.546 C33.4508276,7.546 33.6632414,7.33358621 33.6632414,7.0722069 C33.6632414,6.81082759 33.4508276,6.59841379 33.1894483,6.59841379" id="Fill-17" fill="#313638"></path>
                        <path d="M33.1894483,6.59841379 L30.6701379,6.59841379 L30.6701379,2.69496552 C30.6701379,2.43289655 30.4584138,2.22117241 30.1963448,2.22117241 C29.9349655,2.22117241 29.7225517,2.43289655 29.7225517,2.69496552 L29.7225517,6.59841379 L28.0722069,6.59841379 C27.8101379,6.59841379 27.5984138,6.81082759 27.5984138,7.0722069 C27.5984138,7.33358621 27.8101379,7.546 28.0722069,7.546 L29.7225517,7.546 L29.7225517,16.7108276 C29.7225517,16.9722069 29.9349655,17.1846207 30.1963448,17.1846207 C30.4584138,17.1846207 30.6701379,16.9722069 30.6701379,16.7108276 L30.6701379,7.546 L33.1894483,7.546 C33.4508276,7.546 33.6632414,7.33358621 33.6632414,7.0722069 C33.6632414,6.81082759 33.4508276,6.59841379 33.1894483,6.59841379 Z" id="Stroke-19" stroke="#313638"></path>
                    </g>
                </g>
            </g>
        </g>
    </g>
</svg>