<svg xmlns="http://www.w3.org/2000/svg" x="0px" y="0px"
	 viewBox="0 0 76.4 132" style="enable-background:new 0 0 76.4 132;" xml:space="preserve">
<style type="text/css">
	.open-app-0{fill:#373737;}
	.open-app-1{fill:#FFFFFF;}
	.open-app-2{opacity:0.4;filter:url(#AI_GaussianBlur_4);}
	.open-app-3{fill:#231F20;}
	.open-app-4{fill:#15489F;}
	.open-app-5{fill:#007DFF;}
	.open-app-6{fill:#144886;}
	.open-app-7{fill:#1C368E;}
	.open-app-8{fill:#1E2D46;}
	.open-app-9{fill:#00AED9;}
	.open-app-10{fill:#085CBB;}
	.open-app-11{fill:#754C24;}
	.open-app-12{fill:none;stroke:#39B54A;stroke-width:2;stroke-linecap:round;}
</style>
<filter  id="AI_GaussianBlur_4">
	<feGaussianBlur  stdDeviation="4"></feGaussianBlur>
</filter>
<path id="Combined-Shape" class="open-app-0" d="M68.6,13.9H7.8v104.2h60.8V13.9z M72,0c0.2,0,0.3,0,0.5,0c2.2,0,3.9,1.7,3.9,3.9v124.2
	c0,2.2-1.7,3.9-3.9,3.9c-0.2,0-0.3,0-0.5,0s-0.4,0-0.6,0H5c-0.2,0-0.4,0-0.6,0s-0.3,0-0.5,0c-2.2,0-3.9-1.7-3.9-3.9V3.9
	C0,1.7,1.7,0,3.9,0c0.2,0,0.3,0,0.5,0S4.8,0,5,0h66.4C71.6,0,71.8,0,72,0z"/>
<rect id="Screen" x="7" y="14" class="open-app-1" width="62.5" height="104.2"/>
<g id="path-1_2_" class="open-app-2">
	<path class="open-app-3" d="M24.9,49.8h26.5c1.6,0,2.8,1.2,2.8,2.8v26.7c0,1.6-1.2,2.8-2.8,2.8H24.9c-1.6,0-2.8-1.2-2.8-2.8V52.6
		C22.1,51.1,23.4,49.8,24.9,49.8z"/>
</g>
<path id="path-1_1_" class="open-app-1" d="M23.8,48.6h28.7c1.7,0,3,1.3,3,3v28.7c0,1.7-1.3,3-3,3H23.8c-1.7,0-3-1.3-3-3V51.6
	C20.8,50,22.2,48.6,23.8,48.6z"/>
<path id="Fill-1" class="open-app-4" d="M45.6,65c0-0.1,0-0.3,0-0.4c0-0.9-0.1-1.9-0.2-2.8c-0.4-2.5-1.7-3.8-4.2-4.3
	c-2.8-0.5-5.5-0.1-8.2,0.6c-0.6,0.2-0.8,0.6-0.7,1.1c0.1,0.7,0.3,1.4,0.4,2.2c0.1,0.8,0.5,0.9,1.3,0.8c1.4-0.3,2.9-0.5,4.3-0.6
	c1.9-0.1,2.8,0.9,2.5,2.6c-1.8,0-3.5-0.2-5.3,0c-0.9,0.1-1.7,0.4-2.4,0.8h0.5H45.6z"/>
<polygon id="Fill-3" class="open-app-5" points="32,67.6 32.7,67.6 32.7,66.9 32,66.9 "/>
<polygon id="Fill-5" class="open-app-5" points="42.1,67.6 42.8,67.6 42.8,66.9 42.1,66.9 "/>
<polygon id="Fill-6" class="open-app-5" points="43.5,69 44.2,69 44.2,68.3 43.5,68.3 "/>
<polygon id="Fill-7" class="open-app-5" points="44.9,72.6 45.6,72.6 45.6,71.9 44.9,71.9 "/>
<polygon id="Fill-8" class="open-app-5" points="42.8,70.4 43.5,70.4 43.5,69.7 42.8,69.7 "/>
<polygon id="Fill-9" class="open-app-5" points="44.2,71.2 44.9,71.2 44.9,70.4 44.2,70.4 "/>
<polygon id="Fill-10" class="open-app-5" points="33.4,68.3 34.2,68.3 34.2,67.6 33.4,67.6 "/>
<polygon id="Fill-11" class="open-app-5" points="33.4,71.2 34.2,71.2 34.2,70.4 33.4,70.4 "/>
<polygon id="Fill-12" class="open-app-5" points="34.9,70.4 35.6,70.4 35.6,69.7 34.9,69.7 "/>
<polygon id="Fill-13" class="open-app-5" points="35.6,73.3 36.3,73.3 36.3,72.6 35.6,72.6 "/>
<polygon id="Fill-14" class="open-app-5" points="36.3,71.2 37,71.2 37,70.4 36.3,70.4 "/>
<polygon id="Fill-15" class="open-app-5" points="37.8,73.3 38.5,73.3 38.5,72.6 37.8,72.6 "/>
<polygon id="Fill-16" class="open-app-6" points="30.6,66.9 31.3,66.9 31.3,66.1 30.6,66.1 "/>
<polygon id="Fill-17" class="open-app-6" points="30.6,71.2 31.3,71.2 31.3,70.4 30.6,70.4 "/>
<polygon id="Fill-18" class="open-app-6" points="32,70.4 32.7,70.4 32.7,69.7 32,69.7 "/>
<polygon id="Fill-19" class="open-app-6" points="42.1,69.7 42.8,69.7 42.8,69 42.1,69 "/>
<polygon id="Fill-20" class="open-app-6" points="42.1,69 42.8,69 42.8,68.3 42.1,68.3 "/>
<polygon id="Fill-21" class="open-app-6" points="42.8,68.3 43.5,68.3 43.5,67.6 42.8,67.6 "/>
<polygon id="Fill-22" class="open-app-6" points="43.5,69.7 44.2,69.7 44.2,69 43.5,69 "/>
<polygon id="Fill-23" class="open-app-6" points="43.5,66.9 44.2,66.9 44.2,66.1 43.5,66.1 "/>
<polygon id="Fill-24" class="open-app-6" points="44.9,70.4 45.6,70.4 45.6,69.7 44.9,69.7 "/>
<polygon id="Fill-25" class="open-app-6" points="41.3,66.9 42.1,66.9 42.1,66.1 41.3,66.1 "/>
<polygon id="Fill-26" class="open-app-6" points="35.6,66.9 36.3,66.9 36.3,66.1 35.6,66.1 "/>
<polygon id="Fill-27" class="open-app-6" points="43.5,74.7 44.2,74.7 44.2,74 43.5,74 "/>
<polygon id="Fill-28" class="open-app-6" points="32.7,69 33.4,69 33.4,68.3 32.7,68.3 "/>
<polygon id="Fill-29" class="open-app-6" points="33.4,74 34.2,74 34.2,73.3 33.4,73.3 "/>
<polygon id="Fill-30" class="open-app-6" points="33.4,66.9 34.2,66.9 34.2,66.1 33.4,66.1 "/>
<polygon id="Fill-31" class="open-app-6" points="33.4,67.6 34.2,67.6 34.2,66.9 33.4,66.9 "/>
<polygon id="Fill-32" class="open-app-6" points="35.6,71.2 36.3,71.2 36.3,70.4 35.6,70.4 "/>
<polygon id="Fill-33" class="open-app-6" points="39.2,71.2 39.9,71.2 39.9,70.4 39.2,70.4 "/>
<polygon id="Fill-34" class="open-app-7" points="30.6,68.3 31.3,68.3 31.3,67.6 30.6,67.6 "/>
<polygon id="Fill-35" class="open-app-7" points="31.3,67.6 32,67.6 32,66.9 31.3,66.9 "/>
<polygon id="Fill-36" class="open-app-7" points="31.3,71.2 32,71.2 32,70.4 31.3,70.4 "/>
<polygon id="Fill-37" class="open-app-7" points="31.3,66.9 32,66.9 32,66.1 31.3,66.1 "/>
<polygon id="Fill-38" class="open-app-7" points="31.3,69 32,69 32,68.3 31.3,68.3 "/>
<polygon id="Fill-39" class="open-app-7" points="31.3,71.9 32,71.9 32,71.2 31.3,71.2 "/>
<polygon id="Fill-40" class="open-app-7" points="40.6,69 41.3,69 41.3,68.3 40.6,68.3 "/>
<polygon id="Fill-41" class="open-app-7" points="40.6,71.2 41.3,71.2 41.3,70.4 40.6,70.4 "/>
<polygon id="Fill-42" class="open-app-7" points="40.6,72.6 41.3,72.6 41.3,71.9 40.6,71.9 "/>
<polygon id="Fill-43" class="open-app-7" points="42.1,71.2 42.8,71.2 42.8,70.4 42.1,70.4 "/>
<polygon id="Fill-44" class="open-app-7" points="41.3,68.3 42.1,68.3 42.1,67.6 41.3,67.6 "/>
<polygon id="Fill-45" class="open-app-7" points="43.5,66.1 44.2,66.1 44.2,65.4 43.5,65.4 "/>
<polygon id="Fill-46" class="open-app-7" points="44.2,68.3 44.9,68.3 44.9,67.6 44.2,67.6 "/>
<polygon id="Fill-47" class="open-app-7" points="44.9,66.1 45.6,66.1 45.6,65.4 44.9,65.4 "/>
<polygon id="Fill-48" class="open-app-7" points="44.9,67.6 45.6,67.6 45.6,66.9 44.9,66.9 "/>
<polygon id="Fill-49" class="open-app-7" points="44.9,71.9 45.6,71.9 45.6,71.2 44.9,71.2 "/>
<polygon id="Fill-50" class="open-app-7" points="41.3,66.1 42.1,66.1 42.1,65.4 41.3,65.4 "/>
<polygon id="Fill-51" class="open-app-7" points="38.5,66.1 39.2,66.1 39.2,65.4 38.5,65.4 "/>
<polygon id="Fill-52" class="open-app-7" points="35.6,66.1 36.3,66.1 36.3,65.4 35.6,65.4 "/>
<polygon id="Fill-53" class="open-app-7" points="40.6,66.9 41.3,66.9 41.3,66.1 40.6,66.1 "/>
<polygon id="Fill-54" class="open-app-7" points="42.8,69.7 43.5,69.7 43.5,69 42.8,69 "/>
<polygon id="Fill-55" class="open-app-7" points="42.8,67.6 43.5,67.6 43.5,66.9 42.8,66.9 "/>
<polygon id="Fill-56" class="open-app-7" points="42.1,73.3 42.8,73.3 42.8,72.6 42.1,72.6 "/>
<polygon id="Fill-57" class="open-app-7" points="44.2,74 44.9,74 44.9,73.3 44.2,73.3 "/>
<polygon id="Fill-58" class="open-app-7" points="32.7,68.3 33.4,68.3 33.4,67.6 32.7,67.6 "/>
<polygon id="Fill-59" class="open-app-7" points="32.7,70.4 33.4,70.4 33.4,69.7 32.7,69.7 "/>
<polygon id="Fill-60" class="open-app-7" points="32.7,66.1 33.4,66.1 33.4,65.4 32.7,65.4 "/>
<polygon id="Fill-61" class="open-app-7" points="33.4,69 34.2,69 34.2,68.3 33.4,68.3 "/>
<polygon id="Fill-62" class="open-app-7" points="33.4,73.3 34.2,73.3 34.2,72.6 33.4,72.6 "/>
<polygon id="Fill-63" class="open-app-7" points="34.2,71.2 34.9,71.2 34.9,70.4 34.2,70.4 "/>
<polygon id="Fill-64" class="open-app-7" points="34.2,66.9 34.9,66.9 34.9,66.1 34.2,66.1 "/>
<polygon id="Fill-65" class="open-app-7" points="34.9,69 35.6,69 35.6,68.3 34.9,68.3 "/>
<polygon id="Fill-66" class="open-app-7" points="34.9,72.6 35.6,72.6 35.6,71.9 34.9,71.9 "/>
<polygon id="Fill-67" class="open-app-7" points="34.9,69.7 35.6,69.7 35.6,69 34.9,69 "/>
<polygon id="Fill-68" class="open-app-7" points="35.6,74.7 36.3,74.7 36.3,74 35.6,74 "/>
<polygon id="Fill-69" class="open-app-7" points="35.6,70.4 36.3,70.4 36.3,69.7 35.6,69.7 "/>
<polygon id="Fill-70" class="open-app-7" points="37,71.2 37.8,71.2 37.8,70.4 37,70.4 "/>
<polygon id="Fill-71" class="open-app-7" points="37.8,72.6 38.5,72.6 38.5,71.9 37.8,71.9 "/>
<polygon id="Fill-72" class="open-app-7" points="39.2,71.9 39.9,71.9 39.9,71.2 39.2,71.2 "/>
<polygon id="Fill-73" class="open-app-8" points="31.3,66.1 32,66.1 32,65.4 31.3,65.4 "/>
<polygon id="Fill-74" class="open-app-8" points="32,71.9 32.7,71.9 32.7,71.2 32,71.2 "/>
<polygon id="Fill-75" class="open-app-8" points="40.6,70.4 41.3,70.4 41.3,69.7 40.6,69.7 "/>
<polygon id="Fill-76" class="open-app-8" points="40.6,71.9 41.3,71.9 41.3,71.2 40.6,71.2 "/>
<polygon id="Fill-77" class="open-app-8" points="41.3,69 42.1,69 42.1,68.3 41.3,68.3 "/>
<polygon id="Fill-78" class="open-app-8" points="42.8,66.9 43.5,66.9 43.5,66.1 42.8,66.1 "/>
<polygon id="Fill-79" class="open-app-8" points="44.2,67.6 44.9,67.6 44.9,66.9 44.2,66.9 "/>
<polygon id="Fill-80" class="open-app-8" points="40.6,66.1 41.3,66.1 41.3,65.4 40.6,65.4 "/>
<polygon id="Fill-81" class="open-app-8" points="36.3,66.1 37,66.1 37,65.4 36.3,65.4 "/>
<polygon id="Fill-82" class="open-app-8" points="39.9,66.9 40.6,66.9 40.6,66.1 39.9,66.1 "/>
<polygon id="Fill-83" class="open-app-8" points="42.8,72.6 43.5,72.6 43.5,71.9 42.8,71.9 "/>
<polygon id="Fill-84" class="open-app-8" points="43.5,70.4 44.2,70.4 44.2,69.7 43.5,69.7 "/>
<polygon id="Fill-85" class="open-app-8" points="43.5,71.9 44.2,71.9 44.2,71.2 43.5,71.2 "/>
<polygon id="Fill-86" class="open-app-8" points="32,69 32.7,69 32.7,68.3 32,68.3 "/>
<polygon id="Fill-87" class="open-app-8" points="33.4,66.1 34.2,66.1 34.2,65.4 33.4,65.4 "/>
<polygon id="Fill-88" class="open-app-8" points="33.4,69.7 34.2,69.7 34.2,69 33.4,69 "/>
<polygon id="Fill-89" class="open-app-8" points="34.2,73.3 34.9,73.3 34.9,72.6 34.2,72.6 "/>
<polygon id="Fill-90" class="open-app-8" points="34.2,67.6 34.9,67.6 34.9,66.9 34.2,66.9 "/>
<polygon id="Fill-91" class="open-app-8" points="34.9,66.1 35.6,66.1 35.6,65.4 34.9,65.4 "/>
<polygon id="Fill-92" class="open-app-8" points="37,72.6 37.8,72.6 37.8,71.9 37,71.9 "/>
<polygon id="Fill-93" class="open-app-8" points="39.9,73.3 40.6,73.3 40.6,72.6 39.9,72.6 "/>
<polygon id="Fill-94" class="open-app-9" points="30.6,69.7 31.3,69.7 31.3,69 30.6,69 "/>
<polygon id="Fill-95" class="open-app-9" points="31.3,72.6 32,72.6 32,71.9 31.3,71.9 "/>
<polygon id="Fill-96" class="open-app-9" points="42.1,72.6 42.8,72.6 42.8,71.9 42.1,71.9 "/>
<polygon id="Fill-97" class="open-app-9" points="42.1,66.1 42.8,66.1 42.8,65.4 42.1,65.4 "/>
<polygon id="Fill-98" class="open-app-9" points="42.1,68.3 42.8,68.3 42.8,67.6 42.1,67.6 "/>
<polygon id="Fill-99" class="open-app-9" points="44.2,69.7 44.9,69.7 44.9,69 44.2,69 "/>
<polygon id="Fill-100" class="open-app-9" points="44.9,69 45.6,69 45.6,68.3 44.9,68.3 "/>
<polygon id="Fill-101" class="open-app-9" points="40.6,67.6 41.3,67.6 41.3,66.9 40.6,66.9 "/>
<polygon id="Fill-102" class="open-app-9" points="32,66.9 32.7,66.9 32.7,66.1 32,66.1 "/>
<polygon id="Fill-103" class="open-app-9" points="34.9,71.9 35.6,71.9 35.6,71.2 34.9,71.2 "/>
<polygon id="Fill-104" class="open-app-9" points="37.8,71.2 38.5,71.2 38.5,70.4 37.8,70.4 "/>
<polygon id="Fill-105" class="open-app-9" points="39.2,74 39.9,74 39.9,73.3 39.2,73.3 "/>
<polygon id="Fill-106" class="open-app-10" points="30.6,67.6 31.3,67.6 31.3,66.9 30.6,66.9 "/>
<polygon id="Fill-107" class="open-app-10" points="31.3,69.7 32,69.7 32,69 31.3,69 "/>
<polygon id="Fill-108" class="open-app-10" points="32,73.3 32.7,73.3 32.7,72.6 32,72.6 "/>
<polygon id="Fill-109" class="open-app-10" points="40.6,69.7 41.3,69.7 41.3,69 40.6,69 "/>
<polygon id="Fill-110" class="open-app-10" points="41.3,71.9 42.1,71.9 42.1,71.2 41.3,71.2 "/>
<polygon id="Fill-111" class="open-app-10" points="43.5,67.6 44.2,67.6 44.2,66.9 43.5,66.9 "/>
<polygon id="Fill-112" class="open-app-10" points="44.2,66.1 44.9,66.1 44.9,65.4 44.2,65.4 "/>
<polygon id="Fill-113" class="open-app-10" points="44.9,68.3 45.6,68.3 45.6,67.6 44.9,67.6 "/>
<polygon id="Fill-114" class="open-app-10" points="44.9,74 45.6,74 45.6,73.3 44.9,73.3 "/>
<polygon id="Fill-115" class="open-app-10" points="41.3,67.6 42.1,67.6 42.1,66.9 41.3,66.9 "/>
<polygon id="Fill-116" class="open-app-10" points="39.9,66.1 40.6,66.1 40.6,65.4 39.9,65.4 "/>
<polygon id="Fill-117" class="open-app-10" points="37.8,66.1 38.5,66.1 38.5,65.4 37.8,65.4 "/>
<polygon id="Fill-118" class="open-app-10" points="42.8,74 43.5,74 43.5,73.3 42.8,73.3 "/>
<polygon id="Fill-119" class="open-app-10" points="32,66.1 32.7,66.1 32.7,65.4 32,65.4 "/>
<polygon id="Fill-120" class="open-app-10" points="32.7,66.9 33.4,66.9 33.4,66.1 32.7,66.1 "/>
<polygon id="Fill-121" class="open-app-10" points="32.7,72.6 33.4,72.6 33.4,71.9 32.7,71.9 "/>
<polygon id="Fill-122" class="open-app-10" points="34.2,66.1 34.9,66.1 34.9,65.4 34.2,65.4 "/>
<polygon id="Fill-123" class="open-app-10" points="34.9,66.9 35.6,66.9 35.6,66.1 34.9,66.1 "/>
<polygon id="Fill-124" class="open-app-10" points="34.9,67.6 35.6,67.6 35.6,66.9 34.9,66.9 "/>
<polygon id="Fill-125" class="open-app-10" points="37.8,74 38.5,74 38.5,73.3 37.8,73.3 "/>
<polygon id="Fill-126" class="open-app-10" points="39.9,71.2 40.6,71.2 40.6,70.4 39.9,70.4 "/>
<polygon id="Fill-127" class="open-app-4" points="41.3,70.4 42.1,70.4 42.1,69.7 41.3,69.7 "/>
<polygon id="Fill-128" class="open-app-4" points="41.3,71.2 42.1,71.2 42.1,70.4 41.3,70.4 "/>
<polygon id="Fill-129" class="open-app-4" points="42.1,66.9 42.8,66.9 42.8,66.1 42.1,66.1 "/>
<polygon id="Fill-130" class="open-app-4" points="42.8,66.1 43.5,66.1 43.5,65.4 42.8,65.4 "/>
<polygon id="Fill-131" class="open-app-4" points="43.5,68.3 44.2,68.3 44.2,67.6 43.5,67.6 "/>
<polygon id="Fill-132" class="open-app-4" points="44.2,66.9 44.9,66.9 44.9,66.1 44.2,66.1 "/>
<polygon id="Fill-133" class="open-app-4" points="44.2,69 44.9,69 44.9,68.3 44.2,68.3 "/>
<polygon id="Fill-134" class="open-app-4" points="44.9,66.9 45.6,66.9 45.6,66.1 44.9,66.1 "/>
<polygon id="Fill-135" class="open-app-4" points="44.2,73.3 44.9,73.3 44.9,72.6 44.2,72.6 "/>
<polygon id="Fill-136" class="open-app-4" points="39.2,66.1 39.9,66.1 39.9,65.4 39.2,65.4 "/>
<polygon id="Fill-137" class="open-app-4" points="37,66.1 37.8,66.1 37.8,65.4 37,65.4 "/>
<polygon id="Fill-138" class="open-app-4" points="43.5,71.2 44.2,71.2 44.2,70.4 43.5,70.4 "/>
<polygon id="Fill-139" class="open-app-4" points="32,69.7 32.7,69.7 32.7,69 32,69 "/>
<polygon id="Fill-140" class="open-app-4" points="33.4,71.9 34.2,71.9 34.2,71.2 33.4,71.2 "/>
<polygon id="Fill-141" class="open-app-4" points="34.2,68.3 34.9,68.3 34.9,67.6 34.2,67.6 "/>
<polygon id="Fill-142" class="open-app-4" points="34.2,69 34.9,69 34.9,68.3 34.2,68.3 "/>
<polygon id="Fill-143" class="open-app-4" points="34.2,75.5 34.9,75.5 34.9,74.7 34.2,74.7 "/>
<polygon id="Fill-144" class="open-app-4" points="35.6,72.6 36.3,72.6 36.3,71.9 35.6,71.9 "/>
<polygon id="Fill-145" class="open-app-4" points="36.3,71.9 37,71.9 37,71.2 36.3,71.2 "/>
<polygon id="Fill-146" class="open-app-4" points="38.5,71.9 39.2,71.9 39.2,71.2 38.5,71.2 "/>
<polygon id="Fill-147" class="open-app-4" points="38.5,72.6 39.2,72.6 39.2,71.9 38.5,71.9 "/>
<polygon id="Fill-148" class="open-app-4" points="39.9,70.4 40.6,70.4 40.6,69.7 39.9,69.7 "/>
<path id="Fill-149" class="open-app-11" d="M24.9,65.2h26.5"/>
<path id="Stroke-150" class="open-app-12" d="M24.9,65.2h26.5"/>
</svg>
