<svg version="1.1"
	 xmlns="http://www.w3.org/2000/svg" xmlns:xlink="http://www.w3.org/1999/xlink" xmlns:a="http://ns.adobe.com/AdobeSVGViewerExtensions/3.0/"
	 x="0px" y="0px" width="167.5px" height="143px" viewBox="0 0 167.5 143" style="enable-background:new 0 0 167.5 143;"
	 xml:space="preserve">
<style type="text/css">
	.st0{fill:url(#Fill-1-Copy-7_2_);}
	.st1{fill:url(#Fill-1-Copy-8_2_);}
	.st2{fill:#84B85E;}
	.st3{fill:#0BC7C5;}
	.st4{fill:#06908F;}
	.st5{fill:#FAFAFA;}
	.st6{fill:#6455BB;}
	.st7{fill:#858ECC;}
	.st8{fill:#565ACC;}
	.st9{fill:#3E4496;}
	.st10{fill:#A0A3FF;}
	.st11{fill:#EB5160;}
	.st12{fill:#C9D8E0;}
	.st13{fill:#4E8098;}
	.st14{fill:#3E6679;}
	.st15{fill:#75AA9B;}
	.st16{fill:#49A7F9;}
	.st17{fill:url(#Fill-1-Copy-7_3_);}
	.st18{fill:url(#Fill-1-Copy-8_3_);}
</style>
<defs>
</defs>
<linearGradient id="Fill-1-Copy-7_2_" gradientUnits="userSpaceOnUse" x1="-3190.0293" y1="1972.7869" x2="-3189.0293" y2="1972.7869" gradientTransform="matrix(49 0 0 -17 156330.4375 33545.875)">
	<stop  offset="0" style="stop-color:#40B6D6"/>
	<stop  offset="1" style="stop-color:#61C0DA"/>
</linearGradient>
<path id="Fill-1-Copy-7_1_" class="st0" d="M19,17c0,0,0-0.1,0-0.1c0-5,3.9-9.1,8.8-9.1c0,0,0.1,0,0.1,0C28.5,3.4,32.1,0,36.6,0
	c4,0,7.3,2.7,8.4,6.4c1-0.4,2.1-0.6,3.3-0.6c3.1,0,5.8,1.7,7.4,4.1c1.1-0.5,2.3-0.8,3.7-0.8c4.5,0,8.2,3.5,8.7,7.9H19z"/>
<linearGradient id="Fill-1-Copy-8_2_" gradientUnits="userSpaceOnUse" x1="-3361.5364" y1="2009.3107" x2="-3360.5364" y2="2009.3107" gradientTransform="matrix(-31 0 0 -11 -104071.625 22124.918)">
	<stop  offset="0" style="stop-color:#40B6D6"/>
	<stop  offset="1" style="stop-color:#61C0DA"/>
</linearGradient>
<path id="Fill-1-Copy-8_1_" class="st1" d="M136,28C136,28,136,27.9,136,28c0-3.3-2.5-5.9-5.6-5.9c0,0,0,0-0.1,0
	c-0.4-2.9-2.7-5.1-5.5-5.1c-2.5,0-4.6,1.7-5.3,4.1c-0.6-0.3-1.3-0.4-2.1-0.4c-2,0-3.7,1.1-4.7,2.7c-0.7-0.3-1.5-0.5-2.3-0.5
	c-2.8,0-5.2,2.2-5.5,5.1H136z"/>
<path id="Fill-94_3_" class="st2" d="M60,141.6c-0.6-1.4-2.3-2.5-3.9-2.5c0-1.3-1.1-2.3-2.3-2.3c0-1.3-1.1-2.3-2.3-2.3
	c-0.4,0-0.7,0.1-1,0.2c-0.4-1.8-2-3.1-3.8-3.1c-0.1,0-0.2,0-0.2,0c-0.5-1.5-2-2.6-3.7-2.6c-2.2,0-3.9,1.8-3.9,3.9c0,0,0,0,0,0.1
	c-1.9,0.3-3.3,1.9-3.2,3.9c0,0.1,0,0.1,0,0.2c0,0-0.1,0-0.1,0c-0.4-0.1-0.9-0.2-1.3-0.2c-0.9,0-1.8,0.3-2.4,0.9
	c-0.3-0.1-0.5-0.1-0.8-0.1c-2.2,0-3.9,1.8-3.9,3.9L60,141.6z"/>
<polygon id="Fill-1_2_" class="st3" points="43,141.6 135.2,141.6 135.2,48.5 43,48.5 "/>
<polygon id="Fill-2_2_" class="st4" points="122.4,141.6 135.2,141.6 135.2,48.5 122.4,48.5 "/>
<polygon id="Fill-3_1_" class="st5" points="91.1,90 97.7,90 97.7,84.8 91.1,84.8 "/>
<polygon id="Fill-4_1_" class="st5" points="98.8,90 105.4,90 105.4,84.8 98.8,84.8 "/>
<polygon id="Fill-5_1_" class="st5" points="83.4,83.5 90,83.5 90,78.4 83.4,78.4 "/>
<polygon id="Fill-6_1_" class="st5" points="91.1,83.5 97.7,83.5 97.7,78.4 91.1,78.4 "/>
<polygon id="Fill-7_1_" class="st5" points="83.4,77 90,77 90,71.9 83.4,71.9 "/>
<polygon id="Fill-8_1_" class="st5" points="98.8,77 105.4,77 105.4,71.9 98.8,71.9 "/>
<polygon id="Fill-9_1_" class="st5" points="83.4,70.6 90,70.6 90,65.4 83.4,65.4 "/>
<polygon id="Fill-10_1_" class="st5" points="91.1,70.6 97.7,70.6 97.7,65.4 91.1,65.4 "/>
<polygon id="Fill-11_1_" class="st5" points="66.8,90 73.4,90 73.4,84.8 66.8,84.8 "/>
<polygon id="Fill-12_1_" class="st5" points="74.5,90 81.1,90 81.1,84.8 74.5,84.8 "/>
<polygon id="Fill-13_1_" class="st5" points="59,83.5 65.6,83.5 65.6,78.4 59,78.4 "/>
<polygon id="Fill-14_1_" class="st5" points="66.8,83.5 73.4,83.5 73.4,78.4 66.8,78.4 "/>
<polygon id="Fill-15_1_" class="st5" points="59,77 65.6,77 65.6,71.9 59,71.9 "/>
<polygon id="Fill-16_1_" class="st5" points="74.5,77 81.1,77 81.1,71.9 74.5,71.9 "/>
<polygon id="Fill-17_1_" class="st5" points="59,70.6 65.6,70.6 65.6,65.4 59,65.4 "/>
<polygon id="Fill-18_1_" class="st5" points="66.8,70.6 73.4,70.6 73.4,65.4 66.8,65.4 "/>
<path id="Fill-94_2_" class="st2" d="M107,141c0.4-0.9,1.5-1.6,2.4-1.6c0-0.8,0.7-1.4,1.5-1.4c0-0.8,0.7-1.4,1.5-1.4
	c0.2,0,0.4,0.1,0.6,0.2c0.2-1.1,1.2-1.9,2.4-1.9c0,0,0.1,0,0.1,0c0.3-0.9,1.2-1.6,2.3-1.6c1.3,0,2.4,1.1,2.4,2.4c0,0,0,0,0,0
	c1.2,0.2,2,1.2,2,2.4c0,0,0,0.1,0,0.1c0,0,0,0,0.1,0c0.3-0.1,0.5-0.1,0.8-0.1c0.6,0,1.1,0.2,1.5,0.5c0.2,0,0.3,0,0.5,0
	c1.3,0,2.4,1.1,2.4,2.4L107,141z"/>
<rect x="132" y="133.7" class="st6" width="1.5" height="7.3"/>
<rect x="131.5" y="133.7" class="st7" width="0.5" height="7.3"/>
<path class="st7" d="M142.1,124v9.1h-12.8v-8.9c0-0.1,0-0.2,0-0.2c-0.1-2.8-2.5-5.1-5.4-5.1h13C139.8,118.9,142.1,121.2,142.1,124z"
	/>
<rect x="129.3" y="124" class="st8" width="12.8" height="9.1"/>
<rect x="112.3" y="133.2" class="st6" width="29.8" height="0.5"/>
<path class="st9" d="M118.5,124L118.5,124c0,0,0,0.1,0,0.1c0,0,0,0.1,0,0.1V124z"/>
<path class="st9" d="M129.3,124v0.2C129.3,124.2,129.3,124.1,129.3,124L129.3,124z"/>
<g>
	<rect x="133.6" y="116.1" class="st9" width="0.5" height="10.5"/>
</g>
<g>
	<rect x="133.6" y="116.1" class="st10" width="0.1" height="10.5"/>
</g>
<g>
	<g>
		<circle class="st10" cx="133.8" cy="127.1" r="1.1"/>
	</g>
	<circle class="st9" cx="133.9" cy="127.1" r="1.1"/>
	<g>
		<circle class="st10" cx="133.9" cy="127.1" r="0.5"/>
	</g>
</g>
<polygon class="st11" points="138,116.1 133.7,116.1 133.7,117.9 138,117.9 137.1,117 "/>
<g>
			<animateTransform
			accumulate="none"
			additive="replace"
			attributeName="transform"
			attributeType="xml"
			calcMode="linear"
			dur="1s" fill="remove"
			from="0 27 119.405"
			repeatCount="indefinite"
			restart="always"
			to="-360 27 119.405"
			type="rotate">
		</animateTransform>

	<path class="st12" d="M27,119.5c1-0.8,0.9-6.1,0.6-9.9c-0.2,0-0.4,0-0.6,0c-0.2,0-0.4,0-0.6,0C26.1,113.3,26,118.7,27,119.5z"/>
	<path class="st12" d="M27,119.5c-1.2-0.5-5.8,2.3-8.9,4.4c0.2,0.4,0.4,0.7,0.6,1C22.1,123.3,26.8,120.7,27,119.5z"/>
	<path class="st13" d="M27.6,109.5c-0.2-2.1-0.4-3.8-0.6-3.8c-0.2,0-0.4,1.6-0.6,3.8c0.2,0,0.4,0,0.6,0
		C27.2,109.5,27.4,109.5,27.6,109.5z"/>
	<path class="st13" d="M15.1,126.3c0.1,0.1,1.6-0.5,3.6-1.4c-0.2-0.3-0.4-0.7-0.6-1C16.4,125.1,15.1,126.2,15.1,126.3z"/>
	<path class="st13" d="M35.9,123.9c-0.2,0.4-0.4,0.7-0.6,1c1.9,0.9,3.5,1.5,3.6,1.4C38.9,126.2,37.6,125.1,35.9,123.9z"/>
	<path class="st12" d="M27,119.5c0.2,1.3,4.9,3.9,8.3,5.5c0.2-0.3,0.4-0.7,0.6-1C32.8,121.7,28.2,119,27,119.5z"/>
</g>
<g>
	<path class="st9" d="M129.3,124.3v8.9h-10.8v-8.9c0,0,0-0.1,0-0.1c0,0,0-0.1,0-0.1c0.1-2.8,2.4-5.1,5.3-5.1c0,0,0.1,0,0.1,0h0
		c2.9,0,5.2,2.3,5.4,5.1C129.3,124.1,129.3,124.2,129.3,124.3z"/>
	<path class="st10" d="M123.9,119.7c1.2,0,2.3,0.5,3.2,1.3c0.9,0.8,1.4,1.9,1.4,3.1c0,0.1,0,0.1,0,0.2v8.1h-9.3v-8.1
		c0,0,0-0.1,0-0.1l0-0.1l0-0.1c0.1-1.2,0.6-2.3,1.4-3.1c0.8-0.8,2-1.3,3.1-1.3C123.9,119.7,123.9,119.7,123.9,119.7L123.9,119.7
		 M123.9,118.9L123.9,118.9c-0.1,0-0.1,0-0.1,0c-2.8,0.1-5.1,2.3-5.3,5.1c0,0,0,0.1,0,0.1c0,0,0,0.1,0,0.1v8.9h10.8v-8.9
		c0-0.1,0-0.2,0-0.2C129.2,121.2,126.8,118.9,123.9,118.9L123.9,118.9z"/>
</g>
<polygon class="st14" points="29.3,141 26.9,141 27.6,119.5 28.5,119.5 "/>
<rect x="28.7" y="117.7" transform="matrix(6.123234e-17 -1 1 6.123234e-17 -89.9384 148.8723)" class="st13" width="1.5" height="3.4"/>
<path class="st13" d="M27.7,118.4l-0.1,0c-1.6,0-2.8,0.4-2.8,1c0,0.5,1.3,1,2.8,1c0,0,0.1,0,0.1,0V118.4z"/>
<g>
				<animateTransform
			accumulate="none"
			additive="replace"
			attributeName="transform"
			attributeType="xml"
			calcMode="linear"
			dur="1s" fill="remove"
			from="0 27.101 120.58"
			repeatCount="indefinite"
			restart="always"
			to="-360 27.101 120.58"
			type="rotate">
		</animateTransform>

	<path class="st15" d="M28.8,114.8c2.4,0.7,4.2,3,4.2,5.6c0,0.4,0,0.8-0.1,1.2L33,122c0.1-0.5,0.2-1,0.2-1.5c0-2.8-1.9-5.2-4.5-5.9
		L28.8,114.8z"/>
	<path class="st15" d="M21.4,121.8c-0.1-0.4-0.2-0.9-0.2-1.3c0-2.6,1.8-4.9,4.2-5.6c0-0.1,0-0.2,0.1-0.3c-2.6,0.7-4.5,3.1-4.5,5.9
		c0,0.5,0.1,1,0.2,1.4C21.2,121.9,21.3,121.8,21.4,121.8z"/>
	<path class="st15" d="M31.3,124.6c-1.1,1.1-2.6,1.8-4.2,1.8c-1.6,0-3.1-0.7-4.2-1.8c-0.1,0-0.2,0.1-0.3,0.1
		c1.1,1.2,2.7,1.9,4.4,1.9c1.8,0,3.3-0.7,4.4-1.9C31.5,124.6,31.4,124.6,31.3,124.6z"/>
	<path class="st15" d="M29.3,113c3.2,1,5.6,3.9,5.6,7.5c0,0.6-0.1,1.1-0.2,1.6l0.3,0.4c0.2-0.6,0.3-1.3,0.3-2c0-3.7-2.5-6.9-5.9-7.8
		L29.3,113z"/>
	<path class="st15" d="M19.5,122.2c-0.1-0.6-0.2-1.2-0.2-1.8c0-3.5,2.3-6.5,5.5-7.4c0-0.1,0.1-0.2,0.1-0.4c-3.4,1-5.9,4.1-5.9,7.8
		c0,0.6,0.1,1.3,0.2,1.9C19.3,122.3,19.4,122.2,19.5,122.2z"/>
	<path class="st15" d="M32.7,125.9c-1.4,1.4-3.4,2.4-5.6,2.4c-2.2,0-4.1-0.9-5.5-2.3c-0.1,0-0.2,0.1-0.3,0.1
		c1.5,1.6,3.6,2.5,5.9,2.5c2.3,0,4.4-1,5.9-2.6C32.9,126,32.8,125.9,32.7,125.9z"/>
</g>
<rect y="141" class="st16" width="167.5" height="2"/>
</svg>
