<svg version="1.1" id="Layer_1" xmlns="http://www.w3.org/2000/svg" xmlns:xlink="http://www.w3.org/1999/xlink" x="0px" y="0px"
	 viewBox="0 0 257 164.4" style="enable-background:new 0 0 257 164.4;" xml:space="preserve">
<style type="text/css">
	.st0{fill:#0BC7C5;}
	.st1{fill:#FAFAFA;}
	.st2{fill:#06908F;}
	.st3{fill:#1CA6C6;}
	.st4{fill:#1995B2;}
	.st5{fill:#17A4B2;}
	.st6{fill:#1AB9C8;}
	.st7{opacity:0.5;fill:#FFFFFF;enable-background:new    ;}
	.st8{fill:#FDB913;}
	.st9{fill:#FFFFFF;}
	.st10{fill:#160F29;}
	.st11{fill:#E4E4E4;}
	.st12{fill:#32ACDF;}
	.st13{fill:#EB5160;}
	.st14{opacity:0.2;fill:#FFFFFF;enable-background:new    ;}
	.st15{fill:#C9D8E0;}
	.st16{fill:#4E8098;}
	.st17{fill:#3E6679;}
	.st18{fill:#75AA9B;}
	.st19{fill:#49A7F9;}
</style>
<g>
	<polygon class="st0" points="202.8,0 202.8,14.3 188.5,14.3 182.9,14.3 171,29.1 171,163.4 217,163.4 217,0 	"/>
	<polygon id="Fill-3_2_" class="st1" points="203,29 203,38 211.8,38 211.8,29 	"/>
	<polygon id="Fill-4_2_" class="st1" points="191.9,29 191.9,38 200.6,38 200.6,29 	"/>
	<polygon id="Fill-5_2_" class="st1" points="180.8,29 180.8,38 189.5,38 189.5,29 	"/>
	<polygon id="Fill-6_2_" class="st1" points="191.9,40.3 191.9,49.3 200.6,49.3 200.6,40.3 	"/>
	<polygon id="Fill-7_2_" class="st1" points="203,51.6 203,60.5 211.8,60.5 211.8,51.6 	"/>
	<polygon id="Fill-8_2_" class="st1" points="191.9,51.6 191.9,60.5 200.6,60.5 200.6,51.6 	"/>
	<polygon id="Fill-9_2_" class="st1" points="180.8,51.6 180.8,60.5 189.5,60.5 189.5,51.6 	"/>
	<polygon id="Fill-10_2_" class="st1" points="203,62.8 203,71.8 211.8,71.8 211.8,62.8 	"/>
	<polygon id="Fill-11_2_" class="st1" points="191.9,62.8 191.9,71.8 200.6,71.8 200.6,62.8 	"/>
	<rect x="217" class="st2" width="14.3" height="163.3"/>
	<rect x="102.5" y="43.5" class="st3" width="38.5" height="119.8"/>
	<rect x="132.1" y="43.5" class="st4" width="8.8" height="119.8"/>
	<rect x="108.8" y="34.5" class="st3" width="25.9" height="9"/>
	<rect x="128.8" y="34.5" class="st4" width="5.9" height="9"/>
	<rect x="113.8" y="27.8" class="st3" width="15.9" height="6.6"/>
	<rect x="108.8" y="41.6" class="st4" width="20" height="1.9"/>
	<rect x="113.8" y="33.1" class="st4" width="15.9" height="1.4"/>
	<rect x="126.1" y="27.8" class="st4" width="3.7" height="6.6"/>
	<rect x="115.8" y="74.2" class="st1" width="6" height="4.6"/>
	<rect x="108.8" y="74.2" class="st1" width="6" height="4.6"/>
	<rect x="122.8" y="80" class="st1" width="6" height="4.6"/>
	<rect x="115.8" y="80" class="st1" width="6" height="4.6"/>
	<rect x="122.8" y="85.9" class="st1" width="6" height="4.6"/>
	<rect x="108.8" y="85.9" class="st1" width="6" height="4.6"/>
	<rect x="122.8" y="91.7" class="st1" width="6" height="4.6"/>
	<rect x="115.8" y="91.7" class="st1" width="6" height="4.6"/>
	<rect x="172.5" y="82.1" class="st5" width="9.2" height="81.2"/>
	<rect x="22" y="147.7" class="st6" width="15.7" height="15.7"/>
	<rect x="4.7" y="147.7" class="st3" width="15.7" height="15.7"/>
	<rect x="13.1" y="128.2" class="st0" width="19.4" height="19.4"/>
	<path class="st7" d="M44.4,105.2h-1c-0.1,0-0.2-0.1-0.2-0.2l0,0c0-0.1,0.1-0.2,0.2-0.2h1c0.1,0,0.2,0.1,0.2,0.2l0,0
		C44.6,105.1,44.5,105.2,44.4,105.2z"/>
	<path class="st7" d="M41.9,103h-0.5c-0.1,0-0.2-0.1-0.2-0.2l0,0c0-0.1,0.1-0.2,0.2-0.2h0.5c0.1,0,0.2,0.1,0.2,0.2l0,0
		C42.1,102.9,42,103,41.9,103z"/>
	<polygon class="st6" points="147,82.2 147,97.9 131.2,97.9 131.2,163.4 181.6,163.4 181.6,82.2 	"/>
	<rect x="150" y="84.8" class="st1" width="3.8" height="3.8"/>
	<rect x="160.9" y="84.8" class="st1" width="3.8" height="3.8"/>
	<rect x="150" y="90.2" class="st1" width="3.8" height="3.8"/>
	<rect x="155.5" y="90.2" class="st1" width="3.8" height="3.8"/>
	<rect x="160.9" y="90.2" class="st1" width="3.8" height="3.8"/>
	<rect x="155.5" y="95.5" class="st1" width="3.8" height="3.8"/>
	<rect x="139.1" y="100.9" class="st1" width="3.8" height="3.8"/>
	<rect x="150" y="100.9" class="st1" width="3.8" height="3.8"/>
	<rect x="155.5" y="100.9" class="st1" width="3.8" height="3.8"/>
	<rect x="160.9" y="100.9" class="st1" width="3.8" height="3.8"/>
	<rect x="133.8" y="106.4" class="st1" width="3.8" height="3.8"/>
	<rect x="144.5" y="106.4" class="st1" width="3.8" height="3.8"/>
	<rect x="150" y="106.4" class="st1" width="3.8" height="3.8"/>
	<rect x="139.1" y="111.8" class="st1" width="3.8" height="3.8"/>
	<rect x="150" y="111.8" class="st1" width="3.8" height="3.8"/>
	<rect x="155.5" y="111.8" class="st1" width="3.8" height="3.8"/>
	<rect x="168.9" y="82.1" class="st5" width="12.9" height="81.2"/>
	<rect x="40.9" y="102.3" class="st8" width="8.6" height="1.3"/>
	<rect x="40.9" y="104.3" class="st8" width="8.6" height="2.1"/>
	<rect x="42.1" y="151.4" class="st8" width="41" height="5.2"/>
	<rect x="42.1" y="157.2" class="st8" width="45.6" height="5"/>
	<rect x="43.7" y="140.5" class="st9" width="8.7" height="10.7"/>
	<path class="st10" d="M125.5,109.5c0-0.9-0.6-1.7-1.5-1.8h-0.1v-24l-5.2-4.2l0,0c-0.1-0.5-0.6-0.9-1.1-0.9c-0.3,0-0.5,0.1-0.7,0.3
		l0,0h-0.1L70,65.3l0,0c-0.3-0.6-0.9-1-1.5-1c-0.9,0-1.7,0.8-1.7,1.7c0,0,0,0,0,0.1c0,0,0,0,0,0.1l0,0l0,0L52.5,95.8H40.2v11.3h7.4
		v31.1l-2.2,2.2h-2.2v6.4h-1.9v16H88v-6.1l0.2,0.2l6,6.5V158l-10.7-11.3h-8.7v-28.2h4.8v-4.4h-6.5v-11.7h4.6v-1.9h0.1
		c0.3,0,0.6-0.1,0.8-0.2c1.2-0.5,2.7-1.3,2.7-2.4v-5.6c0-0.3,0-0.6-0.1-0.9v-0.1h0.1l41.9-7.4v24h-0.1c-0.9,0.2-1.5,0.9-1.5,1.8
		s0.6,1.7,1.5,1.8h0.1v3.4h0.6v-3.4h0.1C124.8,111.2,125.5,110.4,125.5,109.5z M91.2,155.5l2.5,2.6v3.8l-2.5-2.7V155.5z M88.5,152.6
		l2.3,2.4v3.7l-2.3-2.5V152.6z M70.8,66.1l45.8,13.4l-19.6,1.2v-0.1c-0.1-0.8-0.8-1.4-1.7-1.4c-0.5,0-0.9,0.2-1.2,0.5l-0.1,0.1H94
		L70,65.9L70.8,66.1z M79.2,86.4L79.2,86.4c-1.2-1.7-2.3-2.5-3.3-2.5h-2.6v-1.1l20.6-1.3v0.1c0.3,0.6,0.9,1.1,1.6,1.1
		c0.8,0,1.4-0.5,1.6-1.3v-0.1h0.1l15-0.9v0.2L79.2,86.4z M82.2,86.4l-1.9,1.9l-0.1-0.1c-0.2-0.4-0.4-0.8-0.7-1.2l-0.1-0.1L82.2,86.4
		z M66.9,66.8L66.9,66.8c0.4,0.5,0.9,0.7,1.4,0.7c0.7,0,1.3-0.4,1.5-1v-0.1l0.1,0.1l23.8,13.8v0.1c0,0.1-0.1,0.3-0.1,0.4v0.1h-0.1
		L73,82.2v-0.1l-2.3-14h-4.6l-2.4,14.1h-0.4v14.4H53.2v-1.1H53L66.9,66.8z M65.9,83.9l-1.1-1.1H72l-1.1,1.1H65.9z M70.3,84.5
		l-3.8,3.8v-3.8H70.3z M70.3,114.9v-0.3h2.3v2.6L70.3,114.9z M72.6,117.9h-2.2v-2.2L72.6,117.9z M69.6,114.1l-0.4-0.4l0.1-0.1
		l3.5-3.5v3.9L69.6,114.1L69.6,114.1z M72.6,109.5l-3.8,3.8l-0.1-0.1l-3.7-3.7C64.9,109.5,72.6,109.5,72.6,109.5z M65.1,108.9
		l3.7-3.7l0.1,0.1l3.7,3.7L65.1,108.9L65.1,108.9z M69.2,114.6l0.5,0.5v2.7h-2.5v-2.4l0.8-0.8H69.2z M69.2,104.8l2.5-2.5h1v6
		L69.2,104.8z M68.8,104.4l-2.1-2.1h4.1L68.8,104.4z M68.4,104.8L68.4,104.8l-4.2,4.2v-6.7h1.8L68.4,104.8z M68.4,113.7l-0.4,0.4
		h-3.8v-4.6L68.4,113.7z M66.8,114.6v0.6l-2.7,2.7v-3.3H66.8z M66.8,116v1.8h-1.8L66.8,116z M72.3,126.9h-7.2l3.6-3.6l0.1,0.1
		L72.3,126.9z M69.2,122.9L69.2,122.9l3.5-3.5v7.1L69.2,122.9z M68.2,123l-3.9,3.9h-0.2v-8.2L68.2,123L68.2,123z M68.4,131.8
		L68.4,131.8l-3.7,3.7h-0.6v-7.9L68.4,131.8z M68.8,132.2L68.8,132.2l3.3,3.3h-6.6L68.8,132.2z M66.2,146.7l-1.3-1.3h7.8l-1.3,1.3
		H66.2z M70.8,147.2l-2,2l-2-2H70.8z M65.1,144.8l3.7-3.7l0.1,0.1l3.6,3.6L65.1,144.8L65.1,144.8z M68.2,140.8l-4,4h-0.1v-0.1v-8.2
		L68.2,140.8L68.2,140.8z M65.4,146.7h-1.3v-1.3L65.4,146.7z M65.9,147.2l2.4,2.4l-1.2,1.2h-3v-3.6L65.9,147.2L65.9,147.2z
		 M68.8,150l0.8,0.8h-1.7L68.8,150z M69.2,149.6l2.4-2.4h1.1v3.6h-2.3L69.2,149.6z M72.1,146.7l0.6-0.6v0.6H72.1z M69.2,140.7
		L69.2,140.7l3.5-3.5v7.1L69.2,140.7z M68.8,140.3L68.8,140.3l-4.3-4.3h8.1l0.1-0.1v0.4L68.8,140.3z M69.2,131.8L69.2,131.8l3.5-3.5
		v7.1L69.2,131.8z M68.8,131.4L68.8,131.4l-4-4h8L68.8,131.4z M68.8,122.5L68.8,122.5l-4.1-4.1h8.1L68.8,122.5z M72.7,101.8h-8.6
		v-1.3h8.6V101.8z M66.1,91.4v1.3l-1.3-1.3H66.1z M64.8,90.8l1.2-1.2v1.2H64.8z M66.1,93.5v3.3h-1.9v-5.2L66.1,93.5z M66.1,97.3v0.8
		l-1.9,1.9v-2.7C64.2,97.3,66.1,97.3,66.1,97.3z M66.1,98.9v1.1H65L66.1,98.9z M66.1,88.8l-1.9,1.9v-7.8l1.9,1.9V88.8z M69,73L69,73
		l1.6-3.5l1.8,11.1L69,73z M72.6,82.3h-0.2h-3.3H69v-8l0.2,0.4L72.6,82.3z M68.7,72.3l-1.6-3.5h3.2L68.7,72.3z M68.2,73L68.2,73
		l-3.5,7.6l1.9-11.2L68.2,73z M68.4,74.2v8h-3.7L68.4,74.2z M72.7,82.9v1h-1L72.7,82.9z M63.6,97.3v2.7H63v-2.7H63.6z M62.4,97.3
		v2.7H60v-2.7H62.4z M59.5,97.3v2.7h-2.7v-2.7H59.5z M56.2,97.3v2.7h-2.9v-2.7H56.2z M52.8,96.3v3.6H51L52.8,96.3z M50.4,96.2h1.9
		l-1.9,3.9V96.2z M50.8,100.5h12.8v1.3H50.1L50.8,100.5z M52.6,146.7v-6.4h-2.2l-2.2-2.2V107h1.7v-4.6h12.2v11.7h-5v4.4h6.4v28.2
		H52.6z M63.6,147.2v3.6h-2.3v-3.6H63.6z M60.7,147.2v3.6h-2.3v-3.6H60.7z M57.8,147.2v3.6h-2.9v-3.6H57.8z M54.4,147.2v3.6h-1.8
		v-3.6H54.4z M49.7,140.2h-1.4v-1.4L49.7,140.2z M62.2,114.6v3.2h-1.3v-3.2H62.2z M60.2,114.6v3.2h-2.5v-3.2H60.2z M62.8,117.9v-3.2
		h0.8v3.2H62.8z M62.8,114.1v-1.5h0.8v1.5H62.8z M62.8,112v-1.5h0.8v1.5H62.8z M62.8,109.9v-1.4h0.8v1.4H62.8z M62.8,107.9v-1.6h0.8
		v1.6H62.8z M62.8,105.8v-3.4h0.8v3.4H62.8z M47.1,96.2h2.7v3.7h-2.7V96.2z M44,96.2h2.6v3.7H44V96.2z M40.9,96.2h2.6v3.7h-2.6V96.2
		z M40.9,100.5h9.3l-0.6,1.3h-8.7V100.5z M40.9,102.3h8.6v1.3h-8.6C40.9,103.6,40.9,102.3,40.9,102.3z M40.9,106.3v-2.1h8.6v2.1
		H40.9z M47.7,138.8v1.4h-1.4L47.7,138.8z M44,140.8h8.1v5.9H44C44,146.7,44,140.8,44,140.8z M44,147.2h8.1v3.6H44
		C44,150.8,44,147.2,44,147.2z M42.1,147.2h1.4v3.6h-1.4V147.2z M42.1,151.4h41v5.2h-41V151.4z M74.3,122.9v3.9h-1.1v-3.9H74.3z
		 M73.2,122.4v-3.9h1.1v3.9H73.2z M74.3,127.4v3.9h-1.1v-3.9H74.3z M74.3,131.9v3.6h-1.1v-3.6H74.3z M74.3,136.1v4.1h-1.1v-4.1H74.3
		z M74.3,140.8v4h-1.1v-4H74.3z M74.3,145.3v1.3h-1.1v-1.3H74.3z M74.3,147.2v3.6h-1.1v-3.6H74.3z M87.6,162.2H42.1v-5h45.6
		L87.6,162.2L87.6,162.2z M86.2,150.2l1.7,1.7v3.6l-1.7-1.8V150.2z M83.6,147.5l2.2,2.3h-0.1v3.3l-2.1-2.2V147.5z M83.6,151.7
		l0.2,0.2l4.4,4.7h-4.6V151.7z M80.6,147.2h2.5v3.6h-2.5V147.2z M77.3,147.2h2.6v3.6h-2.6V147.2z M76.8,147.2v3.6h-1.9v-3.6H76.8z
		 M76.6,114.6h2.5v3.2h-2.5V114.6z M76.1,114.6v3.2h-2.8v-3.2H76.1z M77.2,101.8h-4.1v-1.3h4.1V101.8z M80.8,97.8
		c0,0.7-0.8,1.4-2.3,1.9c-0.4,0.1-0.8,0.2-1.2,0.2H66.6V94l4.7,4.7l0.5-0.3l-5.2-5.2v-1.8h6.3v-0.6h-6.3V89l4.6-4.6h4.6
		c1.7,0,3.3,2.8,4.1,4.3v0.1c0.6,1,0.9,2.2,0.9,3.3L80.8,97.8L80.8,97.8z M81.2,90.6L81.2,90.6c-0.1-0.6-0.3-1.2-0.6-1.7v-0.1l0,0
		l2.5-2.5l0.1,0.1l3.3,3.3L81.2,90.6z M87.1,89.3l-3.2-3.2h0.2l7.7-1.4L87.1,89.3L87.1,89.3z M95.3,88.1l-7.6,1.3l4.6-4.6l0.1,0.1
		l3.1,3.1L95.3,88.1z M95.8,87.5l-2.9-2.9H93l7.1-1.3L95.8,87.5L95.8,87.5z M104.3,86.5l-8.1,1.4l4.9-4.9l0.1,0.1l3.4,3.4H104.3z
		 M104.7,85.8l-2.9-2.9h0.2l6.9-1.2L104.7,85.8L104.7,85.8z M112.8,85l-7.7,1.4l4.7-4.7l0.1,0.1L113,85H112.8z M113.2,84.5l-3-3h0.2
		l6.2-1.1l0,0c0.1,0.1,0.2,0.2,0.3,0.3l0.1,0.1l-0.1,0.1L113.2,84.5L113.2,84.5z M113.8,84.9l4.1-4.1l0,0c0.3-0.1,0.5-0.2,0.7-0.5
		l0.1-0.1l0.1,0.1l3.8,3L113.8,84.9z M123.6,111.2c-0.9,0-1.7-0.8-1.7-1.7s0.8-1.7,1.7-1.7s1.7,0.8,1.7,1.7S124.6,111.2,123.6,111.2
		z"/>
	<path class="st11" d="M80.8,92.2v5.6c0,0.6-0.9,1.4-2.3,1.9c-0.4,0.1-0.8,0.2-1.2,0.2H66.6V84.5h9.2c1.7,0,3.4,2.9,4.2,4.4
		C80.6,89.8,80.8,91,80.8,92.2z"/>
	<path class="st9" d="M73.1,98.9h-5.6l0,0V85.4l0,0h5.6l0,0V98.9L73.1,98.9z"/>
	<rect x="68.8" y="92.7" class="st10" width="2.9" height="0.4"/>
	<rect x="68.8" y="94" class="st10" width="2.9" height="0.4"/>
	<rect x="68.8" y="95.2" class="st10" width="2.9" height="0.4"/>
	<rect x="46.6" y="147.2" class="st10" width="2.9" height="0.4"/>
	<rect x="46.6" y="148.4" class="st10" width="2.9" height="0.4"/>
	<rect x="46.6" y="149.6" class="st10" width="2.9" height="0.4"/>
	<rect x="68.8" y="96.4" class="st10" width="2.9" height="0.4"/>
	<path class="st10" d="M72.6,85.2h-5.3v0.2l0,0v13.4l0,0V99h6.1v-0.2v-0.2v-13v-0.2v-0.2C73.3,85.2,72.6,85.2,72.6,85.2z M73,98.7
		h-5.3V85.6H73V98.7z"/>
	<rect x="68.8" y="87.5" class="st8" width="2.9" height="2.9"/>
	<path class="st10" d="M71.3,87.1h-2.2c-0.4,0-0.7,0.3-0.7,0.7V90c0,0.4,0.3,0.7,0.7,0.7h2.2c0.4,0,0.7-0.3,0.7-0.7v-2.2
		C72.1,87.4,71.8,87.1,71.3,87.1z M71.8,90.2C71.8,90.3,71.7,90.3,71.8,90.2l-2.7,0.1c-0.1,0-0.1-0.1-0.1-0.1v-2.6
		c0-0.1,0.1-0.1,0.1-0.1h2.6c0.1,0,0.1,0.1,0.1,0.1V90.2z"/>
	<path class="st12" d="M79.2,92.2l-4.5,0.1c0,0-0.3-0.2-0.3-0.3l0.1-5.8c1,0.3,4.7,1.8,4.7,4C79.2,91.2,79.2,91.8,79.2,92.2z"/>
	<path class="st12" d="M79.2,94.4v2.8c0,0.4-0.3,0.7-0.6,0.9c-0.4,0.3-0.8,0.5-1.4,0.5h-2.7v-4.1h4.7V94.4z"/>
	<rect x="45" y="141.9" class="st8" width="6" height="4.1"/>
	<path class="st10" d="M50.9,141.6h-5.7c-0.2,0-0.4,0.2-0.4,0.4v3.8c0,0.2,0.2,0.4,0.4,0.4h5.7c0.2,0,0.4-0.2,0.4-0.4V142
		C51.2,141.8,51.1,141.6,50.9,141.6z M50.7,142.2v3.5h-5.4v-3.5H50.7z"/>
	<polygon class="st7" points="74.5,91 74.2,90.2 77.3,87 78,87.5 	"/>
	<polygon class="st7" points="74.5,89.3 74.2,88.3 76.3,86.2 77,86.8 	"/>
	<polygon class="st7" points="76.3,92.4 75.3,92.2 79,88.7 79.5,89.2 	"/>
	<polygon class="st7" points="74.5,97.8 74.2,96.9 77.2,94 78,94.3 	"/>
	<path class="st7" d="M51.7,154.5h-6.2c-0.3,0-0.5-0.2-0.5-0.5l0,0c0-0.3,0.2-0.5,0.5-0.5h6.2c0.3,0,0.5,0.2,0.5,0.5l0,0
		C52.2,154.3,52,154.5,51.7,154.5z"/>
	<path class="st7" d="M61,154.5h-3.3c-0.3,0-0.5-0.2-0.5-0.5l0,0c0-0.3,0.2-0.5,0.5-0.5H61c0.3,0,0.5,0.2,0.5,0.5l0,0
		C61.6,154.3,61.2,154.5,61,154.5z"/>
	<path class="st7" d="M64.4,154.5h-1.1c-0.3,0-0.5-0.2-0.5-0.5l0,0c0-0.3,0.2-0.5,0.5-0.5h1.1c0.3,0,0.5,0.2,0.5,0.5l0,0
		C65.1,154.3,64.8,154.5,64.4,154.5z"/>
	<path class="st7" d="M71.2,160.2h-6.2c-0.3,0-0.5-0.2-0.5-0.5l0,0c0-0.3,0.2-0.5,0.5-0.5h6.2c0.3,0,0.5,0.2,0.5,0.5l0,0
		C71.7,160,71.3,160.2,71.2,160.2z"/>
	<path class="st7" d="M56.4,160.2h-3.3c-0.3,0-0.5-0.2-0.5-0.5l0,0c0-0.3,0.2-0.5,0.5-0.5h3.3c0.3,0,0.5,0.2,0.5,0.5l0,0
		C57,160,56.7,160.2,56.4,160.2z"/>
	<path class="st7" d="M84,160.2h-1.1c-0.3,0-0.5-0.2-0.5-0.5l0,0c0-0.3,0.2-0.5,0.5-0.5H84c0.3,0,0.5,0.2,0.5,0.5l0,0
		C84.5,160,84.2,160.2,84,160.2z"/>
	<path class="st7" d="M44.4,105.5h-1c-0.1,0-0.2-0.1-0.2-0.2l0,0c0-0.1,0.1-0.2,0.2-0.2h1c0.1,0,0.2,0.1,0.2,0.2l0,0
		C44.6,105.4,44.5,105.5,44.4,105.5z"/>
	<path class="st7" d="M47.6,105.5h-0.5c-0.1,0-0.2-0.1-0.2-0.2l0,0c0-0.1,0.1-0.2,0.2-0.2h0.5c0.1,0,0.2,0.1,0.2,0.2l0,0
		C47.8,105.4,47.7,105.5,47.6,105.5z"/>
	<path class="st7" d="M41.9,103.2h-0.5c-0.1,0-0.2-0.1-0.2-0.2l0,0c0-0.1,0.1-0.2,0.2-0.2h0.5c0.1,0,0.2,0.1,0.2,0.2l0,0
		C42.1,103.1,42,103.2,41.9,103.2z"/>
	<rect x="115.5" y="114.9" class="st13" width="15.7" height="15.7"/>
	<polygon class="st14" points="115.5,114.9 131.1,114.9 123.3,122.7 115.5,130.6 	"/>
	<path class="st10" d="M79.8,91.5c0-0.4,0-0.8,0-1.4c0-1.9-3.5-4.3-4.9-4.7c-0.1,0-0.1,0-0.2,0s-0.3,0-0.4,0.1
		C74.2,85.6,74,85.8,74,86v5.9c0,0.4,0.3,0.7,0.7,0.7h4.8c0.2,0,0.2,0,0.2-0.3C79.8,92.3,79.8,91.9,79.8,91.5z M79.2,92.2L79.2,92.2
		h-4.5c-0.1,0-0.2-0.1-0.2-0.2v-5.7v-0.1h0.1c1.1,0.3,4.6,2.2,4.6,4.1c0,0.7,0,1.1,0,1.4C79.2,91.8,79.2,92,79.2,92.2L79.2,92.2z"/>
	<path class="st10" d="M74.6,85.3L74.6,85.3L74.6,85.3z"/>
	<path class="st10" d="M79.8,97.2v-3.4H74v5.3h3.3c0.6,0,1.2-0.2,1.7-0.6C79.6,98.2,79.8,97.7,79.8,97.2z M79.2,97.2
		c0,0.3-0.2,0.6-0.6,0.9s-0.9,0.5-1.4,0.5h-2.7v-4.1h4.7V97.2z"/>
	<rect x="64.2" y="100.5" class="st8" width="13.2" height="1.3"/>
	<path class="st7" d="M74.8,101.4h-1c-0.1,0-0.2-0.1-0.2-0.2l0,0c0-0.1,0.1-0.2,0.2-0.2h1c0.1,0,0.2,0.1,0.2,0.2l0,0
		C74.8,101.3,74.8,101.4,74.8,101.4z"/>
	<g>
		
			<animateTransform  accumulate="none" additive="replace" attributeName="transform" attributeType="xml" calcMode="linear" dur="1s" fill="remove" from="0 213.55 141.8" repeatCount="indefinite" restart="always" to="-360 213.55 141.8 " type="rotate">
			</animateTransform>
		<path class="st15" d="M213.5,141.8c1-0.8,0.9-6.1,0.6-9.9c-0.2,0-0.4,0-0.6,0s-0.4,0-0.6,0C212.6,135.7,212.5,141,213.5,141.8z"/>
		<path class="st15" d="M213.5,141.8c-1.2-0.5-5.8,2.3-8.9,4.4c0.2,0.4,0.4,0.7,0.6,1C208.8,145.7,213.5,143.1,213.5,141.8z"/>
		<path class="st16" d="M214.1,131.9c-0.2-2.1-0.4-3.8-0.6-3.8c-0.2,0-0.4,1.6-0.6,3.8c0.2,0,0.4,0,0.6,0S214,131.9,214.1,131.9z"/>
		<path class="st16" d="M201.8,148.6c0.1,0.1,1.6-0.5,3.6-1.4c-0.2-0.3-0.4-0.7-0.6-1C203,147.5,201.6,148.5,201.8,148.6z"/>
		<path class="st16" d="M222.5,146.2c-0.2,0.4-0.4,0.7-0.6,1c1.9,0.9,3.5,1.5,3.6,1.4C225.5,148.5,224.2,147.5,222.5,146.2z"/>
		<path class="st15" d="M213.5,141.8c0.2,1.3,4.9,3.9,8.3,5.5c0.2-0.3,0.4-0.7,0.6-1C219.4,144.1,214.8,141.3,213.5,141.8z"/>
	</g>
	<polygon class="st17" points="215.9,163.4 213.5,163.4 214.1,141.8 215,141.8 	"/>
	<rect x="214.2" y="141" class="st16" width="3.4" height="1.5"/>
	<path class="st16" d="M214.4,140.8h-0.1c-1.6,0-2.8,0.4-2.8,1c0,0.5,1.3,1,2.8,1h0.1V140.8z"/>
	<g>
		
			<animateTransform  accumulate="none" additive="replace" attributeName="transform" attributeType="xml" calcMode="linear" dur="1s" fill="remove" from="0 213.6 142.8" repeatCount="indefinite" restart="always" to="-360 213.6 142.8" type="rotate">
			</animateTransform>
		<path class="st18" d="M215.4,137.2c2.4,0.7,4.2,3,4.2,5.6c0,0.4,0,0.8-0.1,1.2l0.2,0.3c0.1-0.5,0.2-1,0.2-1.5
			c0-2.8-1.9-5.2-4.5-5.9L215.4,137.2z"/>
		<path class="st18" d="M208,144.1c-0.1-0.4-0.2-0.9-0.2-1.3c0-2.6,1.8-4.9,4.2-5.6c0-0.1,0-0.2,0.1-0.3c-2.6,0.7-4.5,3.1-4.5,5.9
			c0,0.5,0.1,1,0.2,1.4C207.8,144.2,207.9,144.2,208,144.1z"/>
		<path class="st18" d="M217.9,146.9c-1.1,1.1-2.6,1.8-4.2,1.8s-3.1-0.7-4.2-1.8c-0.1,0-0.2,0.1-0.3,0.1c1.1,1.2,2.7,1.9,4.4,1.9
			c1.8,0,3.3-0.7,4.4-1.9C218,147,218,147,217.9,146.9z"/>
		<path class="st18" d="M216,135.3c3.2,1,5.6,3.9,5.6,7.5c0,0.6-0.1,1.1-0.2,1.6l0.3,0.4c0.2-0.6,0.3-1.3,0.3-2
			c0-3.7-2.5-6.9-5.9-7.8L216,135.3z"/>
		<path class="st18" d="M206,144.5c-0.1-0.6-0.2-1.2-0.2-1.8c0-3.5,2.3-6.5,5.5-7.4c0-0.1,0.1-0.2,0.1-0.4c-3.4,1-5.9,4.1-5.9,7.8
			c0,0.6,0.1,1.3,0.2,1.9C205.9,144.6,206,144.6,206,144.5z"/>
		<path class="st18" d="M219.2,148.2c-1.4,1.4-3.4,2.4-5.6,2.4c-2.2,0-4.1-0.9-5.5-2.3c-0.1,0-0.2,0.1-0.3,0.1
			c1.5,1.6,3.6,2.5,5.9,2.5s4.4-1,5.9-2.6C219.5,148.3,219.4,148.3,219.2,148.2z"/>
	</g>
	<g>
		
			<animateTransform  accumulate="none" additive="replace" attributeName="transform" attributeType="xml" calcMode="linear" dur="1s" fill="remove" from="0 240.478 141.683" repeatCount="indefinite" restart="always" to="-360 240.478 141.683" type="rotate">
			</animateTransform>
		<path class="st15" d="M240.5,141.8c1-0.8,0.9-6.1,0.6-9.9c-0.2,0-0.4,0-0.6,0s-0.4,0-0.6,0C239.5,135.7,239.5,141,240.5,141.8z"/>
		<path class="st15" d="M240.5,141.8c-1.2-0.5-5.8,2.3-8.9,4.4c0.2,0.4,0.4,0.7,0.6,1C235.5,145.7,240.2,143.1,240.5,141.8z"/>
		<path class="st16" d="M241,131.9c-0.2-2.1-0.4-3.8-0.6-3.8c-0.2,0-0.4,1.6-0.6,3.8c0.2,0,0.4,0,0.6,0S240.9,131.9,241,131.9z"/>
		<path class="st16" d="M228.5,148.6c0.1,0.1,1.6-0.5,3.6-1.4c-0.2-0.3-0.4-0.7-0.6-1C229.8,147.5,228.5,148.5,228.5,148.6z"/>
		<path class="st16" d="M249.4,146.2c-0.2,0.4-0.4,0.7-0.6,1c1.9,0.9,3.5,1.5,3.6,1.4C252.4,148.5,251,147.5,249.4,146.2z"/>
		<path class="st15" d="M240.5,141.8c0.2,1.3,4.9,3.9,8.3,5.5c0.2-0.3,0.4-0.7,0.6-1C246.1,144.1,241.6,141.3,240.5,141.8z"/>
	</g>
	<polygon class="st17" points="242.6,163.4 240.4,163.4 241,141.8 242,141.8 	"/>
	<rect x="241.1" y="141" class="st16" width="3.4" height="1.5"/>
	<path class="st16" d="M241.1,140.8H241c-1.6,0-2.8,0.4-2.8,1c0,0.5,1.3,1,2.8,1h0.1V140.8z"/>
	<g>
		
			<animateTransform  accumulate="none" additive="replace" attributeName="transform" attributeType="xml" calcMode="linear" dur="1s" fill="remove" from="0 240.608 142.8" repeatCount="indefinite" restart="always" to="-360 240.608 142.8" type="rotate">
			</animateTransform>
		<path class="st18" d="M242.2,137.2c2.4,0.7,4.2,3,4.2,5.6c0,0.4,0,0.8-0.1,1.2l0.2,0.3c0.1-0.5,0.2-1,0.2-1.5
			c0-2.8-1.9-5.2-4.5-5.9V137.2z"/>
		<path class="st18" d="M234.9,144.1c-0.1-0.4-0.2-0.9-0.2-1.3c0-2.6,1.8-4.9,4.2-5.6c0-0.1,0-0.2,0.1-0.3c-2.6,0.7-4.5,3.1-4.5,5.9
			c0,0.5,0.1,1,0.2,1.4C234.6,144.2,234.8,144.2,234.9,144.1z"/>
		<path class="st18" d="M244.8,146.9c-1.1,1.1-2.6,1.8-4.2,1.8c-1.6,0-3.1-0.7-4.2-1.8c-0.1,0-0.2,0.1-0.3,0.1
			c1.1,1.2,2.7,1.9,4.4,1.9c1.8,0,3.3-0.7,4.4-1.9C244.9,147,244.9,147,244.8,146.9z"/>
		<path class="st18" d="M242.8,135.3c3.2,1,5.6,3.9,5.6,7.5c0,0.6-0.1,1.1-0.2,1.6l0.3,0.4c0.2-0.6,0.3-1.3,0.3-2
			c0-3.7-2.5-6.9-5.9-7.8L242.8,135.3z"/>
		<path class="st18" d="M233,144.5c-0.1-0.6-0.2-1.2-0.2-1.8c0-3.5,2.3-6.5,5.5-7.4c0-0.1,0.1-0.2,0.1-0.4c-3.4,1-5.9,4.1-5.9,7.8
			c0,0.6,0.1,1.3,0.2,1.9C232.8,144.6,232.9,144.6,233,144.5z"/>
		<path class="st18" d="M246,148.2c-1.4,1.4-3.4,2.4-5.6,2.4c-2.2,0-4.1-0.9-5.5-2.3c-0.1,0-0.2,0.1-0.3,0.1
			c1.5,1.6,3.6,2.5,5.9,2.5s4.4-1,5.9-2.6C246.4,148.3,246.2,148.3,246,148.2z"/>
	</g>
</g>
<rect y="162.4" class="st19" width="257" height="2"/>
</svg>
