<svg width="168px" height="52px" viewBox="0 0 168 52" version="1.1" xmlns="http://www.w3.org/2000/svg" xmlns:xlink="http://www.w3.org/1999/xlink">
    <!-- Generator: Sketch 49.3 (51167) - http://www.bohemiancoding.com/sketch -->
    <g id="Master" stroke="none" stroke-width="1" fill="none" fill-rule="evenodd">
        <g id="Landing-page" transform="translate(-500.000000, -5256.000000)">
            <g id="Free" transform="translate(500.000000, 5256.000000)">
                <polygon id="Fill-1" fill="#68C4AF" points="38 49.2586 130.177 49.2586 130.177 -0.0004 38 -0.0004"></polygon>
                <polygon id="Fill-2" fill="#589D8B" points="117.388 49.2586 130.177 49.2586 130.177 -0.0004 117.388 -0.0004"></polygon>
                <polygon id="Fill-3" fill="#FAFAFA" points="54 20.7596 67.357 20.7596 67.357 9.6496 54 9.6496"></polygon>
                <polygon id="Fill-4" fill="#FAFAFA" points="72 20.7596 85.357 20.7596 85.357 9.6496 72 9.6496"></polygon>
                <polygon id="Fill-5" fill="#FAFAFA" points="72 34.7596 85.357 34.7596 85.357 23.6496 72 23.6496"></polygon>
                <polygon id="Fill-6" fill="#FAFAFA" points="54 34.7596 67.357 34.7596 67.357 23.6496 54 23.6496"></polygon>
                <polygon id="Fill-7" fill="#FAFAFA" points="100 49.2586 111.604 49.2586 111.604 31.1326 100 31.1326"></polygon>
                <path d="M24,30.7583 C24,33.2443 21.985,35.2583 19.5,35.2583 C17.014,35.2583 15,33.2443 15,30.7583 C15,28.2733 17.014,26.2583 19.5,26.2583 C21.985,26.2583 24,28.2733 24,30.7583" id="Fill-8" fill="#84B85E"></path>
                <path d="M29,26.2583 C29,29.0193 26.761,31.2583 23.999,31.2583 C21.238,31.2583 19,29.0193 19,26.2583 C19,23.4973 21.238,21.2583 23.999,21.2583 C26.761,21.2583 29,23.4973 29,26.2583" id="Fill-10" fill="#235127"></path>
                <path d="M26,19.2588 C26,22.0198 23.761,24.2588 20.999,24.2588 C18.238,24.2588 16,22.0198 16,19.2588 C16,16.4978 18.238,14.2588 20.999,14.2588 C23.761,14.2588 26,16.4978 26,19.2588" id="Fill-12" fill="#235127"></path>
                <path d="M23,25.2583 C23,28.0203 20.761,30.2583 17.999,30.2583 C15.238,30.2583 13,28.0203 13,25.2583 C13,22.4973 15.238,20.2583 17.999,20.2583 C20.761,20.2583 23,22.4973 23,25.2583" id="Fill-14" fill="#519043"></path>
                <path d="M28,11.2583 C28,14.0193 25.761,16.2583 22.999,16.2583 C20.238,16.2583 18,14.0193 18,11.2583 C18,8.4973 20.238,6.2583 22.999,6.2583 C25.761,6.2583 28,8.4973 28,11.2583" id="Fill-16" fill="#84B85E"></path>
                <path d="M34,30.2588 C34,33.0198 31.761,35.2588 29,35.2588 C26.238,35.2588 24,33.0198 24,30.2588 C24,27.4978 26.238,25.2588 29,25.2588 C31.761,25.2588 34,27.4978 34,30.2588" id="Fill-18" fill="#84B85E"></path>
                <path d="M32,18.2588 C32,21.0198 29.761,23.2588 26.999,23.2588 C24.238,23.2588 22,21.0198 22,18.2588 C22,15.4968 24.238,13.2588 26.999,13.2588 C29.761,13.2588 32,15.4968 32,18.2588" id="Fill-20" fill="#519043"></path>
                <polygon id="Fill-22" fill="#7D6A48" points="23.7998 20.438 27.8648 16.683 28.0038 16.822 23.8258 21.389 24.1938 34.787 28.8328 30.501 28.9998 30.669 24.2238 35.889 24.5908 49.259 21.7478 49.259 22.2708 30.209 17.9998 25.54 18.1378 25.401 22.2968 29.243 22.7908 11.259 23.5488 11.259"></polygon>
                <path d="M157.9131,26.3931 L133.4081,26.3931 C132.8451,26.3931 132.3831,25.9321 132.3831,25.3681 L132.3831,24.6901 C132.3831,24.1261 132.8451,23.6641 133.4081,23.6641 L157.9131,23.6641 C158.4761,23.6641 158.9371,24.1261 158.9371,24.6901 L158.9371,25.3681 C158.9371,25.9321 158.4761,26.3931 157.9131,26.3931" id="Fill-24" fill="#EDDEA4"></path>
                <path d="M138.0703,49.2588 L135.3813,49.2588 L135.3813,21.3708 C135.3813,20.8148 135.8363,20.3598 136.3913,20.3598 L137.0593,20.3598 C137.6163,20.3598 138.0703,20.8148 138.0703,21.3708 L138.0703,49.2588 Z" id="Fill-26" fill="#EDDEA4"></path>
                <polygon id="Fill-28" fill-opacity="0.2" fill="#231F20" points="138.071 26.3936 138.345 26.3936 138.345 23.6646 138.071 23.6646"></polygon>
                <polygon id="Fill-30" fill="#EDEDED" points="139.108 43.8596 157.612 43.8596 157.612 29.1026 139.108 29.1026"></polygon>
                <polygon id="Fill-32" fill="#EB5160" points="140.261 42.7066 156.459 42.7066 156.459 30.2556 140.261 30.2556"></polygon>
                <polygon id="Fill-33" fill="#EDDEA4" points="140.492 29.1026 140.938 29.1026 140.938 26.3936 140.492 26.3936"></polygon>
                <polygon id="Fill-34" fill="#EDDEA4" points="155.783 29.1026 156.229 29.1026 156.229 26.3936 155.783 26.3936"></polygon>
                <polygon id="Fill-35" fill="#FFFFFF" points="143.6641 37.8296 143.6641 35.1326 145.6421 35.1326 145.6421 35.7396 144.3601 35.7396 144.3601 36.1596 145.6131 36.1596 145.6131 36.7666 144.3601 36.7666 144.3601 37.8296"></polygon>
                <path d="M147.6006,36.0264 C147.6006,35.8444 147.4476,35.7394 147.2656,35.7394 L146.7156,35.7394 L146.7156,36.3174 L147.2656,36.3174 C147.4476,36.3174 147.6006,36.2164 147.6006,36.0264 Z M147.5246,37.8294 L147.0716,36.9234 L146.7156,36.9234 L146.7156,37.8294 L146.0196,37.8294 L146.0196,35.1324 L147.3706,35.1324 C147.9686,35.1324 148.3086,35.5284 148.3086,36.0304 C148.3086,36.4994 148.0216,36.7504 147.7706,36.8384 L148.3206,37.8294 L147.5246,37.8294 Z" id="Fill-36" fill="#FFFFFF"></path>
                <polygon id="Fill-37" fill="#FFFFFF" points="148.6953 37.8296 148.6953 35.1326 150.6733 35.1326 150.6733 35.7396 149.3913 35.7396 149.3913 36.1596 150.6443 36.1596 150.6443 36.7666 149.3913 36.7666 149.3913 37.2236 150.6733 37.2236 150.6733 37.8296"></polygon>
                <polygon id="Fill-38" fill="#FFFFFF" points="151.0791 37.8296 151.0791 35.1326 153.0571 35.1326 153.0571 35.7396 151.7751 35.7396 151.7751 36.1596 153.0281 36.1596 153.0281 36.7666 151.7751 36.7666 151.7751 37.2236 153.0571 37.2236 153.0571 37.8296"></polygon>
                <polygon id="Fill-39" fill="#49A7F9" points="0 51.2586 167.5 51.2586 167.5 49.2586 0 49.2586"></polygon>
            </g>
        </g>
    </g>
</svg>