<svg width="77px" height="132px" viewBox="0 0 77 132" version="1.1" xmlns="http://www.w3.org/2000/svg" xmlns:xlink="http://www.w3.org/1999/xlink">
    <defs></defs>
    <g id="Master" stroke="none" stroke-width="1" fill="none" fill-rule="evenodd">
        <g id="Login-Screen" transform="translate(-709.000000, -486.000000)">
            <g id="Step-2" transform="translate(669.000000, 486.000000)">
                <g id="Smart-Phone" transform="translate(40.000000, 0.000000)">
                    <path d="M68.7444219,14.08 L7.93204868,14.08 L7.93204868,117.92 L68.7444219,117.92 L68.7444219,14.08 Z M72.2235647,0.0295878959 C72.3831232,0.0100559679 72.5456104,3.02798588e-17 72.7104462,0 C74.900821,-4.02365316e-16 76.6764706,1.77564958 76.6764706,3.96602434 L76.6764706,128.033976 C76.6764706,130.22435 74.900821,132 72.7104462,132 C72.5456104,132 72.3831232,131.989944 72.2235647,131.970412 C72.0438869,131.989966 71.8613506,132 71.6764706,132 L5,132 C4.81512003,132 4.63258368,131.989966 4.45290586,131.970412 C4.29334739,131.989944 4.13086021,132 3.96602434,132 C1.77564958,132 6.48549248e-15,130.22435 6.21724894e-15,128.033976 L-8.8817842e-16,3.96602434 C-1.15642196e-15,1.77564958 1.77564958,4.02365316e-16 3.96602434,0 C4.13086021,-3.02798588e-17 4.29334739,0.0100559679 4.45290586,0.0295878959 C4.63258368,0.0100342638 4.81512003,3.39618999e-17 5,0 L71.6764706,0 C71.8613506,-5.26581104e-16 72.0438869,0.0100342638 72.2235647,0.0295878959 Z" id="Combined-Shape" fill="#373737"></path>
                    <rect id="Screen" fill="#FFFFFF" x="7" y="14" width="63.0882353" height="103.852941"></rect>
                    <g id="QR-Code-icon" transform="translate(13.588235, 41.735294)" fill-rule="nonzero">
                        <polygon id="Shape" fill="#39B54A" points="3.43825409 3.49715879 10.6929212 3.49715879 10.6929212 0 3.43825409 0 0 0 0 3.49715879 0 10.8772819 3.43825409 10.8772819"></polygon>
                        <polygon id="Shape" fill="#39B54A" points="3.43825409 37.6521298 0 37.6521298 0 45.032075 0 48.5294118 3.43825409 48.5294118 10.6929212 48.5294118 10.6929212 45.032075 3.43825409 45.032075"></polygon>
                        <polygon id="Shape" fill="#39B54A" points="45.0913519 45.032075 37.8364905 45.032075 37.8364905 48.5294118 45.0913519 48.5294118 48.5294118 48.5294118 48.5294118 45.032075 48.5294118 37.6521298 45.0913519 37.6521298"></polygon>
                        <polygon id="Shape" fill="#39B54A" points="45.0913519 0 37.8364905 0 37.8364905 3.49715879 45.0913519 3.49715879 45.0913519 10.8772819 48.5294118 10.8772819 48.5294118 3.49715879 48.5294118 0"></polygon>
                        <path d="M6.58025922,23.4279919 L23.0309073,23.4279919 L23.0309073,6.69371197 L6.58025922,6.69371197 L6.58025922,23.4279919 Z M9.91068701,10.0816752 L19.7004795,10.0816752 L19.7004795,20.0400286 L9.91068701,20.0400286 L9.91068701,10.0816752 Z" id="Shape" fill="#000000"></path>
                        <rect id="Rectangle-path" fill="#000000" x="11.5154536" y="11.7139959" width="6.58025922" height="6.69371197"></rect>
                        <path d="M6.58025922,42.6724138 L23.0309073,42.6724138 L23.0309073,25.9381339 L6.58025922,25.9381339 L6.58025922,42.6724138 Z M9.91068701,29.3260971 L19.7004795,29.3260971 L19.7004795,39.2850152 L9.91068701,39.2850152 L9.91068701,29.3260971 Z" id="Shape" fill="#000000"></path>
                        <path d="M41.9485975,6.69371197 L25.4985045,6.69371197 L25.4985045,23.4279919 L41.9491525,23.4279919 L41.9491525,6.69371197 L41.9485975,6.69371197 Z M38.6181697,20.0400286 L28.8289323,20.0400286 L28.8289323,10.0816752 L38.6187248,10.0816752 L38.6187248,20.0400286 L38.6181697,20.0400286 Z" id="Shape" fill="#000000"></path>
                        <rect id="Rectangle-path" fill="#000000" x="25.4985045" y="25.9381339" width="10.6929212" height="3.34685598"></rect>
                        <rect id="Rectangle-path" fill="#000000" x="25.4985045" y="30.9584178" width="3.29012961" height="11.7139959"></rect>
                        <polygon id="Shape" fill="#000000" points="38.0157348 42.6724138 41.9491525 42.6724138 41.9491525 39.0601029 38.2533422 39.0601029 38.2533422 36.8154158 34.0005537 36.8154158 34.0005537 39.0601029 30.4336989 39.0601029 30.4336989 42.6724138 34.3665679 42.6724138 34.3665679 40.4282985 38.0157348 40.4282985"></polygon>
                        <polygon id="Shape" fill="#000000" points="32.0787637 30.852845 32.0787637 34.3052738 38.4163451 34.3052738 38.6920137 34.3052738 41.9491525 34.3052738 41.9491525 25.9381339 38.4163451 25.9381339 38.4163451 30.852845"></polygon>
                    </g>
                </g>
            </g>
        </g>
    </g>
</svg>