<svg xmlns="http://www.w3.org/2000/svg" viewBox="0 0 26.85 33.86"><defs><style>.ballon-small-svg-1{fill:#c67022;}.ballon-small-svg-2{fill:#f9dbbd;}.ballon-small-svg-3,.ballon-small-svg-6{fill:#313638;}.ballon-small-svg-4{fill:#eb5160;}.ballon-small-svg-5{fill:#fff;}.ballon-small-svg-6{opacity:0.2;}</style></defs><g id="Layer_2" data-name="Layer 2"><g id="Layer_1-2" data-name="Layer 1"><path class="ballon-small-svg-1" d="M19.35,33.86a1.65,1.65,0,0,0-1.82-1.14c-.41,0-.76,0-.87-.33s.12-.49.35-.66a1,1,0,0,0,.41-1.32,1.5,1.5,0,0,0-1.24-1,2.68,2.68,0,0,0-.9,0l0-.14s1.78-.38,2.3,1.12a1.11,1.11,0,0,1-.46,1.49c-.24.18-.36.28-.29.49s.33.22.73.24a1.79,1.79,0,0,1,2,1.23Z"/><rect class="ballon-small-svg-2" x="11.59" y="29.24" width="3.67" height="1.04"/><path class="ballon-small-svg-3" d="M15.34,30.36H11.52V29.17h3.82Zm-3.68-.15h3.53v-.9H11.66Z"/><path class="ballon-small-svg-2" d="M11.86,30.28H15a0,0,0,0,1,0,0V32a.46.46,0,0,1-.46.46H12.32a.46.46,0,0,1-.46-.46V30.28a0,0,0,0,1,0,0Z"/><path class="ballon-small-svg-3" d="M14.48,32.56H12.37a.59.59,0,0,1-.59-.58V30.21h3.29V32A.58.58,0,0,1,14.48,32.56Zm-2.55-2.2V32a.44.44,0,0,0,.44.44h2.11a.44.44,0,0,0,.44-.44V30.36Z"/><polygon class="ballon-small-svg-3" points="12.19 29.25 11.4 27.66 11.47 27.63 12.26 29.22 12.19 29.25"/><polygon class="ballon-small-svg-3" points="14.73 29.25 14.66 29.22 15.39 27.63 15.46 27.66 14.73 29.25"/><polygon class="ballon-small-svg-3" points="11.56 29.26 6.44 22.74 6.5 22.69 11.62 29.21 11.56 29.26"/><polygon class="ballon-small-svg-3" points="15.29 29.26 15.23 29.21 20.36 22.69 20.41 22.74 15.29 29.26"/><path class="ballon-small-svg-4" d="M15.66,26.61s11.12-7.66,11.12-15S20.8.07,13.43.07.07,4.29.07,11.62s11.12,15,11.12,15"/><path class="ballon-small-svg-3" d="M15.7,26.67l-.08-.12a43.29,43.29,0,0,0,5.55-4.74c2.53-2.57,5.54-6.43,5.54-10.19a10.55,10.55,0,0,0-3.89-8.47,14.82,14.82,0,0,0-9.39-3,14.85,14.85,0,0,0-9.4,3A10.54,10.54,0,0,0,.15,11.62c0,2.07,1,5.53,5.53,10.19a43.75,43.75,0,0,0,5.56,4.74l-.09.12a42.67,42.67,0,0,1-5.57-4.76C3,19.32,0,15.43,0,11.62A10.68,10.68,0,0,1,3.94,3a15,15,0,0,1,9.49-3,15,15,0,0,1,9.49,3,10.7,10.7,0,0,1,3.93,8.58,10.86,10.86,0,0,1-1.74,5.47,26.51,26.51,0,0,1-3.84,4.82A42.67,42.67,0,0,1,15.7,26.67Z"/><path class="ballon-small-svg-5" d="M15.66,26.61s5.78-7.66,5.78-15S17.85.07,13.43.07s-8,4.22-8,11.55,5.78,15,5.78,15"/><path class="ballon-small-svg-3" d="M15.72,26.65l-.12-.08a35.65,35.65,0,0,0,2.89-4.74,23.91,23.91,0,0,0,2.88-10.21A14.2,14.2,0,0,0,19,3.14a6.89,6.89,0,0,0-5.6-3,6.89,6.89,0,0,0-5.61,3,14.2,14.2,0,0,0-2.33,8.48A23.77,23.77,0,0,0,8.37,21.83a36.29,36.29,0,0,0,2.88,4.74l-.11.08a34.55,34.55,0,0,1-2.9-4.76,24,24,0,0,1-2.9-10.27A14.43,14.43,0,0,1,7.7,3.05a7,7,0,0,1,5.73-3,7,7,0,0,1,5.72,3.05,14.36,14.36,0,0,1,2.36,8.57,23.82,23.82,0,0,1-2.9,10.27A36.4,36.4,0,0,1,15.72,26.65Z"/><path class="ballon-small-svg-4" d="M14.1,26.61a78.69,78.69,0,0,0,1.73-15c0-7.33-1.08-11.55-2.4-11.55S11,4.29,11,11.62a78.26,78.26,0,0,0,1.74,15"/><path class="ballon-small-svg-3" d="M14.17,26.63l-.14,0a79.8,79.8,0,0,0,1.73-15C15.76,3.74,14.55.15,13.43.15S11.1,3.74,11.1,11.62a78.86,78.86,0,0,0,1.73,15l-.14,0a79,79,0,0,1-1.74-15C11,4.67,12,0,13.43,0S15.9,4.67,15.9,11.62A79.4,79.4,0,0,1,14.17,26.63Z"/><polygon class="ballon-small-svg-4" points="15.42 27.65 11.44 27.65 11.18 26.6 15.68 26.6 15.42 27.65"/><path class="ballon-small-svg-3" d="M15.42,27.72h-4a.07.07,0,0,1-.07,0l-.27-1.05a.07.07,0,0,1,0-.06.06.06,0,0,1,.06,0h4.5a.09.09,0,0,1,.06,0,.13.13,0,0,1,0,.06l-.26,1.05S15.46,27.72,15.42,27.72Zm-3.92-.14h3.87l.22-.9H11.27Z"/><path class="ballon-small-svg-6" d="M26,15.18a6.92,6.92,0,0,0,.79-3.56C26.78,4.29,20.39.07,13.43.07"/></g></g></svg>