<svg width="72px" height="46px" viewBox="0 0 72 46" xmlns="http://www.w3.org/2000/svg">
    <defs></defs>
    <g id="Master" stroke="none" stroke-width="1" fill="none" fill-rule="evenodd">
        <g id="Landing-page" transform="translate(-566.000000, -1319.000000)" fill="#160F29" fill-rule="nonzero">
            <g id="Group-5" transform="translate(438.000000, 1319.000000)">
                <path d="M198.285714,42.5925926 C198.2,42.5925926 198.028571,42.5925926 197.942857,42.5925926 L186.114286,19.1666667 C186.714286,18.7407407 187.142857,17.9740741 187.142857,17.1222222 C187.142857,15.6740741 186.028571,14.5666667 184.571429,14.5666667 C183.8,14.5666667 183.114286,14.8222222 182.685714,15.3333333 L167.085714,4.94074074 C167.257143,4.42962963 167.428571,3.91851852 167.428571,3.40740741 C167.428571,1.53333333 165.885714,0 164,0 C162.114286,0 160.571429,1.53333333 160.571429,3.40740741 C160.571429,3.91851852 160.742857,4.42962963 160.914286,4.85555556 L145.314286,15.2481481 C144.8,14.8222222 144.2,14.4814815 143.428571,14.4814815 C141.971429,14.4814815 140.857143,15.5888889 140.857143,17.037037 C140.857143,17.8888889 141.285714,18.6555556 141.885714,19.0814815 L130.057143,42.5925926 C129.971429,42.5925926 129.8,42.5925926 129.714286,42.5925926 C128.771429,42.5925926 128,43.3592593 128,44.2962963 C128,45.2333333 128.771429,46 129.714286,46 C130.657143,46 131.428571,45.2333333 131.428571,44.2962963 C131.428571,43.7851852 131.171429,43.3592593 130.828571,43.0185185 L142.657143,19.5074074 C142.742857,19.5074074 142.914286,19.5925926 143,19.5925926 L143,42.6777778 C142.228571,42.8481481 141.714286,43.5296296 141.714286,44.2962963 C141.714286,45.2333333 142.485714,46 143.428571,46 C144.371429,46 145.142857,45.2333333 145.142857,44.2962963 C145.142857,43.5296296 144.628571,42.8481481 143.857143,42.6777778 L143.857143,19.5925926 C144.028571,19.5925926 144.114286,19.5074074 144.2,19.5074074 L156.028571,43.0185185 C155.685714,43.3592593 155.428571,43.7851852 155.428571,44.2962963 C155.428571,45.2333333 156.2,46 157.142857,46 C158.085714,46 158.857143,45.2333333 158.857143,44.2962963 C158.857143,43.3592593 158.085714,42.5925926 157.142857,42.5925926 C157.057143,42.5925926 156.885714,42.5925926 156.8,42.5925926 L144.971429,19.0814815 C145.571429,18.6555556 146,17.8888889 146,17.037037 C146,16.6962963 145.914286,16.3555556 145.742857,16.0148148 L161.428571,5.62222222 C162.028571,6.38888889 162.971429,6.81481481 164,6.81481481 C165.028571,6.81481481 165.971429,6.3037037 166.571429,5.62222222 L182.257143,16.0148148 C182.085714,16.2703704 182,16.6962963 182,17.037037 C182,17.8888889 182.428571,18.6555556 183.028571,19.0814815 L171.2,42.5925926 C171.114286,42.5925926 170.942857,42.5925926 170.857143,42.5925926 C169.914286,42.5925926 169.142857,43.3592593 169.142857,44.2962963 C169.142857,45.2333333 169.914286,46 170.857143,46 C171.8,46 172.571429,45.2333333 172.571429,44.2962963 C172.571429,43.7851852 172.314286,43.3592593 171.971429,43.0185185 L183.8,19.5074074 C183.885714,19.5074074 184.057143,19.5925926 184.142857,19.5925926 L184.142857,42.6777778 C183.371429,42.8481481 182.857143,43.5296296 182.857143,44.2962963 C182.857143,45.2333333 183.628571,46 184.571429,46 C185.514286,46 186.285714,45.2333333 186.285714,44.2962963 C186.285714,43.5296296 185.771429,42.8481481 185,42.6777778 L185,19.5925926 C185.171429,19.5925926 185.257143,19.5074074 185.342857,19.5074074 L197.171429,43.0185185 C196.828571,43.3592593 196.571429,43.7851852 196.571429,44.2962963 C196.571429,45.2333333 197.342857,46 198.285714,46 C199.228571,46 200,45.2333333 200,44.2962963 C200,43.3592593 199.228571,42.5925926 198.285714,42.5925926 Z" id="Shape"></path>
            </g>
        </g>
    </g>
</svg>