<svg width="25px" height="20px" viewBox="0 0 25 20" xmlns="http://www.w3.org/2000/svg">
    <g id="Master" stroke="none" stroke-width="1" fill="none" fill-rule="evenodd">
        <g id="Landing-page" transform="translate(-1787.000000, -6384.000000)" fill="#373737" fill-rule="nonzero">
            <g id="footer" transform="translate(0.000000, 6353.000000)">
                <g id="Group-40" transform="translate(1665.000000, 31.000000)">
                    <g id="Social-Media" transform="translate(95.000000, 0.000000)">
                        <path d="M52,2.36769231 C51.0703125,2.76923077 50.0796875,3.03538462 49.046875,3.16461538 C50.109375,2.54 50.9203125,1.55846154 51.3015625,0.375384615 C50.3109375,0.956923077 49.2171875,1.36769231 48.0515625,1.59692308 C47.1109375,0.610769231 45.7703125,0 44.3078125,0 C41.4703125,0 39.1859375,2.26769231 39.1859375,5.04769231 C39.1859375,5.44769231 39.2203125,5.83230769 39.3046875,6.19846154 C35.04375,5.99384615 31.2734375,3.98307692 28.740625,0.92 C28.2984375,1.67538462 28.0390625,2.54 28.0390625,3.47076923 C28.0390625,5.21846154 28.953125,6.76769231 30.315625,7.66461538 C29.4921875,7.64923077 28.684375,7.41384615 28,7.04307692 C28,7.05846154 28,7.07846154 28,7.09846154 C28,9.55076923 29.7765625,11.5876923 32.10625,12.0569231 C31.6890625,12.1692308 31.234375,12.2230769 30.7625,12.2230769 C30.434375,12.2230769 30.103125,12.2046154 29.7921875,12.1369231 C30.45625,14.1353846 32.340625,15.6046154 34.58125,15.6523077 C32.8375,16.9953846 30.6234375,17.8046154 28.2265625,17.8046154 C27.80625,17.8046154 27.403125,17.7861538 27,17.7353846 C29.2703125,19.1769231 31.9609375,20 34.8625,20 C44.29375,20 49.45,12.3076923 49.45,5.64 C49.45,5.41692308 49.4421875,5.20153846 49.43125,4.98769231 C50.4484375,4.27692308 51.303125,3.38923077 52,2.36769231 Z" id="Shape"></path>
                    </g>
                </g>
            </g>
        </g>
    </g>
</svg>