<svg viewBox="0 0 81 28" xmlns="http://www.w3.org/2000/svg">
  <g fill-rule="nonzero" fill="none">
    <path fill="#2FABF7" d="M6.87272727 6.93636364h2.8l-1.4-3.56363637z"/>
    <path d="M41.6181818 3.88181818c-.2545454-.12727273-.6363636-.12727273-1.0181818-.12727273h-2.5454545v2.03636364H40.6c.3818182 0 .7636364 0 1.0181818-.12727273C41.8727273 5.53636364 42 5.15454545 42 4.77272727c.1272727-.50909091-.1272727-.76363636-.3818182-.89090909z" fill="#228FE0"/>
    <path d="M68.8545455.06363636V1.5909091L68.0909091.06363636h-5.9818182V1.5909091L61.3454545.06363636H53.2c-1.4 0-2.5454545.25454546-3.5636364.76363637V.06363636h-5.7272727v.76363637c-.6363636-.50909091-1.4-.76363637-2.4181818-.76363637H21l-1.4 3.18181819L18.2.06363636h-6.4909091V1.5909091L10.9454545.06363636H5.47272727L2.92727273 6.04545455 0 12.6636364h6.49090909l.76363636-2.0363637h1.78181819L9.8 12.6636364h7.3818182v-1.5272728l.6363636 1.5272728h3.6909091l.6363636-1.5272728v1.5272728h17.6909091V9.35454545h.2545455c.2545454 0 .2545454 0 .2545454.38181819v2.79999996h9.1636364v-.7636363c.7636364.3818182 1.9090909.7636363 3.4363636.7636363h3.8181819L57.5272727 10.5h1.7818182l.7636364 2.0363636h7.3818182v-1.9090909L68.6 12.5363636h5.9818182V.06363636h-5.7272727zM25.8363636 10.7545455h-2.1636363V3.75454545l-3.0545455 7.00000005h-1.9090909l-3.0545454-7.00000005v7.00000005h-4.3272728l-.8909091-1.90909095H6.10909091l-.76363636 2.03636365H2.92727273l3.81818182-9.03636365h3.18181818l3.56363637 8.52727275V1.84545455h3.4363636l2.8 6.1090909 2.5454546-6.1090909h3.5636363v8.90909095zm8.6545455-7.00000005h-4.9636364v1.65454546h4.8363637v1.78181818h-4.8363637v1.78181818h4.9636364v1.90909093h-7.1272727V1.84545455h7.1272727v1.9090909zm9.5454545 3.6909091c.2545455.5090909.3818182.89090909.3818182 1.65454545v1.7818182h-2.1636363V9.73636364c0-.50909091 0-1.27272728-.3818182-1.78181819-.3818182-.38181818-.7636364-.38181818-1.5272728-.38181818h-2.290909v3.30909093h-2.1636364V1.84545455h4.8363636c1.1454546 0 1.9090909 0 2.5454546.38181818.6363636.38181818 1.0181818 1.01818182 1.0181818 2.03636363 0 1.4-.8909091 2.16363637-1.5272727 2.41818182.6363636.12727273 1.0181818.50909091 1.2727272.76363637zm3.8181819 3.30909095h-2.1636364V1.71818182h2.1636364v9.03636368zm25.0727272 0h-3.0545454L65.8 4.00909091v6.74545459h-4.3272727l-.7636364-1.90909095h-4.4545454l-.7636364 2.03636365h-2.4181818c-1.0181818 0-2.2909091-.2545455-3.0545455-1.01818184C49.2545455 9.1 48.8727273 8.08181818 48.8727273 6.42727273c0-1.27272728.2545454-2.54545455 1.1454545-3.56363637C50.6545455 2.1 51.8 1.84545455 53.2 1.84545455h2.0363636v1.9090909H53.2c-.7636364 0-1.1454545.12727273-1.6545455.50909091-.3818181.38181819-.6363636 1.14545455-.6363636 2.03636364 0 1.01818182.1272727 1.65454545.6363636 2.16363636.3818182.38181819.8909091.50909091 1.5272728.50909091h.8909091l2.9272727-7h3.1818182L63.6363636 10.5V1.97272727h3.1818182l3.6909091 6.23636364V1.97272727h2.1636364v8.78181823h.2545454z" fill="#0571C1"/>
    <g fill="#228FE0">
      <path d="M57.0181821 6.93636355h2.9272727l-1.4-3.56363637zM35.38181845 25.2636363v-7.2545455l-3.3090909 3.5636364z"/>
    </g>
    <path fill="#2FABF7" d="M21.7636364 18.9v1.6545455h4.7090909v1.7818181h-4.7090909v1.9090909h5.2181818L29.4 21.5727273 27.1090909 18.9z"/>
    <path d="M40.2181818 18.9h-2.6727273v2.2909091h2.8c.7636364 0 1.2727273-.3818182 1.2727273-1.1454546-.1272727-.7636363-.6363636-1.1454545-1.4-1.1454545z" fill="#228FE0"/>
    <path d="M79.5454545 21.0636364v-5.7272728H74.2c-1.1454545 0-2.0363636.2545455-2.6727273.7636364v-.7636364h-5.8545454c-.8909091 0-2.0363637.2545455-2.5454546.7636364v-.7636364H52.8181818V16.1c-.7636363-.6363636-2.1636363-.7636364-2.8-.7636364h-6.8727273V16.1c-.6363636-.6363636-2.1636363-.7636364-2.9272727-.7636364h-7.6363636L30.8 17.2454545l-1.6545455-1.9090909H17.6909091v12.4727273h11.2L30.6727273 25.9l1.6545454 1.9090909H39.2v-2.9272727h.8909091c.8909091 0 2.0363636 0 2.9272727-.3818182v3.4363636h5.7272727v-3.3090909H49c.3818182 0 .3818182 0 .3818182.3818182v2.9272727h17.3090909c1.1454545 0 2.2909091-.2545454 2.9272727-.7636363v.7636363h5.4727273c1.1454545 0 2.2909091-.1272727 3.0545454-.6363636 1.2727273-.7636364 2.0363637-2.1636364 2.0363637-3.8181818 0-.8909091-.2545455-1.7818182-.6363637-2.4181818zM40.0909091 23.1h-2.5454546v3.0545455h-4.0727272l-2.5454546-2.9272728-2.6727272 2.9272728h-8.4v-9.0363637h8.5272727l2.5454545 2.9272727L33.6 17.1181818h6.7454545c1.6545455 0 3.5636364.5090909 3.5636364 2.9272727C43.7818182 22.5909091 42 23.1 40.0909091 23.1zm12.7272727-.5090909c.2545455.3818182.3818182.8909091.3818182 1.6545454v1.7818182h-2.1636364v-1.1454545c0-.5090909 0-1.4-.3818181-1.7818182-.2545455-.3818182-.7636364-.3818182-1.5272728-.3818182h-2.2909091v3.3090909h-2.1636363v-9.0363636h4.8363636c1.0181818 0 1.9090909 0 2.5454546.3818182C52.6909091 17.7545455 53.2 18.3909091 53.2 19.4090909c0 1.4-.8909091 2.1636364-1.5272727 2.4181818.6363636.2545455 1.0181818.5090909 1.1454545.7636364zM61.6 18.9h-4.9636364v1.6545455h4.8363637v1.7818181h-4.8363637v1.7818182H61.6v1.9090909h-7.1272727v-9.0363636H61.6V18.9zm5.3454545 7.1272727h-4.0727272v-1.9090909h4.0727272c.3818182 0 .6363637 0 .8909091-.2545454.1272728-.1272728.2545455-.3818182.2545455-.6363637 0-.2545454-.1272727-.5090909-.2545455-.6363636-.1272727-.1272727-.3818181-.2545455-.7636363-.2545455-2.0363637-.1272727-4.4545455 0-4.4545455-2.8 0-1.2727272.7636364-2.6727272 3.0545455-2.6727272h4.2v2.1636363h-3.9454546c-.3818182 0-.6363636 0-.8909091.1272728-.2545454.1272727-.2545454.3818181-.2545454.6363636 0 .3818182.2545454.5090909.5090909.6363636.2545454.1272728.5090909.1272728.7636364.1272728H67.2c1.1454545 0 1.9090909.2545454 2.4181818.7636363.3818182.3818182.6363637 1.0181818.6363637 1.9090909 0 1.9090909-1.1454546 2.8-3.309091 2.8zm10.9454546-.8909091c-.5090909.5090909-1.4.8909091-2.6727273.8909091h-4.0727273v-1.9090909h4.0727273c.3818182 0 .6363637 0 .8909091-.2545454.1272727-.1272728.2545455-.3818182.2545455-.6363637 0-.2545454-.1272728-.5090909-.2545455-.6363636-.1272727-.1272727-.3818182-.2545455-.7636364-.2545455-2.0363636-.1272727-4.4545454 0-4.4545454-2.8 0-1.2727272.7636364-2.6727272 3.0545454-2.6727272h4.2v2.1636363h-3.8181818c-.3818182 0-.6363636 0-.8909091.1272728-.2545454.1272727-.2545454.3818181-.2545454.6363636 0 .3818182.1272727.5090909.5090909.6363636.2545454.1272728.5090909.1272728.7636364.1272728H75.6c1.1454545 0 1.9090909.2545454 2.4181818.7636363.1272727 0 .1272727.1272727.1272727.1272727.3818182.509091.509091 1.1454546.509091 1.7818182 0 .7636364-.2545455 1.4-.7636364 1.9090909z" fill="#0571C1"/>
    <path d="M50.5272727 19.1545455c-.2545454-.1272728-.6363636-.1272728-1.0181818-.1272728h-2.5454545v2.0363637h2.5454545c.3818182 0 .7636364 0 1.0181818-.1272728.2545455-.1272727.3818182-.5090909.3818182-.8909091.1272727-.5090909-.1272727-.7636363-.3818182-.890909z" fill="#228FE0"/>
    <g fill="#228FE0">
      <path d="M41.61818209 3.8818181c-.25454545-.12727274-.63636364-.12727274-1.01818182-.12727274h-2.54545454V5.790909h2.54545454c.38181818 0 .76363637 0 1.01818182-.12727273.25454546-.12727272.38181821-.50909091.38181821-.89090909.1272727-.5090909-.12727275-.76363636-.38181821-.89090909zM57.0181821 6.93636355h2.9272727l-1.4-3.56363637zM35.38181845 25.2636363v-7.2545455l-3.3090909 3.5636364z"/>
    </g>
    <path d="M40.2181818 18.9h-2.6727273v2.2909091h2.8c.7636364 0 1.2727273-.3818182 1.2727273-1.1454546-.1272727-.7636363-.6363636-1.1454545-1.4-1.1454545zM50.5272727 19.1545455c-.2545454-.1272728-.6363636-.1272728-1.0181818-.1272728h-2.5454545v2.0363637h2.5454545c.3818182 0 .7636364 0 1.0181818-.1272728.2545455-.1272727.3818182-.5090909.3818182-.8909091.1272727-.5090909-.1272727-.7636363-.3818182-.890909z" fill="#228FE0"/>
    <g fill="#2FABF7">
      <path d="M39.3272727 25.7727273l-1.7818182-1.9090909v2.1636363h-4.2L30.8 23.1 28 26.0272727h-8.4v-8.9090909h8.5272727L30.8 20.0454545l1.2727273-1.5272727-3.1818182-3.1818182h-11.2v12.4727273h11.2L30.8 25.9l1.6545455 1.9090909h6.8727272zM26.0909091 12.5363636l-1.6545455-1.7818181h-.7636363v-.76363641l-1.9090909-1.90909091-1.2727273 2.67272732h-1.7818182l-3.0545454-7.00000005v7.00000005h-4.3272728l-.8909091-1.90909095H6.10909091l-.89090909 1.90909095H2.92727273l3.81818182-8.90909095h3.18181818l3.56363637 8.52727275V1.84545455H15.4L13.6181818.06363636h-1.9090909V1.5909091L11.0727273.06363636H5.47272727L2.92727273 6.04545455 0 12.5363636h6.61818182l.76363636-1.9090909h1.78181818l.89090914 1.9090909h7.1272727v-1.5272727l.6363636 1.5272727h3.6909091l.6363636-1.5272727v1.5272727z"/>
      <path d="M20.2363636 6.68181818L18.2 4.64545455l1.5272727 3.3090909z"/>
    </g>
    <g fill="#228FE0">
      <path d="M78.1454547 27.1727274c1.1454546-.7636364 1.9090909-2.0363637 2.0363637-3.4363637l-1.7818182-1.7818182c.1272727.3818182.2545454.7636364.2545454 1.2727273 0 .7636364-.2545454 1.4-.7636363 1.9090909-.5090909.5090909-1.4.8909091-2.6727273.8909091h-4.0727273v-1.9090909h4.0727273c.3818182 0 .6363636 0 .8909091-.2545454.1272727-.1272728.2545454-.3818182.2545454-.6363637 0-.2545454-.1272727-.5090909-.2545454-.6363636-.1272727-.1272727-.3818182-.2545455-.7636364-.2545455-2.0363636-.1272727-4.4545454 0-4.4545454-2.8 0-1.2727272.7636363-2.4181818 2.6727272-2.6727272l-1.4-1.4c-.2545454.1272727-.3818181.2545454-.5090909.2545454v-.7636364h-5.8545454c-.8909091 0-2.0363637.2545455-2.5454546.7636364v-.7636364H52.818182v.7636364c-.7636364-.6363636-2.1636364-.7636364-2.8-.7636364h-6.8727273v.7636364c-.6363636-.6363636-2.1636363-.7636364-2.9272727-.7636364h-7.6363636l-1.7818182 1.909091-1.6545455-1.909091h-1.4l3.8181818 3.8181819 1.909091-2.0363637h6.7454545c1.6545455 0 3.5636364.5090909 3.5636364 2.9272728 0 2.5454545-1.7818182 3.0545454-3.6909091 3.0545454h-2.5454546v1.9090909l1.9090909 1.9090909v-1.9090909h.6363637c.8909091 0 2.0363636 0 2.9272727-.3818182v3.4363637h5.7272727v-3.3090909h.2545455c.3818182 0 .3818182 0 .3818182.3818181v2.9272728h17.3090909c1.1454545 0 2.2909091-.2545455 2.9272727-.7636364v.7636364h5.4727273c1.0181818.1272727 2.1636363 0 3.0545454-.5090909zM52.818182 22.5909092c.2545455.3818182.3818182.8909091.3818182 1.6545454v1.7818182h-2.1636364v-1.1454545c0-.5090909 0-1.4-.3818182-1.7818182-.2545454-.3818182-.7636363-.3818182-1.5272727-.3818182h-2.2909091v3.3090909h-2.1636363v-9.0363636h4.8363636c1.0181818 0 1.9090909 0 2.5454545.3818182.6363637.3818181 1.1454546 1.0181818 1.1454546 2.0363636 0 1.4-.8909091 2.1636364-1.5272727 2.4181818.6363636.2545455 1.0181818.5090909 1.1454545.7636364zm8.7818182-3.6909091h-4.9636364v1.6545454h4.8363637v1.7818182h-4.8363637v1.7818182h4.9636364v1.9090909h-7.1272727v-9.0363636h7.1272727v1.9090909zm5.3454545 7.1272727h-4.0727272v-1.9090909h4.0727272c.3818182 0 .6363637 0 .8909091-.2545454.1272727-.1272728.2545455-.3818182.2545455-.6363637 0-.2545454-.1272728-.5090909-.2545455-.6363636-.1272727-.1272727-.3818182-.2545455-.7636363-.2545455-2.0363637-.1272727-4.4545455 0-4.4545455-2.8 0-1.2727272.7636364-2.6727272 3.0545455-2.6727272h4.2v2.1636363h-3.9454546c-.3818182 0-.6363636 0-.8909091.1272727-.2545454.1272728-.2545454.3818182-.2545454.6363637 0 .3818182.2545454.5090909.5090909.6363636.2545454.1272727.5090909.1272727.7636363.1272727h1.1454546c1.1454545 0 1.9090909.2545455 2.4181818.7636364.3818182.3818182.6363636 1.0181818.6363636 1.9090909 0 1.9090909-1.1454545 2.8-3.3090909 2.8z"/>
      <path d="M73.0545456 19.7909092c0 .3818182.1272728.5090909.5090909.6363636.2545455.1272727.509091.1272727.7636364.1272727h1.1454546c.7636363 0 1.2727272.1272728 1.7818181.3818182l-1.9090909-1.9090909h-1.1454545c-.3818182 0-.6363637 0-.8909091.1272727-.1272727.1272728-.2545455.3818182-.2545455.6363637zM68.6000002 12.1545455l.2545454.3818182h.1272728zM61.6000002 5.15454555l2.1636363 5.21818185V7.31818191z"/>
      <path d="M39.8363638 9.35454555h.2545455c.2545454 0 .2545454 0 .2545454.38181818v2.79999997h9.1636364v-.7636363c.7636364.3818181 1.9090909.7636363 3.4363636.7636363h3.8181818l.7636364-2.0363636h1.7818182l.7636364 2.0363636h7.3818181v-1.2727272l-1.7818181-1.78181823v1.40000003h-4.3272728l-.6363636-2.03636366h-4.4545455l-.7636363 2.03636366h-2.4181818c-1.0181819 0-2.2909091-.2545455-3.0545455-1.01818185-.7636364-.76363636-1.1454545-1.78181818-1.1454545-3.43636363 0-1.27272727.2545454-2.54545455 1.1454545-3.56363637.6363636-.76363636 1.7818182-1.01818181 3.1818182-1.01818181h2.0363636v1.90909091h-2.0363636c-.7636364 0-1.1454546.12727272-1.6545455.5090909-.3818182.38181819-.6363636 1.14545455-.6363636 2.03636364 0 1.01818182.1272727 1.65454546.6363636 2.16363636.3818182.38181819.8909091.50909091 1.5272728.50909091h.890909l2.9272728-7h1.2727272L56.3818184.19090918h-3.3090909c-1.4 0-2.5454546.25454546-3.5636364.76363637V.19090918h-5.6v.76363637c-.6363636-.50909091-1.4-.76363637-2.4181818-.76363637H21.00000018l-1.4 3.18181818-1.4-3.18181818h-5.6l1.78181818 1.78181818h2.54545455l2.16363636 4.70909091.76363637.76363637 2.29090909-5.6h3.56363637v9.03636366h-2.1636364V3.88181827l-2.16363634 5.09090909 3.69090914 3.69090914h14.6363636l.1272727-3.30909095zm5.8545455-7.50909091h2.1636363v9.03636366h-2.1636363V1.84545464zm-11.2 1.90909091h-4.9636364V5.409091h4.8363636v1.78181818h-4.8363636v1.78181818h4.9636364v1.90909094h-7.1272728V1.84545464h7.1272728v1.90909091zm3.5636363 6.99999995h-2.1636363V1.71818191h4.8363636c1.1454546 0 1.9090909 0 2.5454546.38181818.6363636.38181818 1.0181818 1.01818182 1.0181818 2.03636364 0 1.4-.8909091 2.16363636-1.5272728 2.41818182.509091.12727272.8909091.5090909 1.0181819.76363636.2545454.50909091.3818181.89090909.3818181 1.65454545v1.78181814h-2.1636363V9.609091c0-.50909091 0-1.27272727-.3818182-1.78181818-.1272727-.25454546-.5090909-.25454546-1.2727273-.25454546h-2.2909091v3.18181814z"/>
    </g>
  </g>
</svg>
