<svg viewBox="0 0 125 33" xmlns="http://www.w3.org/2000/svg">
  <g fill="none" fill-rule="evenodd">
    <g fill="#1A1919">
      <path d="M45.14430731 7.72991423c0-1.54988034-.80972905-1.4479986-1.58431423-1.46432808v-.44799564c.67163847.03265895 1.36031641.03265895 2.03372983.03265895.72346681 0 1.70572034-.03265895 2.98190444-.03265895 4.46291699 0 6.89387905 2.9801295 6.89387905 6.0319667 0 1.70785027-.9996479 5.99824279-7.10119241 5.99824279-.87824185 0-1.68939086-.0340789-2.49911991-.0340789-.77494017 0-1.53461582.0159745-2.309201.0340789v-.4483506c1.03301689-.1043667 1.53426083-.1380906 1.58431423-1.3099081V7.72991423zm1.68903587 8.08309097c0 1.3276575.9488846 1.4820775 1.79304754 1.4820775 3.72383067 0 4.94570148-2.80866999 4.94570148-5.37630271 0-3.22294172-2.0678087-5.54918217-5.39369712-5.54918217-.70820231 0-1.03408186.05040838-1.3450519.06886779v9.37453959zM56.0733421 17.3994494h.3265895c.4824296 0 .8274785 0 .8274785-.5701118v-4.67023031c0-.75719073-.2580767-.86191238-.8967013-1.20554137v-.27511618c.8100841-.2435222 1.7760081-.56869178 1.8441659-.62052012.1214062-.06922278.2232879-.08768219.3109701-.08768219.0844873 0 .1199861.10365668.1199861.24281222v6.61627795c0 .5701118.3798379.5701118.8629774.5701118h.2918006V17.8478c-.5860862 0-1.1902768-.0340789-1.808667-.0340789-.6205201 0-1.2413952.0159745-1.8785998.0340789v-.4483506zM57.917153 7.31706246c-.4490606 0-.8445179-.41356175-.8445179-.8615574 0-.43166616.4142717-.82889843.8445179-.82889843.4472857 0 .8448729.36315336.8448729.82889843 0 .46610007-.3801928.8615574-.8448729.8615574zM61.3985264 12.26276397c0-.6364946-.1902739-.80866409-.9989379-1.13667357v-.32729952c.7397962-.24103727 1.4458686-.46610006 2.2740571-.82854345.0521833 0 .1022367.0344339.1022367.17216949V11.263116c.9840285-.70536239 1.8285464-1.29286857 2.9850993-1.29286857 1.4629082 0 1.9797716 1.06887075 1.9797716 2.41321267v4.4458775c0 .5701118.3801928.5701118.8622674.5701118h.31097V17.8478c-.6052556 0-1.2076713-.0340789-1.8274814-.0340789-.6208751 0-1.2417502.0159745-1.8622704.0340789v-.4483506h.3109701c.4827845 0 .8260585 0 .8260585-.5701118v-4.46185199c0-.98367347-.6002858-1.46574803-1.5839592-1.46574803-.5520073 0-1.4309592.44728567-2.0014259.82818847v5.09941155c0 .5701118.3809028.5701118.8636873.5701118h.3095501V17.8478c-.6027707 0-1.2062513-.0340789-1.8278364-.0340789-.6191002 0-1.2403303.0159745-1.8601404.0340789v-.4483506h.31097c.4820746 0 .8264135 0 .8264135-.5701118v-4.56657363M70.2238986 13.09130742c-.0351438.15513003-.0351438.41320676 0 .99964797.1015268 1.63685251 1.155133 2.98048451 2.5324889 2.98048451.9492396 0 1.6908108-.5172184 2.3273054-1.1537131l.2406823.2413923c-.7930446 1.0511213-1.7749431 1.9478226-3.1870879 1.9478226-2.7412221 0-3.2925195-2.6556699-3.2925195-3.75790958 0-3.37842674 2.2744121-4.37878469 3.4795985-4.37878469 1.3975902 0 2.8981271.87895184 2.9141016 2.70643328 0 .10472164 0 .20695836-.0159745.31061504l-.15584.10401167h-4.8427548zm3.0518372-.55200731c.4298913 0 .4802996-.22435281.4802996-.43202116 0-.87753188-.5339028-1.58431423-1.4994719-1.58431423-1.0504113 0-1.7745881.77423019-1.9811915 2.01633539h3.0003638zM75.6357002 17.3994494h.4657451c.4806546 0 .8257035 0 .8257035-.5701118v-4.8420448c0-.53319292-.6372046-.63826955-.8959913-.77600513v-.25772175c1.2580797-.53461286 1.9478226-.98331849 2.1054376-.98331849.1008167 0 .1526451.05182834.1526451.22506279v1.55130029h.0362088c.4295362-.67199347 1.154778-1.77636308 2.2055443-1.77636308.4306012 0 .9815436.29286562.9815436.91374072 0 .4650351-.3258796.88072678-.8083091.88072678-.5360328 0-.5360328-.41569168-1.1398685-.41569168-.2925106 0-1.2577247.39758726-1.2577247 1.4323791v4.04793525c0 .5701118.344339.5701118.8271235.5701118h.9641491V17.8478c-.9478196-.0181044-1.6691565-.0340789-2.4110827-.0340789-.7067824 0-1.4309592.0159745-2.0511243.0340789v-.4483506M82.2704376 15.4512718c.2247078 1.1373835.9126757 2.1040176 2.1732404 2.1040176 1.0152674 0 1.3940403-.6212301 1.3940403-1.2240008 0-2.0347948-3.7561347-1.3791308-3.7561347-4.1537219 0-.96627903.7760052-2.20696428 2.6719994-2.20696428.5505874 0 1.2914486.156195 1.9630871.50124394l.1210511 1.75648371h-.3961673c-.1721695-1.08520022-.7745851-1.70536535-1.8789548-1.70536535-.6893879 0-1.3436319.39581232-1.3436319 1.13702857 0 2.01775534 3.9975269 1.39617026 3.9975269 4.10224851 0 1.1366736-.9123208 2.3446999-2.964155 2.3446999-.6886779 0-1.5001819-.2417473-2.1015327-.5864412l-.1906289-1.9822565.3102601-.0869722M102.7795504 8.93616557h-.4298912c-.3280095-2.01456044-1.7586137-2.82570945-3.6876219-2.82570945-1.9843864 0-4.8615692 1.3262375-4.8615692 5.46256495 0 3.48279343 2.4827905 5.98226833 5.1363304 5.98226833 1.7046554 0 3.12106-1.1725275 3.465044-2.98332443l.3965223.1029467-.3965223 2.51722433c-.7238218.4487056-2.6719994.9148057-3.8108029.9148057-4.0312508 0-6.5818441-2.6031316-6.5818441-6.48067233 0-3.53426675 3.1540739-6.06853054 6.5321457-6.06853054 1.3954603 0 2.7394472.4494156 4.0667497.91516068l.1714595 2.46326606M103.4018454 17.3994494h.3262346c.4842045 0 .8281884 0 .8281884-.5701118V7.23186519c0-1.12140907-.2580767-1.15548798-.9137407-1.34540689v-.27618115c.6890329-.22364283 1.4135647-.53319291 1.7763631-.74157124.187079-.10188173.3262345-.18991891.3769979-.18991891.1054316 0 .1395105.10472164.1395105.2431672v11.9073834c0 .5701118.3794829.5701118.8615574.5701118h.2918007V17.8478c-.5843113 0-1.187437-.0340789-1.8083121-.0340789-.6201651 0-1.2399752.0159745-1.8785998.0340789v-.4483506M114.4679058 16.8989154c0 .311325.188499.3276545.4806546.3276545.2080234 0 .4653901-.0163295.6911629-.0163295v.3627984c-.7415713.0681578-2.155491.4302462-2.4835004.5339029l-.0859073-.0525383v-1.3961703c-1.0330169.844163-1.8267715 1.4487086-3.0521922 1.4487086-.9304252 0-1.8949293-.6045456-1.8949293-2.0504143v-4.41357357c0-.44870562-.0685128-.87966181-1.0323069-.96450409v-.32836448c.6208751-.01703945 1.996811-.11998615 2.2215188-.11998615.1913389 0 .1913389.11998615.1913389.49982398v4.44623251c0 .5175734 0 1.998231 1.499117 1.998231.5850212 0 1.3606714-.4469307 2.0841382-1.0493464v-4.63757139c0-.34433896-.8267685-.53390289-1.4462237-.70536239v-.30990507c1.5495254-.10507663 2.5158044-.24210224 2.6879739-.24210224.1391555 0 .1391555.11998615.1391555.31026006v6.35855623M117.8967409 11.21128767c.689033-.58466627 1.6201681-1.24104024 2.5679878-1.24104024 1.9996509 0 3.2062572 1.74263916 3.2062572 3.62088397 0 2.2570177-1.6553119 4.5158103-4.1210629 4.5158103-1.2740542 0-1.9464027-.4149817-2.3954633-.6045456l-.5154434.3965223-.3613785-.188854c.1540651-1.0166874.2410373-2.0163354.2410373-3.06816667V7.23186519c0-1.12140907-.2594967-1.15548798-.9144507-1.34540689v-.27618115c.6900979-.22364283 1.4132097-.53319291 1.7749431-.74157124.1902739-.10188173.3276545-.18991891.3801928-.18991891.1025918 0 .1373806.10507663.1373806.2431672v6.28933347zm0 4.68833473c0 .6545991.6208752 1.7586137 1.7752982 1.7586137 1.8438109 0 2.619106-1.810087 2.619106-3.34470285 0-1.86085037-1.4117897-3.41179567-2.7557767-3.41179567-.6403994 0-1.1735924.41427173-1.6386275.81114901v4.18673581zM43.5408237 27.8691289h.13170077c.3372392 0 .69364777-.0461486.69364777-.5342579v-4.9130426c0-.4888193-.35640858-.5353228-.69364777-.5353228h-.13170078v-.281861c.36563828 0 .92829525.0372738 1.38907049.0372738.46858498 0 1.03053198-.0372738 1.47142785-.0372738v.281861h-.13241076c-.33581924 0-.69293779.0465035-.69293779.5353228v4.9130426c0 .4881093.35711855.5342579.69293779.5342579h.13241076v.2818609c-.44977059 0-1.01384751-.0362088-1.48101254-.0362088-.46042025 0-1.01384752.0362088-1.3794858.0362088v-.2818609"/>
      <path d="M46.40132203 28.1911035c-.45367547 0-1.01491248-.0376287-1.48172252-.0376287-.4590003 0-1.01065262.0376287-1.37877582.0376287H43.5v-.3624433h.1718145c.34043408-.0081648.64998416-.0354989.65282407-.4937892v-4.9130426c-.0028399-.4590003-.31238998-.4888193-.65282408-.4948541H43.5v-.3631534h.0408237c.3681232 0 .93042518.0365638 1.38907048.0365638.46645505 0 1.02804705-.0365638 1.47142785-.0365638h.04188865v.3631534h-.17252447c-.34078908.0060348-.6521141.0358538-.65388904.4948541v4.9130426c.00177494.4582903.31309996.4856244.65388904.4937892h.17252447v.3624433h-.04188865zm-.04046871-.0802274l.00035499-.1995036h-.0905221c-.33546425 0-.73411647-.0589281-.7362464-.5765015v-4.9130426c.00212993-.5186384.40078215-.5765015.7362464-.5765015h.09016711v-.2002136c-.43273113.000355-.97621871.0379838-1.43095914.0379838-.44551073 0-.98473845-.0351439-1.3478918-.0379838v.2002136h.08981211c.33439929 0 .7337615.0578631.7337615.5765015v4.9130426c0 .5175734-.39936221.5765015-.7337615.5765015h-.08981212v.1995036c.36315336-.0031949.8927964-.0376288 1.33759714-.0376288.45687036 0 .99893799.0351439 1.44125381.0376288zM52.84401057 26.3025641l.0188144-.0184594v-3.5158074c0-.7696153-.53532285-.8821467-.81647384-.8821467h-.20660338v-.281506c.44160585 0 .87291703.0372738 1.31310292.0372738.38445273 0 .77068033-.0372738 1.15371303-.0372738v.281506h-.1395105c-.3951024 0-.83599824.0749026-.83599824 1.1909868v4.2669633c0 .3287195.00922971.6567289.05537823.9478196h-.35640858l-4.82891026-5.3841125v3.8647612c0 .8164738.15867992 1.0965599.88072678 1.0965599h.15974488v.2818609c-.40326708 0-.80617917-.0365638-1.20944624-.0365638-.42101651 0-.85303767.0365638-1.27547413.0365638v-.2818609h.13170078c.64678927 0 .84380796-.4408959.84380796-1.1888569v-3.9513784c0-.5246732-.43273113-.842743-.85303766-.842743h-.12247108v-.281506c.3556986 0 .72204686.0372738 1.07774546.0372738.28221596 0 .55413725-.0372738.83528824-.0372738l4.17431123 4.6979195"/>
      <path d="M53.38643319 28.3313241l-.38622763-.0131346-4.75933248-5.304595v3.7589745c.01135963.8154089.13525066 1.0472164.84132304 1.0560912h.20092356v.3624433h-.04153367c-.405752 0-.80937406-.0376287-1.20944624-.0376287-.41995155 0-.85090774.0376287-1.27582912.0376287h-.04117868v-.3624433h.17323445c.61981014-.0035499.79694946-.4018472.80369424-1.1487432v-3.9496035c-.00177494-.499469-.41143181-.8033392-.81256896-.8033392h-.16435973v-.3631534h.04117868c.35853851 0 .72559675.0365638 1.07739048.0365638.27973103 0 .55058735-.0365638.86688222-.0220092l4.12141793 4.6393463v-3.4494245c-.00461486-.7447661-.50230891-.8352882-.77529516-.841323h-.24813705v-.3631534h.04153367c.4430258 0 .87469197.0365638 1.31274793.0365638.38161273 0 .76606543-.0365638 1.15371303-.0365638h.0411787v.3631534h-.1806892c-.3872926.0099397-.78452489.0440186-.79588452 1.1501631v4.2669633c0 .3283645.01029467.655664.05537822.9403649l.00851973.0468585h-.04863344zm-.35605359-.0816474h.31026006c-.04188866-.282216-.04934342-.593541-.04934342-.905576v-4.2669633c0-1.1256689.47177986-1.2318105.87575696-1.2325205h.0986868v-.1995036c-.3695431.0028399-.7397963.0369188-1.11288933.0369188-.42953623 0-.84700285-.0340789-1.27085927-.0369188l-.00106497.1995036h.16577969c.28825076.00071.85658755.1288609.85658755.9236804l-.0124246 3.5452714-.01845941.0181044-.03194898.0301741-4.17076134-4.7167339c-.27866607 0-.54987738.0369188-.83599821.0369188-.34362899 0-.69577771-.0340789-1.03585681-.0369188l-.00177494.1995036h.08342232c.43983091.00071.89244141.3365292.89244141.8856966v3.9496035c0 .7504459-.2090883 1.2296806-.88356669 1.2321655l-.0905221-.0024849v.2012785c.40610699-.0031949.82463857-.0376288 1.23429545-.0376288.39119746 0 .78168495.0344339 1.16862255.0376288v-.1987936h-.1185662c-.73802135-.0024849-.92084049-.3241046-.92155047-1.1395135v-3.9698378l4.86973395 5.4469455zm-.18601404-1.9471126l.02946405-.0269792-.02946405.0269792zm-.02236428-.0184594v-.0035499l-.00745477-.0060348.00745477.0095847zM55.7119637 22.0735846c-.7042975 0-.7316316.1696845-.8722071.8533926h-.281506c.0369189-.2626915.0834224-.5250281.1125314-.7969494.0376288-.2637566.0564432-.5253832.0564432-.7965945h.2247078c.0756126.281506.3099051.2712113.5644319.2712113h4.837075c.2545269 0 .4884644-.0092297.5076338-.2907357l.2239978.0383388c-.0362089.2523969-.0745476.5058588-.1018818.7596757-.0184594.2531068-.0184594.5055038-.0184594.7586106l-.2818609.1043667c-.0191694-.3464689-.0656729-.9013161-.6940028-.9013161h-1.5381657v4.9893651c0 .7234668.3287195.8061792.7781351.8061792h.1789142v.2818609c-.3659932 0-1.0227222-.0362088-1.528226-.0362088-.5633669 0-1.2204509.0362088-1.5864442.0362088v-.2818609h.1789143c.5168634 0 .7781351-.0461486.7781351-.7866548v-5.0088895h-1.5381657"/>
      <path d="M59.4084602 28.1911035c-.3695431 0-1.0255621-.0372738-1.528936-.0372738-.562657 0-1.2186759.0372738-1.5864442.0372738h-.0401137v-.3624433h.219028c.5168634-.0120697.7245318-.0188144.7362464-.7461861v-4.9687758h-1.496277v-.0820024h1.5775694v5.0507782c0 .7529308-.3035153.8288984-.8175388.8296084h-.1388005v.1980836c.3698981-.0024849 1.0017779-.0369188 1.5463304-.0369188.4881094 0 1.1146643.0344339 1.4863374.0369188v-.1980836h-.1370256c-.4536755-.00071-.8186038-.1121764-.8186038-.8491328v-5.0312538h1.5786344c.6290399.0024849.7124622.5370978.7319866.8860516l.2030534-.0749026c0-.2449421.001065-.4902393.0177495-.7366014.0276891-.2424572.061768-.4806546.0969119-.7209819l-.1423505-.0237842c-.0436636.2729863-.3081301.2875408-.5431326.2839909h-4.8857084c-.2208029.000355-.4611302-.0102947-.5456175-.2719213h-.1547751c-.0014199.2591417-.0191693.5108286-.0546682.7607406-.0280441.2577218-.0709977.5051488-.1050766.7536409h.2002136c.123181-.654244.2034084-.8654623.904511-.8562326v.0820024c-.6947128.0138446-.6794483.1299258-.8324484.8228636l-.0067447.031949h-.3613785l.0049699-.0486334c.0383388-.2616267.0859072-.5250282.1132414-.7973045.0390487-.2602067.0567981-.5204133.0567981-.7891397v-.0415337h.2978355l.0070998.0294641c.0631879.2364224.2367774.2381974.4760397.2424572h4.8857084c.2612717-.0042598.4515456-.0078097.4675201-.2531069l.0031949-.0443736.0425986.0085198.2651765.0418886-.0067448.0415337c-.0372738.2516869-.0738376.5040838-.1022367.7554158-.0173945.2513319-.0173945.5033739-.0173945.7568357v.0283991l-.0273341.0110047-.3319143.1214061-.00213-.0543133c-.0259141-.3528587-.062123-.8633323-.654954-.8633323h-1.496987v4.9492514c.0092297.7071373.2896707.7568357.7369564.7657105h.2193829v.3624433h-.0397587M61.3846819 27.8691289h.1320558c.3365292 0 .6940027-.0461486.6940027-.5342579v-4.9130426c0-.4888193-.3574735-.5353228-.6940027-.5353228h-.1320558v-.281861c.5701117 0 1.5477504.0372738 2.3340502.0372738.7891397 0 1.7632285-.0372738 2.4007881-.0372738-.0163295.4032671-.0074548 1.0237872.0202343 1.435574l-.2825709.0745476c-.0450836-.6098704-.157615-1.0962049-1.1427084-1.0962049h-1.3020983v2.4554564h1.1139543c.562657 0 .6851281-.3177149.7408613-.8246386h.281151c-.0188144.3663482-.0287541.7319865-.0287541 1.0972698 0 .3571186.0099397.7131722.0287541 1.0688708l-.281151.0560882c-.0557332-.561947-.0837773-.9275853-.7316316-.9275853h-1.123184v2.18389c0 .6105804.5417126.6105804 1.1423534.6105804 1.1256689 0 1.622298-.0756125 1.903804-1.1434183l.2616266.0646079c-.1217611.4980491-.2335825.9936132-.3177148 1.4913072-.6009958 0-1.6794512-.0362088-2.5218392-.0362088-.8459379 0-1.9609572.0362088-2.495925.0362088v-.2818609"/>
      <path d="M66.4017361 28.1911035c-.6017057 0-1.6808711-.0390487-2.5221942-.0390487-.8448729 0-1.9595372.0390487-2.495215.0390487h-.0394037v-.3624433h.1714595c.3393691-.0056799.6482092-.0354989.6524691-.4937892v-4.9130426c-.0042599-.4582903-.3131-.4888193-.6524691-.4948541h-.1714595v-.3631534h.0394037c.5729516 0 1.5484604.0365638 2.3344052.0365638.7884297 0 1.7621635-.0365638 2.4007881-.0365638h.0415336l-.0014199.0433086c-.0060348.1402205-.0099397.3070652-.0099397.4834945 0 .3241046.0099397.6794483.0283991.9463997l.0017749.0333689-.031594.0095847-.3297844.0862623-.00142-.0482785c-.0553782-.6084505-.1370256-1.0511213-1.1025946-1.060351h-1.2641145l-.00071 2.3752289h1.0763255c.5406477-.0056798.6372046-.281861.7011026-.7877198l.0021299-.0376288h.3606684l-.00071.0429537c-.0181044.3663482-.029109.7309215-.029109 1.0962048 0 .3546337.0110046.7106872.029109 1.0670958l.00071.0340789-.0340789.0078098-.3265895.0649629-.0021299-.0440186c-.064963-.5725966-.0692228-.8864066-.6915179-.8931514h-1.0852002v2.1444863c.0014199.5701117.4927242.5669168 1.1040146.5701117 1.1292188-.0067447 1.5814743-.062123 1.8640453-1.1139543l.0095847-.0379837.0394037.0063898.3006754.0780975-.0085198.0386937c-.1217611.4962741-.2335825.9921932-.3184248 1.4884673l-.0070997.0333689h-.032304zm-.0347889-.0809374c.0820024-.4742648.188854-.9478196.3038703-1.4199545l-.1845941-.0465035c-.280796 1.0489914-.8249936 1.1427084-1.9318481 1.1356086-.591056 0-1.1817571 0-1.184952-.6514041v-2.2247137h1.1661376c.654954-.0067448.7209819.3880026.7678404.9215505l.2023435-.0415337c-.0181044-.3457589-.0273341-.6929378-.0273341-1.0365668 0-.3521487.0092297-.7035874.0273341-1.0575111h-.2023435c-.0528933.4898843-.2058934.8317384-.7774251.8257036h-1.1565529v-2.5385237h1.3450519c.9751537-.0078098 1.1366736.4969841 1.1792722 1.0869752l.2019885-.0550233c-.0163295-.2644665-.0273341-.6045456-.0273341-.9176456 0-.1604548.0042599-.3127449.0095847-.4455107-.6372046.0028399-1.5882191.0369188-2.3592544.0369188-.7706803 0-1.7192099-.0340789-2.2932265-.0369188v.1995036h.0908771c.3336893.00071.7326965.0585731.7348264.5772115v4.9130426c-.0021299.5175734-.4011371.5747266-.7348264.5772115h-.0908771v.1980836c.5459725-.0017749 1.6301077-.0369188 2.4540363-.0369188.8278335 0 1.8828597.0351439 2.4874053.0369188zM67.9867603 22.5979028c0-.6837081-.3755779-.7117522-.6666686-.7117522h-.1693296v-.281506c.3003204 0 .8817918.0372738 1.4543884.0372738.561592 0 1.0124276-.0372738 1.5094116-.0372738 1.1799822 0 2.2325235.3184248 2.2325235 1.6510521 0 .843453-.563012 1.3585415-1.3035182 1.6510521l1.6027736 2.3993681c.2634016.3968773.4494156.5079887.9101908.563012v.2818609c-.31026 0-.6102254-.0362088-.9187105-.0362088-.2907357 0-.5921211.0362088-.8814368.0362088-.7227568-.9467546-1.342212-1.9591822-1.9513724-3.0394126h-.6180352v2.0081707c0 .7220468.3368842.749381.7667754.749381h.1700395v.2818609c-.5356778 0-1.0773904-.0362088-1.6130683-.0362088-.4501255 0-.8910214.0362088-1.3599614.0362088v-.2818609h.1693296c.3482438 0 .6666686-.15868.6666686-.5051489v-4.7660772zm1.2002166 2.1753703h.4582903c.9389449 0 1.4444487-.3553436 1.4444487-1.4625532 0-.8338682-.5346129-1.3684811-1.3702561-1.3684811-.281506 0-.4014921.0287541-.5324829.0379838v2.7930505z"/>
      <path d="M73.5565318 28.1911035c-.3145199 0-.6127103-.0376287-.9211954-.0376287-.2857659 0-.5857313.0376287-.9123208.0220092-.719562-.9442697-1.3361772-1.9510174-1.9417878-3.0216631h-.5541372v1.964152c.0102946.7060724.2932206.7007476.7266617.7106873h.2105082v.3624433h-.0415336c-.5360329 0-1.0809404-.0376287-1.6123584-.0376287-.4479956 0-.8885365.0376287-1.3596064.0376287h-.0408237v-.3624433h.2101533c.3372392-.002485.622295-.1494503.623715-.4646802v-4.7660772c-.0070998-.6648937-.3326243-.6616988-.623715-.6709285h-.2101533v-.3631534h.0408237c.3035153 0 .8825017.0365638 1.4543884.0365638.5598171 0 1.0095876-.0365638 1.5094116-.0365638 1.1824671.0024849 2.2705073.3280095 2.2733472 1.6904558 0 .8462929-.5594621 1.375226-1.2825739 1.6702215l1.5747295 2.3592544c.2623366.3890676.4256314.4863344.8817918.5449076l.0340789.0053248v.3571185h-.0394038zm-4.3699099-3.119995h.6407544l.0117147.0209444c.6105804 1.0773904 1.2268406 2.090173 1.9172935 3.0188232.2854109 0 .5867962-.0376288.8789519-.0376288.2992554 0 .5889261.032659.8800168.0369188v-.2058934c-.439476-.0536032-.6460793-.186369-.9020261-.5750815l-1.6325927-2.4412568.0461485-.0188144c.7344715-.2893157 1.278669-.7902047 1.279024-1.6148433-.000355-1.3010333-1.0124275-1.6027736-2.1913448-1.6091634-.4937891 0-.9446247.0379838-1.5094116.0379838-.5509423 0-1.1075645-.0351439-1.4142747-.0379838v.1995036h.1292159c.2910907.00071.7053624.0489884.7053624.7532859V27.36398c0 .376288-.3525037.5473925-.7053624.5481025h-.1292159v.1980836c.4508356-.0017749.8789519-.0369188 1.3194927-.0369188.5236083 0 1.0532513.0351439 1.5718897.0369188v-.1980836h-.1285059c-.4270513-.00071-.8086641-.0536033-.8086641-.7941096v-2.0468644h.0415337zm0-.2573667h-.0415337v-2.871503l.0358539-.0028399c.1285058-.0102947.2548818-.0362089.5385177-.0362089.8541026 0 1.4103698.5548473 1.4110798 1.4100149-.0024849 1.1196341-.5392277 1.5001819-1.4852724 1.5005369h-.4586453zm.4586453-.0798725c.9282952-.0092297 1.3961702-.3312044 1.4053999-1.4206644-.0056798-.8193138-.5143785-1.3276575-1.3312073-1.3312074-.2531069 0-.3727381.0234293-.4923692.0351439v2.7167279h.4181766zM79.9236078 26.3025641l.0163295-.0184594v-3.5158074c0-.7696153-.5328379-.8821467-.8143439-.8821467h-.2055384v-.281506c.4408958 0 .8707871.0372738 1.3127479.0372738.3855176 0 .7671304-.0372738 1.154423-.0372738v.281506h-.1412855c-.3940373 0-.8345782.0749026-.8345782 1.1909868v4.2669633c0 .3287195.0092297.6567289.0553782.9478196h-.3549886l-4.8292653-5.3841125v3.8647612c0 .8164738.158325 1.0965599.8803718 1.0965599h.1597449v.2818609c-.4029121 0-.8068891-.0365638-1.2098012-.0365638-.4235015 0-.8541027.0365638-1.2758292.0365638v-.2818609h.1302809c.6474992 0 .8455829-.4408959.8455829-1.1888569v-3.9513784c0-.5246732-.4320212-.842743-.8537477-.842743h-.1221161v-.281506c.3549887 0 .7234669.0372738 1.0791655.0372738.278666 0 .5520073-.0372738.8338682-.0372738l4.1736013 4.6979195"/>
      <path d="M80.4663854 28.3313241l-.3851627-.0131346-4.7600424-5.3038851v3.7579096c.0110046.8168288.1345407 1.0475714.841678 1.0564462h.1987936v.3624433h-.0408236c-.4053971 0-.8079542-.0390487-1.2098013-.0390487-.4185316 0-.8519727.0390487-1.2744091.0390487h-.0418887v-.3624433h.1725245c.6194551-.002485.7969494-.4018472.8029842-1.1508732v-3.9488934c-.0010649-.499824-.4100118-.8019193-.811149-.8019193h-.1643597v-.3631534h.0418887c.3581835 0 .7252417.0365638 1.0791654.0365638.2754711 0 .5470374-.0365638.8615574-.0244942l4.1228379 4.6418313v-3.4494245c-.002485-.7447661-.501954-.8370632-.7745852-.841323h-.2474271v-.3631534h.0408237c.4430258 0 .8754019.0365638 1.3138129.0365638.3819678 0 .7660654-.0365638 1.1526481-.0365638h.0415336v.3631534h-.1810442c-.3869376.0092297-.7855898.0440186-.7948195 1.1501631v4.2669633c0 .3283645.0081647.653534.0560882.9410748l.0046149.0461486h-.0454386zm-.3549886-.0816474h.3074201c-.0411786-.280441-.0493434-.593541-.0493434-.905576v-4.2669633c.00071-1.1256689.4749748-1.2300356.8764669-1.2325205h.0986869v-.1995036c-.3691882.0028399-.7397963.0369188-1.1118244.0369188-.4309562 0-.8487778-.0340789-1.2729892-.0369188v.1995036h.1657797c.2889607.0024849.8569425.1288609.8569425.9236804l-.0134896 3.5452714-.0170394.0181044-.0294641.030884-4.1725363-4.7174438c-.279021 0-.5509423.0369188-.8342232.0369188-.3478889 0-.6982626-.0340789-1.0390517-.0369188v.1995036h.0823573c.4412509.0024849.8924414.3351093.8924414.8842767v3.9488934c0 .7525759-.2119282 1.2318106-.8842766 1.2342955l-.0905221-.00071v.1991486c.405042-.0028399.8228636-.0372738 1.2342954-.0372738.3933274 0 .7831049.0344339 1.1707525.0372738v-.1984386h-.1189212c-.7380213-.00071-.9219054-.3230397-.9240354-1.1398685v-3.9680628l4.8725739 5.4455255zm-.188854-1.9471126l.0305291-.0269792-.0305291.0269792zm-.0223642-.0184594v-.002485l-.0067448-.0070997.0067448.0095847zM82.8948626 26.8101978c-.094427.3177148-.2076684.5640769-.2076684.7305666 0 .2822159.3951024.3287195.7035875.3287195h.1047216v.2815059c-.3766429-.0202343-.7593206-.0362088-1.1366735-.0362088-.3375942 0-.6734135.0159745-1.0120726.0362088v-.2815059h.0571532c.3649283 0 .6755433-.2161881.8146989-.6102255l1.5005369-4.3031721c.122471-.3478889.2914456-.8164738.3485988-1.1643627.2981904-.1025917.6748334-.2889607.8523277-.4029121.0291091-.0095847.0465035-.0191694.0749026-.0191694.0283991 0 .0457935 0 .0663829.0294641.0276891.0741926.0550232.1586799.0841323.2335825l1.7263096 4.9055878c.1125314.3272995.2239979.6741234.343984.9570493.1143064.2630466.311325.3741581.6219401.3741581h.0560882v.2815059c-.4224365-.0202343-.8455829-.0362088-1.2935786-.0362088-.4597102 0-.9300701.0159745-1.4082398.0362088v-.2815059h.1033017c.2144131 0 .5825363-.0372739.5825363-.2719213 0-.1210512-.0848423-.374513-.1895639-.6758984l-.3652833-1.0873301H83.194473l-.2996104.9758637zm1.3691911-4.1547869h-.0195244l-.871497 2.65425h1.7522238l-.8612024-2.65425z"/>
      <path d="M87.8909725 28.1911035c-.4213715-.0181044-.844163-.0390487-1.2907387-.0390487-.4597102 0-.9275852.0209443-1.4061099.0390487l-.0433086.00213v-.3663483h.1444804c.217253 0 .5395827-.0486334.5402927-.2293226.0021299-.1068516-.0820024-.3638634-.1853041-.6620538l-.3571186-1.061061H83.224647l-.2918006.9478196c-.094427.3187798-.2083784.5665619-.2066034.719207.0031949.2289676.3532137.2854108.6645387.2854108h.1441254v.3663483l-.0425987-.00213c-.3748679-.0181044-.7575457-.0390487-1.1327687-.0390487-.3347542 0-.6737684.0209443-1.0095876.0390487l-.0436636.00213v-.3663483h.0972669c.3485988-.00071.6396895-.1998586.7752951-.5807614l1.5019569-4.304592c.1210511-.3471789.2914457-.813634.3723831-1.1885019.2942855-.0997518.6716384-.2889608.8516177-.4022022.0262691-.0092297.0521833-.0212993.0898121-.0212993.0230743-.0014199.0734826.0046149.1040117.0536033.0266241.0770325.0564432.1611648.0848422.2367774l1.7266647 4.9048778c.1104015.3283645.2225779.6748334.3454039.9527895.1086266.249912.280796.3485988.5821814.3493088h.094782v.3663483l-.0415337-.00213zm-2.6581548-.0834223c.4639701-.0163295.9194205-.0344339 1.3674161-.0344339.4348611 0 .843808.0181044 1.2513349.0344339v-.1963087h-.0138445c-.3216197.0021299-.5427776-.124246-.6577939-.4007821-.1221161-.283281-.2360675-.6315248-.3468239-.9598893l-1.7266647-4.9052328c-.0283991-.0749026-.0550232-.1586799-.0795174-.2254178-.0092297-.0092297-.0070998-.0092297-.0145546-.0092297h-.0177494c-.0188144 0-.030174.0056798-.0543133.0117146-.1803342.1171463-.5562671.3020954-.8352882.375223-.0571532.3553436-.2261277.8239286-.3478888 1.1714625l-1.500537 4.3035271c-.1427054.4075269-.4724898.6393345-.8530376.6386245h-.0156195v.1963087c.3216197-.0163295.6460793-.0344339.9716038-.0344339.3627984 0 .7326966.0181044 1.0915901.0344339v-.1963087h-.0603481c-.3063552-.0042599-.7330515-.0376288-.7437012-.3698981.00071-.1860141.1157263-.4259864.2076684-.7429912l.0397587.0117146-.0397587-.0127796.3088401-1.0021329h2.1867299l.375578 1.1135993c.1054316.3017404.1906289.5516524.1906289.688678-.0138446.2871858-.408592.3084851-.6212301.3138099h-.062478v.1963087zm-1.9169386-2.7575516l.8977662-2.7362523h.0504084v.0415336l-.0099397.0028399.0099397-.0028399v-.0415336h.0280441l.8913764 2.7362523h-1.8675951zm.1121764-.0820024h1.6418224l-.8161189-2.5129645-.8257035 2.5129645zm.7951745-2.6006467l.0216543-.0067447-.0216543.0067447zM88.3059542 22.0735846c-.7032325 0-.7316316.1696845-.872917.8533926h-.281861c.0369188-.2626915.0848423-.5250281.1139513-.7969494.0365639-.2637566.0546683-.5253832.0546683-.7965945h.2268377c.0734827.281506.3084851.2712113.561592.2712113h4.8399149c.252042 0 .4863344-.0092297.5047939-.2907357l.2243528.0383388c-.0347889.2523969-.0720627.5058588-.1015268.7596757-.0205893.2531068-.0205893.5055038-.0205893.7586106l-.280086.1043667c-.0166845-.3464689-.063898-.9013161-.6936478-.9013161h-1.5378107v4.9893651c0 .7234668.3287194.8061792.778135.8061792h.1792693v.2818609c-.3663483 0-1.0216573-.0362088-1.529291-.0362088-.561592 0-1.2197409.0362088-1.5853792.0362088v-.2818609h.1785593c.5168634 0 .77849-.0461486.77849-.7866548v-5.0088895h-1.5374557"/>
      <path d="M92.0010308 28.1911035c-.3684782 0-1.0259171-.0372738-1.530001-.0372738-.560172 0-1.216901.0372738-1.5843142.0372738h-.0415337v-.3624433h.219738c.5172184-.0120697.7245317-.0188144.7369563-.7461861l-.0007099-4.9687758h-1.4952121v-.0820024h1.5779244v5.0507782c0 .7529308-.3038702.8271235-.8189587.8288984h-.1380906v.1995036c.3706081-.0031949 1.0007129-.0376288 1.5442005-.0376288.4902393 0 1.1178592.0344339 1.4881123.0376288v-.1995036h-.1377356c-.4519005-.0017749-.8171838-.1104015-.8178938-.8484228v-5.0312538h1.5779245c.6301048.0024849.7121072.5370978.7302116.8860516l.2037634-.0749026c0-.2449421.00142-.4902393.0205894-.7355364.0252042-.2417473.060703-.4817196.094782-.7209819l-.1416405-.0248492c-.0429536.2729863-.3077751.2882508-.5410027.2839909h-4.8878383c-.221158.0024849-.4604203-.0102947-.5456176-.2726313h-.153355c-.00213.2594967-.0205894.5115386-.0575082.7614506-.0255592.2587867-.0706427.5069238-.1064966.7536409h.2016336c.123181-.654244.2044734-.8665272.9069959-.8562326v.0820024c-.6954227.0120696-.6801582.1299258-.8331583.8228636l-.0067448.031949h-.3620884l.0056798-.0465035c.0394038-.2637566.0855523-.5271581.1128864-.7973045.0383388-.2623366.0557332-.5225432.0557332-.7912696v-.0415337h.2978355l.0078097.0294641c.0656729.2364224.2364224.2381974.4763948.2424572h4.8878383c.2594967-.0042598.4487056-.0078097.4653901-.2523969l.00142-.0450836.0436636.0085198.2662414.0418886-.0063898.0415337c-.0386937.2516869-.0741926.5040838-.1025917.7554158-.0191694.2513319-.0191694.5037289-.0191694.7568357v.0283991l-.0273341.0110047-.3319143.1214061-.00142-.0543133c-.0244942-.3528587-.061768-.8633323-.654599-.8633323h-1.497342v4.9492514c.0095847.7071373.2903807.7568357.7373113.7657105h.218673v.3624433h-.0390487M94.0244659 27.8691289h.1313458c.3379492 0 .6929378-.0461486.6929378-.5342579v-4.9130426c0-.4888193-.3549886-.5353228-.6929378-.5353228h-.1313458v-.281861c.3659933 0 .9275853.0372738 1.3865856.0372738.4700049 0 1.0330169-.0372738 1.4746227-.0372738v.281861h-.1317007c-.3390142 0-.6954227.0465035-.6954227.5353228v4.9130426c0 .4881093.3564085.5342579.6954227.5342579h.1317007v.2818609c-.4504805 0-1.0138475-.0362088-1.4820775-.0362088-.4604202 0-1.0131375.0362088-1.3791308.0362088v-.2818609"/>
      <path d="M96.8856742 28.1911035c-.4533204 0-1.0142025-.0390487-1.4820775-.0390487-.4590002 0-1.0127825.0390487-1.3791308.0390487h-.0401137v-.3624433h.1718145c.3379492-.0056799.6496292-.0354989.6517591-.4937892v-4.9130426c-.0021299-.4582903-.3138099-.4888193-.6517591-.4948541h-.1718145v-.3631534h.0401137c.3663483 0 .9304252.0365638 1.3865856.0365638.46752 0 1.030177-.0365638 1.4746227-.0365638h.0390488v.3631534h-.1703945c-.343274.0060348-.6517592.0365638-.6549541.4948541v4.9130426c.0031949.4582903.3116801.4881093.6549541.4937892h.1703945v.3624433h-.0390488zm-.0425986-.0809374v-.1987936h-.0887471c-.3365293 0-.7344715-.0589281-.7344715-.5765015v-4.9130426c0-.5186384.3979422-.5765015.7344715-.5772115h.0887471v-.1995036c-.4323761.0028399-.9755087.0369188-1.4320241.0369188-.4451557 0-.9818985-.0340789-1.3457619-.0369188v.1995036h.0908771c.3329793.00071.7326965.0585731.7337615.5772115v4.9130426c-.001065.5175734-.4007822.5765015-.7337615.5765015h-.0908771v.1987936c.3613784-.0042598.8917315-.0369188 1.3383071-.0369188.4547405 0 .9971631.0344339 1.4394789.0369188zM100.6251244 21.4640691c1.9992959 0 3.5928399 1.2392653 3.5928399 3.2367863 0 2.1572659-1.5477504 3.5910649-3.5445614 3.5910649-1.9890013 0-3.5076426-1.3507317-3.5076426-3.3674221 0-1.9495975 1.5094116-3.4604291 3.4593641-3.4604291m.1416405 6.4149994c1.8200267 0 2.1373865-1.6049035 2.1373865-2.9723197 0-1.3706111-.7390863-3.0298279-2.2967764-3.0298279-1.6407574 0-2.1288668 1.4632631-2.1288668 2.7188579 0 1.6783862.7696153 3.2832897 2.2882567 3.2832897"/>
      <path d="M97.1238716 24.9244982c.0039049-1.9723168 1.530711-3.4980579 3.5008978-3.5012528v.0820024c-1.9279432 0-3.4192504 1.4902422-3.4213803 3.4192504.0039048 1.9939711 1.5005369 3.3244685 3.4703688 3.3251785 1.9765766-.00071 3.5019627-1.4139197 3.5044477-3.5502413-.001775-1.9726717-1.5701147-3.1924127-3.5534362-3.1941876v-.0820024c2.0134955.00213 3.6297587 1.2534649 3.6333086 3.27619-.0021299 2.1796302-1.5683397 3.6283388-3.5843201 3.6318887-2.0060408-.0035499-3.5459814-1.3677712-3.5498863-3.4068259m1.3134579-.3287194c.0028399-1.2619846.4952092-2.7607466 2.1696905-2.7607466 1.592479.0035499 2.3351152 1.6936508 2.3383101 3.0717166-.0031949 1.3674162-.3248146 3.0106585-2.1782102 3.0106585v-.0795174c1.7831078-.00142 2.0930129-1.5637249 2.0958528-2.9311411 0-1.3585415-.7316315-2.9865193-2.2559527-2.9890042-1.6088084.0017749-2.0841382 1.4288292-2.0883981 2.6780342.00071 1.6705764.7632256 3.2396261 2.248498 3.2421111v.0795174c-1.5566252-.0014199-2.3269505-1.6333026-2.3297904-3.3216285M110.5374718 26.3025641l.0195243-.0184594v-3.5158074c0-.7696153-.5363878-.8821467-.8175388-.8821467h-.2041184v-.281506c.4394759 0 .871852.0372738 1.311328.0372738.3855176 0 .7699703-.0372738 1.154778-.0372738v.281506h-.1409305c-.3929724 0-.8356432.0749026-.8356432 1.1909868v4.2669633c0 .3287195.0099396.6567289.0575081.9478196h-.3567636l-4.8306852-5.3841125v3.8647612c0 .8164738.1600999 1.0965599.8807268 1.0965599h.1608099v.2818609c-.4036221 0-.8061792-.0365638-1.2094463-.0365638-.4224364 0-.8541026.0365638-1.2761841.0365638v-.2818609h.1317008c.6482092 0 .843808-.4408959.843808-1.1888569v-3.9513784c0-.5246732-.4298913-.842743-.8541027-.842743h-.1214061v-.281506c.3564086 0 .7216919.0372738 1.0788105.0372738.280796 0 .5512973-.0372738.8338682-.0372738l4.1739563 4.6979195"/>
      <path d="M111.0827343 28.3313241l-.3880026-.0131346-4.7593325-5.3038851v3.7582646c.0110047.8164738.1348957 1.0461515.8391932 1.0543162h.2019885v.3642183h-.0397587c-.406107 0-.8086641-.0376287-1.2098013-.0376287-.4203065 0-.8519727.0376287-1.277249.0376287h-.0383388v-.3642183h.1707495c.6180352-.0017749.7962395-.4000722.8036943-1.1469682v-3.9510234c-.000355-.499824-.4103669-.8019193-.813279-.8019193h-.1611648v-.3631534h.0383388c.3596034 0 .7252417.0365638 1.0795204.0365638.278311 0 .5477474-.0365638.8658172-.0220092l4.120708 4.6393463v-3.4494245c-.0031949-.7447661-.5026639-.8352882-.7763602-.841323h-.247072v-.3631534h.0429536c.4405409 0 .873272.0365638 1.310263.0365638.3837427 0 .7664204-.0365638 1.156198-.0365638h.0394037v.3631534h-.1810442c-.3865826.0099397-.7855898.0454385-.7933996 1.1501631v4.2669633c0 .3283645.0074548.655664.0528933.9410748l.0081648.0461486h-.0450836zm-.3571186-.0816474h.3074202c-.0397587-.282216-.0489884-.593541-.0489884-.905576v-4.2669633c0-1.1274438.4735548-1.2300356.8761119-1.2325205h.1015267v-.1995036c-.372383.0028399-.7412162.0369188-1.1160842.0369188-.4270513 0-.8462929-.0340789-1.2708593-.0369188v.1995036h.1647147c.2896708.0024849.8558776.1306358.8558776.9236804l-.0099397 3.5452714-.0181044.0181044-.029819.030884-4.1736013-4.7174438c-.2776011 0-.5505873.0369188-.8345782.0369188-.345759 0-.6979077-.0340789-1.0390517-.0369188v.1995036h.0823573c.4408959.0024849.8938614.3351093.8938614.8842767v3.9510234c0 .7504459-.2094433 1.2296806-.8842767 1.2321655l-.091942-.00071v.1991486c.4071719-.0028399.8246385-.0372738 1.2367803-.0372738.3911975 0 .77991.0344339 1.1686226.0372738v-.1984386h-.1210511c-.7358915-.00071-.9204855-.3230397-.9204855-1.1395135v-3.9698378l4.8715088 5.4469455zm-.1881439-1.9471126l.029819-.0269792-.029819.0269792zm-.0216543-.0184594v-.002485l-.0074548-.0070997.0074548.0095847zM113.5080166 26.8101978c-.0919421.3177148-.2051834.5640769-.2051834.7305666 0 .2822159.3951023.3287195.7025224.3287195h.1047217v.2815059c-.375578-.0202343-.7603856-.0362088-1.1359636-.0362088-.3375942 0-.6748334.0159745-1.0110076.0362088v-.2815059h.0532483c.3677682 0 .6783832-.2161881.8154089-.6102255l1.5037318-4.3031721c.1210511-.3478889.2907356-.8164738.3446939-1.1643627.3013854-.1025917.6755434-.2889607.8562326-.4029121.0262691-.0095847.0450835-.0191694.0741926-.0191694.0273341 0 .0450836 0 .0642529.0294641.0283991.0741926.0564432.1586799.0848423.2335825l1.7255997 4.9055878c.1118214.3272995.2250628.6741234.3475339.9570493.1125314.2630466.3091951.3741581.6183902.3741581h.0578631v.2815059c-.4227914-.0202343-.8452279-.0362088-1.2957085-.0362088-.4586453 0-.9282952.0159745-1.4071749.0362088v-.2815059h.1040117c.2144131 0 .5821813-.0372739.5821813-.2719213 0-.1210512-.0841323-.374513-.1888539-.6758984l-.3656383-1.0873301h-2.1285118l-.3013853.9758637zm1.371321-4.1547869h-.0188144l-.8743369 2.65425h1.7564837l-.8633324-2.65425z"/>
      <path d="M118.5048365 28.1911035c-.4227915-.0166844-.843808-.0376287-1.2910937-.0376287-.4575803 0-.9275852.0209443-1.4053999.0376287l-.0415337.00213v-.3645733h.1427054c.217963 0 .5410027-.0504084.5413577-.2310976.0024849-.1068516-.0823574-.3627984-.187789-.6620538l-.3556986-1.061061h-2.0702937l-.2896707.9478196c-.094427.3212647-.2051834.5665619-.2041184.718497 0 .2296776.3517937.2878958.6616988.2878958h.1434154v.3645733l-.0422437-.00213c-.374513-.0166844-.7586107-.0376287-1.1320587-.0376287-.3361742 0-.6727035.0209443-1.0110076.0376287l-.0408237.00213v-.3645733h.094072c.3496638-.001775.6421744-.2019886.779555-.5825364l1.4998269-4.304592c.1203412-.3471789.2896708-.813634.3720281-1.187082.2946406-.1022367.6712835-.2903807.8537477-.4036221.0241392-.0092297.0504083-.0205893.0887471-.0205893.0241392-.0021299.0734827.0039049.1022367.0550232.0283991.0738377.0560882.1590349.0866173.2346475l1.7245347 4.9048778c.1128864.3283645.2247078.6748334.3464689.9545645.1104015.248137.280086.3468238.5800514.3493088h.0969119v.3645733l-.0422436-.00213zm-2.6585098-.0827123c.4639701-.0170395.9201305-.0351439 1.3674161-.0351439.4359261 0 .843808.0181044 1.2531099.0344339l-.001065-.1963087h-.0156195c-.3177148.00071-.5388727-.124246-.656019-.4007821-.123536-.283281-.2350024-.6315248-.3475338-.9588243l-1.7255997-4.9062978c-.0276891-.0749026-.0575082-.1586799-.0795175-.2236428-.0078097-.0110047-.0070998-.0110047-.0127796-.0110047h-.0184594c-.0202343 0-.030529.0063898-.0528933.0127796-.1835291.1146613-.5587521.3028053-.8356432.374158-.0582181.3553436-.2286127.8232186-.3493088 1.1714625l-1.5019569 4.3035271c-.1427054.4075269-.4703599.6393345-.8541026.6386245h-.0138446v.1963087c.3230397-.0163295.6453693-.0344339.9716039-.0344339.3631534 0 .7341165.0181044 1.0944299.0344339v-.1963087h-.0635429c-.3049353-.0042599-.7323416-.0365638-.7444112-.3706081.0024849-.1853041.1178562-.4245664.2097983-.7422812l.0376288.0117146-.0376288-.0127796.3084851-1.0021329h2.18602l.3766429 1.1135993c.1033017.3017404.1888539.5516524.1888539.688678-.0134895.2871858-.4078819.3084851-.6208751.3138099h-.0631879v.1970187zm-1.9162286-2.7586166l.9006061-2.7358973h.0486334v.0415336l-.0106496.0028399.0106496-.0028399v-.0415336h.0283991l.8867616 2.7358973h-1.8644002zm.1132413-.0816474h1.6407575l-.8157639-2.5115445-.8249936 2.5115445zm.7969495-2.6006467l.0184594-.0067447-.0184594.0067447zM120.8711906 27.2312143c0 .3769979.2605617.4881094.561592.5271581.3837427.0280441.8061792.0280441 1.2389103-.0198794.3933274-.0472134.7309216-.2708563.8991862-.5072787.1490952-.2058934.2335825-.468585.2910907-.6744784h.2712113c-.1033017.5346129-.2342925 1.060351-.3468239 1.5942539-.8235736 0-1.6514071-.0362088-2.4753357-.0362088-.8260585 0-1.6506971.0362088-2.4756906.0362088v-.2818609h.1299258c.3383042 0 .7053624-.0461486.7053624-.6276199v-4.8196806c0-.4888193-.3670582-.5356778-.7053624-.5356778h-.1299258v-.281506c.4962741 0 .9847384.0372738 1.4810125.0372738.4792347 0 .9471097-.0372738 1.4266993-.0372738v.281506h-.2357125c-.3564085 0-.6361396.0099397-.6361396.5069237v4.83814"/>
      <path d="M123.7867122 28.1911035c-.8271235 0-1.653182-.0376287-2.4756907-.0376287-.8249935 0-1.6503421.0376287-2.4774656.0376287h-.0394037v-.3624433h.1711045c.3390141-.0081648.6609888-.031949.6648937-.5871512v-4.8214555c-.0039049-.4565154-.3244596-.4870444-.6648937-.4930792h-.1711045v-.3631534h.0394037c.499469 0 .9875784.0365638 1.4820775.0365638.4774597 0 .9446248-.0365638 1.4274093-.0365638h.0376288v.3631534h-.2733413c-.3638633.0092297-.5896361-.0070998-.5978008.4661v4.83814c.0024849.3507288.2321626.4444458.5253832.4863344.1650697.0113597.3397241.0173945.5200583.0173945.2293227 0 .46752-.0106497.7099772-.0362089.3819678-.0454385.7106873-.2662414.8729171-.4898843.1448353-.2005686.2264827-.4575803.2832809-.6616988l.0078097-.030884h.3535687l-.0081647.0493434c-.1061416.5360329-.2353575 1.0592861-.3489538 1.593899l-.0074548.0315939h-.031239zm-.0344339-.0809374c.1086265-.5094086.2310976-1.0074577.3326243-1.5133165h-.1934688c-.0575081.2041185-.1412854.4558054-.2882507.6599239-.1753644.2428122-.5225433.4721349-.9293602.5225432-.2452972.0248492-.4891744.0376288-.718852.0376288-.1817542 0-.3571186-.0081647-.5278681-.0202343-.3049352-.0333689-.5999308-.1643598-.5995758-.5654969v-4.83814c0-.5214782.3297845-.5484574.6798032-.5484574h.1931139v-.1995036c-.4618402.0028399-.9180006.0379838-1.3848107.0379838-.4845594 0-.9598892-.0351439-1.4398338-.0379838v.1995036h.0894571c.3343993 0 .7437012.0585731.7437012.5754366v4.8214555c0 .6070305-.407527.6698635-.7437012.6698635h-.0894571v.1987936c.810084-.0017749 1.620878-.0369188 2.4352219-.0369188.8154089 0 1.6293978.0351439 2.4412568.0369188zM124.0188748 21.3387581c.5658518 0 .9879333.4345061.9879333.9897083 0 .5548472-.4220815.9847385-.9879333.9847385-.564432 0-.9872234-.4298913-.9872234-.9847385 0-.5552022.4227914-.9897083.9872234-.9897083zm0 1.7909176c.4430258 0 .7813299-.3766429.7813299-.8012093 0-.4252764-.3343993-.8047592-.7813299-.8047592-.4444458 0-.782395.3794828-.782395.8047592 0 .4245664.3379492.8012093.782395.8012093zm-.4909493-.280441v-.0479234c.1206961-.0173945.1434154-.0141996.1434154-.0880372v-.7319866c0-.1029467-.0102947-.1384455-.1395105-.1327657v-.0504084h.5055038c.1735894 0 .3336893.0830673.3336893.2626916 0 .1466103-.0965569.2555918-.2335825.2978354l.1625848.2264828c.0756125.1022367.1618748.1987936.217253.2328725v.031239h-.1920489c-.092297 0-.1739444-.1938238-.3549886-.4540304h-.1093365v.3272995c0 .0646079.0227193.061413.1441254.0788075v.0479234h-.4771047zm.3329793-.5207683h.1164363c.1274409 0 .186369-.0962019.186369-.2520419 0-.156905-.0908771-.2126382-.1927588-.2126382h-.1100465v.4646801z"/>
    </g>
    <path d="M1.06984118 16.7941928c0-8.44723045 6.84775686-15.29498731 15.29464542-15.29498731 8.4472304 0 15.2949873 6.84775686 15.2949873 15.29498731 0 8.4472304-6.8477569 15.2953291-15.2949873 15.2953291-8.44688856 0-15.29464542-6.8480987-15.29464542-15.2953291" fill="#FFFFFE"/>
    <path d="M25.6143595 16.4930309c-.0061532-3.916813-2.4544177-7.25728222-5.904276-8.58020649V25.0725538c3.4498583-1.3246335 5.8981228-4.6620262 5.904276-8.5795229zm-12.485397 8.5761045V7.91453361c-3.44678175 1.32702637-5.891286 4.66270989-5.90051571 8.57849729.00922971 3.914762 2.45373396 7.2501036 5.90051571 8.5761045zm3.2922697-23.0800719C8.4112163 1.99214006 1.9217087 8.48301503 1.92034134 16.4930309 1.9217087 24.5020213 8.4112163 30.9918708 16.4212322 30.9932381c8.0100159-.0013673 14.5008909-6.4912168 14.5029419-14.5002072-.002051-8.01001587-6.492926-14.50089084-14.5029419-14.5039674zm-.0355514 30.3729056C7.6205383 32.4036737.406328 25.3026127.406328 16.6584819c0-9.44711501 7.2142103-15.98140377 15.9793528-15.97969456h4.1075602c8.6615646-.0017092 16.5666354 6.52950298 16.5666354 15.97969456 0 8.6410542-7.9050708 15.7034872-16.5666354 15.7034872h-4.1075602z" fill="#0069AA"/>
  </g>
</svg>
