<svg viewBox="0 0 118 20" xmlns="http://www.w3.org/2000/svg">
  <g fill="none" fill-rule="evenodd">
    <path d="M10.08937769 14.6107924c-1.15494384.98753-2.62520109 1.4193581-4.97631093 1.4193581h-.97559125V4.24553392h.97559125c2.35110984 0 3.76495781.40276275 4.97631093 1.439427 1.25040571 1.07126587 2.00180621 2.7238388 2.00180621 4.43315838 0 1.7176239-.7514005 3.4290196-2.00180621 4.4926731zM5.84132503 1.22688941H.50341616V19.0501791H5.8087812c2.82335676 0 4.86132279-.642898 6.64761659-2.061564 2.1218568-1.6802542 3.3809408-4.2172443 3.3809408-6.8455827 0-5.26152088-4.1077526-8.91614299-9.99601357-8.91614299zM17.5129835 1.22688941h3.6195954V19.0501791h-3.6195954zM30.0213796 8.05793938c-2.1847748-.76677169-2.8233567-1.27749146-2.8233567-2.2408003 0-1.11970812 1.1412031-1.96883165 2.7105382-1.96883165 1.0876866 0 1.9837263.41660339 2.9383449 1.43458278l1.8897108-2.37228643C33.1752369 1.59574258 31.3064987.93000759 29.2692559.93000759c-3.2963269 0-5.8087094 2.19443414-5.8087094 5.09612522 0 2.46363467 1.1679614 3.71344489 4.5763836 4.90028009 1.4246959.4740421 2.148615.7979132 2.5152753 1.0172874.7260887.4491289 1.0876866 1.0927188 1.0876866 1.8366535 0 1.4498074-1.2005051 2.5155371-2.8233567 2.5155371-1.727715 0-3.1256527-.8276706-3.9623903-2.3819749l-2.3417083 2.170213c1.6741985 2.3473733 3.6810671 3.3964941 6.445845 3.3964941 3.7707433 0 6.427765-2.4158845 6.427765-5.8566686 0-2.835256-1.2323258-4.1203598-5.3646671-5.56601512M36.5272499 10.1430324c0 5.241452 4.2993995 9.3029891 9.8340177 9.3029891 1.5606567 0 2.8985691-.2948057 4.5460093-1.0387404v-4.0961386c-1.4557933 1.3999811-2.7336804 1.9522228-4.3869062 1.9522228-3.6572016 0-6.2476893-2.5321458-6.2476893-6.145246 0-3.41379493 2.6743784-6.11825682 6.0885862-6.11825682 1.7226526 0 3.0388691.58407519 4.5460093 2.00481733V1.91338536c-1.5917541-.77023185-2.8978459-1.0892587-4.4715201-1.0892587-5.5027976 0-9.9085069 4.14112076-9.9085069 9.31890574M80.3355641 13.1928184L75.3686547 1.22688941H71.408434L79.3042868 19.5h1.9475665l8.0491703-18.27311059h-3.9291233L80.3355641 13.1928184M90.949187 19.0501791h10.300479v-3.0200286h-6.6664196v-4.811008h6.4133016V8.19980599h-6.4133016V4.24553392h6.6664196V1.22688941H90.949187V19.0501791M108.344218 9.42262691h-1.05442V4.03169597h1.113722c2.269389 0 3.485081.91140642 3.485081 2.64771524 0 1.78405905-1.215692 2.7432157-3.544383 2.7432157zm7.284752-2.93698472c0-3.33767136-2.392332-5.25875278-6.586145-5.25875278h-5.395041V19.0501791h3.642014v-7.1659936h.472247l5.018256 7.1659936h4.468628l-5.860057-7.5120097c2.738743-.5356329 4.240098-2.32522825 4.240098-5.05252721z" fill="#1A1919"/>
    <path d="M71.9204567 10.1845544c0 5.1314188-4.3449609 9.2905324-9.709628 9.2905324-5.3632207 0-9.7089048-4.1591136-9.7089048-9.2905324 0-5.13211092 4.3456841-9.29191655 9.7089048-9.29191655 5.3646671 0 9.709628 4.15980563 9.709628 9.29191655" fill="#E6772F"/>
  </g>
</svg>
