<svg viewBox="0 0 41 32" xmlns="http://www.w3.org/2000/svg">
  <g fill="none" fill-rule="evenodd">
    <path d="M30.8470879 16.6176957H33.8066853l.0082525.0002033c.0151228.0003658.0316278.0010569.0490271.0019919.0157326.0008537.032197.0019514.0490272.0032116.0161391.0011789.0326034.0025611.0490678.0040653.016505.0015041.0329287.0031709.0490271.0049596.0168709.00187.0333759.003862.0490272.0059759.0175619.0023578.0341076.004797.0490678.0073581.0107729.0018294.0207329.0036994.0296358.0056101l.0193913.0043905c.0164237.0038213.0327661.0079679.0490272.0124803.0164643.0045531.0328067.0093501.0490678.0145536.0164643.0052442.0328067.0108136.0490271.0167082a1.32512163 1.32512163 0 0 1 .0490272.0189035c.016505.0067483.0328473.0138625.0490678.0212613.016505.0075614.0328473.0154073.0490271.0236598.016505.0083744.0328474.0171554.0490272.0262616.0165456.0093094.0329287.019066.0490678.0291072.0165456.0103258.0329287.0209361.0490271.0319936.0165863.0113827.0329694.0230907.0490272.0352051.0166269.0125617.03301.0255299.0490678.0389046.0166676.0139031.03301.0282535.0490271.0429697.0167489.0154074.033132.0311399.0490678.047401.0168302.0171147.033132.0347986.0490272.052889.0168708.0192286.0332132.0389858.0490271.0592714.0170335.0218305.0333759.0442301.0490678.0672394.0171555.0252046.0335385.0510597.0490272.0776058.0174806.0299203.033823.060735.0490271.0923627.0180498.0374817.0344735.0761016.0490678.1158192.0196353.0533768.036059.108705.0490272.1658219.0224402.098989.0345141.2032629.0345141.3121305 0 .1093961-.0120332.2141172-.0345141.3134315-.0129682.0572794-.0293919.1127702-.0490272.1662284-.014635.0398395-.031018.0785001-.0490678.1161038-.0152041.0316277-.0315465.062483-.0490271.0924439-.0154887.0265868-.0318311.0524419-.0490272.0776465-.0156919.0230093-.032075.0454496-.0490678.06728-.0158139.0202856-.0321563.0400021-.0490271.0592308-.0158952.0180904-.0322376.0357336-.0490272.0528484-.0159358.016261-.0323595.0319936-.0490678.0473602-.0160171.0146756-.0323595.028904-.0490271.0427666-.0160578.013334-.0324002.0263022-.0490678.0388232-.0160578.0120738-.0324409.0237411-.0490272.0350832-.0160984.0110168-.0324815.0216271-.0490271.0318716-.0161391.0100005-.0325222.0196758-.0490678.0289446-.0161391.0090656-.0324815.0177652-.0490272.026099-.0161798.0081712-.0325221.0160171-.0490271.0235378-.0162205.0073582-.0325628.0143504-.0490678.0210581-.0162205.006545-.0325628.0128462-.0490272.0187408-.0162204.0058133-.0325628.0113014-.0490271.0164643-.0162611.0051222-.0326035.0098786-.0490678.0143504-.0162611.0043905-.0326035.0084964-.0490272.0122771l-.0193913.0043498c-.0089029.0020326-.0188629.0040246-.0296358.0059353-.0149602.0026424-.0315059.0051628-.0490678.0075613-.0156513.002114-.0321563.0041466-.0490272.0060166-.0160984.0017887-.0325221.0034148-.0490271.0048783-.0164644.0015042-.0329287.0028457-.0490678.003984-.0168302.0012196-.0332946.0022765-.0490272.0030896-.0173993.0008943-.0339043.0015448-.0490271.0019107l-.0263023.0003252H30.8470879v-2.6809567zm3.94884-3.0342683c.0197166.0900048.0302863.1852945.0302863.2856657 0 .1002087-.0105697.1954577-.0302863.2853812-.0126836.0577673-.029148.1132987-.0490678.1665536-.0145536.0388639-.0309367.0764675-.0490271.1127703-.0151635.0304488-.0315465.0600032-.0490272.088582-.0154886.0252859-.0319123.04984-.0490678.0736625-.0156919.0217084-.0320343.0427665-.0490271.0632147-.0158139.0190254-.0321156.0374817-.0490272.0554095-.0158952.0168302-.0322376.0331319-.0490271.0489457-.0159765.0150415-.0323189.0296357-.0490678.0437422-.0160172.0134966-.0323596.0265461-.0490272.0391891-.0160578.0121958-.0324002.0239444-.0490271.0353271-.0160985.0109762-.0324815.0215458-.0490678.0317496-.0161391.0099193-.0324815.0194726-.0490272.0286195-.0161391.0089435-.0324815.0175619-.0490271.0257737-.0161798.0080492-.0325628.0157326-.0490678.0230907-.0161798.0071955-.0325222.0140251-.0490272.0205295a1.3118732 1.3118732 0 0 1-.0490271.0181717c-.0162204.0056507-.0325628.0109762-.0490272.0159358-.016261.004919-.0326034.0095534-.0490678.0138219-.0162204.0042279-.0325628.0081305-.0490271.011708-.0162204.0035774-.0326035.0067483-.0490272.0096753l-.0119112.0021546c-.0095534.0016667-.022237.0035367-.0371566.0054068-.0144723.0018293-.0310993.00374-.0490271.0055287-.0155293.0015855-.0320343.0031303-.0490271.0045531-.0160579.0013415-.0325629.0025205-.0490678.0035774-.0164644.001057-.0329694.0019514-.0490272.0026018-.0169928.0006911-.0334978.0011383-.0490271.0012196l-.0077647.0000406H30.8470879V12.632035H33.5415484l.0283756.000935c.0160578.0006504.0325628.0016261.0490272.002683.0165049.001057.0330099.0022766.0490678.0035775.0169928.0013822.0334978.002927.0490271.0044311.0179278.0017481.0345548.0034961.0490271.0051629.0149196.0017074.0276032.0033335.0371566.004675l.0119112.0021546c.0164237.0029677.0328068.0062605.0490272.0098786.0164643.0036181.0328067.0075614.0490271.0118299.0164644.0043498.0328068.0089436.0490678.0139032.0164644.0050409.0328068.010407.0490272.0160578a1.31399834 1.31399834 0 0 1 .0490271.0182936c.016505.0065451.0328474.013456.0490272.0206515.016505.0073988.032888.0150821.0490678.0231314.0165456.0082524.032888.0168301.0490271.0257737.0165457.0091875.0328881.0187815.0490272.0287007.0165863.0102038.0329693.0207735.0490678.0317903.0166269.0113421.0329693.0232127.0490271.0354084.0166676.012643.03301.0256925.0490272.0391891.0167489.0141471.0330913.0287414.0490678.0437829.0167895.0158138.0331319.0321155.0490271.0489457.0169116.0178871.0332133.036384.0490272.0554095.0169928.0204482.0333352.0415469.0490271.0632554.0171555.0238224.0335792.0483359.0490678.0736625.0174807.0285787.0338637.0581332.0490272.0885819.0180904.0363028.0344735.0739877.0490271.1128516.0199198.0532549.0363842.108827.0490678.1666756zM40.8776928.75481315h.0201231l-.0000407 25.40863795c0 .1517968-.0070329.3019674-.0200824.45039-.0114641.1306168-.0278877.2598107-.0490678.3874192-.0142284.0857363-.0305708.1707002-.0490271.2549323-.0150009.0684996-.0313433.136552-.0490678.2039947-.0153261.0582145-.0317091.1159818-.0490272.1733426-.0156513.0518727-.031831.1035015-.0490678.1546831-.0156513.0463846-.0321156.0924033-.0490271.1382188-.0157733.0426445-.032197.0850045-.0490678.1271206-.0158546.039555-.032197.0788254-.0490272.1178925-.0159358.0369939-.0323189.0737844-.0490678.1103311-.0159765.0347986-.0323189.0694346-.0490271.1037861-.0160579.0329286-.0323596.0657352-.0490678.0982573-.0160172.0311805-.0324002.0622391-.0490272.0930131-.0160171.0296357-.0324815.0589462-.0490678.0882161-.0160578.0283348-.0324408.0564664-.0490271.0844354-.0161392.0272372-.0324815.0543119-.0490678.0812239-.0161798.0261802-.0324409.0523199-.0490678.0782156-.0160985.0250419-.0325628.0498807-.0490678.0745974-.0160985.024107-.0325222.0479294-.0490272.0717519-.0161798.0233752-.0325221.0466691-.0490678.0697598-.0161798.0225215-.0324815.0449618-.0490271.0672394-.0161392.0217084-.0326035.0431324-.0490678.0645563-.0162205.0210987-.0325222.0421567-.0490272.0629708-.0162204.0204483-.0325221.0407339-.0490678.0608976-.0161798.0197165-.0326034.0392704-.0490271.058743-.0163018.0192693-.0324815.0386199-.0490678.0576453-.0161798.0185783-.0326035.0369126-.0490272.0552469-.0162204.0181311-.0326034.0361402-.0490678.0540273-.0162611.0176432-.0325221.0352458-.0490271.0526451-.0161798.0170741-.0326441.0338636-.0490678.0507344-.0163018.0167489-.0325222.0335791-.0490678.050084-.0161798.0161391-.0326441.0319529-.0490272.0478888-.0163017.0158138-.0325628.0316683-.0490678.0472789-.0162204.015326-.0326034.0304894-.0490271.0456122-.0162611.0150008-.0326441.0299203-.0490678.0446772-.0162611.0145943-.0325628.0291072-.0490272.0434983-.0162611.0142284-.0326441.0282942-.0490678.0423193-.0163017.0139032-.0325628.0277657-.0490271.0414656-.0162205.0134967-.0326441.0267901-.0490678.0400835-.0163018.0132121-.0325628.0264242-.0490272.0394737-.0162204.0128462-.0326847.0254078-.0490678.0380508-.0163017.0125616-.0325628.0251639-.0490271.037563-.0162204.0121957-.0326848.0241476-.0490678.0361808-.0163424.0119518-.0326035.0240256-.0490678.0358149-.0162205.0116266-.0326441.022928-.0490272.0343514-.0163424.0113827-.0326034.0228468-.0490678.0340262-.0162611.0110575-.0326441.0218305-.0490271.0327254-.0163018.0108136-.0326035.0216678-.0490678.0323188-.0162611.010529-.0326441.0208547-.0490272.0311805-.0163017.0102851-.0326441.0205702-.0490678.0306521-.0162611.0100005-.0326034.0198791-.0490271.029717l-.0490678.0290259c-.0163018.0095127-.0326035.0190254-.0490272.0283755-.016261.0092688-.0326847.0183344-.0490678.0274405-.0163424.0090656-.0326034.0182124-.0490271.0270747-.0162611.0087809-.0326848.0172773-.0490678.0258957-.0163831.0086183-.0326035.0174399-.0490678.0258957-.0162204.0083337-.0326848.016261-.0490272.0244322-.0163424.0081711-.0326034.0163829-.0490678.0243509-.016261.0078866-.0326847.0156105-.0490271.0233345l-.0490678.0229281-.0490272.022237c-.0163017.0072768-.0326847.0143503-.0490678.0214645-.0163424.0070736-.0326034.0143504-.0490271.0212613-.0162611.0068703-.0326848.0133341-.0490678.0200417-.0163424.0066671-.0326035.0135374-.0490272.0200418-.0163017.0064637-.0326847.0126023-.0490678.0189034-.0163017.0062605-.0326034.012521-.0490271.0186189l-.0490678.0180904c-.0163017.0058946-.0327254.011586-.0490678.0172774-.0163424.005732-.0325628.0116673-.0490272.0172367-.016261.0054881-.0327254.0106103-.0490678.0159358l-.0490271.0158951c-.0163017.0051629-.0326848.0101225-.0490678.0151228l-.0490272.0145943c-.0163423.004797-.0326441.0097159-.0490678.0143503-.016261.0045938-.0326847.0088623-.0490271.0132934-.0163424.0044312-.0326441.0089842-.0490678.0132528l-.0490272.0123584-.0490678.0119925-.0490271.0116673c-.0163017.00374-.0326848.0071142-.0490678.0106916-.0163424.0035774-.0326441.0072768-.0490678.0106916l-.0490272.0097973-.0490678.0093907c-.0163423.003049-.0326441.0063418-.0490271.0092282-.0163017.0028863-.0327254.0054068-.0490678.0081305l-.0490272.0081305-.0490678.0073581-.0490271.0068703c-.016383.0022359-.0326441.0047564-.0490678.0068703-.0163017.0020733-.0327254.0036994-.0490272.0056101-.0163423.0019106-.0326847.003862-.0490678.00561-.0163423.0017481-.0326441.0035368-.0490271.0051222-.0163017.0015855-.0327254.002927-.0490678.0043499-.016383.0014228-.0326848.0030489-.0490678.0043498-.0163017.0012602-.0326848.0022765-.0490272.0034148l-.0490678.0030896c-.0163423.0009757-.0326441.0021546-.0490271.0029676-.0163017.0008131-.0327254.0012196-.0490678.0018701l-.0490272.00187-.0490678.0012602c-.0163017.0003659-.0326847.0004065-.0490271.0006505l-.0490678.0006097-.0101225.000122H28.3624359v-10.359986H36.2440175l.0230501-.0002033.0490678-.0004065.0490271-.0010164c.0163831-.0004065.0327661-.0006504.0490678-.0012195.0164237-.0005692.0326848-.0013416.0490272-.0020733l.0490678-.0022766.0490271-.0029676.0490678-.0033742.0490272-.0038213.0490678-.0045124c.0163424-.0015448.0327661-.003049.0490271-.0047564.0164237-.0017074.0327255-.0036587.0490678-.0055694l.0490272-.0059759c.0164237-.002114.0327661-.0041466.0490678-.0064231.0164237-.0022766.0327254-.004797.0490678-.0072362.016383-.0024798.0327661-.004919.0490271-.0075614l.0490678-.0082524.0490272-.0088217c.016383-.0030489.0328067-.0060165.0490678-.0092281.0164237-.0032522.0327254-.0067483.0490271-.0101631l.0490678-.0106104c.0163831-.0036587.0327661-.0073174.0490272-.0111388.0164643-.003862.0327661-.0079679.0490678-.0120331.016383-.0040653.0327661-.0082119.0490271-.0124804.0163831-.0043092.0328068-.008659.0490678-.0131714.0164237-.0045125.0327255-.0092282.0490272-.0139845.0164237-.0047564.0328067-.009594.0490678-.0145536l.0490678-.0153667c.0164643-.0052442.0327254-.0106916.0490271-.0161797.0164237-.0055288.0328068-.0110575.0490678-.0167896.0164237-.0057726.0328068-.0115453.0490272-.0175212.016505-.0060573.0327661-.0123991.0490678-.0186596.0164237-.0063418.0327661-.0127649.0490271-.0193099.0164237-.0066264.0328474-.0132121.0490678-.0200418.0164644-.0069109.0327661-.0139845.0490272-.0211393.0164643-.0072362.0328067-.0146349.0490678-.022115.0164237-.0075614.0328067-.0151634.0490271-.0229281.0164237-.0078459.0328474-.0157732.0490678-.023863.016505-.0082525.0327661-.0166269.0490272-.0251233.0164643-.0085777.0328067-.0173993.0490678-.0262616.016505-.0089842.0328474-.0180498.0490678-.0272779.0164643-.0093501.0328474-.0188221.0490271-.0284568.0164644-.0097566.0328881-.0195945.0490678-.0296357.016505-.0102851.0328068-.0206922.0490272-.0312212.0165456-.0107323.0328474-.0216272.0490678-.032644.016505-.0111795.0328474-.0225622.0490271-.0340669.0165457-.0117486.0328881-.0236192.0490678-.0356523.0165457-.0122771.0328881-.0247168.0490272-.0373191.0165456-.0129275.0329287-.0259364.0490678-.0391484.0165456-.0135374.032888-.0272373.0490271-.0410998.0165863-.0142284.0329287-.0287007.0490678-.043295.0165863-.0150008.0329287-.0302455.0490272-.0456122.0166269-.0158545.0329693-.0319123.0490678-.0481733.0166676-.0168302.0329693-.033823.0490678-.0510597.0166269-.0178058.0329693-.0358962.0490271-.0541492.0166676-.0189848.0330507-.0382134.0490678-.057686.0167083-.0202857.0330507-.0408152.0490272-.0615887.0167082-.0217898.0331726-.0437015.0490678-.0660198.0168708-.0237004.0330913-.0478074.0490271-.0721177.0168709-.0257737.0332539-.0518727.0490678-.0782969.0169928-.0284161.0333352-.0572388.0490272-.0864274.0170741-.0317496.0335384-.0638652.0490678-.0965092.0173587-.0364654.0336604-.0735405.0490271-.1111035.0176433-.0430917.034067-.0867526.0490678-.1312265.0184563-.0547997.0347174-.110697.0490272-.16757.0209361-.0831345.0373598-.1684643.0490678-.2558674.0142284-.1060626.0217085-.2150521.0217085-.32705 0-.1090709-.0073988-.2150115-.0217085-.3179032-.0117487-.0845168-.0281723-.1669195-.0490678-.2471271-.0142691-.0546777-.0306522-.1082985-.0490272-.1609029-.0150415-.0431324-.0313839-.085655-.0490678-.1273646-.015326-.0361401-.0317091-.0717518-.0490271-.1067943-.01557-.0315464-.031953-.0626456-.0490678-.0932977-.0157326-.0282129-.0320344-.0561006-.0490272-.0835411-.0157732-.0254891-.0321969-.0506124-.0490678-.0754105-.0158952-.0234159-.0321969-.0466692-.0490271-.0694753-.0158952-.0215458-.0323189-.0427258-.0490678-.0637026-.0159765-.0200824-.0323189-.0398802-.0490272-.0594747-.0160578-.0187815-.0323595-.0374004-.0490678-.0557347-.0160578-.0176432-.0323595-.0350832-.0490271-.0522792-.0160578-.0165863-.0324409-.0329286-.0490678-.0491083-.0160985-.0156919-.0324815-.0311806-.0490678-.046466-.0160985-.0148381-.0324815-.0294731-.0490272-.0439454-.0161391-.0141064-.0324815-.0280503-.0490678-.0417909-.0161391-.0134153-.0324815-.026668-.0490271-.0397582-.0161798-.0127649-.0325222-.0254078-.0490678-.0378475-.0161798-.0121958-.0325222-.0241883-.0490272-.0360995-.0161797-.0116267-.0325628-.0231314-.0490678-.0344734-.0161797-.0110982-.0325221-.022115-.0490271-.0329693-.0162204-.0106509-.0325628-.02118-.0490678-.0315464-.0162204-.0101631-.0325222-.020245-.0490272-.0301642-.0161797-.009716-.0325628-.01931-.0490678-.028782-.0162204-.0093095-.0325628-.018497-.0490271-.0275625-.0162204-.0089435-.0325628-.0177245-.0490678-.0263835-.0162204-.0085777-.0326035-.0170334-.0490678-.0254079-.0162204-.0082118-.0325628-.016383-.0490272-.0243915-.016261-.0078866-.0325628-.0157326-.0490678-.0234159-.0162204-.0075614-.0326034-.0149195-.0490271-.022237-.0162204-.0072361-.0326035-.0143503-.0490678-.0213832-.0162611-.0069516-.0326035-.0137813-.0490272-.0205296-.0163017-.006667-.0325628-.013334-.0490678-.0197978-.016261-.0063825-.0326034-.0126836-.0490271-.0188628-.0162611-.0060979-.0326441-.0119925-.0490678-.0179278-.0162611-.005854-.0326035-.0115453-.0490272-.0172367-.0163017-.00561-.0326034-.0111794-.0490678-.0166269-.016261-.0053661-.0326034-.0106103-.0490271-.0157732-.0162611-.0051222-.0326848-.0100818-.0490678-.0150008l-.0490678-.014391c-.0163017-.0046751-.0326035-.0093501-.0490272-.0138219-.016261-.0044311-.0326847-.0086996-.0490678-.0129275-.016261-.0042279-.0326034-.0082931-.0490271-.0123584-.0163017-.0040246-.0326441-.0080086-.0490678-.0118299-.0162611-.0038213-.0326441-.0075207-.0490272-.0111388-.016261-.0036181-.0326441-.0070736-.0490678-.0104884-.0163017-.0034148-.0326034-.0068296-.0490271-.0100412l-.0490678-.0093907-.0490272-.0087403c-.0163017-.0028457-.0326441-.0056914-.0490678-.0083338l-.0490271-.007724c-.0163017-.0024798-.0326848-.004797-.0490678-.0070735l-.0490678-.0067077-.0490272-.0061792-.0490678-.0055288-.0490271-.0051628-.0490678-.0045531-.0490272-.0041059-.0452871-.0034962-.0000406-.0587836.0453277-.0070329.0490272-.0080899c.0164237-.002805.0328067-.00561.0490678-.0085777l.0490271-.0094314c.0164644-.0032522.0328068-.0066263.0490678-.0100818l.0490272-.0106916c.0164237-.0036994.0328474-.0074395.0490678-.0113421.0164643-.003984.0327661-.0081305.0490678-.0122771.0164643-.0041872.0327661-.0085777.0490271-.0129682.0164237-.0044717.0328068-.0090248.0490678-.0136999.0164237-.0047157.0328068-.009472.0490272-.014391.0164237-.0049596.0328474-.0100818.0490678-.0152854.0164643-.0052848.0327661-.0107322.0490271-.0162203.016505-.0055694.0328068-.0113015.0490678-.0170741.0164644-.005854.0328068-.0117893.0490272-.0178872.0164643-.0061792.0328474-.0124397.0490678-.0188221.0164643-.0064638.0328067-.0130901.0490271-.0197978.016505-.0068297.0328474-.0137406.0490678-.0208141.016505-.0071956.0328068-.014513.0490272-.0219524.016505-.0075208.0328474-.0152448.0490678-.0230501.016505-.0079272.0328474-.0160171.0490678-.0241882.0164643-.0083338.0328474-.0167896.0490271-.0253673.016505-.0087403.0328881-.0176432.0490678-.0266274.016505-.0091875.0328474-.0184969.0490272-.0279283.016505-.0096347.032888-.019432.0490678-.0293512.0165456-.0101225.0328474-.0203669.0490271-.030774.0165457-.0106103.0328881-.0214646.0490678-.0324001.0165457-.0111795.0328881-.0225215.0490272-.0340262.0165863-.0117893.0329287-.0237005.0490678-.0357743.0165863-.012399.0329287-.02492.0490271-.0376443.0165863-.0130901.0329694-.0262616.0490678-.0396769.0165863-.0138219.0329287-.027847.0490272-.0419941.0166676-.0146756.0329693-.0295138.0490678-.0445146.0166269-.0154887.03301-.0311805.0490678-.0470351.0166269-.0164236.03301-.0330099.0490271-.0497994.0167083-.0175619.0330507-.0352864.0490678-.0532549.0167083-.0187001.0330507-.0376849.0490272-.0568323.0167489-.0200417.0331319-.040368.0490678-.0608975.0167895-.0216679.0331319-.0436203.0490271-.0658166.0168709-.0235378.0332133-.0473602.0490678-.0714266.0169115-.0256924.0332946-.0516288.0490272-.077931.0170335-.0284974.0334165-.0573201.0490678-.086468.0171961-.0320749.0335384-.0645157.0490271-.0973223.01744-.0369126.0337824-.0743536.0490678-.1121605.0178059-.0440674.0341483-.0887446.0490272-.1339909.0187002-.056873.0350832-.114681.0490678-.1732207.0226435-.0949644.0389859-.1919208.0490678-.290544.0079679-.0778091.0121145-.1566751.0121145-.2363135 0-.0841102-.0041873-.1661064-.0121145-.2460701-.0101225-.1022006-.0265869-.2009051-.0490678-.2961947-.0140252-.0595154-.0304082-.1176892-.0490678-.1744403-.0149196-.0454089-.0312619-.0899235-.0490272-.1335843-.015326-.0376037-.0316684-.0745569-.0490678-.110819-.0155293-.0323595-.0319123-.0641904-.0490271-.0954929-.015692-.0286601-.032075-.056873-.0490678-.0846794-.0158139-.0258143-.0321157-.0512629-.0490272-.0763049-.0158545-.0234565-.0322376-.0465472-.0490678-.0693126-.0158952-.0215459-.0322376-.0428072-.0490271-.0637433-.0160172-.020001-.0322783-.0397988-.0490678-.0592714-.0159765-.018497-.0323596-.0366687-.0490272-.0546778-.0160171-.017318-.0324002-.034392-.0490678-.0512629-.0160578-.016261-.0324002-.0322781-.0490271-.048092-.0160985-.015326-.0324409-.0304894-.0490678-.0453683-.0160985-.0144316-.0324815-.0287007-.0490678-.0427665-.0161391-.0136592-.0324409-.0271559-.0490272-.0404493-.0161391-.0129275-.0324815-.0257331-.0490678-.0382947-.0161391-.0122771-.0324815-.0243509-.0490271-.0362621-.0161798-.0116673-.0325222-.0231314-.0490678-.0344734-.0161798-.0110575-.0324815-.0219524-.0490272-.0327254-.0161797-.0105696-.0325628-.0209767-.0490678-.0312212-.0161797-.0100411-.0325628-.0199197-.0490271-.0296763-.0162204-.009594-.0325628-.0190254-.0490678-.0283349-.0161798-.0091468-.0325222-.0181717-.0490272-.027034-.0162204-.0087403-.0325628-.0172773-.0490678-.0257737-.0162204-.0083338-.0325628-.0165456-.0490271-.0246355-.0162611-.0079679-.0325628-.0158951-.0490678-.0235785-.0162204-.007602-.0326035-.0151227-.0490678-.0224402-.0162204-.0072361-.0325628-.0142284-.0490272-.0212613-.0162204-.0069109-.0326441-.0136999-.0490678-.0204076-.0162204-.0065857-.0326034-.0130901-.0490271-.0194726-.0162611-.0063011-.0326035-.0125616-.0490678-.0186595-.0162611-.0060166-.0325628-.0119112-.0490272-.0177245-.016261-.0057321-.0326034-.0113015-.0490678-.0168302-.016261-.0054475-.0326034-.0107729-.0490271-.0160171-.0162611-.0052036-.0326035-.0103258-.0490678-.0153261-.0163017-.0049596-.0325628-.0099192-.0490272-.0146755-.016261-.0046751-.0326441-.0091875-.0490678-.0136593-.016261-.0044718-.0326034-.008781-.0490271-.0130495l-.0490678-.0124803c-.0163017-.0040246-.0326035-.0079679-.0490678-.0117893-.0162611-.0037807-.0326035-.0074394-.0490272-.0110168l-.0490678-.0104477c-.0163017-.0033742-.0325628-.006789-.0490271-.0099599-.0162611-.0031709-.0326848-.0060979-.0490678-.0091062l-.0490272-.0086184c-.0163017-.0027643-.0326034-.0055694-.0490678-.0081711l-.0490271-.0074394-.0490678-.006911-.0490272-.0065044-.0490678-.0058133-.0490271-.0052849-.0490678-.0049189-.0490678-.0043092-.0490272-.0037807-.0490678-.0034961-.0490271-.002805-.0194726-.0010977-.0295952-.0018293-.0490272-.0028864-.0490678-.0027237-.0490271-.0025611-.0490678-.0023578-.0490272-.002114-.0490678-.0017887-.0490271-.0015041-.0490678-.0010977-.0490678-.0006504-.027034-.0000813H28.3624359V5.8369554c0-.35501903.0365468-.70146035.105819-1.03594982.0148789-.07162986.0312619-.14264992.0490678-.21310085.0152448-.06028779.0316685-.12012839.0490272-.17952182.0155293-.05305162.0318717-.10573737.0490678-.15805725.0156919-.04780744.031953-.09537096.0490271-.14252796.0158139-.04374218.032075-.08724045.0490678-.13041349.0158952-.04032737.0321969-.08045147.0490678-.12025035.0159359-.03756299.0322376-.07496337.0490272-.11207918.0159358-.03524579.0323595-.07024766.0490678-.10504628.0159358-.03321316.0323595-.0661824.0490271-.09898904.0160172-.03154641.0324409-.0628489.0490678-.09402943.0160172-.03004226.0324002-.05988126.0490272-.08955764.0160984-.02878203.0324408-.05732015.0490678-.08573631.0161391-.02756245.0324001-.05500294.0490271-.08219952.0161391-.02638353.0324815-.05256379.0490678-.0786221.0160578-.02524526.0325222-.0502466.0490271-.07516663.0161798-.02439155.0324816-.0487018.0490678-.07280878.0162205-.02361915.0324002-.0472383.0490272-.07057289.0161391-.02260284.0326035-.0449211.0490678-.06723937.0161391-.0219524.0325628-.04374219.0490678-.06541001.0162611-.02134261.0324408-.04276652.0490271-.06382456.0161392-.0204889.0326442-.04065259.0490678-.06089757.0161798-.01996042.0325222-.03975823.0490272-.05943408.0162611-.01943194.0325222-.03886387.0490678-.05805189.0161391-.01870019.0326035-.03707516.0490271-.05553144.0163018-.01829366.0325222-.03662797.0490678-.05467772.0161798-.01768388.0326035-.03520514.0490272-.05268575.0162204-.0172367.0326035-.03435144.0490678-.05138487.0162611-.01678952.0325222-.03357903.0490271-.05016529.0162205-.01630169.0326442-.03235946.0490678-.04841723.0163018-.01597646.0324815-.03211554.0490272-.04784809.0161798-.01540733.0326848-.03044879.0490678-.04565285.0163017-.01512276.0325628-.03028618.0490678-.04520568.0162204-.01467558.0326441-.0290666.0490271-.04349826.0163018-.01435037.0326035-.02870073.0490678-.04284783.0162611-.01394383.0326035-.02768441.0490272-.04142498.0163017-.01361862.0326035-.02719658.0490678-.04061193.0162611-.0132934.0326035-.02642418.0490271-.03947366l.0490678-.03857931.0490272-.03756299c.0163017-.01231773.0326441-.02455416.0490678-.03666863.0162611-.01199251.0326035-.02394437.0490271-.03577427l.0490678-.03483927c.0162611-.01142337.0326035-.02276545.0490272-.03398556l.0490678-.03321316.0490678-.03231881c.0163017-.01061032.0326034-.02117999.0490271-.03158705l.0490678-.03065205c.0163424-.0101225.0326035-.02024499.0490272-.03016422.0162611-.00983793.0326848-.01939128.0490678-.02902595.0163424-.00963466.0325628-.01935063.0490271-.02878203.0162205-.00930944.0327255-.01829366.0490678-.02744049.0163424-.00914683.0325628-.01845628.0490272-.02739984.0162611-.00882161.0327254-.01735866.0490678-.02601766s.0326034-.01735865.0490271-.02585504c.0162611-.00841509.0326848-.01658626.0490678-.02479808.0163018-.00817117.0326441-.01638299.0490272-.02439155l.0490678-.02370046c.0163017-.00776464.0326847-.01532602.0490678-.02292805.0163424-.00756139.0326034-.01524472.0490271-.02264349.0162611-.00731747.0327255-.01430971.0490678-.02146457.0163424-.00715485.0326035-.01443167.0490272-.02142391.0162611-.00691094.0327254-.01349666.0490678-.02024499.0163017-.00670768.0326034-.01349666.0490271-.02004172l.0490678-.01930998.0490272-.01865954c.016383-.00617919.0326441-.01243969.0490678-.01841562.0162611-.00593528.0326847-.01150468.0490271-.01727735.0163831-.00577266.0326441-.01166729.0490678-.01727735.0162611-.0055694.0326848-.01081358.0490272-.01622038l.0490678-.01589516c.0163424-.00520353.0326441-.01044771.0490678-.01548863.0162611-.00500027.0326847-.00971597.0490271-.01455363.0163424-.0048783.0326441-.00991923.0490678-.01459428.0162611-.0046344.0326848-.00894357.0490272-.01341535s.0326441-.00898422.0490678-.0132934l.0490271-.0126836c.0163018-.00410591.0326848-.00800856.0490678-.01195186.0163424-.0039433.0326035-.00817117.0490272-.01195186.0162611-.00374004.0327254-.00715486.0490678-.01077294l.0490271-.01069163.0490678-.01012249c.0162611-.0032522.0326848-.00630115.0490272-.00939075.016383-.00313025.0326441-.00646376.0490678-.0094314.0163017-.00296763.0327254-.0054881.0490678-.00825247l.0490271-.00813052c.0163424-.00260176.0326848-.00528483.0490678-.00772399.0163018-.00243915.0326848-.00459374.0490272-.00687029.016383-.00227654.0326441-.00475635.0490678-.00687028.0163017-.00211394.0326847-.00398396.0490271-.00593528l.0490678-.00561006c.0163424-.00178871.0326441-.00378069.0490272-.0054068.0163017-.0016261.0327254-.00288632.0490678-.00434982l.0490271-.00434982.0490678-.00369939c.0163017-.00117892.0326848-.00211393.0490272-.00313025.0163424-.00097566.0326441-.00223589.0490678-.0030896.0163017-.0008537.0327254-.00134153.0490678-.00203262L33.27507.75786209c.0163831-.00052848.0326848-.00121958.0490678-.00158545.0163017-.00036587.0326848-.00040653.0490272-.00065044.0163423-.00024392.0326847-.00052849.0490678-.0006098l.0123177-.0001626H40.8776928V.75481315z" fill="#54B230"/>
    <path d="M.24504125 18.3871401V5.83691475c0-.35400271.0362622-.69954969.10516852-1.0331448.01479758-.07162985.03122127-.14260927.0489865-.21310085.0152041-.06036909.03158714-.12025034.04894584-.17972508.01548867-.05301097.03183106-.10561541.04894584-.15789464.01569194-.04784809.03191236-.09549292.0489865-.14273122.0158139-.04370153.03199367-.08715914.04894584-.13029154.0158139-.04032736.03215628-.08053277.0489865-.1203723.0158952-.03756299.03219693-.07488206.04894584-.11195722.01593585-.03524579.03227824-.07020701.04894584-.10500563.01593586-.03325381.03235954-.06626371.0489865-.099111.0159765-.0315464.03231889-.06284889.04894584-.09398877.01601716-.03004226.03235954-.05988126.04894584-.08955765.01605781-.02874138.03235954-.05732014.0489865-.08569565.01609846-.02756245.03231889-.0550436.04894584-.08228083.01609846-.02634287.03244085-.05248249.04898649-.07850014.01601716-.0252046.03248151-.0502466.04894585-.07516663.01613912-.02439155.03240019-.0487018.04894584-.07280878.01626108-.0236598.03235954-.04727896.04898649-.07065419.01605782-.02256219.03252216-.0448398.04894585-.06715807.01617977-.0219524.0324815-.04374218.04898649-.06541001.01622043-.02130196.0324002-.04276652.04894585-.06382456.01609846-.02044825.0325628-.04057128.04894584-.06077562.01617977-.01996041.0324815-.03983953.04898649-.05955603.01622043-.01939129.03244085-.03874192.04894585-.05788928.01613912-.01874084.0325628-.03715647.04898649-.05565339.01622043-.01833432.03244085-.03662798.04894584-.05467773.01613912-.01768387.03256281-.03512383.04894585-.05256379.01622042-.01727735.03252215-.03439209.04898649-.05142552.01622043-.01678952.03248151-.03357904.04894585-.05016529.01617977-.01630169.03260346-.03235946.04898649-.04841723.01630173-.01597647.03244085-.03207489.04894584-.04780744.01613912-.01540733.03260346-.03044879.04894585-.04565285.01630173-.01516342.0324815-.03036748.04898649-.04528698.01617977-.01463493.03260346-.02898529.04894585-.04341696.01630173-.01435036.03252215-.02874138.04898649-.04288848.01622043-.01394384.03256281-.02764376.04894584-.04138433.01622043-.01361862.03252216-.02723723.04894585-.04065259.01622042-.01325274.03260346-.02638352.04898649-.03947366.01626108-.01296817.03252216-.02581439.04894584-.0385793.01622043-.01264295.03260346-.0251233.0489865-.03756299.01626108-.01231773.03256281-.02459481.04894584-.03670928l.04894585-.03569297c.01626107-.0117486.0325628-.02341589.04898649-.03496122.01622043-.01142338.03256281-.0227248.04894584-.03394491.01626108-.01117946.03256281-.02227762.04894585-.03325382.01626107-.01085424.03260346-.02154587.04898649-.0322375.01626108-.01061032.03252216-.02130195.04894584-.03174967.01622043-.01032575.03260346-.02040759.0489865-.03057074.01630173-.01012249.03252215-.02036694.04894584-.03028618.01617977-.00979727.03260346-.01930997.04894585-.02894464.01634238-.00963466.03252215-.01943193.04898649-.02890398.01617977-.00930945.03264411-.01821236.04894584-.02735919.01634239-.00914684.03256281-.01841562.0489865-.02739985.01622042-.00886226.03260346-.0173993.04894584-.0260583.01630173-.008659.03256281-.01735866.04894585-.02585505.01626107-.00841508.03260346-.01666756.04898649-.02492003l.04894584-.02431025c.01630173-.00800856.03260346-.01601712.0489865-.02382241.01626108-.00776465.03260346-.01528537.04894584-.02288741.01634238-.00760203.03252216-.01536667.04894584-.02276544.01622043-.00735812.03264412-.01426906.0489865-.02142392.01630173-.00715485.03256281-.01443166.04894584-.02142391.01626108-.00691094.03264412-.01357796.0489865-.02032629l.04894584-.02000107.04894584-.01943194.0489865-.01861888c.01634238-.0061792.03252215-.01256165.04894584-.01857823.01622043-.00593528.03268477-.01146403.0489865-.0172367.01630173-.00577267.0325628-.01162664.04894584-.0172367l.04894584-.01638299.0489865-.01589516c.01630173-.00520353.03256281-.01052902.04894584-.01556994.01622043-.00500027.03264411-.00975662.04894584-.01459428.01634239-.0048783.03260346-.00983792.0489865-.01455362.01626108-.00467505.03260346-.00902488.04894584-.01353731l.0489865-.0132934c.01630173-.00430917.0325628-.00869965.04894584-.01284622.01626108-.00414656.03264411-.00792725.04894584-.0119112.01630173-.00398396.03260346-.00813052.0489865-.01195186.01626108-.0037807.03264411-.00731747.04894584-.01093555l.0489865-.01065098c.01630173-.00349612.0325628-.0070329.04894584-.01032575.01626108-.0032522.03264411-.0062605.04894584-.00939075.01634239-.00313025.03260346-.00638246.0489865-.0093501.01630173-.00296763.03260346-.0056507.04894584-.00845573l.0489865-.00813052c.01630173-.00260176.0325628-.0054068.04894584-.0078866.01626108-.0024798.03264411-.00455309.04894584-.00687029.01630173-.00227654.03260346-.0047157.0489865-.00687028l.04894584-.00613854.0489865-.0055694c.01634238-.00182937.0325628-.0039433.04894584-.00561006.01626108-.00166676.03264411-.00288634.04894584-.00439048l.0489865-.00430918c.01630173-.00138218.03260346-.00272372.04894584-.00390265.01630173-.00117892.03264411-.00211393.04898649-.00313025.01634239-.0010163.03260346-.00219523.04894585-.0030896.01626107-.00089435.03260346-.00150414.04894584-.00223588l.0489865-.00187002c.01630173-.00056914.0325628-.00142284.04894584-.00182937.01626108-.00040652.03264411-.00036587.04894584-.00060979.01630173-.00024391.03264411-.00052848.0489865-.00060979l.04894584-.00028456H12.7791203V26.1634511c0 .2210281-.0141878.4387634-.041547.6523521-.0131715.102851-.0297578.2046044-.0489865.3054228-.014635.0766708-.0308961.1527724-.0489459.228183-.0152041.06354-.0314652.1266328-.0489865.1892378-.0154073.0549216-.0317904.1094367-.0489458.1635453-.01557.049027-.031953.0976882-.0489459.1460648-.0157326.0447585-.0320343.089273-.0489865.1334624-.0158139.0412624-.0321156.0822402-.0489458.1229741-.0158545.0383354-.0321969.0765081-.0489458.1143557-.0159359.0359369-.0322783.0716298-.0489865.1071602-.0159359.0338636-.0322783.0674833-.0489459.1009404-.0160171.0321155-.0323189.0640278-.0489865.0957368-.0160171.0305301-.0323189.0608976-.0489458.0910618-.0160985.0291886-.0322783.0582551-.0489459.0870778-.0160578.0278064-.0324002.0554502-.0489865.0829313-.0160171.0265868-.0324408.052889-.0489458.0791506-.0160985.0256518-.0324408.0511409-.0489865.0764675-.0161798.0247574-.0323595.0494742-.0489458.0739064-.0160985.0237005-.0324815.0472383-.0489459.0706542-.0160984.0228874-.0324815.0455715-.0489865.068215-.0161797.022237-.0324408.0443927-.0489458.066345-.0161391.0214646-.0324815.0427666-.0489865.0639466-.0161391.0206921-.0325222.041181-.0489459.0616293-.0162204.0202043-.0324408.0404087-.0489458.0603284-.0161391.0194726-.0325628.0387013-.0489865.05793-.0161798.0189441-.0324815.0377256-.0489458.0564257-.0162611.0184563-.0324409.0369939-.0489459.0552063-.0161391.0178058-.0326034.0352864-.0489865.052889-.0162611.0174399-.0324408.0349205-.0489458.0521166-.0161798.0168708-.0325628.0334977-.0489865.0501653-.0162204.0164643-.0324815.0328066-.0489459.0490676-.0162204.0160578-.0325221.0319936-.0489865.0478481-.0161797.01557-.0325628.0309366-.0489458.0463033-.0162611.0152447-.0324815.0305301-.0489458.0455716-.0161798.0147569-.0326035.0292292-.0489865.0437828-.0163018.014513-.0324409.0291479-.0489459.043417-.0161391.0139845-.0326441.0276031-.0489458.041425-.0163017.0137812-.0325222.0276844-.0489865.0412623-.0161798.0133341-.0326035.0263836-.0489459.0394737-.0163017.0130901-.0325221.0263022-.0489865.0391891-.0161797.0126836-.0326034.025042-.0489458.0375223-.0163017.0124397-.0324815.0249607-.0489458.0371971-.0161798.0120738-.0326441.0238224-.0489865.0357336-.0163018.01183-.0324815.0237818-.0489459.0354491-.0161797.011464-.0326034.0226841-.0489458.0339449-.0163424.0113014-.0325222.0227248-.0489865.033823-.0161798.0108949-.0326035.0215052-.0489459.0322375-.0163423.0107322-.0325221.0216678-.0489865.0322375-.0161797.0103664-.0326441.0203263-.0489458.0305301-.0163017.0102038-.0325221.0205702-.0489865.0305707-.0162204.0098786-.0326441.0194726-.0489458.0291479-.0163018.0096753-.0325222.0194319-.0489459.0289446-.0162611.0093908-.0326034.0185783-.0489865.0278064-.016261.0091875-.0325628.018375-.0489458.0273592-.0162611.0089436-.0325628.0178058-.0489459.0265461l-.0489865.0258551c-.0163017.0084964-.0325628.0169928-.04894579.0253265-.01626108.0082525-.03260346.0162611-.0489865.0243509-.01630173.0080493-.03252215.0163424-.04894584.024229-.01622043.0078053-.03264412.0152447-.04894585.0228874-.01634238.0076427-.0325628.0154073-.04898649.0228874-.01622043.0073988-.03264411.0144723-.04894584.0217085l-.0489865.0214239-.04894584.0207735c-.01626108.0067889-.03264411.0133747-.0489865.020001-.01630173.0066264-.0325628.0133747-.04894584.0198385-.01622042.0063824-.03260346.0123584-.04894584.0185782-.01634239.0062199-.03256281.0125617-.0489865.0186189-.01626108.0060166-.03260346.0117486-.04894584.0176026l-.04894584.0172367-.0489865.0167895c-.01626108.0054474-.03264411.010651-.04894584.0158951-.01634238.0052849-.03256281.010773-.0489865.0158952-.01622042.0050816-.03264411.0097566-.04894584.0146756l-.04894584.0145536-.0489865.0139439c-.01626108.004553-.03260346.0088622-.04894584.0132527-.01634238.0043905-.03260346.0090249-.0489865.0132121-.01622042.0041872-.03268476.0079272-.04894584.0119518-.01630173.0040247-.03260346.0080899-.04894584.0119519l-.0489865.0112608-.04894584.0106916c-.01634238.0035368-.03256281.0073175-.0489865.0106916-.01626107.0033335-.03264411.0061792-.04894584.0093501s-.03260346.0063825-.04894584.0093908l-.0489865.0088216c-.01626107.0028457-.03260346.0054068-.04894584.0080898-.01634238.0026831-.03260346.0056101-.04894584.0081306-.01626108.0025204-.03264412.0046344-.0489865.0069922l-.04894584.0068703c-.01630173.0021952-.03260346.0044311-.0489865.0064638-.01626107.0020326-.03264411.00374-.04894584.00561-.01634238.00187-.03260346.0039027-.04898649.0056101-.01626108.0017074-.03260346.0031709-.04894585.0047157l-.04894584.0043498c-.01634238.0013822-.03260346.0030896-.0489865.0043092-.01626107.0012195-.03264411.0020326-.04894584.0030896l-.04894584.0030896-.0489865.0026017c-.01626107.0007724-.03264411.0012603-.04894584.00187-.01634238.0006098-.03264411.0013822-.0489865.0018701-.01626107.0004471-.03264411.0006098-.04894584.000935l-.04894584.0006098c-.0151228.0001219-.03020495.0005691-.04540906.0005691H.24504126V20.5356699s.03618089.0099599.1051685.0273592l.0489865.0122364.04894585.0119519.04894584.0117486.0489865.0115859.04894584.0113828.0489865.0112201.04894584.0110575.04894584.0108949.0489865.0107323.04894584.0106103.04894584.0104477.0489865.0103258.04894584.0102038.04898649.0100005.04894585.0099192.04894584.0097973.04898649.0096753.04894585.0095127.04898649.0094721.04894585.0093094.04894584.0091468.04898649.0090656.04894585.0089435.04898649.0088216.04894584.0087403.04894585.0085777.04898649.0084964.04894585.0083338.04898649.0082525.04894584.0081305.04894585.0080492.04898649.0079273.04894585.0078053.04898649.007724.04894584.007602.04894585.0075207.04898649.0073581.04894584.0072769.0489865.0071548.04894584.0070736.04894585.0069515.04898649.0068703.04894584.0067077.04894585.006667.04898649.0065044.04894584.0064232.0489865.0063418.04894584.0061792.04894585.0061385.04898649.0059759.04894584.0059353.0489865.005732.04894584.005732.04894585.0055288.04898649.0055287.04894584.0053662.0489865.0052442.04894584.0052035.04894584.0050003.0489865.0050002.04894584.004797.0489865.0047564.04894584.004675.04894584.0044718.0489865.0045125.04894584.0042278.0489865.0042279.04894584.0041059.04894584.003984.0489865.0039433.04894584.0036993.04894584.0037401.0489865.0035368.04894584.0034554.0489865.0034148.04894584.0031709.04894584.0031709.0489865.003049.04894584.0028863.0489865.0028864.04894584.0026424.04894584.0026017.0489865.0025205.04894584.0023172.0489865.0023172.04894584.0021139.04894584.0020327.0489865.0020326.04894584.0017074.0489865.0017481.04894584.0016261.04894584.0014228.0489865.0014635.04894584.0012196.04898649.0010976.04894585.0011383.04894584.000813.0489865.0008131.04894584.0007317.04894584.0004878.0489865.0005285.04894584.0003659.04898649.0001626.04894585.000122.04894584-.0000813.0489865-.0003253.04894584-.0002845.04898649-.0002846.04894585-.0002846.04894584-.0008943.0489865-.0008944.04894584-.0008943.04898649-.0008944.04894585-.0012196.04894584-.0015448.04898649-.0015041.04894585-.0015042.04898649-.0016261.04894585-.0021545.04894584-.0021546.04898649-.0021953.04894585-.0021546.04898649-.0027237.04894584-.002805.04894585-.0028457.04898649-.0028457.04894585-.0032522.04898649-.0035368.04894584-.0034961.04894585-.0035368.04898649-.0039026.04894585-.0042279.04898649-.0042278.04894584-.0042686.04894585-.0045937.04898649-.0050003.04894584-.0049596.04894585-.0050003.04898649-.0054474.04894585-.005732.04898649-.0057727.04894584-.005732.04894585-.0063825.04898649-.006545.04894584-.0065451.0489865-.006667c.01650499-.0023579.03256281-.0049596.04894584-.0073581l.04894585-.0073581.04898649-.0073988.04894584-.0077647c.01646434-.0026424.03260346-.0055287.0489865-.0082524l.04894584-.0082119c.01622043-.0027643.03284738-.0054068.04894584-.0082524.016505-.002927.03256281-.0060573.0489865-.0090656l.04894584-.0091468.0489865-.0091468.04894584-.009594c.01646434-.0032522.03260346-.0067484.04894584-.0100819l.0489865-.0100818.04894584-.0102445c.01654565-.0035367.03256281-.0073581.04894585-.0110168l.04898649-.0110575c.01622043-.0037401.03284738-.0072362.04894584-.0110169.01654565-.0039026.03260346-.0080085.0489865-.0119518l.04894584-.0120738c.01626108-.0040247.03284738-.0079273.0489865-.0120332.01646434-.0041872.03264411-.0085777.04894584-.0128462l.04894584-.0130902c.01630173-.0043904.03284738-.008659.0489865-.0131307.01646434-.0045125.03264411-.0092282.04894584-.0138626l.04894584-.0141877c.01630173-.0047564.03284738-.0093908.0489865-.0142284l.04894584-.0150008.0489865-.0153667c.01626107-.0051222.03284737-.0101225.04894584-.0153667l.04894584-.0163017.0489865-.0165862c.01626108-.0055694.03288803-.0109356.04894584-.0165863.01654565-.0058133.03260346-.0118705.0489865-.0177652l.04894584-.0178465c.01630173-.0060572.03280672-.0119925.04894584-.018131.01654565-.0062605.03264412-.0127649.0489865-.0191474.01634238-.0063824.03280672-.0127242.04894584-.019188l.0489865-.0199198.04894584-.0205702c.01626108-.0068703.03288803-.0135373.04894584-.0205295.0165863-.0071955.03260346-.0147163.0489865-.0220337l.04894584-.0219931.04894584-.0227654c.01646434-.0077647.03272542-.0156919.0489865-.0235785.01630173-.0078866.03288803-.0156919.04894584-.0237005.0165863-.0082931.03264411-.0168301.0489865-.0252046.01634238-.0083744.03284737-.0166675.04894584-.0251639.01654565-.0086997.03268476-.0176026.04898649-.0264649.01642369-.0089029.03276608-.0178464.04894585-.0268713.01646434-.0091875.03276607-.0184563.04894584-.0277657.01650499-.0094721.03276607-.0191068.0489865-.0287414.01638299-.009716.03280669-.0194319.04894579-.0292699.0165457-.0101225.0327255-.0203669.0489865-.0306114.0163831-.0102851.0328474-.0205702.0489459-.0310179.0165456-.0107323.0326848-.0217491.0489458-.032644.0163831-.0110169.0328881-.0219118.0489865-.0330506.0165863-.011464.0326848-.0231313.0489459-.0347579.016383-.011708.032888-.0234566.0489458-.0353271.0165863-.0122365.0327661-.0246355.0489865-.0370345.0164643-.0125617.0328474-.0252046.0489458-.0379289.016505-.0130495.0328068-.0262616.0489865-.0395143.016505-.0135373.0328068-.0272372.0489459-.0409372.0164643-.0139844.0329287-.0279283.0489865-.0420754.0166269-.0146349.0327254-.0295544.0489458-.0443926.0164237-.0150415.0329287-.0300423.0489459-.045287.0166269-.0158138.0328473-.0317903.0489865-.0478074.0165456-.0164237.0328473-.0330099.0489458-.0496368.0164643-.0169928.0329693-.0339449.0489458-.051141.0166677-.0180091.0328068-.0362214.0489865-.0544744.016627-.0187409.0328881-.0376443.0489459-.0566291.0165456-.0195539.03301-.0391484.0489865-.0589869.0165863-.0206109.0329693-.0412217.0489458-.0620765.0167083-.0218304.0328881-.0438641.0489459-.0659791.0167082-.0230094.0329693-.0461814.0489865-.069516.0167082-.0243102.03301-.0488237.0489458-.0734998.0167083-.0258551.0330506-.0519134.0489458-.078175.016749-.027725.033132-.055572.0489865-.0837036.0168303-.0297984.033132-.0598.0489459-.0900455.0169115-.0323595.0332132-.0649222.0489865-.0977288.0169928-.0352865.0332539-.0708981.0489458-.1067131.0170335-.0389451.0334165-.0781342.0489865-.1176892.0171555-.0436202.0335385-.0876063.0489459-.1319583.0174806-.0503279.033701-.1011843.0489458-.1524472.0178059-.0599219.0341076-.1204536.0489865-.1815544.0184563-.0758171.0348394-.1524879.0489458-.2300123.0209768-.1154127.0371566-.2326548.0489459-.3514416.0164643-.1656593.0244729-.3342862.0244729-.5055556v-5.8961289H7.40072833l-.03711591 5.8961289c0 .0922814-.00402461.1830993-.01187058.2721691-.01000057.1134613-.0263836.224077-.04894585.3316438-.01394387.0664263-.03028625.131633-.04894584.1956202-.01487888.0509783-.03113996.1011436-.04898649.1504552-.01520411.0419941-.03158715.0832972-.04894585.1240311-.01548867.0363434-.0317904.0721176-.04898649.1074041-.01565129.0321155-.03187171.0638652-.04894585.0950457-.01569194.0287007-.03211562.0568323-.04894584.08472-.0158139.0262209-.03211563.0521166-.04898649.0776058-.01585455.0239037-.03219694.0474822-.04894585.0707355-.01593585.0221557-.03215628.0441487-.04894584.0657352-.01593586.0204889-.03231889.0405713-.04898649.0604911-.01597651.019066-.03227824.0378475-.04894585.0564258-.01601716.0178871-.03231889.035571-.04898649.0529296-.01605782.0167489-.03231889.0333351-.04894585.0496368-.01605781.0157326-.03235954.0313432-.04894584.0466285-.01605781.0147976-.03244085.0293106-.04898649.0437016-.01605782.0139438-.0324002.027725-.04894585.0412623-.01609846.0131715-.0324815.0261397-.04898649.0389452-.01609847.0124397-.03244085.0247168-.04894585.0368313-.01613911.0117892-.03244084.0234159-.04894584.0348392-.01613912.0111795-.03244085.0221557-.04898649.0330099-.01613912.0105697-.03244085.0209768-.04894585.0312212-.01613912.0100005-.0324815.0198385-.04898649.0295138-.01613912.009472-.0324815.0187408-.04894584.0279283-.01613912.0089842-.03248151.0177245-.04894585.0264242-.01617977.008537-.0324815.0168708-.04898649.0250826-.01617977.0080493-.0324815.0159765-.04894585.0237818-.01622042.0076427-.0324815.0152447-.04898649.0226028-.01622043.0072362-.0324815.0143911-.04894584.0213426-.01613912.0068297-.03252216.0134154-.04894585.0199605-.01617977.0064637-.0325628.0127649-.04898649.0189441-.01622043.0060979-.0324815.0120738-.04894584.0179278-.01622043.0057726-.03252216.0115046-.0489865.0169927-.01617977.0054068-.03252215.0106917-.04894584.0158546-.01617977.0050815-.03256281.0099598-.04894585.0147975-.01622042.004797-.0325628.0095127-.04898649.0140251-.01626108.0044718-.03252216.0089843-.04894584.0132121-.01622043.0041872-.03256281.0082118-.0489865.0121551-.01617977.0039027-.03252215.0076427-.04894584.0113015-.01622043.003618-.03252216.0071955-.04894585.0106103-.01626107.0033742-.03252215.006667-.04898649.0097973-.01622043.0030896-.03256281.0059759-.04894584.0088622-.01626108.0028457-.03256281.0056914-.0489865.0083338l-.04894584.0074801c-.01622043.0023578-.03256281.0045124-.04894584.006667-.01626108.0021546-.03252216.0042685-.0489865.0061792l-.04894584.0054474c-.01622043.0016668-.03256281.0031303-.04894585.0046344-.01630173.0014635-.0325628.0029677-.04898649.0042279-.01622043.0012602-.03256281.0023579-.04894584.0034148-.01626108.001057-.03260346.0019513-.0489865.0028051-.01630173.0008537-.03252215.0017074-.04894584.0023578-.01622043.0006504-.03260346.0010163-.04894584.0015041l-.0489865.0011383c-.01622042.0002846-.03256281.0003659-.04894584.0004879l-.0489865.0000406-.04894584-.0003252-.04894584-.0006911-.0489865-.0010163-.04894584-.0013009-.0489865-.0015855-.04894584-.0019919-.04894584-.0022766-.0489865-.0024798-.04894584-.002927-.0489865-.0031709-.04894584-.0034554-.04894584-.0038214-.0489865-.0041059-.04894584-.0043905-.0489865-.004675-.04894584-.0050409-.04894584-.0052849-.0489865-.0055694-.04894584-.0059353-.04894584-.0062198-.0489865-.0064231-.04894584-.0068297-.0489865-.0071142-.04894584-.0073174-.04894584-.0076427-.0489865-.0079679-.04894584-.0082118-.0489865-.0084964-.04894584-.0088623-.04894584-.0090655-.0489865-.0093501-.04894584-.0096347-.04898649-.0099599-.04894585-.0102038-.04894584-.0104477-.0489865-.0107729-.04894584-.0110575-.04898649-.0112608-.04894585-.011586-.04894584-.0118705-.0489865-.0121145-.04894584-.0123177-.04898649-.0127649-.04894585-.0129275-.04894584-.0131308-.04898649-.013456-.04894585-.0137-.04894584-.0139845-.0489865-.0141877-.04894584-.0145536-.04898649-.0147569-.04894585-.0149602-.04894584-.0152853-.04898649-.0155293-.04894585-.0157326-.04898649-.0159764-.04894585-.0163017-.04894584-.016505-.04898649-.0167895-.04894585-.0169521-.04898649-.017318-.04894585-.0174806-.04894584-.0176433-.04898649-.0180497-.04894585-.0182124-.04898649-.0184562-.04894584-.0186596-.04894585-.0189441-.04898649-.0191473-.04894585-.0193913-.04898649-.0196352-.04894584-.0198385-.04894585-.0200824-.0489865-.0202856-.04894583-.0205702-.0489865-.0207735-.04894584-.0209767-.04894585-.02118-.0489865-.0215052-.04894583-.0216272-.04894585-.0218304-.0489865-.0220744-.04894583-.0223183-.0489865-.0225215-.04894584-.0227248-.04894585-.0229687-.0489865-.0231313c-.03508327-.0167082-.07012589-.0334978-.1051685-.0504499z" fill="#006CB9"/>
    <path d="M14.4091714 12.4025105c-.0356931.0288633-.070817.0579706-.1051279.0874437V5.8369554c0-.35379945.0363028-.69914316.1051279-1.03261631.0147975-.0715892.0311806-.14252796.0489458-.21297889.0152448-.0604504.0316278-.12041296.0489865-.179969.0154887-.05305162.0318311-.10573737.0489865-.15805725.0156513-.04780744.0319124-.09537096.0489458-.14252796.0157733-.04370153.0320344-.08719979.0489865-.13033219.0158546-.04032736.0321157-.08045146.0489459-.120291.0158952-.03756298.0321969-.07488206.0489458-.11199787.0158952-.03524579.0323189-.07024766.0489865-.10504628.0159359-.03325381.0323189-.06618241.0489459-.09902969.0159765-.03154641.0323595-.0628489.0489864-.09402943.0160172-.03004226.0323596-.05988126.0489459-.08955765.0160578-.02874138.0323595-.0573608.0489865-.0857363.0160985-.02756245.0323189-.05500295.0489458-.08224018.0160578-.02630222.0324002-.05244183.0489459-.07841884.0160984-.0252859.0324815-.05028724.0489865-.07524793.0161391-.0244322.0324002-.0487018.0489458-.07280878.0162204-.0236598.0324002-.04731961.0489865-.07065419.0160578-.02260284.0325222-.0448398.0489458-.06711742.0161798-.0219524.0324816-.04378283.0489865-.06545066.0162205-.02134261.0324002-.04272587.0489459-.06378391.0160578-.02044825.0326034-.04061193.0489865-.06081626.0161798-.01996042.0324815-.03983954.0489458-.05951539.0162205-.01943193.0324815-.03878256.0489865-.05792993.0161391-.01870019.0325628-.03715646.0489459-.05561274.0162204-.01829366.0324815-.03666863.0489865-.05475903.0161391-.01768387.0325221-.03516449.0489051-.05260445.0161798-.01723669.0325222-.03435143.0489459-.05138486.0162611-.01678952.0325221-.03357904.0489865-.05016529.0161798-.01626104.0325628-.03231881.0489458-.04837658.0163018-.01597646.0324815-.03207489.0489865-.04784809.0161391-.01540733.0326035-.03044879.0489459-.04565285.016261-.01516342.0324815-.03036748.0489865-.04528698.0161797-.01463493.0326034-.02902595.0489458-.04345762.0162611-.01439101.0325222-.02874137.0489865-.04288847.0162204-.01394384.0325628-.02764376.0489458-.04138434.0162611-.01361861.0325629-.02723723.0489865-.04069323.0162205-.01325275.0325628-.02638353.0489459-.03943301.0162611-.01296817.0325628-.02585504.0489865-.03861996.0162204-.0126023.0325628-.02508264.0489458-.03752233.0162611-.01231773.0325628-.02459482.0489459-.03670929.0162204-.01203316.0326034-.02390372.0489865-.03573362.016261-.01170794.0325628-.02341589.0489458-.03496122.0162611-.01142338.0326035-.02268414.0489865-.03394491.0162611-.01117946.0325628-.02231827.0489458-.03329447.0162205-.01085424.0326035-.02154587.0489865-.0322375.0162611-.01065097.0325222-.02130195.0489459-.03174967.0162611-.01032575.0326034-.02040759.0489865-.03057074.0163017-.01012249.0325221-.02036694.0489458-.03028617.0162204-.00983793.0326441-.01935064.0489865-.0289853s.0325222-.01947259.0489459-.02890399c.0161797-.00930944.0326847-.01825301.0489865-.02739984.0163423-.00914683.0325221-.01837497.0489458-.02731854.0162204-.00886226.0326035-.0173993.0489458-.02609895.0163018-.00865901.0325628-.01735866.0489865-.02585505l.0489459-.02492003.0489865-.0243509c.016261-.00796791.0325628-.01601712.0489458-.02382242.0162611-.00776464.0326441-.01528537.0489865-.0228874.0163424-.00756138.0325222-.01536668.0489459-.02276545.0162204-.00735812.0326441-.01426906.0489864-.02142391.0163018-.00715486.0325629-.01443167.0489459-.02142391.0162611-.00691094.0326034-.01361862.0489458-.02036695l.0489865-.02000107c.0163018-.00654507.0325628-.01309013.0489459-.01947259.016261-.0063418.0326441-.01243969.0489865-.01861888.0163423-.0061792.0325221-.01256165.0489458-.01857823.0162204-.00593528.0326848-.01146403.0489865-.0172367.0163017-.00577267.0325628-.01162664.0489458-.0172367.0162611-.00561005.0326442-.01097619.0489865-.01638299l.0489459-.01589516c.0163017-.00520353.0326034-.01052902.0489865-.0156106.0162204-.00500026.0326441-.00971596.0489458-.01455362.0163018-.0048783.0326035-.00987858.0489865-.01459427.0162611-.00467505.0326035-.00902488.0489459-.01353731l.0489458-.0132934c.0163424-.00430917.0326035-.00869965.0489865-.01284622.0162611-.0041059.0326441-.0079679.0489458-.01195186.0163018-.00398395.0326035-.00813051.0489865-.01195186.0162611-.00378069.0326442-.00731746.0489459-.01093554l.0489865-.01065098c.0163424-.00345547.0325628-.0070329.0489458-.01032576.0162611-.00329286.0326441-.0062605.0489865-.00939074.0163017-.00313025.0325628-.00642311.0489459-.00939075l.0489865-.00845574.0489458-.00808986c.0163424-.00264242.0326035-.00544745.0489865-.00792726.0162611-.0024798.0326441-.00455309.0489458-.00687028.0163018-.00227655.0326035-.00467505.0489459-.00682964l.0489865-.00613854.0489458-.00561006c.0163424-.00182936.0326035-.0039433.0489865-.00561005.0162611-.00166676.0326441-.00288634.0489459-.00439048l.0489864-.00430918c.0163018-.00138218.0326035-.00272372.0489459-.00390264.0163017-.00117893.0326441-.00211394.0489458-.00313025.0163424-.00101632.0326035-.00219524.0489865-.0030896.0163018-.00089436.0326441-.00150414.0489865-.0022359l.0489459-.00187001c.0163424-.00056914.0326034-.00142284.0489865-.00182937.016261-.00040652.0326441-.00036587.0489458-.00060978.0163424-.00024392.0326441-.00052849.0489865-.0006098l.0215866-.00028456H26.838651v25.408638c0 .2209468-.0141471.4385194-.0415064.6520268-.0131714.1028104-.0297171.2045231-.0489458.3053009-.014635.0767114-.0309367.1528537-.0489865.2283049-.0152041.06354-.0314245.1266735-.0489865.1892785-.0154074.0549216-.0317497.1094367-.0489458.163586-.01557.049027-.0319531.0976475-.0489459.146024-.0157326.0447585-.032075.0892731-.0489865.1334625-.0158139.0412217-.032075.0821589-.0489458.1228927-.0158952.0383761-.032197.0765489-.0489865.1144371-.0158952.0359369-.0322376.0715892-.0489459.1070789-.0159765.0339042-.0322782.0676052-.0489865.1010623-.0159765.0320749-.0323188.0639872-.0489458.0956962-.0160578.0305707-.0323189.0609382-.0489865.0911431-.0160985.0291885-.0322782.0582551-.0489458.0870778-.0160172.0277657-.0324002.0553688-.0489459.0828093-.0160578.0266275-.0324408.0529297-.0489865.0792319-.0160984.0256112-.0324002.0511003-.0489458.0763862-.0161798.0247575-.0323596.0495555-.0489865.0739877-.0160985.0237005-.0324815.0471977-.0489459.0706136-.0160984.0228874-.0324815.0455715-.0489864.068215-.0161798.022237-.0324409.0444333-.0489459.0663857-.0161391.0214239-.0324815.0426445-.0489458.0638245-.0161392.0207329-.0325628.0412624-.0489865.0617107-.0162205.0202043-.0324002.040368-.0489459.0603284-.0161391.0194726-.0325628.0387013-.0489865.0579706-.0161797.0189441-.0324815.0376849-.0489458.0563851-.0162611.0184563-.0324815.0369532-.0489865.0552062-.0161391.0178059-.0326035.0352865-.0489458.052889-.0162611.01744-.0324815.0349613-.0489865.052198-.0161798.0168708-.0325629.033457-.0489459.050084-.0162204.0164642-.0324815.0328066-.0489458.0490676-.0162205.0160578-.0325222.0319936-.0489865.0478481-.0161798.01557-.0325628.0309366-.0489459.0463033-.0163017.0152447-.0325221.0306114-.0489865.0456529-.0161797.0147568-.0326034.0292292-.0489865.0437828-.0163017.014513-.0324408.0291479-.0489458.043417-.0161798.0140251-.0326441.0276844-.0489865.0414656-.0163017.0137812-.0324815.0276844-.0489458.0412217-.0161798.0133341-.0326442.0263022-.0489459.039433-.0163017.0130902-.0325221.0263022-.0489865.0391891-.0161797.0126836-.0326034.025042-.0489458.0375223-.0163017.0124397-.0325222.0249607-.0489865.0372378-.0161798.0120738-.0326035.0238631-.0489459.0357336-.0163017.0118299-.0325221.0238225-.0489865.0354491-.0161797.011464-.0326034.0226435-.0489458.0339449-.0163017.0113014-.0325222.0227248-.0489865.033823-.0161798.0108948-.0326035.0215052-.0489458.0322375-.0163018.0107322-.0324815.0216678-.0489459.0321968-.0162204.0104071-.0326847.0204076-.0489865.0306114-.0163017.0102038-.0325221.0205296-.0489458.0305301-.0162204.0098786-.0326441.0194319-.0489865.0291479-.0163017.0096753-.0325628.0194319-.0489459.0289446-.016261.0093908-.0326034.0186189-.0489864.0278471l-.0489459.0273591-.0489865.0265462-.0489458.0258144c-.0163018.0084964-.0325628.0170334-.0489459.0253672-.0162611.0082525-.0326034.016261-.0489865.0243509-.0163017.0080898-.0325221.0163423-.0489458.0242289-.0162204.0078053-.0326848.0152447-.0489865.0228874-.0163017.0076427-.0325628.015448-.0489458.0228874-.0162611.0073988-.0326848.014513-.0489865.0217492l-.0489459.0213832-.0489865.0207735-.0489458.0200417c-.0163424.0066264-.0326035.0133747-.0489865.0198385-.0162204.0063824-.0326441.0123584-.0489459.0185782-.0163423.0062199-.0325628.0125617-.0489865.0186189-.016261.0060166-.0326034.0117486-.0489458.0176026l-.0489865.0172773-.0489458.0167489c-.0162611.0054474-.0326442.0106103-.0489865.0158951-.0163424.0052849-.0325628.0108136-.0489459.0158952-.0162204.0050816-.0326441.0097566-.0489458.0146756l-.0489865.0145536-.0489459.0139438c-.0163017.0045531-.0326441.008903-.0489865.0132528-.0163423.0043905-.0325221.0090249-.0489458.0132527-.0162611.0041872-.0326441.0079273-.0489865.0119519-.0163017.0040246-.0326035.0080899-.0489458.0119519l-.0489865.0113014-.0489459.0106509c-.0163424.0034962-.0325628.0072769-.0489458.010651-.0162611.0033335-.0326848.0062605-.0489865.0094314l-.0489459.0093501-.0489865.0088216c-.016261.0028457-.0326034.0054475-.0489458.0081305-.0163424.0026831-.0326035.0055695-.0489865.0080899-.0162611.0025205-.0326441.0046751-.0489458.0070329l-.0489865.0068703c-.0163018.0021952-.0326035.0044311-.0489459.0064638-.016261.0020326-.0326441.00374-.0489458.00561-.0163424.00187-.0326035.0039027-.0489865.0056101-.0162611.0017074-.0326035.0031709-.0489459.0047157l-.0489864.0043904c-.0163424.0013822-.0325629.003049-.0489459.0042686-.0162611.0012195-.0326441.0020326-.0489865.0030896l-.0489865.0031302-.0489458.0026018c-.0162611.0007724-.0326441.0012196-.0489459.0018293-.0163423.0006098-.0326441.0013822-.0489865.0018701-.016261.0004471-.0326034.0006098-.0489458.000935l-.0489865.0006504c-.0152448.000122-.0304082.0005692-.0456936.0005692H14.3040435V19.5121191c.0343109.0294325.0694348.0584991.1051279.0873624.0161797.0130901.0325221.026099.0489458.0390265.0162204.0127649.0325222.0254892.0489865.0381321.0162611.0124397.0324815.0248794.0489865.0372378.0161391.0120738.0325628.023985.0489458.0359369.0161798.0117892.0325628.0235378.0489865.0352051.0162205.0115047.0324815.0230094.0489459.0344327l.0489458.0335384c.0161798.0109356.0325628.0217898.0489865.0326034l.0489459.0319529c.0162204.0104884.0325221.0209361.0489864.0313025.0161392.0101632.0325629.020245.0489459.0303268l.0489865.0297984c.0162611.0097566.0325221.0195132.0489458.0291479.0161798.0095127.0325628.0188628.0489459.0282535l.0489865.0278471.0489458.0271152.0489865.0265055c.0162611.0086997.0324815.0174806.0489458.026099.0161798.0084964.0326035.0168301.0489865.0252046l.0489459.0248794.0489865.0243509.0489458.0236598c.0163018.0078053.0325222.0156919.0489865.0234159l.0489459.0226028.0489865.0223996.0489051.0216678.0489459.0213833.0489865.0208954.0489458.0204076.0489865.0200824.0489459.0195132.0489865.0193506.0489458.0186189c.0163017.0061792.0325222.0124397.0489865.0185376l.0489458.0178465c.0163018.0059353.0325222.0119925.0489865.0178465.0161798.0057726.0326442.011342.0489459.0170334l.0489865.0170741.0489458.016383c.0163018.0054474.0324815.0110168.0489459.016383.0161797.0053255.0326441.0104477.0489865.0156919l.0489458.0156919.0489865.0150414.0489458.0150008.0489865.0144317.0489459.0143097.0489865.0139032.0489458.0136999.0489865.013334.0489459.0130495.0489865.0128462.0489458.0124397.0489458.0123178.0489865.0118705.0489459.0118706.0489865.0113014.0489458.0112201.0489865.0108949.0489459.0106916.0489864.0105291.0489459.0100818.0489458.0101225.0489865.009594.0489459.0095534.0489865.0092687.0489458.0090249.0489865.0089436.0489458.0084964.0489865.0084557.0489459.0081712.0489865.0079679.0489458.0078866.0489865.0074394.0489459.0074801.0489458.0071548.0489865.0069516.0489458.006911.0489865.0064637.0489459.0064638.0489865.0062605.0489458.0059759.0489865.0060166.0489459.0056101.0489865.0054881.0489458.0054881.0489865.0050409.0489458.0050409.0489459.0048783.0489865.0045938.0489458.0045937.0489865.0043092.0489459.0041465.0489864.0041466.0489459.0037807.0489458.0036994.0489865.00374.0489865.0032929.0489459.0032928.0489865.0032522.0489458.0028457.0489865.0028457.0489458.002805.0489865.0023985.0489459.0024392.0489458.0023985.0489865.001992.0489459.0020326.0489865.0019513.0489458.0016261.0489865.0016261.0489458.0015855.0489865.0012196.0489459.0012195.0489458.0012196.0489865.0008537.0489459.0008131.0489865.0008537.0489458.0004878.0489865.0004472.0489458.0004472.0489459.0002032.0489865.0000813.0489458.0000813.0489865-.0001219.0489459-.0002846.0489865-.0002846.0489864-.0004065.0489459-.0006504.0489865-.0006505.0489458-.0006504.0489459-.0010163.0489865-.0009757.0489458-.0010163.0489865-.0012602.0489458-.0013416.0489865-.0013822.0489459-.0014634.0489458-.0017075.0489865-.0016667.0489459-.0017074.0489865-.0020326.0489458-.0020327.0489865-.0020326.0239038-.0010163.025042-.0012196.0489865-.0023579.0489459-.0026017.0489458-.0026831.0489865-.0029676.0489459-.0030083.0489865-.0032929.0489458-.0033335.0489865-.0036181.0489458-.0036587.0489865-.0039026.0489459-.003984.0489458-.0041872.0489865-.0043092.0489865-.0044311.0489459-.0046344.0489864-.0046751.0489459-.0049189.0489865-.004919.0489458-.0052035.0489459-.0052442.0489865-.0054068.0489458-.0055288.0489865-.0056507.0489458-.0057726.0489865-.0058947.0489459-.0060165.0489865-.0061386.0489458-.0062605.0489459-.0063011.0489865-.0065451.0489458-.0065857.0489865-.0067077.0489458-.0068296.0489865-.006911.0489459-.0070735.0489865-.0071142.0489458-.0073175.0489459-.0073581.0489865-.0074394.0489458-.0076021.0489865-.0076833.0489458-.0078053.0489865-.0078459.0489459-.0079679.0489865-.0081306.0489458-.0081711.0489865-.0082932.0489459-.0083744.0489865-.0084964.0489458-.0085777.0489865-.0086996.0489458-.008781.0489865-.0088622.0489459-.0089436.0489458-.0090655.0489865-.0091875.0489459-.0092688.0489864-.0093501.0489459-.0094314.0489865-.0095534.0489458-.0096346.0489865-.009716.0489459-.0098379.0489458-.0099193.0489865-.0100411.0489458-.0101632.0489865-.0102038.0489459-.0102851.0489865-.0104884.0489458-.0104883.0489865-.010651.0489459-.0107323.0489458-.0108542.0489865-.0109356.0489458-.0110981.0489865-.0112201.0489865-.0113421.0489459-.0115047.0489865-.0116266.0489458-.0117893.0487019-.0120331v-2.1496274l-.0487019.0242289-.0489458.0241883-.0489865.0239444-.0489459.0237411-.0489865.0235785-.0489865.0232939-.0489458.0230094-.0489865.0228467-.0489458.0225622-.0489459.0223589-.0489865.0220744-.0489458.0218711-.0489865.0215458-.0489459.021302-.0489865.0210987-.0489458.0208141-.0489865.0205702-.0489458.0203263-.0489459.0200011-.0489865.0197571-.0489458.0195133-.0489865.0192693-.0489459.0189035-.0489864.0187001-.0489459.018375-.0489865.0181311-.0489458.0178465-.0489459.0176025-.0489865.017318-.0489458.0170335-.0489865.0167082-.0489458.0164643-.0489865.0162203-.0489459.0158952-.0489865.0156513-.0489458.0153666-.0489865.0150415-.0489459.0147975-.0489865.0145537-.0489458.0142284-.0489865.0139844-.0489458.0136187-.0489865.0134153-.0489459.0131308-.0489458.0128462-.0489865.0125617-.0489459.012277-.0489865.0119926-.0489458.0117892-.0489865.011464-.0489458.0111388-.0489865.0109356-.0489459.010651-.0489458.0103664-.0489865.0100412-.0489459.0098379-.0489865.009594-.0489458.0092281-.0489865.0089843-.0489458.0087403-.0489865.0084964-.0489459.0081305-.0489458.0079272-.0489865.007724-.0489459.0073581-.0489864.0071142-.0489459.006911-.0489865.0065857-.0489865.0063011-.0489458.0060979-.0489459.005854-.0489865.0055288-.0489458.0052848-.0489865.0050816-.0489458.0047157-.0489865.0045531-.0489459.0043091-.0489865.003984-.0296764.0023578-.0192694.0013009-.0489459.0032929-.0489865.0032522-.0489458.0026424-.0489865.0024798-.0489458.0022766-.0489865.0015854-.0489459.0015855-.0489865.0010569-.0489458.0007318-.0489459.0006098c-.0164236.0000813-.0326441-.000122-.0489865-.0001626l-.0489458-.0001627-.0489865-.0007317-.0489458-.001057-.0489865-.0012602c-.0164237-.0005285-.0326441-.0013415-.0489459-.001992-.0163017-.0006504-.0327254-.0011789-.0489458-.001992l-.0489865-.0027237-.0489459-.002927-.0489864-.0033741-.0489865-.0039027c-.0163018-.0013415-.0327255-.0024798-.0489459-.0039839-.0164237-.0015042-.0326441-.0032929-.0489865-.004919l-.0489458-.004919-.0489865-.0056913-.0489459-.0059353-.0489458-.0064638-.0489865-.0069516c-.0163424-.0023985-.0327254-.0047157-.0489458-.0072768-.0164237-.0025611-.0326848-.0053661-.0489865-.0080898-.0163018-.0027238-.0327661-.0052442-.0489459-.0081305-.0164643-.002927-.0326441-.0061386-.0489865-.0091875-.0163017-.003049-.032766-.0059353-.0489458-.0091469-.0164644-.0032522-.0326035-.0068296-.0489459-.0102444-.0163423-.0034148-.032766-.0067077-.0489865-.0102851-.0164236-.0036181-.0326847-.0074801-.0489458-.0112608l-.0489865-.0115047c-.0164237-.0039839-.0326848-.0082118-.0489458-.0123583-.0163831-.0041873-.0327661-.0083338-.0489865-.0126837-.0164237-.0043904-.0326848-.0089842-.0489459-.0135373-.016383-.0045937-.032766-.0091875-.0489865-.0139845-.0164237-.0048376-.0326847-.0098379-.0489458-.0148381-.0163831-.005041-.0327254-.0100819-.0489459-.0152854-.0164236-.0052849-.0327254-.0107323-.0489865-.0161798-.0163423-.005488-.032766-.0109761-.0489458-.0166269-.0164643-.005732-.0326848-.0117079-.0489865-.0176432-.0163424-.0059759-.0327661-.0118705-.0489458-.0180091-.0164644-.0062605-.0326848-.0127649-.0489865-.0192286-.0163424-.0064638-.0327661-.0128463-.0489459-.0194726-.016505-.006789-.0326847-.0139032-.0489865-.0208955-.016383-.0070329-.0328067-.0139845-.0489865-.0212206-.0164643-.0073581-.0326847-.0150008-.0489458-.0225622-.016383-.0076427-.0327661-.0152854-.0489459-.0230907-.0164236-.0079679-.032766-.0160577-.0489864-.0242289-.0164237-.0082931-.0327255-.0167082-.0489459-.0252046-.016383-.0085777-.0328474-.0170741-.0489865-.0258957-.016505-.0089842-.0326848-.018253-.0489458-.0274812-.0163831-.0093094-.0328068-.0185782-.0489865-.0281315-.0164644-.009716-.0327254-.0196352-.0489459-.0295545-.0164643-.0100818-.0327254-.0204076-.0489458-.0307333-.016383-.0104477-.032888-.0208548-.0489865-.0315464-.0165457-.0109762-.0326848-.0223183-.0489458-.0335791-.0164644-.0113827-.0328068-.022928-.0489865-.0345953-.0164237-.0118299-.0328474-.0236598-.0489459-.0357743-.0165456-.0124397-.0327661-.0251639-.0489865-.0378882-.0164643-.0129275-.0327661-.0259363-.0489458-.0391484-.0164237-.013456-.0328881-.0268307-.0489865-.040612-.0165457-.0141471-.0327661-.0285787-.0489459-.0430511-.0165456-.0147568-.0328067-.029717-.0489865-.0448398-.0164643-.0154073-.0328473-.0309366-.0489458-.0466691-.0164643-.0160985-.0329287-.0321969-.0489865-.0486612-.0165863-.0169928-.0328067-.0343514-.0489458-.0517507-.0165863-.0178465-.0328474-.0359369-.0489459-.0541899-.0165863-.0187815-.0329287-.0377663-.0489865-.0569543-.0165456-.0197571-.032888-.0397176-.0489458-.0599219-.0165863-.0208954-.0329694-.0420348-.0489865-.063418-.0165863-.022115-.0329693-.0444333-.0489459-.0670768-.0166269-.0235378-.0330099-.0473196-.0489865-.0714266-.0166676-.0251639-.0329693-.0506124-.0489458-.0763455-.0167489-.0269934-.0330506-.0543525-.0489865-.0819556-.0167896-.0290666-.0330506-.0585804-.0489458-.0883788-.0168709-.031587-.033132-.0636213-.0489865-.0959807-.0168709-.0344734-.0332133-.0694346-.0489459-.1047617-.0169115-.0380102-.0333758-.0763862-.0489865-.1154127-.0172367-.0431324-.0333352-.0871185-.0489458-.1315111-.0172774-.0492303-.0336604-.0990704-.0489459-.1498048-.0176839-.0588243-.0340669-.1186242-.0489864-.1794405-.0185377-.0756545-.0347174-.152935-.0489459-.2316384-.0210987-.116673-.0375224-.2365981-.0489865-.3597754-.0131715-.1422434-.0199198-.288796-.0199198-.4395764 0-.1508618.0067483-.2974956.0199198-.439861.0114641-.123218.0278878-.2431838.0489865-.359938.0142285-.0787034.0304082-.1561059.0489459-.231801.0149195-.0608163.0313025-.1206162.0489864-.1794812.0152855-.0507344.0316685-.1006558.0489459-.1499267.0156106-.0443926.0317091-.0883787.0489458-.1315518.0156107-.0390671.032075-.0774432.0489865-.115494.0157326-.0353677.032075-.0702883.0489459-.1047617.0158545-.0324001.0321156-.064475.0489865-.096062.0158952-.0297984.0321562-.0593122.0489458-.0884194.0159359-.0276438.0322376-.055003.0489865-.0819963.0159765-.0257737.0322782-.0512222.0489458-.0763862.0159766-.024107.0323596-.0478887.0489865-.0714672.0159766-.0226435.0323596-.0449618.0489459-.0671174.0160171-.0213833.0324002-.042482.0489865-.0634181.0160578-.0202043.0324002-.0401647.0489458-.0599219.0160578-.0192287.0324002-.0382134.0489865-.0569949.0160985-.018253.0323596-.0364247.0489459-.0542712.0161391-.0173587.0323595-.034758.0489458-.0517508.0160578-.0164643.0325222-.0326033.0489865-.0487018.0160985-.0157325.0324815-.0312618.0489458-.0466691.0161798-.0150821.0324409-.0301236.0489865-.0448805.0161798-.0144316.0324002-.028904.0489459-.0430511.0160984-.0137405.0325628-.0271559.0489865-.0406119.0161797-.0132121.0324815-.0262616.0489458-.0391891.0162204-.0127649.0324409-.0254892.0489865-.0379288.0160985-.0121145.0325222-.0239444.0489459-.0357743.0161797-.011708.0325221-.023172.0489865-.0345954.016261-.0112607.0324001-.0226028.0489458-.033579.0160985-.0107323.0326035-.0211393.0489865-.0315871.0162204-.0103664.0324815-.0206515.0489458-.0307333.0162205-.0099599.0324815-.0198385.0489459-.0295544.0161797-.0095534.0326034-.0188222.0489865-.0281316.016261-.0092282.0324408-.018497.0489458-.0274812.0161391-.0088216.0326035-.0173586.0489865-.0259363.0162204-.0084964.0325222-.0169115.0489459-.0252046.0162204-.0081712.0325628-.0162611.0489864-.024229.0161798-.0078459.0325629-.0154886.0489459-.0231313.0162611-.0075614.0324815-.0152041.0489458-.0225622.0161798-.0072361.0326035-.0141877.0489865-.0212206.0163018-.0070329.0324815-.0141065.0489865-.0208955.0161798-.006667.0326035-.0130494.0489459-.0195132.0163017-.0064638.0325221-.0129682.0489865-.0192287.0161797-.0061385.0326034-.0120331.0489458-.0180091.0163017-.0059352.0325222-.0119112.0489865-.0176838.0161798-.0056508.0326035-.0111389.0489458-.0166269.0162611-.0054475.0325629-.0108949.0489865-.0161798.0162205-.0052035.0325628-.0102444.0489459-.0152854.0162611-.0050002.0325221-.0099598.0489458-.0147975l.0489865-.0139845c.0162611-.0045531.0325222-.0091875.0489459-.0135779.0162204-.0043499.0326034-.0084964.0489865-.0126837.016261-.0041465.0325221-.0083744.0489458-.0123583l.0489865-.0115047c.0162611-.0037807.0325222-.0076427.0489458-.0112608.0162205-.0035774.0326442-.0069109.0489865-.0103257.0163424-.0034149.0324815-.0069923.0489459-.0102445.0161798-.0032115.0326441-.0060979.0489458-.0091468.0163424-.003049.0325222-.0062605.0489865-.0091875.0161798-.0028863.0326441-.0054068.0489459-.0081305.0163017-.0027237.0325628-.0055288.0489865-.0080899l.0489458-.0072768.0489865-.0069922.0489458-.0064638.0489459-.0059353.0489865-.0056913.0489458-.004919c.0163424-.0016261.0325628-.0034148.0489865-.004919.0162204-.0015041.0326441-.0026424.0489459-.0039839l.0489865-.0039027.0489864-.0033741.0489459-.002927.0489865-.0027237c.0162204-.0008131.0326441-.0013416.0489458-.001992.0163018-.0006505.0325222-.0014635.0489459-.001992l.0489865-.0012602.0489458-.001057.0489865-.0007317.0489458-.0001627c.0163424-.0000406.0325629-.0002439.0489865-.0001626l.0489459.0006098.0489458.0007318.0489865.0010569.0489459.0015855.0489865.0015854.0489458.0022766.0489865.0024798.0489458.0026424.0489865.0032522.0489459.0032929.0192694.0013009.0296764.0023578.0489865.0039027.0489459.0042278.0489865.0044718.0489458.0046751.0489865.0050002.0489458.0052442.0489865.0054475.0489459.005732.0489458.0060166.0489865.0062198.0489865.0065044.0489459.0068296.0489864.0069923.0489459.0072768.0489865.007602.0489458.007846.0489459.0080492.0489865.0084151.0489458.008659.0489865.0089029.0489458.0091468.0489865.0094721.0489459.0097159.0489865.0100006.0489458.0102851.0489459.0105697.0489865.0108542.0489458.0110575.0489865.0113827.0489458.011708.0489865.0119518.0489459.0121958.0489865.012521.0489458.0128056.0489459.0130494.0489865.0133747.0489458.0136593.0489865.0139032.0489458.0142284.0489865.014513.0489459.0147975.0489865.0150415.0489458.015326.0489865.0156512.0489459.0159359.0489865.0162203.0489458.016505.0489865.0167489.0489458.0170334.0489865.0173993.0489459.0176432.0489458.0178872.0489865.0182123.0489459.0184969.0489864.0187815.0489459.0190254.0489865.01931.0489458.0195946.0489865.0198791.0489459.0201637.0489458.0204482.0489865.0206922.0489458.0209767.0489865.0212207.0489459.0215052.0489865.0217085.0489458.0220337.0489865.0222776.0489459.0225215.0489458.0227655.0489865.02305.0489458.0232533.0489865.0234971.0489865.0237412.0489459.023985.0489865.0241883.0489458.0244322.0487019.0244728v-2.1511722l-.0487019-.0120331-.0489458-.0117893-.0489865-.0116266-.0489459-.0115047-.0489865-.0113421-.0489865-.0111794-.0489458-.0110982-.0489865-.0109762-.0489458-.0108136-.0489459-.0107729-.0489865-.0106103-.0489458-.0104884-.0489865-.0104884-.0489459-.0102851-.0489865-.0102038-.0489458-.0101225-.0489865-.0100411-.0489458-.0099193-.0489459-.0098379-.0489865-.009716-.0489458-.009594-.0489865-.009594-.0489459-.0094314-.0489864-.0093501-.0489459-.0092281-.0489865-.0091469-.0489458-.0090655-.0489459-.0089435-.0489865-.0088623-.0489458-.008781-.0489865-.008659-.0489458-.0085777-.0489865-.0084964-.0489459-.0083337-.0489865-.0082932-.0489458-.0081711-.0489865-.0080899-.0489459-.0079679-.0489865-.007846-.0489458-.0078052-.0489865-.0076427-.0489458-.0076021-.0489865-.0074394-.0489459-.0073581-.0489458-.0072768-.0489865-.0071142-.0489459-.0070329-.0489865-.006911-.0489458-.0067889-.0489865-.0067077-.0489458-.0065857-.0489865-.0065045-.0489459-.0063011-.0489458-.0062605-.0489865-.0061385-.0489459-.0060166-.0489865-.005854-.0489458-.005732-.0489865-.0056507-.0489458-.0054881-.0489865-.0054068-.0489459-.0052035-.0489458-.0051629-.0489865-.004919-.0489459-.0048783-.0489864-.0047157-.0489459-.0045937-.0489865-.0043905-.0489865-.0043092-.0489458-.0041466-.0489459-.0039839-.0489865-.003862-.0489458-.0036181-.0489865-.0036181-.0489458-.0032928-.0489865-.0032929-.0489459-.0029676-.0489865-.002927-.0489458-.0026831-.0489459-.0025611-.0489865-.0023578-.025042-.001179-.0239038-.0010163-.0489865-.0020326-.0489458-.0020326-.0489865-.0020327-.0489459-.0017074-.0489865-.0016667-.0489458-.0017074-.0489459-.0014635-.0489865-.0013822-.0489458-.0013416-.0489865-.0012602-.0489458-.0010163-.0489865-.0009757-.0489459-.0010163-.0489458-.0006504-.0489865-.0006505-.0489459-.0006504-.0489864-.0004065-.0489865-.0002439-.0489459-.0002846-.0489865-.000122-.0489458.0000813-.0489865.0000813-.0489459.0001627-.0489458.0004471-.0489865.0004879-.0489458.0004878-.0489865.0008537-.0489459.0008131-.0489865.0008537-.0489458.0012195-.0489459.0012196-.0489865.0012196-.0489458.0015854-.0489865.0016261-.0489458.0016261-.0489865.001992-.0489459.0020327-.0489865.0019919-.0489458.0023985-.0489459.0024392-.0489865.0023985-.0489458.002805-.0489865.0028457-.0489458.0028457-.0489865.0032522-.0489459.0032928-.0489865.0032929-.0489865.00374-.0489458.0036994-.0489459.0038214-.0489864.0041465-.0489459.0041059-.0489865.0043499-.0489458.0045937-.0489865.0045938-.0489459.0048783-.0489458.0050815-.0489865.005041-.0489458.0054881-.0489865.0054881-.0489459.00561-.0489865.0060166-.0489458.0059759-.0489865.0063012-.0489459.0064637-.0489865.0064638-.0489458.0069109-.0489865.0069516-.0489458.0071549-.0489459.0074801-.0489865.0074394-.0489458.0078866-.0489865.0080085-.0489459.0081712-.0489865.0084558-.0489458.0084963-.0489865.0089436-.0489458.0090655-.0489865.0092688-.0489459.0095534-.0489865.009594-.0489458.0101225-.0489459.0101225-.0489864.0104883-.0489459.0106917-.0489865.0108949-.0489458.0112607-.0489865.0113015-.0489459.0118705-.0489865.0118706-.0489458.0123177-.0489458.0124803-.0489865.0128463-.0489459.0130901-.0489865.013334-.0489458.0137-.0489865.0139031-.0489459.0143504-.0489865.0144317-.0489458.0150008-.0489865.0150821-.0489458.0156919c-.0163424.0052442-.0328068.0103664-.0489865.0156919l-.0489459.016383c-.0163017.0054474-.032766.0108136-.0489458.016383l-.0489865.0170741-.0489459.017074c-.0164643.005854-.0326847.0119112-.0489865.0178465-.0163423.0059353-.032766.0117893-.0489458.0178465l-.0489865.0185782c-.0163424.0062199-.0327661.0123178-.0489458.0186189l-.0489865.0193507-.0489459.0195132-.0489865.020123-.0489458.0204076-.0489865.0208954-.0489459.0213833-.0489051.0217085-.0489865.0223996-.0489459.0226028c-.0164643.007724-.0326847.0156106-.0489865.0234159l-.0489458.0237004-.0489865.0243509-.0489459.0248794c-.016383.0084151-.0328067.0167489-.0489865.0252453-.0164643.0086183-.0326847.0173993-.0489458.0261396l-.0489865.0265055-.0489458.0271153c-.0164644.0092281-.0327255.0185375-.0489865.0278876-.0163831.0093908-.0327661.0187409-.0489459.0282536-.0164237.0096346-.0326847.0193913-.0489458.0291479-.0164644.0098786-.0327661.0198384-.0489865.029839-.016383.0100818-.0328067.0201637-.0489459.0303268-.0164643.0103664-.032766.0208548-.0489864.0313025l-.0489459.0319936c-.0164237.0108542-.0328067.0216272-.0489865.0326034l-.0489458.033579c-.0164644.0114234-.0327254.022928-.0489459.0344327-.0164237.0116673-.0328067.0234159-.0489865.0352458-.016383.0119519-.0328067.0238631-.0489458.0359369-.016505.0123584-.0327254.0247981-.0489865.0372784-.0164643.012643-.0327661.0253672-.0489865.0381321-.0164237.0129276-.0327661.0259364-.0489458.0390265v-.0000406z" fill="#E10238"/>
  </g>
</svg>
