<svg viewBox="0 0 53 32" xmlns="http://www.w3.org/2000/svg">
  <g fill="none" fill-rule="evenodd">
    <path d="M52.0245774 16.3775477C52.0245774 25.0061029 45.0580562 32 36.4623076 32c-8.5940269 0-15.561532-6.9938971-15.561532-15.6224523 0-8.62880202 6.9675051-15.62294603 15.561532-15.62294603 8.5957486 0 15.5622698 6.99414401 15.5622698 15.62294603" fill="#C00"/>
    <path d="M24.4408526 26.2985715c-.4296891-.5231597-.8254359-1.0759462-1.1852728-1.6546561h5.5153676c.3310598-.5303195.6298991-1.0828591.8967637-1.6544092H22.359308c-.2491557-.5352573-.4705181-1.0873032-.6589222-1.6539155h8.6250177c.5194638-1.5578753.8001021-3.2243821.8001021-4.958043 0-1.1351997-.1205195-2.2422541-.3492607-3.3083246h-9.5254707c.1205195-.5636497.2725217-1.1152017.4515793-1.6544093h8.6220661c-.1891418-.5666123-.4092745-1.1184112-.6581842-1.65366853h-7.3054517c.2668647-.57155012.5664418-1.12310216.8965178-1.65465612h5.5119242c-.359591-.57722859-.7563216-1.12902752-1.1852728-1.65292789h-3.1411327c.483308-.58883241 1.0084288-1.1416189 1.5706894-1.65342167-2.7621111-2.51407986-6.4281187-4.04553792-10.44929-4.04553792-8.59525665 0-15.5627617 6.99414401-15.5627617 15.62294603C.0014579 25.0061029 6.96896294 32 15.5642196 32c4.0214173 0 7.6876708-1.5314581 10.44929-4.0445504.5629984-.5127903 1.0888571-1.0668112 1.572165-1.6568781h-3.144822" fill="#06C"/>
    <path d="M25.7916552 20.599365c-.6650711.1767732-1.3082519.2631847-1.9880804.2617033-2.1691058-.0019751-3.298792-.9937318-3.298792-2.89034 0-2.2158369 1.4381179-3.8455571 3.3902884-3.8455571 1.5967609 0 2.6160119.9137395 2.6160119 2.345454 0 .4750162-.0688683.9379348-.2378416 1.592193h-3.8573631c-.1372447.9263309.5364349 1.3329586 1.6833382 1.3329586.6869613 0 1.3080059-.1239388 1.9961971-.4016899l-.3037585 1.6052781zm-1.0372059-3.8433351c0-.1397396.2144756-1.1342122-.9019288-1.1556916-.6163714 0-1.0583584.4113186-1.23717 1.1556916h2.1390988zM27.0984314 16.3215037c0 .81844.458958 1.3840648 1.5025589 1.8050121.7976425.3278698.9230812.4229224.9230812.7159807 0 .4061339-.3522122.5922889-1.1348513.5873511-.5875942-.0041972-1.1240292-.0760421-1.7568797-.2520746l-.2801464 1.4929432c.5627524.1310986 1.3515405.1740574 2.0507998.1903521 2.0830203 0 3.044717-.6846257 3.044717-2.1644837 0-.8897912-.4011579-1.4129509-1.3904019-1.803037-.8269116-.33182-.9238192-.4031712-.9238192-.7036362 0-.3525588.3276164-.5308133.96637-.5308133.3873842 0 .9174242.0355522 1.4206548.0967809l.2821141-1.5010906c-.512577-.0713512-1.290051-.1286297-1.7404005-.1286297-2.2067374 0-2.9704377.9971883-2.9637968 2.195345M19.4474084 20.754165h-1.6181593l.0386154-.6804286c-.4933922.5367387-1.1508386.7868382-2.0426832.7868382-1.0556527 0-1.77877-.7246219-1.77877-1.7667442 0-1.5840456 1.2570926-2.4977851 3.4185736-2.4977851.2221003 0 .5047063.0167885.7949371.0496249.0600138-.2120785.076247-.3034277.076247-.4184784 0-.4335387-.3401602-.5932765-1.2497138-.5932765-.8967638.0034565-1.501821.1370239-2.0633437.2883674l.2764571-1.4531939c.9710431-.2478775 1.6065992-.3439176 2.3260271-.3439176 1.6737458 0 2.5577197.659196 2.5577197 1.897102.0140196.3305855-.100351.9937318-.1581511 1.2840743-.0654249.4219349-.5293022 2.8700951-.5777559 3.4478175zm-1.4204089-2.8900932c-.2048832-.020245-.294166-.0264172-.4346082-.0264172-1.1036146 0-1.6631696.3298449-1.6631696.9808936 0 .4088497.2730136.6643807.6987673.6643807.7929694 0 1.3655602-.6658621 1.3990105-1.6188571zM34.8571841 20.6514588c-.5307779.1459119-.9447256.2096095-1.3921237.2096095-.9912117 0-1.5325658-.5085932-1.5325658-1.4141853-.0312367-.248865.2110322-1.3983844.2661268-1.7186006.0546028-.3212038.913243-5.0037177.913243-5.0037177h1.925853l-.2912145 1.5494811h.9877683l-.2683405 1.580836h-.9921955s-.5443056 2.744675-.5443056 2.9545315c0 .3325606.2007019.4772381.6618736.4772381.2203786 0 .3908277-.0207387.5224153-.0602411l-.2565344 1.4250485M43.4625251 14.1251712c-1.4115544 0-2.5144311.5838946-3.1551524 1.5576283l.5561116-1.4447997c-1.024662-.3774946-1.6853058.161466-2.2822465.9273185 0 0-.100105.1271483-.199964.2434335v-1.1354467h-1.808285c-.2449744 2.0040053-.6781069 4.036403-1.0167914 6.0448523l-.0819041.4367483h1.9452837c.1847147-1.0191615.3362249-1.8462427.4872433-2.5059325.4132099-1.809703 1.1087798-2.3627364 2.1528725-2.1178216-.2410391.5197032-.3731187 1.1221146-.3731187 1.7884704 0 1.6178696.8746275 2.9414463 3.0476686 2.9414463 2.1924718 0 3.7801322-1.1756897 3.7801322-3.8566671 0-1.616882-1.0581123-2.87923-3.0518498-2.87923zm-.5661959 5.1634554c-.6869614.0106162-1.1036146-.5680937-1.1036146-1.4341835 0-1.0260744.6077628-2.1857163 1.5844629-2.1857163.7880503 0 1.0578664.6273473 1.0578664 1.2956782 0 1.4596131-.5959568 2.3242216-1.5387147 2.3242216zM13.1400552 20.7549057h-1.937413l1.1513305-6.0892925-2.65069199 6.0892925H7.93730054l-.32269721-6.0534935-1.1550199 6.0534935H4.70196584l1.49690185-7.9207218h3.02749999l.2521072 4.4156258 1.91798232-4.4156258h3.2705068l-1.5269088 7.9207218" fill="#006"/>
    <path d="M26.2776687 20.1112637c-.6645792.1770201-1.3080059.2634315-1.9875885.2619502-2.1691058-.0019751-3.298792-.9939788-3.298792-2.8903401 0-2.2158368 1.4378719-3.8455571 3.3897965-3.8455571 1.5970069 0 2.6165038.9137395 2.6165038 2.3452072 0 .4750162-.0691143.9369472-.2378416 1.5924398h-3.8571172c-.1374906.9253434.5356971 1.3327117 1.6826004 1.3327117.6869613 0 1.3084978-.1239387 1.996443-.4021836l-.3040044 1.6057719zm-1.0372059-3.8430882c0-.1399866.2144756-1.1342122-.9014369-1.1559385-.6163714 0-1.0583584.4113186-1.2376619 1.1559385h2.1390988zM27.5849368 15.8331555c0 .8186869.4587121 1.3838179 1.5020669 1.805259.7981345.3281166.9233273.4229224.9233273.71524 0 .4068746-.3524582.5930295-1.1343594.5883386-.5883321-.004444-1.1247671-.0762889-1.7571257-.2523214l-.2806384 1.4924494c.5629985.1315923 1.3522784.1745512 2.0507999.1910928 2.0830203 0 3.0452089-.6848726 3.0452089-2.1652244 0-.8892975-.4014038-1.412951-1.3906479-1.8025432-.8269116-.3315732-.9240651-.4039119-.9240651-.7033893 0-.3525588.3281083-.531554.9666159-.531554.3873842 0 .9171783.0362928 1.4206548.0975215l.2821141-1.5010906c-.512577-.0723387-1.290051-.1288765-1.7399086-.1288765-2.2072292 0-2.9709296.9966945-2.9640427 2.1950981M19.9339138 20.2660637h-1.6186512l.0391073-.6804286c-.4936382.5362449-1.1505926.7860974-2.0426832.7860974-1.0554068 0-1.7792619-.7243749-1.7792619-1.7664972 0-1.5835518 1.2573385-2.4972913 3.4188196-2.4972913.2221003 0 .5044603.0170354.795183.0486373.0600138-.2115847.0760011-.3021933.0760011-.4174909 0-.4345262-.3399143-.5935233-1.2492219-.5935233-.8970098.0037034-1.502067.1372708-2.0633437.2888612l.2757192-1.4534408c.9712891-.2478775 1.6065992-.3436708 2.326519-.3436708 1.6737458 0 2.5574738.6584554 2.5574738 1.8968551.0145115.3308325-.100597.9927443-.1576593 1.2840744-.0661627.4219348-.529794 2.8700951-.5780018 3.4478175zm-1.4206548-2.8898463c-.2046373-.0212326-.2941661-.0266641-.4348542-.0266641-1.1031227 0-1.6629237.3293511-1.6629237.979906 0 .4095903.2735056.6656152.6985214.6656152.7934613 0 1.3660521-.6666028 1.3992565-1.6188571zM35.3434435 20.1633575c-.5310238.1461588-.9447256.2098564-1.3923696.2098564-.9912117 0-1.5320739-.5088401-1.5320739-1.4144323-.0314826-.248865.2107862-1.3983844.2656349-1.7186006.0550947-.3212037.9137349-5.0037176.9137349-5.0037176h1.9256071l-.2909686 1.5489873h.9877683l-.2685864 1.5813298h-.9919496s-.5447975 2.744675-.5447975 2.9535439c0 .3337951.2009479.477485.6621196.477485.2203785 0 .3905816-.0197512.5229072-.0597473l-.2570264 1.4252954M44.9217953 16.4753161c0 1.4608476-.5966947 2.325456-1.5394526 2.325456-.6869614.0098756-1.1033687-.5680937-1.1033687-1.4341834 0-1.0260745.6077628-2.1859632 1.584217-2.1859632.7882962 0 1.0586043.6273472 1.0586043 1.2946906zm2.0788391.0409838c0-1.6166351-1.0583584-2.8789832-3.0516039-2.8789832-2.2930687 0-3.7761969 1.5341739-3.7761969 3.7944509 0 1.6176226.8746275 2.9414463 3.0479145 2.9414463 2.1924718 0 3.7798863-1.1756897 3.7798863-3.856914zM37.0590022 13.78471c-.2447284 2.0044991-.6781068 4.0366499-1.0165454 6.0448523l-.0816581.4374889h1.9450378c.700981-3.8788872.936363-4.9837195 2.4054716-4.5948679l.706638-1.8351327c-1.024908-.3774946-1.684322.1617129-2.2812627.9280592.0538649-.3449052.1551997-.6779597.1308498-.9803998h-1.808531M13.6263147 20.2670512h-1.9369212l1.1510846-6.0892925-2.6509379 6.0892925H8.42355998l-.32294317-6.0537403-1.1550199 6.0537403H5.18822528l1.4966559-7.9209687h3.02774595l.15987285 4.9037272 2.13122812-4.9037272h3.1494953l-1.5269087 7.9209687" fill="#FFF"/>
  </g>
</svg>
