<svg viewBox="0 0 53 32" xmlns="http://www.w3.org/2000/svg">
  <g fill="none" fill-rule="evenodd">
    <path d="M31.3028967 16.3883217C31.3028967 25.0109262 24.3135762 32 15.6912184 32 7.06861395 32 .0788 25.0109262.0788 16.3883217.0788 7.76596395 7.06861395.77615 15.6912184.77615c8.6223578 0 15.6116783 6.98981395 15.6116783 15.6121717" fill="#C00"/>
    <path d="M36.6512849.77615c-4.0348528 0-7.7099885 1.53040189-10.4811434 4.04102088-.5637544.51169652-1.0900074 1.0643485-1.5757983 1.65277483h3.1543105c.4307725.52452594.8277443 1.07594433 1.1901755 1.65351499h-5.5349083c-.3310977.53069393-.6320957 1.08211231-.8995398 1.65351499h7.3334944c.2506672.53513491.4712345 1.08630651.6612087 1.65277481h-8.6559117c-.1801053.5383423-.3320846 1.0900074-.4534707 1.6525281h9.5623596c.2289558 1.0658288.3508353 2.1716262.3508353 3.3060431 0 1.7332054-.282494 3.4015236-.8038125 4.9595581h-8.6559117c.1899741.5659748.4105415 1.1178867.6607152 1.6537617h7.3339878c-.2679375.5699224-.5674551 1.1218342-.9005266 1.6532683h-5.533428c.3609508.5758436.7586629 1.1280021 1.1904223 1.6517879h3.1533236c-.4848041.5889198-1.0115505 1.1415718-1.5770319 1.6532683C28.9415431 30.470585 32.6164321 32 36.6512849 32c8.6221111 0 15.6116783-6.9890738 15.6116783-15.6116783C52.2629632 7.76670411 45.273396.77615 36.6512849.77615" fill="#F90"/>
    <path d="M12.0454424 18.0975953c-.1778848-.020231-.2563417-.0266457-.3784679-.0266457-.9607263 0-1.4465172.3296175-1.4465172.9807106 0 .4009194.2370975.6557808.607177.6557808.6905683 0 1.1882018-.6572611 1.2178081-1.6098457zm1.232858 2.8695961h-1.4048216l.0323203-.6673766c-.4283053.5269931-.9999547.7786472-1.7763814.7786472-.91829045 0-1.54816567-.7169673-1.54816567-1.7588643 0-1.5683967 1.09518845-2.4829864 2.97543877-2.4829864.192688 0 .4389142.0177638.6910617.0495906.0523046-.2126723.0661209-.3029717.0661209-.4176963 0-.4263315-.2950767-.5862059-1.0868-.5862059-.8292247-.0083884-1.51313153.1981159-1.7941452.2903891.01776382-.1070764.23512382-1.448491.23512382-1.448491.84427458-.2482 1.40136748-.3409665 2.02828208-.3409665 1.4556459 0 2.2266447.6533135 2.2249177 1.888392.0029606.3313445-.0520579.7386786-.1371761 1.276034-.1470449.9326002-.4628461 2.9327563-.5057753 3.4195341zM7.87193308 20.9671914H6.17672247l.97158192-6.0870668-2.16841886 6.0870668H3.82499092l-.14285067-6.0530195-1.0204324 6.0530195H1.0753006l1.32513116-7.9189601h2.43734326l.14729162 4.432565 1.48697924-4.432565H9.1827545l-1.31082142 7.9189601M38.7454412 18.0975953c-.1778849-.020231-.2553548-.0266457-.3772343-.0266457-.9614664 0-1.446764.3296175-1.446764.9807106 0 .4009194.2361107.6557808.6071771.6557808.6900748 0 1.187955-.6572611 1.2168212-1.6098457zm1.2335982 2.8695961h-1.4043282l.0318268-.6673766c-.4283052.5269931-.9997079.7786472-1.7756412.7786472-.919524 0-1.5486591-.7169673-1.5486591-1.7588643 0-1.5683967 1.0956819-2.4829864 2.9754388-2.4829864.1924413 0 .4381741.0177638.6905682.0495906.0525513-.2126723.0661209-.3029717.0661209-.4176963 0-.4263315-.2950767-.5862059-1.0868-.5862059-.8292247-.0083884-1.5128848.1981159-1.7948853.2903891.0187507-.1070764.2366041-1.448491.2366041-1.448491.8437812-.2482 1.4013675-.3409665 2.0272952-.3409665 1.4566328 0 2.2266447.6533135 2.2251644 1.888392.0029607.3313445-.0515644.7386786-.1371761 1.276034-.1465515.9326002-.4630928 2.9327563-.5055285 3.4195341zM20.8106508 20.8692437c-.4640796.146058-.8255238.2092183-1.2178081.2092183-.8662326 0-1.3391941-.4978803-1.3391941-1.4149371-.0120893-.2847145.1245934-1.0335086.2321631-1.7164285.0981944-.6017492.7352245-4.3948169.7352245-4.3948169h1.684355l-.1966356.9747893h1.0177185l-.229696 1.547919h-1.0211725c-.1956487 1.2244695-.4746886 2.7501837-.4778959 2.9524938 0 .3320847.1771446.4771558.5805313.4771558.1931814 0 .3426935-.0197376.4569247-.060693l-.2245149 1.4252993M25.9759731 20.8171859c-.5788043.1768979-1.1366374.2632498-1.7285178.2612761-1.8861716-.0024672-2.8693493-.9868786-2.8693493-2.8730502 0-2.2012326 1.2506218-3.8221805 2.9487931-3.8221805 1.3887848 0 2.2762353.9074348 2.2762353 2.3300202 0 .4729615-.060693.9338338-.2079846 1.5841867h-3.3548936c-.1132443.9343273.4843106 1.3234042 1.4650212 1.3234042.6022426 0 1.1465061-.1243467 1.7512159-.404867l-.2805202 1.6012105zm-.94691-3.8177396c.0096221-.1344622.1783783-1.1497135-.7845684-1.1497135-.535875 0-.9200175.4090611-1.0756976 1.1497135h1.860266zM14.2947853 16.5632459c0 .8139281.3947514 1.3757087 1.2903437 1.797846.6861273.322956.7929569.4184365.7929569.7107993 0 .4009194-.3029717.5829985-.973309.5829985-.5060219 0-.9762695-.0794437-1.518806-.2548614 0 0-.2222944 1.4201182-.2329034 1.4879661.3851294.0833912.7285631.1611079 1.7637987.1904676 1.7882239 0 2.6142412-.6809462 2.6142412-2.1526288 0-.8847367-.3454074-1.4040815-1.1946164-1.7948854-.7103058-.3259166-.7924635-.3989456-.7924635-.6994501 0-.3481214.2820006-.5260063.8294714-.5260063.3328248 0 .7870357.0355276 1.2180549.0964674l.241045-1.4936407c-.4386675-.0698216-1.104317-.1250868-1.4916669-.1250868-1.8957936 0-2.5523146.9900858-2.5461466 2.1800146M34.2191228 14.5532211c.4707411 0 .9103954.1223729 1.5146118.4275651l.2775596-1.718649c-.2491868-.0977009-1.122821-.6703372-1.8629799-.6703372-1.1339235 0-2.0936629.5635076-2.7674542 1.4914202-.9839179-.3256699-1.3887848.332578-1.8841978.9888523l-.4403946.1026353c.0333072-.2158796.0636537-.430279.0540316-.647639H27.553005c-.2121789 1.9937414-.5889198 4.0124014-.8837497 6.0068829l-.0772233.4332397h1.6957041c.2829874-1.8390481.4376806-3.0161475.5319275-3.8135454l.6385104-.3537959c.095974-.355523.3937646-.4749353.9927998-.4603789-.0782101.4199168-.1206459.8622852-.1206459 1.3199501 0 2.1072324 1.1383644 3.4190407 2.962116 3.4190407.4700009 0 .8736342-.0616799 1.498575-.2319165l.2970504-1.8045074c-.5620273.2760793-1.0221594.4061005-1.4393623.4061005-.9853982 0-1.5817196-.7275762-1.5817196-1.9293475 0-1.7440611.886217-2.96557 2.1521354-2.96557M48.5688301 13.0482313l-.3767408 2.2878312c-.4625993-.6096442-.9604796-1.0512724-1.6177407-1.0512724-.8551302 0-1.6335307.6483792-2.1432534 1.6031842-.7098124-.1472916-1.4433099-.397712-1.4433099-.397712l-.0004934.0061679c.0564988-.5336545.0804306-.8583376.074756-.9693614h-1.5570476c-.2114387 1.9937414-.588673 4.0124014-.8832563 6.0068829l-.0779634.4332397h1.6961975c.2289558-1.4862391.40388-2.721811.5329144-3.7003011.5797911-.5240325.8699334-.9797236 1.4544122-.9501173-.2593023.6271613-.4105414 1.349063-.4105414 2.0897153 0 1.6093522.8136813 2.6719737 2.0462926 2.6719737.6212401 0 1.0979024-.2143994 1.5627222-.7107993l-.0799372.5990353h1.6036776l1.2910839-7.9184667h-1.6717723zm-2.1195683 6.4312407c-.5768305 0-.8689466-.4278118-.8689466-1.2696192 0-1.2659185.5459906-2.1632378 1.3145222-2.1632378.5825051 0 .8983062.4431085.8983062 1.2612308 0 1.2767741-.5551192 2.1716262-1.3438818 2.1716262z" fill="#006"/>
    <path fill="#FFF" d="M8.35945108 20.4971905H6.66473391l.9713352-6.0870668-2.16792542 6.0870668H4.31275564l-.14260395-6.0517859-1.02067913 6.0517859H1.56306532l1.32513115-7.9182199h2.43734327l.06809462 4.9018257 1.64463308-4.9018257h2.63225177l-1.31106813 7.9182199M12.5332071 17.6285813c-.1776381-.0207244-.256095-.026399-.3782212-.026399-.9607262 0-1.4467639.329124-1.4467639.9797237 0 .400426.2373443.6567677.6076705.6567677.6903215 0 1.187955-.6572612 1.2173146-1.6100924zm1.2326113 2.8686092H12.361737l.0320735-.6668832c-.4283053.5267465-.9999546.7786472-1.7763813.7786472-.91853723 0-1.54816574-.7179541-1.54816574-1.7596044 0-1.5686435 1.09543514-2.4819996 2.97568554-2.4819996.1921946 0 .4384208.0175171.6908149.0500841.0523046-.2131657.0661209-.3037118.0661209-.4189299 0-.4260848-.2950767-.5847255-1.0868-.5847255-.8294714-.0098688-1.5131315.1966355-1.79439188.2886619.01801053-.1065828.23512378-1.4479975.23512378-1.4479975.8445213-.2477065 1.4016143-.3412132 2.0285289-.3412132 1.4553991 0 2.2261512.6540537 2.2249176 1.8886387.0027139.3308511-.0518111.740159-.1371761 1.276034-.1472916.9318601-.4630927 2.9332497-.5062687 3.4192874zM36.4988122 12.7921363l-.2775596 1.7184023c-.6052032-.3042053-1.043624-.4273184-1.5138716-.4273184-1.2654251 0-2.1531223 1.2229892-2.1531223 2.967297 0 1.2017714.5965681 1.9278672 1.5819663 1.9278672.4174496 0 .8785686-.1290343 1.4393623-.4061005l-.2977906 1.8045074c-.6239539.1699898-1.027834.2321632-1.4975881.2321632-1.8249852 0-2.9616225-1.312055-2.9616225-3.418794 0-2.8308611 1.5713573-4.8093058 3.8174929-4.8093058.7401589 0 1.6142865.3135807 1.8627332.4112816M39.2329592 17.6285813c-.1766513-.0207244-.2553548-.026399-.3772343-.026399-.9602328 0-1.4465172.329124-1.4465172.9797237 0 .400426.2370975.6567677.607177.6567677.6900748 0 1.1882017-.6572612 1.2165745-1.6100924zm1.2335982 2.8686092h-1.4040815l.0318269-.6668832c-.4283053.5267465-.9999547.7786472-1.7756412.7786472-.9195241 0-1.5484125-.7179541-1.5484125-1.7596044 0-1.5686435 1.0944483-2.4819996 2.9751921-2.4819996.1921946 0 .4379274.0175171.6900748.0500841.0525513-.2131657.0663676-.3037118.0663676-.4189299 0-.4260848-.2943365-.5847255-1.0865533-.5847255-.8287312-.0098688-1.5121446.1966355-1.7938984.2886619.0177638-.1065828.2351238-1.4479975.2351238-1.4479975.8445213-.2477065 1.4011208-.3412132 2.0280354-.3412132 1.4553991 0 2.2268914.6540537 2.2249176 1.8886387.0034541.3308511-.0515644.740159-.1369294 1.276034-.1467981.9318601-.4625993 2.9332497-.5060219 3.4192874zM21.2981688 20.3994895c-.4635861.1460581-.8255239.209465-1.2173146.209465-.8664794 0-1.3396876-.4981269-1.3396876-1.4141969-.0118426-.2857014.1250868-1.0332619.2329033-1.716922.0974542-.6022426.7347311-4.3948168.7347311-4.3948168h1.6848483l-.1971289.9745425h.864999l-.2304361 1.5474256h-.867713c-.1956487 1.2257031-.4746886 2.7504305-.4781427 2.9527406 0 .3330715.1778849.4771557.5807781.4771557.1931814 0 .3424468-.0189974.4571714-.0609397l-.2250083 1.425546M26.464478 20.3484186c-.579051.1773914-1.1381177.2610293-1.7292579.2605359-1.8864184-.0012336-2.8688559-.9868785-2.8688559-2.8728034 0-2.2019728 1.2503751-3.8229207 2.9473127-3.8229207 1.3902651 0 2.2772222.9074348 2.2772222 2.3317472 0 .4719747-.0616799.9326002-.2072445 1.5831999h-3.355387c-.1137377.9343273.4845574 1.3241443 1.464281 1.3241443.6027361 0 1.1467529-.1248402 1.7522029-.4061005l-.2802735 1.6021973zm-.9471567-3.8189733c.0091286-.1347089.178625-1.1494667-.784075-1.1494667-.5363685 0-.9205109.4098013-1.0766845 1.1494667h1.8607595zM14.7823033 16.093245c0 .8154084.3952449 1.3759554 1.2910839 1.7985862.6861273.3227092.7924634.4181897.7924634.7107992 0 .4014129-.302725.5825051-.9735557.5825051-.5055285 0-.9760228-.0784569-1.518806-.2533811 0 0-.2220477 1.4191314-.2324099 1.4859924.3848826.0843781.7285631.1613546 1.7633052.1912077 1.7887174 0 2.6147347-.6806995 2.6147347-2.1523821 0-.88523-.3459009-1.4043281-1.1948632-1.7941452-.7105525-.3269035-.7922167-.3991923-.7922167-.7001903 0-.3481214.2817538-.5272398.8297181-.5272398.3320846 0 .7867889.0370079 1.2175614.0977009l.2412918-1.4933939c-.4389143-.0693282-1.1040704-.1260737-1.4916669-.1260737-1.8962871 0-2.5523146.9903326-2.5466401 2.1800146M49.4372833 20.4971905h-1.6031842l.0794437-.599282c-.4650665.4966466-.9414821.711046-1.5627222.711046-1.2316244 0-2.0465393-1.0613879-2.0465393-2.6724671 0-2.1420198 1.2634512-3.9475141 2.757832-3.9475141.6572611 0 1.1548947.2684309 1.6184808.8783219l.3760008-2.2883246h1.6715255l-1.2908371 7.9182199zm-2.5005035-1.4879661c.7897495 0 1.3438818-.8943587 1.3438818-2.1698992 0-.818369-.3155544-1.2629578-.8980595-1.2629578-.7687783 0-1.3145222.897566-1.3145222 2.1639779 0 .8427943.2923628 1.2688791.8686999 1.2688791zM41.9932585 14.0575613c-.2119322 1.993248-.5889198 4.011908-.8837498 6.0066362l-.0772232.432993h1.6952106c.6064369-3.9381388.7522482-4.7066705 1.7035991-4.6106965.1512391-.8060331.4332396-1.5118979.6431981-1.8676676-.7098124-.1480318-1.1062909.2531343-1.6258824 1.015498.0414489-.3298642.1162049-.6498595.1021419-.9767631h-1.5572943M28.0415099 14.0575613c-.2129191 1.993248-.5904001 4.011908-.8847366 6.0066362l-.0769766.432993h1.6957041c.6066836-3.9381388.7520014-4.7066705 1.701872-4.6106965.152226-.8060331.43472-1.5118979.644185-1.8676676-.7090722-.1480318-1.1062908.2531343-1.6248955 1.015498.0409554-.3298642.1162049-.6498595.1014018-.9767631h-1.5565542"/>
  </g>
</svg>
