<svg viewBox="0 0 50 32" xmlns="http://www.w3.org/2000/svg">
  <g fill="none" fill-rule="evenodd">
    <path d="M46.99059.08041937L34.8332929.07726097h-.0031332c-.009397 0-.0185876.0016859-.0277756.0016859-1.6701344.05157793-3.7502349 1.40189406-4.1290803 3.06694601L24.9240057 28.7900416c-.3788455 1.6805997.6518051 3.0481162 2.3098276 3.0732807H40.005554c1.6327503-.0814144 3.2193469-1.4162006 3.5917196-3.062333l5.7495096-25.64435941C49.7316834 1.45894518 48.676179.08041937 46.99059.08041937" fill="#01798A"/>
    <path d="M24.9240057 28.7900416l5.7493006-25.64414872c.3788456-1.66505212 2.4589434-3.01536825 4.1290778-3.06694602l-4.8337213-.0031584-8.7088466-.0016859c-1.6747922.03452666-3.7819976 1.39431799-4.1606978 3.07179032l-5.750992 25.64414872c-.3802438 1.6805997.6519108 3.0481162 2.308888 3.0732807h13.5768187c-1.6580225-.0251645-2.6886731-1.392681-2.3098275-3.0732807" fill="#024381"/>
    <path d="M11.3481265 28.7900416l5.7509908-25.64414602c.3786988-1.67747503 2.4859055-3.03726366 4.1606978-3.07179032L10.103221.07115756c-1.68414852 0-3.84342052 1.3753701-4.22830102 3.07473802L.12392023 28.7900416c-.03499778.1565044-.05441404.3098735-.06599826.4599584v.4757479c.11258043 1.2250745 1.04071861 2.1171798 2.3748741 2.1375745H13.6570146c-1.6569772-.0251644-2.6891319-1.3926809-2.3088881-3.0732806" fill="#DD0228"/>
    <path d="M21.4949751 18.7601049h.2111422c.194018 0 .3245463-.0656212.3857364-.1955579l.5486367-.8277047h1.4692255l-.3063742.5444001h1.7616088l-.2234633.8341257h-2.0961819c-.2414237.3661261-.5386101.538253-.895944.5178531h-1.0918434l.2374569-.8731163h3e-7zm-.2412162 1.1954949h3.8594591l-.2460203.9060842h-1.5521364l-.2368298.8745902h1.5103673l-.2460203.9059981h-1.5103674l-.3508609 1.2923598c-.0868803.2160207.0273599.3131579.3408369.2911158h1.2309325l-.2280598.8419356h-2.3632906c-.4479745 0-.6016423-.2583161-.4611305-.7761462l.4485978-1.649265h-.965449l.2452478-.9059981h.9655943l.2366233-.8745902h-.922887l.2453931-.9060842h-1e-7zm6.1600988-2.2249268l-.0607747.5304212s.7280341-.5509894 1.3892387-.5509894h2.4432799l-.9343733 3.4095573c-.0774832.3897899-.4097541.5836221-.9966113.5836221H26.48533l-.6486719 2.3941664c-.0373841.1282946.0154544.1940841.1551705.1940841h.5448765l-.2002819.7431589h-1.3852694c-.5317191 0-.752888-.1611792-.6651715-.4849481l1.8330322-6.8190725H27.4138577zm2.0690283.9638107h-2.1807625l-.2608475.9200003s.3631821-.2643156.9700875-.2737691c.6052331-.0095573 1.296092 0 1.296092 0l.1754305-.6462312zm-.7900606 2.1342105c.1612278.0220421.2514479-.0422735.2623082-.1940635l.1334525-.4849674h-2.1841024l-.1831576.6790309h1.9714993zm-1.473195 1.1015793H28.47855l-.0233905.5491571h.3351951c.1693731 0 .2533294-.054672.2533294-.1625668l.0992015-.3552631h1.046314l-.1397163.5178299c-.1182071.4319156-.4314749.6572419-.9406397.679284h-.6706016l-.0031332.9387362c-.0123212.1503367.122592.2269686.4003571.2269686h.630296l-.2034175.7432643H27.750516c-.4237478.0203151-.6315478-.183221-.6271629-.6149696l.0962773-2.5224404v-2e-7zM11.9643868 13.1881683c-.1707523.8434106-.5665755 1.4912006-1.1805605 1.9512207-.6084077.4522319-1.39314375.6790322-2.3538942.6790322-.90415356 0-1.56700704-.2315789-1.99000263-.6962954-.29336486-.3301886-.43930539-.7495156-.43930539-1.2565044 0-.2096217.02489401-.4349481.07457829-.677453l1.02365512-4.97574853h1.54603898L7.63517182 13.1318309c-.03107633.1361688-.04348157.2629061-.04185258.3771368-.00162899.2519788.06043947.458464.18616462.6195583.18315708.2394737.48042752.3583161.89410778.3583161.47570795 0 .86768919-.1172633 1.17191434-.353621.30428762-.234695.50294102-.5679162.59218022-1.0013904l1.0129-4.91941099h1.5382066l-1.024406 4.97574859M18.4572587 11.230673h1.2108217l-.9484496 4.4407163h-1.2084405l.9460684-4.4407163m.3811425-1.61783191h1.221598l-.2281836 1.07789561h-1.2215151l.2281007-1.07789561M20.7398742 15.3333895c-.3166929-.3050949-.4765849-.7166106-.4781299-1.2392206 0-.0892424.005388-.1908845.0171255-.3020636.0116736-.1126736.0264396-.2222104.0473241-.3238525.1435811-.7213058.4494137-1.2940005.9204639-1.716527.4703198-.4240209 1.0377532-.6368421 1.7020885-.6368421.5440427 0 .9755151.1533691 1.2914981.4600431.3157738.3082944.4740801.7244206.4740801 1.2534527 0 .0906095-.0068936.1954731-.0185876.3081259-.0139934.1142309-.0309087.2237678-.0505413.3317472-.1403434.7103581-.4452569 1.2768207-.916413 1.6915374-.4711534.4177682-1.0369169.625726-1.6966583.625726-.5463372 0-.9763513-.1501477-1.2922501-.4521267m2.3074463-.8793688c.2134418-.2331363.3663154-.5868421.4594595-1.0577264.0139935-.073516.0263147-.1502313.0340419-.2268837.0077271-.0751581.0108603-.1455579.0108603-.2097053 0-.2738525-.0691264-.4865903-.208009-.6368421-.1380463-.1518105-.3343613-.2268207-.5881088-.2268207-.335404 0-.6085752.1187577-.8226416.3566726-.2159452.2379163-.3688188.5977693-.4650986 1.076569-.0131574.0735159-.0240152.1471153-.0340419.2190738-.0077271.073516-.0100243.1423584-.0085608.2049265 0 .2722953.0691264.4820003.208009.6305895.1380463.1486946.3335251.2222103.5906149.2222103.3368675 0 .610036-.117348.8234751-.3520636" fill="#FFF"/>
    <path d="M34.8301597.08453416l-4.8614994-.008743 4.8337238.018738c.009188 0 .0183786-.009994.0277756-.009994" fill="#E02F41"/>
    <path d="M29.9686603.09865356l-8.6420144-.027496c-.0217194 0-.0442751.008743-.0668308.017502l8.7088452.009995" fill="#2E4F7D"/>
    <path d="M32.5702465 18.7977051l.2919653-1.0357898h1.4761191l-.0636988.3801051s.7543487-.3801051 1.2975555-.3801051h1.8253076l-.2900863 1.0357898h-.2871622l-1.3769176 4.8851151h.2871621l-.2731687.9701481h-.2871621l-.1194588.420883h-1.429547l.1192523-.420883h-2.8202465l.2748409-.9701481h.2825683l1.3781693-4.8851151h-.2854924zm1.5926539 0l-.3757123 1.3221049s.6428262-.2486738 1.1968905-.3190738c.1223855-.4616841.2823591-1.0030313.2823591-1.0030313h-1.1035374l1e-7 2e-7zm-.5496794 1.9418521l-.3769666 1.3847798s.7123707-.353621 1.201278-.3833906c.1411795-.5351987.2825682-1.001389.2825682-1.001389H33.613221v-2e-7zm.2763019 2.943263l.2825656-1.0045256h-1.101865l-.2840315 1.0045256h1.1033309zm3.5702078-5.9850316h1.3877754l.0588959.5161903c-.0091905.1314107.0682927.1941676.2328629.1941676h.2451841l-.2481083.8745902h-1.0199993c-.3894968.0203151-.5897812-.1297684-.6083663-.4537893l-.0482444-1.1311588zm-.4066209 1.876064h4.4951841l-.2637717.9388839h-1.4312169l-.2453931.8729467h1.429756l-.2654439.9373484h-1.5924448l-.3602579.5493472h.7794118l.1800244 1.0999151c.021509.1095368.117789.1627365.282359.1627365h.242051l-.2543747.9058311h-.8568899c-.444005.0220421-.6735258-.1281893-.6923223-.4520404l-.2065483-1.0045282-.7092375 1.0686755c-.1677033.3019583-.4254202.4428428-.7729362.4208831h-1.3086248l.2545811-.9060831h.4082934c.1677034 0 .3072105-.0750951.4329358-.226822l1.1100128-1.6179148h-1.4312169l.2652349-.9373484h1.5523456l.2468539-.8729467h-1.5538063l.2654414-.9388839zM13.3885228 11.2291156h1.0919467l-.1248891.6415155.1567181-.1830528c.3539713-.3817472.7839-.5711362 1.2914981-.5711362.4594595 0 .7908343.1346319.9988649.4052632.204835.2707365.2607225.6447368.163818 1.125095l-.6015784 3.0261476h-1.1222294l.5432473-2.7429263c.0559717-.2832211.0404752-.4944851-.0458404-.6306744-.0852513-.1361046-.248339-.2033049-.4834568-.2033049-.2887071 0-.5316565.0906314-.7295586.2706529-.1987369.1814941-.3298286.4334731-.3942782.754189l-.5005822 2.5520637h-1.1245685l.8808885-4.4438323M25.9110085 11.2291156h1.0928862l-.1240529.6415155.154964-.1830528c.3542006-.3817472.7856755-.5711362 1.2917071-.5711362.4594595 0 .7915238.1346319.9978604.4052632.2036241.2707365.2625199.6447368.1631093 1.125095l-.5991783 3.0261476h-1.1237947l.5434156-2.7429263c.05576-.2832211.0403056-.4944851-.0451113-.6306744-.0885502-.1361046-.2485263-.2033049-.4826409-.2033049-.2888321 0-.5308854.0906314-.7311673.2706529-.1988209.1814941-.3306011.4334731-.3926299.754189l-.5028985 2.5520637h-1.1231702l.8807011-4.4438323M31.3129969 8.47515604h3.1727772c.610036 0 1.0818167.13936825 1.406154.41305247.3228738.2770533.4845199.67452715.4845199 1.19242209v.0155787c0 .0985269-.0064729.2096834-.0156634.3301065-.0156634.118946-.0359207.2393671-.0620264.3646304-.1397163.6853682-.4642626 1.2361893-.9654911 1.6539577-.5031074.4161903-1.0989433.6258956-1.7849993.6258956h-1.7014639l-.5260799 2.6021472h-1.473195l1.4654677-7.19779049m.7929846 3.34391649h1.4111686c.3677761 0 .6595323-.0861893.8723442-.2566522.2111447-.1721268.350861-.434948.4283417-.7916838.0123237-.0658949.0200508-.1252635.0294479-.180001.0048031-.0515786.0108603-.103368.0108603-.1532639 0-.2551577-.0898045-.43978776-.2700381-.55557723-.1800244-.11747537-.4623811-.17368421-.8537593-.17368421h-1.198354l-.4300116 2.11086234M42.9701107 16.5320633c-.4657258.99821-.9095219 1.58019-1.1701603 1.850906-.2610566.2676835-.7777394.8904631-2.0226654.8434314l.1071378-.7619372c1.0475682-.3254742 1.6141654-1.7917686 1.9370393-2.4410311l-.3849029-4.7818115.8103204-.0109465h.6797897l.0730958 2.9995991 1.2741648-2.9995991h1.2900372l-2.5938565 5.3013889M39.362937 11.5921053l-.512507.3552631c-.5354795-.4224416-1.0243868-.6837891-1.9679481-.2425896-1.2854433.600821-2.3595328 5.2090319 1.1795574 3.6912007l.2017452.2409475 1.3923693.036021.914325-4.1872635-1.2075418.1064209m-.7917329 2.2892206c-.2236724.6650531-.7232311 1.1046952-1.1143977.9795372-.3911667-.1220421-.5308854-.7636629-.304289-1.43019.2234659-.6666094.7263643-1.1046939 1.1143977-.9795153.3911693.1220421.5323488.7635576.304289 1.4301681" fill="#FFF"/>
  </g>
</svg>
