<svg viewBox="0 0 61 20" xmlns="http://www.w3.org/2000/svg">
  <g fill="none" fill-rule="evenodd">
    <path fill="#26337A" d="M21.4899908 19.5467606L24.5647281.47267606h4.9148572L26.405129 19.5467606h-4.9151382M44.232871.94084507c-.9717834-.3828169-2.5001567-.80028169-4.4040876-.80028169-4.8591981 0-8.2796958 2.5884507-8.3080875 6.29492958-.0309217 2.74169014 2.4408433 4.27070424 4.3042949 5.18197184 1.9151751.9340845 2.5586267 1.531831 2.5510368 2.3670422-.0132119 1.2774648-1.5286543 1.8628169-2.9417741 1.8628169-1.967742 0-3.0131752-.288169-4.6295346-1.0002816l-.6322074-.303662-.6873041 4.2695774c1.1460691.5312677 3.2706682.9923944 5.4756636 1.0166198 5.1641981 0 8.5197603-2.5571831 8.5591152-6.5152113.0177097-2.1740845-1.2919632-3.82197183-4.1283226-5.18253521-1.7175576-.88450705-2.7717051-1.47042254-2.7596175-2.36563381.0011244-.79267605.8905438-1.64140845 2.8155576-1.64140845 1.6076451-.02591549 2.7714239.34535212 3.6782719.73295775l.4413364.21802817.665659-4.13492958M50.7772995 12.7842254c.4073226-1.0963381 1.9579033-5.33154934 1.9579033-5.33154934-.0286728.05042253.4050737-1.10478874.6532903-1.81971831l.3317051 1.64507042s.9431106 4.55267603 1.1373548 5.50619723h-4.0802535zM56.8407558.49211268h-3.7983042c-1.1781152 0-2.0599447.33746478-2.5760553 1.58112676l-7.298917 17.48028166h5.1622304s.8421935-2.3515493 1.0333456-2.8676056c.5630553 0 5.5791106.0098591 6.2950876.0098591.1472995.6656339.5984746 2.8577465.5984746 2.8577465h4.561788L56.8407558.49211268zM17.3667281.4887324l-4.8105668 13.0039437-.5152673-2.6433803c-.896447-3.04563383-3.68698617-6.34676059-6.80838709-8.0008451L9.6335023 19.5301408l5.2015853-.0030985L22.5750599.4887324h-5.2083318"/>
    <path d="M8.09051152.47577465H.16472812L.09951151.8709859C6.26669585 2.45098592 10.3472304 6.26478874 12.040894 10.8492958l-1.7223364-8.76422538C10.0214286.87633802 9.15787097.51802817 8.09051152.47577465" fill="#EC982D"/>
  </g>
</svg>
