<svg width="17px" height="18px" viewBox="0 0 17 18" xmlns="http://www.w3.org/2000/svg">
    <g id="Search" stroke="none" stroke-width="1" fill="none" fill-rule="evenodd">
        <g id="23.00.10---Search-Copy" transform="translate(-1055.000000, -113.000000)" fill="#586777" fill-rule="nonzero" stroke="#586777" stroke-width="0.3">
            <path d="M1061.3419,113.833333 C1061.29536,113.845668 1061.25326,113.870928 1061.22048,113.90619 L1059.79976,115.326905 L1058.82833,116.298333 L1058.41548,116.71119 L1057.44405,117.682619 L1055.87762,119.249048 C1055.83186,119.293886 1055.80567,119.354989 1055.80476,119.419048 L1055.80476,130.590476 C1055.80476,130.724602 1055.91349,130.833333 1056.04762,130.833333 L1067.70476,130.833333 C1067.83889,130.833333 1067.94762,130.724602 1067.94762,130.590476 L1067.94762,129.37619 L1069.1619,129.37619 C1069.29603,129.37619 1069.40476,129.26746 1069.40476,129.133333 L1069.40476,127.919048 L1070.61905,127.919048 C1070.75317,127.919048 1070.8619,127.810317 1070.8619,127.67619 L1070.8619,114.07619 C1070.8619,113.942064 1070.75317,113.833333 1070.61905,113.833333 L1061.3419,113.833333 Z M1061.48762,114.319048 L1070.37619,114.319048 L1070.37619,127.433333 L1069.40476,127.433333 L1069.40476,115.533333 C1069.40476,115.399207 1069.29603,115.290476 1069.1619,115.290476 L1060.51619,115.290476 L1061.48762,114.319048 Z M1060.03048,115.77619 L1068.91905,115.77619 L1068.91905,128.890476 L1067.94762,128.890476 L1067.94762,116.990476 C1067.94762,116.85635 1067.83889,116.747619 1067.70476,116.747619 L1059.05905,116.747619 L1059.94548,115.849048 L1060.03048,115.77619 Z M1058.57333,117.233333 L1058.71905,117.233333 L1058.71905,119.419048 L1056.38762,119.419048 L1057.6019,118.204762 L1058.57333,117.233333 Z M1059.20476,117.233333 L1067.4619,117.233333 L1067.4619,130.347619 L1056.29048,130.347619 L1056.29048,119.904762 L1058.9619,119.904762 C1059.09603,119.904762 1059.20476,119.796031 1059.20476,119.661905 L1059.20476,117.233333 Z" id="Shape"></path>
        </g>
    </g>
</svg>
