<svg data-name="Layer 1" xmlns="http://www.w3.org/2000/svg" viewBox="0 0 24 24">
  <path d="M20.5 23.5h-17a3 3 0 0 1-3-3v-17a3 3 0 0 1 3-3h17a3 3 0 0 1 3 3v17a3 3 0 0 1-3 3z" fill="#f8f8f8"/>
  <path d="M20.5 24h-17A3.54 3.54 0 0 1 0 20.5v-17A3.54 3.54 0 0 1 3.5 0h17A3.54 3.54 0 0 1 24 3.5v17a3.54 3.54 0 0 1-3.5 3.5zM3.5 1A2.48 2.48 0 0 0 1 3.5v17A2.48 2.48 0 0 0 3.5 23h17a2.48 2.48 0 0 0 2.5-2.5v-17A2.48 2.48 0 0 0 20.5 1z" fill="#eaecef"/>
  <path d="M10.85 1.72h1.5a.35.35 0 0 0 .35-.35.35.35 0 0 0-.35-.37h-1.5a.35.35 0 0 0-.35.35.35.35 0 0 0 .35.37zM11.3 2.33a.35.35 0 0 0 .35.35h1.5a.35.35 0 0 0 .35-.35.35.35 0 0 0-.35-.33h-1.5a.35.35 0 0 0-.35.33zM10.85 3.65h1.5a.35.35 0 1 0 0-.7h-1.5a.35.35 0 0 0 0 .7zM13.15 4h-1.5a.35.35 0 1 0 0 .7h1.5a.35.35 0 0 0 0-.7zM10.85 5.66h1.5a.35.35 0 0 0 .35-.35.35.35 0 0 0-.35-.31h-1.5a.35.35 0 0 0-.35.35.35.35 0 0 0 .35.31zM13.15 6h-1.5a.35.35 0 0 0-.35.35.35.35 0 0 0 .35.35h1.5a.35.35 0 0 0 .35-.35.35.35 0 0 0-.35-.35zM10.85 7.7h1.5a.35.35 0 0 0 .35-.35.35.35 0 0 0-.35-.35h-1.5a.35.35 0 0 0-.35.35.35.35 0 0 0 .35.35zM10.85 9.72h1.5a.35.35 0 0 0 .35-.35.35.35 0 0 0-.35-.37h-1.5a.35.35 0 0 0-.35.35.35.35 0 0 0 .35.37zM13.15 8h-1.5a.35.35 0 0 0 0 .7h1.5a.35.35 0 0 0 0-.7zM13.1 10.42h-2.2a.39.39 0 0 0-.4.4V16a.4.4 0 0 0 .4.4h2.2a.4.4 0 0 0 .4-.4v-5.2a.39.39 0 0 0-.4-.38zm0 5.2a.4.4 0 0 1-.4.4h-1.4a.4.4 0 0 1-.4-.4v-.07a.4.4 0 0 1 .4-.4h1.4a.4.4 0 0 1 .4.4z" fill="#586777"/>
</svg>