<svg data-name="Layer 1" xmlns="http://www.w3.org/2000/svg" viewBox="0 0 24 24">
  <path d="M20.5 23.5h-17a3 3 0 0 1-3-3v-17a3 3 0 0 1 3-3h17a3 3 0 0 1 3 3v17a3 3 0 0 1-3 3z" fill="#f8f8f8"/>
  <path d="M20.5 24h-17A3.54 3.54 0 0 1 0 20.5v-17A3.54 3.54 0 0 1 3.5 0h17A3.54 3.54 0 0 1 24 3.5v17a3.54 3.54 0 0 1-3.5 3.5zM3.5 1A2.48 2.48 0 0 0 1 3.5v17A2.48 2.48 0 0 0 3.5 23h17a2.48 2.48 0 0 0 2.5-2.5v-17A2.48 2.48 0 0 0 20.5 1z" fill="#eaecef"/>
  <path d="M11.5 10H8.8c-.5 0-.8.3-.8.6v2.8c0 .3.3.6.8.6h2.7l4.5 2.6V7.4z" fill="#ac79f2"/>
</svg>