<svg data-name="Layer 1" xmlns="http://www.w3.org/2000/svg" viewBox="0 0 24 24">
  <path d="M20.5 23.5h-17a3 3 0 0 1-3-3v-17a3 3 0 0 1 3-3h17a3 3 0 0 1 3 3v17a3 3 0 0 1-3 3z" fill="#f8f8f8"/>
  <path d="M20.5 24h-17A3.54 3.54 0 0 1 0 20.5v-17A3.54 3.54 0 0 1 3.5 0h17A3.54 3.54 0 0 1 24 3.5v17a3.54 3.54 0 0 1-3.5 3.5zM3.5 1A2.48 2.48 0 0 0 1 3.5v17A2.48 2.48 0 0 0 3.5 23h17a2.48 2.48 0 0 0 2.5-2.5v-17A2.48 2.48 0 0 0 20.5 1z" fill="#eaecef"/>
  <path d="M13 16.1l-.5-1.4H9.1l-.5 1.4H6.7l3.1-8h2.1l3.1 8zm-2.2-6.3l-1.2 3.4h2.5zM15.5 8.8a.9.9 0 1 1 .9.9.9.9 0 0 1-.9-.9zm.2 7.3v-5.8h1.5v5.8z" fill="#f09335"/>
</svg>