<svg data-name="Layer 1" xmlns="http://www.w3.org/2000/svg" viewBox="0 0 24 24">
  <path d="M20.5 23.5h-17a3 3 0 0 1-3-3v-17a3 3 0 0 1 3-3h17a3 3 0 0 1 3 3v17a3 3 0 0 1-3 3z" fill="#f8f8f8"/>
  <path d="M20.5 24h-17A3.54 3.54 0 0 1 0 20.5v-17A3.54 3.54 0 0 1 3.5 0h17A3.54 3.54 0 0 1 24 3.5v17a3.54 3.54 0 0 1-3.5 3.5zM3.5 1A2.48 2.48 0 0 0 1 3.5v17A2.48 2.48 0 0 0 3.5 23h17a2.48 2.48 0 0 0 2.5-2.5v-17A2.48 2.48 0 0 0 20.5 1z" fill="#eaecef"/>
  <path data-name="Path 182" d="M18.22 15.55l-.9-1c-.7-.7-1.3-1.4-1.9-2.1a1.22 1.22 0 0 0-1-.6c-.3 0-.6.3-1 .5-.1.1-.3.2-.4.3s-.2-.1-.4-.3-.5-.6-.7-.9a2.65 2.65 0 0 1-.5-.6 1.1 1.1 0 0 0-1-.6 1.7 1.7 0 0 0-1 .6c-.6.8-1.3 1.6-1.9 2.3l-1.3 1.6c-.1.1-.2.3-.3.4l-.2.3a.44.44 0 0 0-.1.5c.1.2.2.3.4.3H18c.2 0 .3-.1.4-.3s.02-.3-.18-.4z" fill="#586777"/>
  <path data-name="Path 183" d="M15.52 10.85A1.54 1.54 0 0 0 17 9.35a1.5 1.5 0 0 0-1.5-1.6 1.54 1.54 0 0 0-1.5 1.5 1.47 1.47 0 0 0 1.4 1.6z" fill="#586777"/>
</svg>