<svg data-name="Layer 1" xmlns="http://www.w3.org/2000/svg" viewBox="0 0 32 32"><path d="M27.67 31.67H5a4 4 0 0 1-4-4V5a4 4 0 0 1 4-4h22.67a4 4 0 0 1 4 4v22.67a4 4 0 0 1-4 4z" fill-rule="evenodd" fill="#f8f8f8"/><path d="M21.42 23.49v-9.87a.5.5 0 0 1 .5-.5h2.5a.5.5 0 0 1 .5.5v9.87a.51.51 0 0 1-.5.5h-2.5a.5.5 0 0 1-.5-.5z" fill="#85b7d9" fill-rule="evenodd"/><path d="M16.62 23.49V10.26a.5.5 0 0 1 .5-.5h2.5a.5.5 0 0 1 .5.5v13.23a.51.51 0 0 1-.5.5h-2.5a.5.5 0 0 1-.5-.5z" fill="#7ed321" fill-rule="evenodd"/><path d="M11.82 23.49v-6.12a.5.5 0 0 1 .5-.5h2.5a.5.5 0 0 1 .5.5v6.12a.51.51 0 0 1-.5.5h-2.5a.5.5 0 0 1-.5-.5z" fill="#ea7c24" fill-rule="evenodd"/><path d="M7 23.49v-3.14a.5.5 0 0 1 .5-.5H10a.5.5 0 0 1 .5.5v3.14a.51.51 0 0 1-.5.5H7.52a.5.5 0 0 1-.52-.5z" fill="#e25335" fill-rule="evenodd"/><path d="M27.33 32H4.67A4.72 4.72 0 0 1 0 27.33V4.67A4.72 4.72 0 0 1 4.67 0h22.66A4.72 4.72 0 0 1 32 4.67v22.66A4.72 4.72 0 0 1 27.33 32zM4.67 1.33a3.31 3.31 0 0 0-3.34 3.34v22.66a3.31 3.31 0 0 0 3.34 3.34h22.66a3.31 3.31 0 0 0 3.34-3.34V4.67a3.31 3.31 0 0 0-3.34-3.34z" fill="#eaecef"/></svg>