<svg data-name="Layer 1" xmlns="http://www.w3.org/2000/svg" viewBox="0 0 32 32"><path d="M27.67 31.67H5a4 4 0 0 1-4-4V5a4 4 0 0 1 4-4h22.67a4 4 0 0 1 4 4v22.67a4 4 0 0 1-4 4z" fill="#f8f8f8" fill-rule="evenodd"/><path d="M22.22 24H9.78a.76.76 0 1 1 0-1.52h12.44a.76.76 0 1 1 0 1.52zm-8.55-3h-3.11a.77.77 0 0 1-.78-.76v-3.1a.79.79 0 0 1 .22-.54L17.78 9a.81.81 0 0 1 1.11 0L22 12a.75.75 0 0 1 0 1.08l-7.78 7.62a.82.82 0 0 1-.55.3zm-2.34-1.52h2l7-6.86-2-2-7 6.86z" fill="#ea7c24"/><path d="M27.33 32H4.67A4.72 4.72 0 0 1 0 27.33V4.67A4.72 4.72 0 0 1 4.67 0h22.66A4.72 4.72 0 0 1 32 4.67v22.66A4.72 4.72 0 0 1 27.33 32zM4.67 1.33a3.31 3.31 0 0 0-3.34 3.34v22.66a3.31 3.31 0 0 0 3.34 3.34h22.66a3.31 3.31 0 0 0 3.34-3.34V4.67a3.31 3.31 0 0 0-3.34-3.34z" fill="#eaecef"/></svg>