<svg data-name="Layer 1" xmlns="http://www.w3.org/2000/svg" viewBox="0 0 24 24">
  <path d="M20.5 23.5h-17a3 3 0 0 1-3-3v-17a3 3 0 0 1 3-3h17a3 3 0 0 1 3 3v17a3 3 0 0 1-3 3z" fill="#f8f8f8"/>
  <path d="M20.5 24h-17A3.54 3.54 0 0 1 0 20.5v-17A3.54 3.54 0 0 1 3.5 0h17A3.54 3.54 0 0 1 24 3.5v17a3.54 3.54 0 0 1-3.5 3.5zM3.5 1A2.48 2.48 0 0 0 1 3.5v17A2.48 2.48 0 0 0 3.5 23h17a2.48 2.48 0 0 0 2.5-2.5v-17A2.48 2.48 0 0 0 20.5 1z" fill="#eaecef"/>
  <path data-name="Path 2539" d="M6.7 18.28a.8.8 0 0 1-.83-.57 2.28 2.28 0 0 1 .93-2.19A6.84 6.84 0 0 1 9.48 14 34.33 34.33 0 0 0 11 10.62a5.62 5.62 0 0 1-.72-4c.21-.63.52-.84.78-.89A.86.86 0 0 1 12 6a3.47 3.47 0 0 1 .42 2.5 13.1 13.1 0 0 1-.47 2v.05a4.62 4.62 0 0 1 .62.78c.47.63 1 1.25 1.5 1.83h.46c1.86 0 3.09.41 3.5 1.14a.78.78 0 0 1 0 .94 1.38 1.38 0 0 1-1.29.63 1.44 1.44 0 0 1-.46-.05A5.65 5.65 0 0 1 13.7 14c-.25 0-.51.05-.82.05a14.85 14.85 0 0 0-2.88.58 11.14 11.14 0 0 1-2.37 3.28 1.3 1.3 0 0 1-.93.37zm2.06-3.07a4.7 4.7 0 0 0-1.39 1c-.72.73-.77 1.14-.72 1.25s0 .05.1.05a.68.68 0 0 0 .46-.21 10.52 10.52 0 0 0 1.55-2.09zm6.08-1.15a3.27 3.27 0 0 0 1.6 1h.31c.31 0 .56-.1.56-.21s.06-.05 0-.1c-.2-.22-.88-.69-2.47-.69zm-3.35-2.61c-.31.73-.62 1.51-1 2.24.93-.2 1.8-.31 2.27-.41H13c-.41-.47-.77-.94-1.13-1.41a2.86 2.86 0 0 0-.38-.42zm-.21-4.84c-.15 0-.2.2-.31.36a4.05 4.05 0 0 0 .31 2.61 3.77 3.77 0 0 0 .21-1.15c.1-1.35-.1-1.72-.21-1.82z" fill="#db4437"/>
</svg>