<svg data-name="Layer 1" xmlns="http://www.w3.org/2000/svg" viewBox="0 0 24 24">
  <path d="M20.5 23.5h-17a3 3 0 0 1-3-3v-17a3 3 0 0 1 3-3h17a3 3 0 0 1 3 3v17a3 3 0 0 1-3 3z" fill="#f8f8f8"/>
  <path d="M20.5 24h-17A3.54 3.54 0 0 1 0 20.5v-17A3.54 3.54 0 0 1 3.5 0h17A3.54 3.54 0 0 1 24 3.5v17a3.54 3.54 0 0 1-3.5 3.5zM3.5 1A2.48 2.48 0 0 0 1 3.5v17A2.48 2.48 0 0 0 3.5 23h17a2.48 2.48 0 0 0 2.5-2.5v-17A2.48 2.48 0 0 0 20.5 1z" fill="#eaecef"/>
  <path d="M6 15.9v-8h3.7a2.55 2.55 0 0 1 2.7 2.6 2.55 2.55 0 0 1-2.7 2.6h-2v2.8zm4.7-5.4a1.08 1.08 0 0 0-1.2-1.1H7.7v2.2h1.8a1.08 1.08 0 0 0 1.2-1.1zM12.9 15.2l.7-1.1a3.29 3.29 0 0 0 2 .8c.7 0 1-.3 1-.6 0-1-3.4-.2-3.4-2.5 0-1 .9-1.8 2.4-1.8a3.2 3.2 0 0 1 2.3.8l-.6 1a2.24 2.24 0 0 0-1.7-.7c-.6 0-.9.3-.9.6 0 .9 3.4.1 3.4 2.5 0 1.1-.9 1.9-2.5 1.9a4.36 4.36 0 0 1-2.7-.9z" fill="#2d7aea"/>
</svg>