<svg data-name="Layer 1" xmlns="http://www.w3.org/2000/svg" viewBox="0 0 24 24">
  <path d="M20.5 23.5h-17a3 3 0 0 1-3-3v-17a3 3 0 0 1 3-3h17a3 3 0 0 1 3 3v17a3 3 0 0 1-3 3z" fill="#f8f8f8"/>
  <path d="M20.5 24h-17A3.54 3.54 0 0 1 0 20.5v-17A3.54 3.54 0 0 1 3.5 0h17A3.54 3.54 0 0 1 24 3.5v17a3.54 3.54 0 0 1-3.5 3.5zM3.5 1A2.48 2.48 0 0 0 1 3.5v17A2.48 2.48 0 0 0 3.5 23h17a2.48 2.48 0 0 0 2.5-2.5v-17A2.48 2.48 0 0 0 20.5 1z" fill="#eaecef"/>
  <path data-name="Rectangle 597" d="M6.5 8.5h11a.47.47 0 0 1 .5.5.47.47 0 0 1-.5.5h-11A.47.47 0 0 1 6 9a.47.47 0 0 1 .5-.5z" fill="#586777"/>
  <path data-name="Rectangle 598" d="M6.5 11.5h11a.47.47 0 0 1 .5.5.47.47 0 0 1-.5.5h-11A.47.47 0 0 1 6 12a.47.47 0 0 1 .5-.5z" fill="#586777"/>
  <path data-name="Rectangle 599" d="M6.5 14.5h11a.47.47 0 0 1 .5.5.47.47 0 0 1-.5.5h-11A.47.47 0 0 1 6 15a.47.47 0 0 1 .5-.5z" fill="#586777"/>
</svg>