<svg data-name="Layer 1" xmlns="http://www.w3.org/2000/svg" viewBox="0 0 24 24">
  <path d="M20.5 23.5h-17a3 3 0 0 1-3-3v-17a3 3 0 0 1 3-3h17a3 3 0 0 1 3 3v17a3 3 0 0 1-3 3z" fill="#f8f8f8"/>
  <path d="M20.5 24h-17A3.54 3.54 0 0 1 0 20.5v-17A3.54 3.54 0 0 1 3.5 0h17A3.54 3.54 0 0 1 24 3.5v17a3.54 3.54 0 0 1-3.5 3.5zM3.5 1A2.48 2.48 0 0 0 1 3.5v17A2.48 2.48 0 0 0 3.5 23h17a2.48 2.48 0 0 0 2.5-2.5v-17A2.48 2.48 0 0 0 20.5 1z" fill="#eaecef"/>
  <path d="M10.9 15.9l-2-2.9-2 2.9h-2l2.9-4.1-2.7-3.9h2l1.8 2.7 1.8-2.7h2.1l-2.7 3.9 2.9 4.1zM17.6 15.9v-.7a2.27 2.27 0 0 1-1.8.9c-1.5 0-2.6-1.1-2.6-3s1.1-3 2.6-3a2.27 2.27 0 0 1 1.8.9V8h1.5v8h-1.5zm0-1.8V12a1.71 1.71 0 0 0-1.3-.7 1.53 1.53 0 0 0-1.5 1.7 1.53 1.53 0 0 0 1.5 1.7 1.78 1.78 0 0 0 1.3-.6z" fill="#eb46b9"/>
</svg>