<?xml version="1.0" standalone="no"?>
<!DOCTYPE svg PUBLIC "-//W3C//DTD SVG 20010904//EN"
 "http://www.w3.org/TR/2001/REC-SVG-20010904/DTD/svg10.dtd">
<svg version="1.0" xmlns="http://www.w3.org/2000/svg"
 width="259.000000pt" height="259.000000pt" viewBox="0 0 259.000000 259.000000"
 preserveAspectRatio="xMidYMid meet">
<metadata>
Created by potrace 1.11, written by Peter Selinger 2001-2013
</metadata>
<g transform="translate(0.000000,259.000000) scale(0.100000,-0.100000)"
fill="#000000" stroke="none">
<path d="M1020 2146 c-43 -40 -155 -169 -153 -175 2 -3 153 -6 335 -7 l333 0
40 41 c65 66 131 139 139 153 6 9 -63 12 -331 12 l-338 0 -25 -24z"/>
<path d="M1752 2073 c-48 -52 -88 -98 -90 -102 -1 -4 151 -7 339 -6 l341 0 44
50 c25 28 65 71 90 96 24 26 44 49 44 51 0 3 -153 5 -340 5 l-341 0 -87 -94z"/>
<path d="M2545 2066 c-11 -13 -49 -55 -85 -93 l-65 -70 1 -311 c0 -172 3 -314
5 -316 3 -3 34 32 69 76 36 44 75 92 87 107 23 26 23 29 23 329 0 166 -3 302
-7 301 -5 0 -17 -11 -28 -23z"/>
<path d="M843 1882 l-43 -3 0 -47 c-2 -257 1 -626 5 -631 3 -3 165 -5 359 -6
l352 0 0 343 c0 337 -1 342 -21 343 -99 2 -619 3 -652 1z"/>
<path d="M1615 1882 c-20 -3 -20 -10 -18 -315 1 -172 2 -326 3 -344 l0 -32
353 4 c193 2 354 4 357 4 3 1 5 154 5 341 l0 340 -30 0 c-248 3 -655 4 -670 2z"/>
<path d="M153 1303 c-50 -54 -87 -100 -83 -103 7 -4 620 -5 641 -1 3 0 6 46 6
101 l0 100 -237 0 -237 0 -90 -97z"/>
<path d="M0 764 l0 -344 358 0 359 0 -1 343 -1 342 -357 1 -358 2 0 -344z"/>
<path d="M800 1047 c-1 -66 -1 -447 0 -560 l0 -67 358 2 357 3 0 340 0 340
-357 2 -358 1 0 -61z"/>
<path d="M1599 1081 c0 -40 -1 -533 0 -559 1 -21 5 -19 39 21 20 24 52 62 70
85 19 22 42 51 53 63 10 12 19 33 19 46 1 12 1 79 1 148 0 69 0 147 -1 174 l0
50 -90 -1 -90 0 -1 -27z"/>
</g>
</svg>
