<svg xmlns="http://www.w3.org/2000/svg"  viewBox="0 0 24 24">
  <g data-name="Bit Store">
    <path d="M19 22.5H5a1 1 0 0 1-1-1v-5a1 1 0 0 1 2 0v4h12v-4a1 1 0 0 1 2 0v5a1 1 0 0 1-1 1z" fill="#3c4858"/>
    <path d="M22 9.5a1 1 0 0 0-.17-.5l-4-6a1 1 0 0 0-.83-.5H7a1 1 0 0 0-.83.5l-4 6a1 1 0 0 0-.17.5V11a2.5 2.5 0 0 0 2.5 2.5 2.78 2.78 0 0 0 2.5-2 2.56 2.56 0 0 0 2.5 2 2.78 2.78 0 0 0 2.5-2 2.56 2.56 0 0 0 2.5 2 2.78 2.78 0 0 0 2.5-2 2.56 2.56 0 0 0 2.5 2A2.5 2.5 0 0 0 22 11z" fill="#85b7d9"/>
  </g>
</svg>