<svg data-name="Layer 1" xmlns="http://www.w3.org/2000/svg" viewBox="0 0 24 24">
  <path d="M6 8.4h2.4V8a2.81 2.81 0 0 1 2.8-2.8H14v-.4a1.2 1.2 0 0 0-1.2-1.2h-10a1.2 1.2 0 0 0-1.2 1.2v8A1.2 1.2 0 0 0 2.8 14h.4v-2.8A2.81 2.81 0 0 1 6 8.4z"/>
  <path d="M20.7 4.7h-4.6v-.4a2.81 2.81 0 0 0-2.8-2.8h-10A2.81 2.81 0 0 0 .5 4.3v8a2.81 2.81 0 0 0 2.8 2.8h.4v4.6a2.81 2.81 0 0 0 2.8 2.8h10a2.81 2.81 0 0 0 2.8-2.8v-1.4h1.4a2.81 2.81 0 0 0 2.8-2.8v-8a2.81 2.81 0 0 0-2.8-2.8zm-17 6v2.8h-.4a1.2 1.2 0 0 1-1.2-1.2v-8a1.2 1.2 0 0 1 1.2-1.2h10a1.2 1.2 0 0 1 1.2 1.2v.4h-2.8a2.81 2.81 0 0 0-2.8 2.8v.4H6.5a2.81 2.81 0 0 0-2.8 2.8zm2.8 10.2a1.2 1.2 0 0 1-1.2-1.2v-1.55l3-3 5.36 5.8zm11.2-1.2a1.2 1.2 0 0 1-1.2 1.2h-.64L13.22 18l1.62-1.62 2.86 2.86zm0-2.68l-2.3-2.3a.82.82 0 0 0-1.13 0l-2.14 2.14-3.2-3.46a.77.77 0 0 0-.57-.26.84.84 0 0 0-.58.24l-2.48 2.5V10.7a1.2 1.2 0 0 1 1.2-1.2h10a1.2 1.2 0 0 1 1.2 1.2zm4.2-1.52a1.2 1.2 0 0 1-1.2 1.2h-1.4v-6a2.81 2.81 0 0 0-2.8-2.8h-6v-.4a1.2 1.2 0 0 1 1.2-1.2h9a1.2 1.2 0 0 1 1.2 1.2z"/>
  <path d="M12.26 10.83a2.31 2.31 0 1 0 2.3 2.31 2.32 2.32 0 0 0-2.3-2.31zm0 3a.71.71 0 1 1 .7-.7.71.71 0 0 1-.7.71z"/>
</svg>