<svg viewBox="0 0 10 16" xmlns="http://www.w3.org/2000/svg">
  <g fill="none" fill-rule="evenodd">
    <path d="M.11696333 15.70002673h2.24962406c.4799198 0 .9160822-.38958195.9160822-.86967819v-.12350877-2.22456942V1.90374402 1.3451315c0-.4799198-.4361624-.8695018-.9160822-.8695018H.11696333v15.22439703z" fill="#3C4858" fill-rule="nonzero"/>
    <g transform="translate(-1.7 1.587828)" fill="#FFF">
      <path d="M3.60043406 9.72029422c1.7785194 1.60138606 4.5184741 1.45779112 6.11986016-.32072828 1.60138606-1.7785194 1.45779114-4.51847412-.32072826-6.11986018-.88338923-.79540724-2.0039743-1.16030998-3.10441918-1.10819464-1.11507066.052808-2.2094622.53379275-3.01544102 1.42892292" stroke="#3C4858"/>
      <circle stroke="#85B7D9" cx="6.5" cy="6.5" r="1.35416667"/>
    </g>
    <path d="M.11696288 15.70002629H1.7213162c.34226204 0 .65331784-.38958196.65331784-.8696782v-.12350877-2.22456942V1.90374358v-.55861253c0-.47991985-.3110558-.86950175-.65331784-.86950175H.11696288v15.22439699z" fill="#3C4858" fill-rule="nonzero"/>
  </g>
</svg>
