<svg viewBox="0 0 18 16" xmlns="http://www.w3.org/2000/svg">
  <g fill-rule="nonzero" fill="none">
    <path d="M15.2073502 4.88430354v-.00842731h-2.1425116V3.05044807H4.93313738v1.82542816H2.65103892v.00842731H1.3136858C1.14477806 4.88430354 1 4.76365515 1 4.59474741V.90290681C1 .73399905 1.14477806.589221 1.3136858.589221h15.3706044c.1689077 0 .3136858.14477806.3136858.3136858v3.69184061c0 .16890774-.1447781.28955613-.3136858.28955613h-1.47694zM13.6680805 6.229945v9.1266384c0 .1689078-.1206484.3136858-.2895561.3136858-.0965187 0-.1689078-.0241296-.2171671-.0965187l-1.0375761-.892798-.7721497.892798c-.1206484.1206484-.3136858.1206484-.43433418.0241297l-.89279806-.9410574-.79627934.9169277c-.12064839.1447781-.33781548.1206484-.45846387 0l-.79627935-.9169277-.86866838.9169277c-.12064838.1206484-.3136858.1206484-.43433418 0l-.82040903-.892798-1.03757612.9169277c-.19303741.1689077-.50672322.0241297-.50672322-.2412968V6.229945h.62737161v8.4510075l.74801999-.6515013c.12064839-.1206484.3136858-.0965187.43433419.0241297l.77214967.8686683.89279806-.9410574c.12064838-.0965187.3136858-.0965187.43433418.0241297l.77214967.8927981.79627935-.8927981c.12064839-.1206484.3136858-.1447781.45846387 0l.86866834.9169277.7721497-.8686683c.0965187-.1206484.2895561-.1447781.4343342-.0241297l.74802.6515013V6.229945h.6032419z" stroke="#3C4858" stroke-width=".3" fill="#3C4858"/>
    <path d="M9.53590306 11.4475757c0 .2988571-.25012282.5489799-.54897992.5489799-.30060476 0-.52485024-.2506273-.52485024-.5489799v-.3836736c-.11932438-.0438683-.2180733-.094284-.3237457-.1648174-.25453373-.1590835-.46741001-.39476799-.56834137-.64928481-.13514913-.27029826-.02724261-.60750613.25000479-.7258847.26162592-.13081296.59558921-.01058617.73389634.26784548.03133501.07833752.09626965.15625909.16801917.1993088.10193534.06116121.17980366.08711731.26501701.08711731.13849022 0 .27566711-.05944332.36447484-.14825104.0958795-.09587951.14825104-.22680835.14825104-.36447483 0-.31471409-.11954422-.39675424-.63802303-.51875148-1.0304924-.23780594-1.46125889-.57703454-1.46125889-1.58053044 0-.43444754.17670423-.85700113.47912057-1.13156515.15983861-.15983861.35475684-.2821084.58258523-.36694471v-.38360496c0-.29835261.22424548-.54897992.52485024-.54897992.2988571 0 .54897992.25012283.54897992.54897992v.38706202c.12912544.04653649.20977606.08343205.30542809.14105176.27669716.18446477.4857089.41509842.58665899.66966206.13081296.26162592.01058617.59558922-.2500048.7258847-.26162591.13081296-.59558921.01058617-.73865084-.28082499-.0256715-.07701452-.07584439-.13387712-.16326467-.18632929-.09276039-.05565624-.19613249-.08711731-.28914669-.08711731-.1169067 0-.25318388.06108977-.34034515.14825104-.10275945.10275945-.14825104.21269748-.14825104.36447483 0 .30157412.1196346.39389499.55415593.50373651.03166243.00796532.03166243.00796532.05787176.01459241 1.05031683.23340374 1.48725422.57324393 1.48725422 1.580953 0 .40397591-.17474134.79714391-.47912056 1.13156519-.15222301.152223-.35445529.2750293-.58258524.3634758v.3870738z" fill="#85B7D9"/>
  </g>
</svg>
