<svg xmlns="http://www.w3.org/2000/svg" viewBox="0 0 19.74 24.74">
  <path d="M19.64 19.76a10.26 10.26 0 0 1-2.16-6.29V10a7.94 7.94 0 0 0-4.88-7.39 2.53 2.53 0 0 0-5-.13 7.8 7.8 0 0 0-5.34 7.4v3.59a10.25 10.25 0 0 1-2.15 6.29l-.11.13v2h19.74v-2zm-16.89 0a12.61 12.61 0 0 0 1.69-6.26V9.88a5.56 5.56 0 0 1 4.05-5.41 1.73 1.73 0 0 0 1.22-1.89.38.38 0 0 1 .36-.38c.2 0 .36.17.35.46a1.7 1.7 0 0 0 1.12 1.9A5.79 5.79 0 0 1 15.31 10v3.44A12.6 12.6 0 0 0 17 19.73z" fill="#85b7d9"/>
  <path d="M13.48 21.94a3.72 3.72 0 0 1-7.21 0h2.39a1.61 1.61 0 0 0 2.42 0z" fill="#3c4858"/>
</svg>