<svg viewBox="0 0 15 17" xmlns="http://www.w3.org/2000/svg">
  <g transform="translate(.8 .5)" fill="none" fill-rule="evenodd">
    <path d="M9.15294118 10.7410386h1.20000002V14.8c0 .6627417-.53725832 1.2-1.20000002 1.2H1.2C.5372583 16 0 15.4627417 0 14.8V1.2C0 .5372583.5372583 0 1.2 0h7.95294118c.6627417 0 1.20000002.5372583 1.20000002 1.2v3.53644301H9.15294118V1.2H1.2v13.6h7.95294118v-4.0589614z" fill="#3C4858" fill-rule="nonzero"/>
    <g transform="translate(5.176471 4.736443)">
      <rect fill="#85B7D9" x=".57850988" y=".50412093" width="8.12148437" height="4.88760127" rx="1"/>
      <path d="M1.57850988.50412093h6.12148438c.55228475 0 1 .44771525 1 1v.51317476H.57850988v-.51317476c0-.55228475.44771525-1 1-1z" fill="#3C4858"/>
    </g>
    <rect stroke="#3C4858" stroke-width="1.5" fill="#3C4858" x="1.28308824" y="13.1776195" width="7.78676471" height="1.55399816" rx=".77699908"/>
    <rect stroke="#3C4858" stroke-width="1.5" fill="#3C4858" x="1.28308824" y="1.57261029" width="7.78676471" height="1" rx=".5"/>
  </g>
</svg>
