<svg width="14" height="17" viewBox="0 0 14 17" xmlns="http://www.w3.org/2000/svg">
  <g fill-rule="nonzero" fill="none">
    <path d="M6.98095238.356408c3.63809522 0 6.38095242 1.27619048 6.38095242 2.93333333v9.84761907c0 1.6761905-2.7428572 2.9333333-6.38095242 2.9333333C3.34285714 16.0706937.6 14.8135509.6 13.1373604V3.28974133C.6 1.61355086 3.34285714.356408 6.98095238.356408zm5.42857142 9.5047619V8.16593181c-1.1047619.81904762-3.08571428 1.35238095-5.42857142 1.35238095s-4.32380952-.53333333-5.42857143-1.35238095V9.8611699c0 .9333333 2.32380953 1.9809524 5.42857143 1.9809524 3.10476191 0 5.42857142-1.0476191 5.42857142-1.9809524zm0-3.27619047v-1.6952381c-1.1047619.81904762-3.08571428 1.35238096-5.42857142 1.35238096s-4.32380952-.53333334-5.42857143-1.35238096v1.6952381c0 .93333333 2.32380953 1.98095238 5.42857143 1.98095238 3.10476191 0 5.42857142-1.04761905 5.42857142-1.98095238zM6.98095238 1.30878895c-3.1047619 0-5.42857143 1.04761905-5.42857143 1.98095238 0 .93333334 2.32380953 1.98095238 5.42857143 1.98095238 3.10476191 0 5.42857142-1.04761904 5.42857142-1.98095238 0-.93333333-2.32380951-1.98095238-5.42857142-1.98095238z" stroke="#3C4858" stroke-width=".4" fill="#3C4858"/>
    <path d="M6.98095238 15.1373604c-3.1047619 0-5.30341332-1.0476191-5.30341332-1.9809524v-3.15238095c1.10476191.81904765 2.96055618 1.65173755 5.30341332 1.65173755 2.34285714 0 4.17455912-.8326899 5.27932102-1.65173755v3.13333335c0 .9523809-2.17455911 2-5.27932102 2z" fill="#85B7D9"/>
  </g>
</svg>
