<svg viewBox="0 0 56 36" xmlns="http://www.w3.org/2000/svg">
  <g fill="none" fill-rule="evenodd">
    <path d="M8.588 4.52400039c-.036-.012-.084-.036-.132-.072l-.084-.06-.072-.036c-.084-.012-.264.012-.528.096-.3.084-.6.204-.888.348-.324.168-.564.336-.72.492-.12.12-.18.204-.168.264.024.096.12.156.288.192.072.012.396.036.972.048.516.012.912.096 1.176.252.408.264.6.696.576 1.308-.036.756-.696 1.188-1.464 1.392-.672.18-1.44.18-1.92 0-.192-.084-.312-.312-.228-.504.084-.204.312-.324.516-.24.228.108.9.12 1.428-.024.576-.144.864-.396.876-.648.012-.312-.048-.516-.204-.612-.144-.084-.408-.12-.78-.132-.612-.012-.984-.036-1.104-.06-.516-.096-.816-.36-.9-.804-.072-.336.048-.672.372-.996.228-.216.528-.42.924-.624.336-.18.684-.312 1.032-.42.384-.108.684-.132.888-.096.108.012.216.06.336.132l.108.06.06.048c.192.096.276.336.168.528-.096.192-.336.276-.528.168zm3.288 3.348c.132.036.276.048.42.012.3-.06.66-.204 1.092-.408.324-.156.696-.36 1.092-.6-.108-.036-.228-.06-.36-.072-.42-.036-.792 0-1.092.12-.096.036-.54.324-.84.6-.144.132-.252.252-.312.348zm-.492-3.636c.168-.756.552-1.212 1.152-1.344.516-.12 1.068.024 1.668.42.528.372.876.756 1.164 1.344.108.204.18.384.24.516s.12.312.192.564c.084.24.132.408.156.516l.132.54.12.492c0 .024.024.084.096.204.084.204.096.396.036.564-.012.048-.048.096-.084.132-.096.108-.216.144-.348.12-.096-.012-.18-.06-.24-.12-.048-.048-.072-.096-.108-.192-.036-.108-.048-.168-.06-.18-.06-.18-.144-.324-.252-.432l-.024-.036c-.564.348-1.056.636-1.488.84-.492.24-.924.396-1.272.48-.516.108-.912.036-1.188-.192-.276-.228-.324-.528-.144-.9.096-.192.264-.396.516-.624.192-.168.396-.324.612-.48.216-.156.372-.252.48-.288.42-.156.9-.216 1.452-.168.348.036.66.132.948.288-.3-1.104-.684-1.86-1.368-2.34-.408-.276-.756-.372-1.056-.3-.276.06-.468.312-.564.744-.084.516-.912.312-.768-.168zm7.668.912l.42.888c.252.552.456.972.612 1.248.252.468.468.804.66 1.008.096.108.18.18.24.204l.048-.048c.072-.06.168-.156.276-.276l.756-.9c.804-.96 1.284-1.512 1.428-1.644.156-.144.42-.144.564.012.144.156.144.42-.012.564-.132.108-.588.636-1.368 1.584l-.78.912-.312.324c-.12.108-.228.192-.312.228-.36.144-.732 0-1.116-.432-.228-.264-.492-.648-.768-1.164-.18-.336-.396-.768-.636-1.284-.228-.516-.36-.792-.396-.84-.276-.432.468-.852.696-.384zm7.8 1.452c.108.492.432.852.948 1.08.336.156.732.24 1.188.276.468.036.9.012 1.308-.072.492-.12.66.696.144.768-.444.108-.936.144-1.5.108-.552-.036-1.044-.156-1.464-.348-.996-.444-1.584-1.344-1.452-2.604.072-.684.384-1.248.936-1.68.324-.252.924-.444 1.488-.456.66-.012 1.284.18 1.524.768.144.348.048.696-.288 1.032-.204.204-.504.396-.9.588-.576.276-1.128.468-1.668.576-.096.024-.18.012-.264-.036zm.096-.732c.48-.108.984-.276 1.5-.528.312-.144.54-.288.684-.432.084-.084.108-.144.108-.156l-.012-.024c-.072-.18-.324-.276-.756-.264-.42.012-.852.156-1.032.288-.372.288-.576.66-.624 1.128v.048c.036-.036.084-.048.132-.06zm9.024-1.728c.204-.276.672-.816 1.38-1.62.12-.132.312-.36.576-.708l.252-.312.084-.108.084-.084.096-.048c.18-.084.336-.048.468.12.06.06.084.168.084.204v.108c0 .036 0 .072-.012.108l-.06.276c-.036.18-.108.432-.192.78l-.192.816c-.06.252-.096.396-.096.432-.06.324-.084.648-.096.972-.012.312.012.684.06 1.104.06.42.096.72.132.9l.192 1.092c.42.036.804.108 1.152.24.504.144.204.948-.264.744-.3-.108-.636-.168-1.008-.18-.372-.024-.672-.024-.912 0-.228.012-.6.06-1.104.132-.492.096-.624-.744-.096-.792.672-.084 1.152-.144 1.428-.156l-.192-1.044c-.036-.228-.072-.552-.12-.948-.096-.816-.072-1.476.036-2.184l.12-.504.084-.324c-.624.684-1.044 1.176-1.26 1.464-.276.432-.972-.096-.624-.48zm7.176-1.464c-.348.72-.576 1.512-.684 2.364-.108.852-.06 1.608.156 2.268.156.396.36.648.636.768.708.384 2.136-.384 2.688-1.308.36-.564.504-1.2.432-1.908-.072-.708-.336-1.308-.792-1.812-.084-.084-.228-.216-.444-.384-.216-.156-.444-.3-.684-.432-.276-.144-.504-.228-.684-.264-.252-.048-.276.024-.336.18-.012.012-.012.036-.024.06l-.024.048c-.012.024-.012.048-.012.06l-.084.204c-.036.06-.084.12-.144.156zm-.432-.876l.024-.036c.06-.132.132-.252.216-.336.228-.228.552-.312.96-.24.264.036.564.156.912.336.54.3 1.116.744 1.356.996.564.636.9 1.392.984 2.268.084.876-.096 1.68-.552 2.412-.492.756-1.392 1.44-2.268 1.68-.528.132-.996.108-1.416-.084-.468-.204-.828-.612-1.056-1.2-.66-1.692-.012-4.38.84-5.796zm7.188 1.008c.012.444.204.684.36.744.192.06.456-.024.6-.444.108-.372.06-.732-.12-.96-.06-.072-.108-.108-.168-.108-.084-.012-.168.048-.276.156-.036.036-.084.096-.12.18l-.168.312c-.024.048-.06.084-.108.12zm-.432-.804c.084-.156.168-.276.252-.36.276-.288.576-.42.9-.396.3.012.54.156.744.42.348.432.444 1.092.24 1.704-.276.768-.948 1.164-1.608.924-.66-.228-.996-.984-.864-1.944.036-.192.18-.312.336-.348zm4.2 4.992c-.168-.12-.216-.276-.144-.468.228-.576.516-.936.852-1.08.444-.144.78-.012 1.008.312.396.54.36 1.512-.252 2.256-.276.324-.552.456-.828.396-.252-.06-.432-.24-.54-.564-.06-.168-.084-.372-.096-.6-.012-.084-.012-.168 0-.252zm-.312-6.516c-.06.684-.192 1.572-.408 2.676-.276 1.38-.432 2.256-.492 2.604-.156.984-.228 2.1-.228 3.348 0 .516-.792.516-.792 0 0-1.308.072-2.472.228-3.468l.504-2.64c.216-1.092.348-1.956.396-2.592.012-.492.852-.456.792.072z" fill="#3C8BC0" fill-rule="nonzero"/>
    <g stroke="#3C8BC0">
      <path d="M32.5723627 15.08655286C27.7689942 26.525444 17.4355049 33.4093688 3.97587316 33.5894709M7.17796154 29.7042703c-9.02677163 5.3992263-9.59155176 3.6260445.18697252 5.5797311"/>
    </g>
  </g>
</svg>
