<svg id="Layer_1" xmlns="http://www.w3.org/2000/svg" viewBox="0 0 27.4 24">
<g id="Symbols">
	<g id="Folder---Shared-With-Me" transform="translate(-19.000000, -21.000000)">
		<g id="Group-6">
			<g id="Group-2" transform="translate(19.000000, 21.000000)">
				<path id="Path_3368" class="folder-outer" fill="#85B7D9" d="M0,22.8C0.1,23.5,0.7,24,1.4,24h24.7c0.7,0,1.3-0.5,1.4-1.2V4.2c0-0.4-0.1-0.7-0.4-1
					c-0.3-0.3-0.6-0.4-1-0.4H14.3l-2.2-2.4c-0.3-0.2-0.6-0.4-1-0.4H1.4C1,0,0.6,0.1,0.4,0.4S0,1,0,1.4V22.8z"/>
				<g id="Group" transform="translate(9.500000, 8.500000)">
					<path id="Fill-1" class="folder-outer folder-shared" fill="#FFFFFF" style='display: none;' d="M4.3,4.5c-1,0-1.8-0.8-1.8-1.8V1.8c0-1,0.8-1.8,1.8-1.8s1.8,0.8,1.8,1.8v0.9
						C6.1,3.7,5.3,4.5,4.3,4.5"/>
					<path id="Fill-3" class="folder-outer folder-shared" fill="#FFFFFF" style='display: none;' d="M1,8.5h6.7c0-1.1-0.9-1.9-1.9-1.9H2.9C1.8,6.6,1,7.5,1,8.5 M8.1,9.5H0.5C0.2,9.5,0,9.3,0,9
						V8.5c0-1.6,1.3-2.9,2.9-2.9h2.9c1.6,0,2.9,1.3,2.9,2.9V9C8.6,9.3,8.4,9.5,8.1,9.5"/>
					<path id="Path-3" class="folder-outer folder-shared" fill="#FFFFFF" style='display: none;' d="M0.5,8.9c0.1-1,0.3-1.7,0.6-1.9C1.6,6.6,3.3,6.2,4,6.2c0.5,0,1.6,0.3,3.4,0.8l1,1.9
						C7.1,9.3,6.4,9.4,6.2,9.4s-1.5,0-3.8,0L0.5,8.9z"/>
				</g>
			</g>
		</g>
	</g>
</g>
</svg>
