<svg width="15" height="16" viewBox="0 0 15 16" xmlns="http://www.w3.org/2000/svg" xmlns:xlink="http://www.w3.org/1999/xlink">
  <defs>
    <path id="a" d="M.00015556 0H14v6.4H.00015556z"/>
  </defs>
  <g fill="currentColor" fill-rule="evenodd">
    <path d="M7.50015556 8C5.78204444 8 4.38904444 6.5672 4.38904444 4.8V3.2c0-1.7672 1.393-3.2 3.11111112-3.2 1.71811111 0 3.11111114 1.4328 3.11111114 3.2v1.6c0 1.7672-1.39300003 3.2-3.11111114 3.2" />
    <g transform="translate(.5 9.6)">
      <path d="M1.55571111 4.8H12.4446c0-1.7648-.3953333-3.2-3.11111111-3.2H4.66682222c-1.71577778 0-3.11111111 1.4352-3.11111111 3.2M13.2223778 6.4H.77793333C.3486 6.4.00015556 6.0416.00015556 5.6v-.8c0-2.6472 2.093-4.8 4.66666666-4.8h4.66666667c2.57366671 0 4.66666671 2.1528 4.66666671 4.8v.8c0 .4416-.3484445.8-.7777778.8" mask="url(#b)"/>
      <path d="M.89677115 5.11520958c.13508858-1.60497584.4536052-2.60791738.95554986-3.00882463C2.605238 1.50502407 5.38775729.79524315 6.51811484.79524315c.7535717 0 2.59156209.43704727 5.51397116 1.3111418l1.5650853 3.00882463c-1.95191.50438891-3.1127116.75658337-3.4824048.75658337H3.88421481L.89677115 5.11520958z" mask="url(#b)"/>
    </g>
  </g>
</svg>
