<svg data-name="Layer 1" xmlns="http://www.w3.org/2000/svg" viewBox="0 0 16 16">
  <path data-name="Path 2861" d="M8 8.65a3.72 3.72 0 0 1-3.19-2.73A1.26 1.26 0 0 1 4 4.72a1.29 1.29 0 0 1 .7-1.2A3.21 3.21 0 0 1 8 1a3.16 3.16 0 0 1 3.26 2.53 1.25 1.25 0 0 1 .7 1.2 1.22 1.22 0 0 1-.78 1.2A3.65 3.65 0 0 1 8 8.65zm2.5-.39c-.14.13-.27.26-.43.39a3.53 3.53 0 0 1-4.21 0 5.57 5.57 0 0 1-.43-.39 5.6 5.6 0 0 0-1.62 1.1A5.67 5.67 0 0 0 2 13.52v.54A1 1 0 0 0 3 15h10a1 1 0 0 0 1-.93v-.42a6.08 6.08 0 0 0-3.48-5.39z" fill="currentColor"/>
</svg>