<?xml version="1.0" encoding="UTF-8"?>
<svg width="25px" height="18px" viewBox="0 0 25 18" version="1.1" xmlns="http://www.w3.org/2000/svg" xmlns:xlink="http://www.w3.org/1999/xlink">
    <g id="Page-1" stroke="none" stroke-width="1" fill="none" fill-rule="evenodd">
        <g id="Sign-up---Privacy-Policy-POP-UP" transform="translate(-90.000000, -23.000000)" fill-rule="nonzero">
            <g id="apparatus---coloured" transform="translate(90.000000, 22.756757)">
                <path d="M19.3126173,7.80795703 C19.3126173,7.68225617 19.3126173,7.55655531 19.3126173,7.43085446 C19.3077422,6.53645698 19.2294739,5.64393612 19.0785875,4.76212859 C18.6641598,2.41732416 17.4111255,1.10713446 15.0269474,0.696189357 C12.3648589,0.212724526 9.73689976,0.584992446 7.14794559,1.24733926 C6.90108916,1.27755718 6.68120816,1.41673111 6.54963672,1.62603956 C6.41806527,1.835348 6.3888846,2.09239007 6.47023442,2.32546584 C6.59212492,3.0119859 6.71889104,3.70334061 6.83103029,4.39469532 C6.94316955,5.08605003 7.31859228,5.26009736 8.06456213,5.11505792 C9.43415169,4.83965409 10.8199882,4.65072304 12.2137147,4.54940406 C14.0518234,4.42370321 14.8953056,5.39063287 14.6417734,7.024744 C12.9602866,6.94642862 11.2757714,6.95772574 9.59550678,7.05858654 C8.79487236,7.14670202 8.0221684,7.40210557 7.32834352,7.80795703 L19.3126173,7.80795703 L19.3126173,7.80795703 Z" id="Path" fill="#15489F"></path>
                <rect id="Rectangle" fill="#007DFF" x="7.13331873" y="9.66929663" width="1" height="1"></rect>
                <rect id="Rectangle" fill="#007DFF" x="16.1190862" y="9.66929663" width="1" height="1"></rect>
                <rect id="Rectangle" fill="#007DFF" x="17.4013743" y="10.9408091" width="1" height="1"></rect>
                <rect id="Rectangle" fill="#007DFF" x="18.6836623" y="14.1220077" width="1" height="1"></rect>
                <rect id="Rectangle" fill="#007DFF" x="16.7577924" y="12.2123216" width="1" height="1"></rect>
                <rect id="Rectangle" fill="#007DFF" x="18.0400805" y="12.8504952" width="1" height="1"></rect>
                <rect id="Rectangle" fill="#007DFF" x="8.42048238" y="10.3074702" width="1" height="1"></rect>
                <rect id="Rectangle" fill="#007DFF" x="8.42048238" y="12.8504952" width="1" height="1"></rect>
                <rect id="Rectangle" fill="#007DFF" x="9.70277042" y="12.2123216" width="1" height="1"></rect>
                <rect id="Rectangle" fill="#007DFF" x="10.3414766" y="14.7601813" width="1" height="1"></rect>
                <rect id="Rectangle" fill="#007DFF" x="10.9850585" y="12.8504952" width="1" height="1"></rect>
                <rect id="Rectangle" fill="#007DFF" x="12.2673465" y="14.7601813" width="1" height="1"></rect>
                <rect id="Rectangle" fill="#144886" x="5.85103069" y="9.0359577" width="1" height="1"></rect>
                <rect id="Rectangle" fill="#144886" x="5.85103069" y="12.8504952" width="1" height="1"></rect>
                <rect id="Rectangle" fill="#144886" x="7.13331873" y="12.2123216" width="1" height="1"></rect>
                <rect id="Rectangle" fill="#144886" x="16.1190862" y="11.5789827" width="1" height="1"></rect>
                <rect id="Rectangle" fill="#144886" x="16.1190862" y="10.9408091" width="1" height="1"></rect>
                <rect id="Rectangle" fill="#144886" x="16.7577924" y="10.3074702" width="1" height="1"></rect>
                <rect id="Rectangle" fill="#144886" x="17.4013743" y="11.5789827" width="1" height="1"></rect>
                <rect id="Rectangle" fill="#144886" x="17.4013743" y="9.0359577" width="1" height="1"></rect>
                <rect id="Rectangle" fill="#144886" x="18.6836623" y="12.2123216" width="1" height="1"></rect>
                <rect id="Rectangle" fill="#144886" x="15.4755044" y="9.0359577" width="1" height="1"></rect>
                <rect id="Rectangle" fill="#144886" x="10.3414766" y="9.0359577" width="1" height="1"></rect>
                <rect id="Rectangle" fill="#144886" x="17.4013743" y="16.0316938" width="1" height="1"></rect>
                <rect id="Rectangle" fill="#144886" x="7.77690056" y="10.9408091" width="1" height="1"></rect>
                <rect id="Rectangle" fill="#144886" x="8.42048238" y="15.3935202" width="1" height="1"></rect>
                <rect id="Rectangle" fill="#144886" x="8.42048238" y="9.0359577" width="1" height="1"></rect>
                <rect id="Rectangle" fill="#144886" x="8.42048238" y="9.66929663" width="1" height="1"></rect>
                <rect id="Rectangle" fill="#144886" x="10.3414766" y="12.8504952" width="1" height="1"></rect>
                <rect id="Rectangle" fill="#144886" x="13.5496345" y="12.8504952" width="1" height="1"></rect>
                <rect id="Rectangle" fill="#1C368E" x="5.85103069" y="10.3074702" width="1" height="1"></rect>
                <rect id="Rectangle" fill="#1C368E" x="6.49461252" y="9.66929663" width="1" height="1"></rect>
                <rect id="Rectangle" fill="#1C368E" x="6.49461252" y="12.8504952" width="1" height="1"></rect>
                <rect id="Rectangle" fill="#1C368E" x="6.49461252" y="9.0359577" width="1" height="1"></rect>
                <rect id="Rectangle" fill="#1C368E" x="6.49461252" y="10.9408091" width="1" height="1"></rect>
                <rect id="Rectangle" fill="#1C368E" x="6.49461252" y="13.4886688" width="1" height="1"></rect>
                <rect id="Rectangle" fill="#1C368E" x="14.8319226" y="10.9408091" width="1" height="1"></rect>
                <rect id="Rectangle" fill="#1C368E" x="14.8319226" y="12.8504952" width="1" height="1"></rect>
                <rect id="Rectangle" fill="#1C368E" x="14.8319226" y="14.1220077" width="1" height="1"></rect>
                <rect id="Rectangle" fill="#1C368E" x="16.1190862" y="12.8504952" width="1" height="1"></rect>
                <rect id="Rectangle" fill="#1C368E" x="15.4755044" y="10.3074702" width="1" height="1"></rect>
                <rect id="Rectangle" fill="#1C368E" x="17.4013743" y="8.39778412" width="1" height="1"></rect>
                <rect id="Rectangle" fill="#1C368E" x="18.0400805" y="10.3074702" width="1" height="1"></rect>
                <rect id="Rectangle" fill="#1C368E" x="18.6836623" y="8.39778412" width="1" height="1"></rect>
                <rect id="Rectangle" fill="#1C368E" x="18.6836623" y="9.66929663" width="1" height="1"></rect>
                <rect id="Rectangle" fill="#1C368E" x="18.6836623" y="13.4886688" width="1" height="1"></rect>
                <rect id="Rectangle" fill="#1C368E" x="15.4755044" y="8.39778412" width="1" height="1"></rect>
                <rect id="Rectangle" fill="#1C368E" x="12.9109283" y="8.39778412" width="1" height="1"></rect>
                <rect id="Rectangle" fill="#1C368E" x="10.3414766" y="8.39778412" width="1" height="1"></rect>
                <rect id="Rectangle" fill="#1C368E" x="14.8319226" y="9.0359577" width="1" height="1"></rect>
                <rect id="Rectangle" fill="#1C368E" x="16.7577924" y="11.5789827" width="1" height="1"></rect>
                <rect id="Rectangle" fill="#1C368E" x="16.7577924" y="9.66929663" width="1" height="1"></rect>
                <rect id="Rectangle" fill="#1C368E" x="16.1190862" y="14.7601813" width="1" height="1"></rect>
                <rect id="Rectangle" fill="#1C368E" x="18.0400805" y="15.3935202" width="1" height="1"></rect>
                <rect id="Rectangle" fill="#1C368E" x="7.77690056" y="10.3074702" width="1" height="1"></rect>
                <rect id="Rectangle" fill="#1C368E" x="7.77690056" y="12.2123216" width="1" height="1"></rect>
                <rect id="Rectangle" fill="#1C368E" x="7.77690056" y="8.39778412" width="1" height="1"></rect>
                <rect id="Rectangle" fill="#1C368E" x="8.42048238" y="10.9408091" width="1" height="1"></rect>
                <rect id="Rectangle" fill="#1C368E" x="8.42048238" y="14.7601813" width="1" height="1"></rect>
                <rect id="Rectangle" fill="#1C368E" x="9.05918859" y="12.8504952" width="1" height="1"></rect>
                <rect id="Rectangle" fill="#1C368E" x="9.05918859" y="9.0359577" width="1" height="1"></rect>
                <rect id="Rectangle" fill="#1C368E" x="9.70277042" y="10.9408091" width="1" height="1"></rect>
                <rect id="Rectangle" fill="#1C368E" x="9.70277042" y="14.1220077" width="1" height="1"></rect>
                <rect id="Rectangle" fill="#1C368E" x="9.70277042" y="11.5789827" width="1" height="1"></rect>
                <rect id="Rectangle" fill="#1C368E" x="10.3414766" y="16.0316938" width="1" height="1"></rect>
                <rect id="Rectangle" fill="#1C368E" x="10.3414766" y="12.2123216" width="1" height="1"></rect>
                <rect id="Rectangle" fill="#1C368E" x="11.6286403" y="12.8504952" width="1" height="1"></rect>
                <rect id="Rectangle" fill="#1C368E" x="12.2673465" y="14.1220077" width="1" height="1"></rect>
                <rect id="Rectangle" fill="#1C368E" x="13.5496345" y="13.4886688" width="1" height="1"></rect>
                <rect id="Rectangle" fill="#1E2D46" x="6.49461252" y="8.39778412" width="1" height="1"></rect>
                <rect id="Rectangle" fill="#1E2D46" x="7.13331873" y="13.4886688" width="1" height="1"></rect>
                <rect id="Rectangle" fill="#1E2D46" x="14.8319226" y="12.2123216" width="1" height="1"></rect>
                <rect id="Rectangle" fill="#1E2D46" x="14.8319226" y="13.4886688" width="1" height="1"></rect>
                <rect id="Rectangle" fill="#1E2D46" x="15.4755044" y="10.9408091" width="1" height="1"></rect>
                <rect id="Rectangle" fill="#1E2D46" x="16.7577924" y="9.0359577" width="1" height="1"></rect>
                <rect id="Rectangle" fill="#1E2D46" x="18.0400805" y="9.66929663" width="1" height="1"></rect>
                <rect id="Rectangle" fill="#1E2D46" x="14.8319226" y="8.39778412" width="1" height="1"></rect>
                <rect id="Rectangle" fill="#1E2D46" x="10.9850585" y="8.39778412" width="1" height="1"></rect>
                <rect id="Rectangle" fill="#1E2D46" x="14.1932164" y="9.0359577" width="1" height="1"></rect>
                <rect id="Rectangle" fill="#1E2D46" x="16.7577924" y="14.1220077" width="1" height="1"></rect>
                <rect id="Rectangle" fill="#1E2D46" x="17.4013743" y="12.2123216" width="1" height="1"></rect>
                <rect id="Rectangle" fill="#1E2D46" x="17.4013743" y="13.4886688" width="1" height="1"></rect>
                <rect id="Rectangle" fill="#1E2D46" x="7.13331873" y="10.9408091" width="1" height="1"></rect>
                <rect id="Rectangle" fill="#1E2D46" x="8.42048238" y="8.39778412" width="1" height="1"></rect>
                <rect id="Rectangle" fill="#1E2D46" x="8.42048238" y="11.5789827" width="1" height="1"></rect>
                <rect id="Rectangle" fill="#1E2D46" x="9.05918859" y="14.7601813" width="1" height="1"></rect>
                <rect id="Rectangle" fill="#1E2D46" x="9.05918859" y="9.66929663" width="1" height="1"></rect>
                <rect id="Rectangle" fill="#1E2D46" x="9.70277042" y="8.39778412" width="1" height="1"></rect>
                <rect id="Rectangle" fill="#1E2D46" x="11.6286403" y="14.1220077" width="1" height="1"></rect>
                <rect id="Rectangle" fill="#1E2D46" x="14.1932164" y="14.7601813" width="1" height="1"></rect>
                <rect id="Rectangle" fill="#00AED9" x="5.85103069" y="11.5789827" width="1" height="1"></rect>
                <rect id="Rectangle" fill="#00AED9" x="6.49461252" y="14.1220077" width="1" height="1"></rect>
                <rect id="Rectangle" fill="#00AED9" x="16.1190862" y="14.1220077" width="1" height="1"></rect>
                <rect id="Rectangle" fill="#00AED9" x="16.1190862" y="8.39778412" width="1" height="1"></rect>
                <rect id="Rectangle" fill="#00AED9" x="16.1190862" y="10.3074702" width="1" height="1"></rect>
                <rect id="Rectangle" fill="#00AED9" x="18.0400805" y="11.5789827" width="1" height="1"></rect>
                <rect id="Rectangle" fill="#00AED9" x="18.6836623" y="10.9408091" width="1" height="1"></rect>
                <rect id="Rectangle" fill="#00AED9" x="14.8319226" y="9.66929663" width="1" height="1"></rect>
                <rect id="Rectangle" fill="#00AED9" x="7.13331873" y="9.0359577" width="1" height="1"></rect>
                <rect id="Rectangle" fill="#00AED9" x="9.70277042" y="13.4886688" width="1" height="1"></rect>
                <rect id="Rectangle" fill="#00AED9" x="12.2673465" y="12.8504952" width="1" height="1"></rect>
                <rect id="Rectangle" fill="#00AED9" x="13.5496345" y="15.3935202" width="1" height="1"></rect>
                <rect id="Rectangle" fill="#085CBB" x="5.85103069" y="9.66929663" width="1" height="1"></rect>
                <rect id="Rectangle" fill="#085CBB" x="6.49461252" y="11.5789827" width="1" height="1"></rect>
                <rect id="Rectangle" fill="#085CBB" x="7.13331873" y="14.7601813" width="1" height="1"></rect>
                <rect id="Rectangle" fill="#085CBB" x="14.8319226" y="11.5789827" width="1" height="1"></rect>
                <rect id="Rectangle" fill="#085CBB" x="15.4755044" y="13.4886688" width="1" height="1"></rect>
                <rect id="Rectangle" fill="#085CBB" x="17.4013743" y="9.66929663" width="1" height="1"></rect>
                <rect id="Rectangle" fill="#085CBB" x="18.0400805" y="8.39778412" width="1" height="1"></rect>
                <rect id="Rectangle" fill="#085CBB" x="18.6836623" y="10.3074702" width="1" height="1"></rect>
                <rect id="Rectangle" fill="#085CBB" x="18.6836623" y="15.3935202" width="1" height="1"></rect>
                <rect id="Rectangle" fill="#085CBB" x="15.4755044" y="9.66929663" width="1" height="1"></rect>
                <rect id="Rectangle" fill="#085CBB" x="14.1932164" y="8.39778412" width="1" height="1"></rect>
                <rect id="Rectangle" fill="#085CBB" x="12.2673465" y="8.39778412" width="1" height="1"></rect>
                <rect id="Rectangle" fill="#085CBB" x="16.7577924" y="15.3935202" width="1" height="1"></rect>
                <rect id="Rectangle" fill="#085CBB" x="7.13331873" y="8.39778412" width="1" height="1"></rect>
                <rect id="Rectangle" fill="#085CBB" x="7.77690056" y="9.0359577" width="1" height="1"></rect>
                <rect id="Rectangle" fill="#085CBB" x="7.77690056" y="14.1220077" width="1" height="1"></rect>
                <rect id="Rectangle" fill="#085CBB" x="9.05918859" y="8.39778412" width="1" height="1"></rect>
                <rect id="Rectangle" fill="#085CBB" x="9.70277042" y="9.0359577" width="1" height="1"></rect>
                <rect id="Rectangle" fill="#085CBB" x="9.70277042" y="9.66929663" width="1" height="1"></rect>
                <rect id="Rectangle" fill="#085CBB" x="12.2673465" y="15.3935202" width="1" height="1"></rect>
                <rect id="Rectangle" fill="#085CBB" x="14.1932164" y="12.8504952" width="1" height="1"></rect>
                <rect id="Rectangle" fill="#15489F" x="15.4755044" y="12.2123216" width="1" height="1"></rect>
                <rect id="Rectangle" fill="#15489F" x="15.4755044" y="12.8504952" width="1" height="1"></rect>
                <rect id="Rectangle" fill="#15489F" x="16.1190862" y="9.0359577" width="1" height="1"></rect>
                <rect id="Rectangle" fill="#15489F" x="16.7577924" y="8.39778412" width="1" height="1"></rect>
                <rect id="Rectangle" fill="#15489F" x="17.4013743" y="10.3074702" width="1" height="1"></rect>
                <rect id="Rectangle" fill="#15489F" x="18.0400805" y="9.0359577" width="1" height="1"></rect>
                <rect id="Rectangle" fill="#15489F" x="18.0400805" y="10.9408091" width="1" height="1"></rect>
                <rect id="Rectangle" fill="#15489F" x="18.6836623" y="9.0359577" width="1" height="1"></rect>
                <rect id="Rectangle" fill="#15489F" x="18.0400805" y="14.7601813" width="1" height="1"></rect>
                <rect id="Rectangle" fill="#15489F" x="13.5496345" y="8.39778412" width="1" height="1"></rect>
                <rect id="Rectangle" fill="#15489F" x="11.6286403" y="8.39778412" width="1" height="1"></rect>
                <rect id="Rectangle" fill="#15489F" x="17.4013743" y="12.8504952" width="1" height="1"></rect>
                <rect id="Rectangle" fill="#15489F" x="7.13331873" y="11.5789827" width="1" height="1"></rect>
                <rect id="Rectangle" fill="#15489F" x="8.42048238" y="13.4886688" width="1" height="1"></rect>
                <rect id="Rectangle" fill="#15489F" x="9.05918859" y="10.3074702" width="1" height="1"></rect>
                <rect id="Rectangle" fill="#15489F" x="9.05918859" y="10.9408091" width="1" height="1"></rect>
                <rect id="Rectangle" fill="#15489F" x="9.05918859" y="16.6698674" width="1" height="1"></rect>
                <rect id="Rectangle" fill="#15489F" x="10.3414766" y="14.1220077" width="1" height="1"></rect>
                <rect id="Rectangle" fill="#15489F" x="10.9850585" y="13.4886688" width="1" height="1"></rect>
                <rect id="Rectangle" fill="#15489F" x="12.9109283" y="13.4886688" width="1" height="1"></rect>
                <rect id="Rectangle" fill="#15489F" x="12.9109283" y="14.1220077" width="1" height="1"></rect>
                <rect id="Rectangle" fill="#15489F" x="14.1932164" y="12.2123216" width="1" height="1"></rect>
                <path d="M24.4417694,7.75961054 L0.736505407,7.75961054 C0.467232355,7.75961054 0.248943417,7.97606512 0.248943417,8.24307537 C0.248943417,8.51008563 0.467232355,8.7265402 0.736505407,8.7265402 L24.4417694,8.7265402 C24.7110425,8.7265402 24.9293314,8.51008563 24.9293314,8.24307537 C24.9293314,7.97606512 24.7110425,7.75961054 24.4417694,7.75961054 Z" id="Path" fill="#7AC943"></path>
            </g>
        </g>
    </g>
</svg>