<?xml version="1.0" encoding="utf-8"?>
<svg version="1.1" id="Layer_1" xmlns="http://www.w3.org/2000/svg" xmlns:xlink="http://www.w3.org/1999/xlink" x="0px" y="0px"
	 viewBox="0 0 15.9 11" style="enable-background:new 0 0 15.9 11;" xml:space="preserve">
<g id="New-Popups">
	<g id="Top-bar-Bullets-Popup" transform="translate(-770.000000, -176.000000)">
		<g id="Popup" transform="translate(746.000000, 109.000000)">
			<g id="Group-7" transform="translate(24.000000, 64.000000)">
				<g id="ybit_logo_black" transform="translate(0.000000, 3.000000)">
					<polygon id="Shape" style="fill:#85B7D9" points="11.2,0 15.6,0 14.4,1.4 10,1.4 					"/>
					<polygon id="Shape_1_" style="fill:#85B7D9" points="6.4,0 10.7,0 9.5,1.4 5.1,1.4 					"/>
					<polygon id="Shape_2_" style="fill:#85B7D9" points="14.6,1.7 15.9,0.3 15.9,4.3 14.6,5.8 					"/>
					<polygon id="Shape_3_" style="fill:#85B7D9" points="9.7,1.8 14.2,1.8 14.2,6.2 11.2,6.2 9.7,6.2 					"/>
					<rect id="Rectangle-path" x="4.9" y="1.8" style="fill:#85B7D9" width="4.5" height="4.4"/>
					<polygon id="Shape_4_" style="fill:#85B7D9" points="1.5,4.8 4.5,4.8 4.5,6.2 0.3,6.2 					"/>
					<polygon id="Shape_5_" style="fill:#85B7D9" points="9.7,6.6 11,6.6 11,9.1 9.7,10.6 					"/>
					<rect id="Rectangle-path_1_" x="4.9" y="6.6" style="fill:#85B7D9" width="4.5" height="4.4"/>
					<rect id="Rectangle-path_2_" y="6.6" style="fill:#85B7D9" width="4.5" height="4.4"/>
				</g>
			</g>
		</g>
	</g>
</g>
</svg>