<svg data-name="Layer 1" xmlns="http://www.w3.org/2000/svg" viewBox="0 0 13.95 15.33">
  <g data-name="Layer 2-2">
    <path d="M4.53 6.67l1.39-.21.63-1.27a.64.64 0 0 1 .2-.2.49.49 0 0 1 .65.2L8 6.46l1.42.21a.43.43 0 0 1 .37.33.49.49 0 0 1-.12.45l-1 1 .25 1.43a.52.52 0 0 1-.19.47.44.44 0 0 1-.49 0L7 9.7l-1.27.61a.44.44 0 0 1-.49 0 .52.52 0 0 1-.19-.47l.23-1.37-1-1A.48.48 0 0 1 4.16 7a.44.44 0 0 1 .37-.33z" fill="#87b7d9"/>
    <path d="M13.26 10.29a1.69 1.69 0 0 1-.86 1.48L7.83 14.4a1.64 1.64 0 0 1-1.71 0l-4.57-2.63a1.69 1.69 0 0 1-.86-1.48V5a1.73 1.73 0 0 1 .86-1.49L6.12.93a1.64 1.64 0 0 1 1.71 0l4.57 2.62A1.71 1.71 0 0 1 13.26 5z" stroke="#3c4858" stroke-width="1.38" fill="none" stroke-miterlimit="10"/>
    <path d="M9.42 6.67L8 6.46l-.6-1.27A.49.49 0 0 0 6.75 5a.64.64 0 0 0-.2.2l-.63 1.26-1.39.21a.44.44 0 0 0-.37.33.48.48 0 0 0 .12.47l1 1-.23 1.37a.52.52 0 0 0 .19.47.44.44 0 0 0 .49 0L7 9.7l1.24.65a.44.44 0 0 0 .49 0 .52.52 0 0 0 .19-.47l-.25-1.43 1-1A.49.49 0 0 0 9.79 7a.43.43 0 0 0-.37-.33z" stroke="#86b7d9" stroke-width=".75" fill="none" stroke-miterlimit="10"/>
  </g>
</svg>