<svg data-name="Layer 1" xmlns="http://www.w3.org/2000/svg" viewBox="0 0 112 65">
  <path d="M27.4 17.5a3.22 3.22 0 0 0-4 1.4l-8.8 21.5-8.7-21.2a3.35 3.35 0 0 0-4-2 3.17 3.17 0 0 0-1.7 4.2l11 26.9-5 12.5a3.18 3.18 0 0 0 1.7 4 .35.35 0 0 1 .2.1 2.94 2.94 0 0 0 3.7-1.8l17.3-41.6v-.1a3.07 3.07 0 0 0-1.7-3.9zM54.5 17c-4.5 0-9.1 1.7-11 5.4V3.1a3.1 3.1 0 0 0-6.2 0v43.3a3.1 3.1 0 0 0 6.2 0v-2c2 3.7 6.5 5.7 11 5.7 8.8 0 16.1-6.5 16.1-16.7A15.74 15.74 0 0 0 54.5 17zM54 43.8c-5.4 0-10.5-3.7-10.5-10.5v-.4a10.2 10.2 0 0 1 10.5-10h.6a10.07 10.07 0 0 1 9.6 10.5v.6A10 10 0 0 1 54 43.8zM81.7 17.2a3.12 3.12 0 0 0-3.1 3.1v26a3.1 3.1 0 1 0 6.2 0v-26a3.12 3.12 0 0 0-3.1-3.1zM81.7 2a4 4 0 0 0-4.2 4 4.12 4.12 0 0 0 3.9 3.9A4.17 4.17 0 0 0 85.9 6a4 4 0 0 0-4.2-4zM109.5 17.5H105v-9a3.1 3.1 0 1 0-6.2 0v9.3h-3.4a2.5 2.5 0 0 0 0 5h3.4v23.5a3.1 3.1 0 1 0 6.2 0V22.6h4.5a2.48 2.48 0 0 0 2.5-2.5 2.56 2.56 0 0 0-2.5-2.6z" fill="#3c4858"/>
</svg>