<svg data-name="Layer 1" xmlns="http://www.w3.org/2000/svg" viewBox="0 0 42.93 29.97">
  <path fill="#d6dbe1" d="M42.4 1.07a.38.38 0 0 0 0-.1V.81l-.19-.15-.06-.05h-.09L42 .53H17.49a.65.65 0 0 0-.46.2l-4.19 4.39a.44.44 0 0 0-.08.11.88.88 0 0 0-.05.15v6.7H5.34a.61.61 0 0 0-.46.2L.69 16.79a.76.76 0 0 0-.08.11.88.88 0 0 0 0 .15v11.82a.62.62 0 0 0 .63.61h24.3a.49.49 0 0 0 .24-.05h.09l.07-.06 4.19-4.44a.67.67 0 0 0 .16-.42v-6.67h7.33a.7.7 0 0 0 .25-.05h.09l.07-.06 4.19-4.47a.59.59 0 0 0 .17-.42V1.1s.01-.02.01-.03zM37 16.6H26.08V6.16H37zM14 6.16h10.82V16.6H13.93zm23.32-1.24H26.89l3-3.2h10.45zm-19.56-3.2h10.43l-3 3.2H14.74zM5.61 13.4h7.06v3.2H2.59zm7.06 14.85H1.78V17.84h10.89zm1.26-10.41h10.89v10.41H13.93zM29 24.18l-2.93 3.11v-9.45H29zm12.15-11.67l-2.93 3.12V5.79L41 2.85l.15-.17z"/>
</svg>