<svg width="201px" height="80px" viewBox="0 0 201 80" version="1.1" xmlns="http://www.w3.org/2000/svg" xmlns:xlink="http://www.w3.org/1999/xlink">
    <defs>
        <linearGradient x1="0%" y1="50%" x2="148.074248%" y2="50%" id="linearGradient-1">
            <stop stop-color="#17EAD9" offset="0%"></stop>
            <stop stop-color="#6078EA" offset="100%"></stop>
        </linearGradient>
        <path d="M45.5391528,0 C45.14862,0 44.7774069,0.164137931 44.5152118,0.453793103 L33.4767972,12.6496552 C33.4271181,12.702069 33.4091784,12.7682759 33.3705392,12.8262069 C33.3153402,12.9089655 33.2546213,12.9862069 33.218742,13.0813793 C33.1801027,13.1793103 33.1732028,13.28 33.1580231,13.3806897 C33.1483633,13.4468966 33.1193838,13.5062069 33.1193838,13.5751724 L33.1193838,32.5227586 L12.4197689,32.5227586 C12.0292362,32.5227586 11.6580231,32.6868966 11.395828,32.9765517 L0.356033376,45.1724138 C0.307734275,45.2248276 0.289794608,45.2910345 0.252535302,45.3489655 C0.195956354,45.4317241 0.135237484,45.5089655 0.0993581515,45.6041379 C0.0620988447,45.702069 0.0538189987,45.8027586 0.0386392811,45.9048276 C0.0303594352,45.9696552 0,46.0303448 0,46.097931 L0,78.6206897 C0,79.382069 0.616848524,80 1.37997433,80 L34.4993582,80 L67.618742,80 C67.8202182,80 68.0078947,79.9517241 68.1803915,79.8744828 C68.2286906,79.8537931 68.2659499,79.8137931 68.3101091,79.7875862 C68.4315469,79.7158621 68.5447047,79.6344828 68.638543,79.5310345 C68.6523427,79.5144828 68.6758023,79.5089655 68.6882221,79.4910345 L79.7280167,65.9406897 C79.928113,65.6937931 80.0385109,65.3862069 80.0385109,65.0703448 L80.0385109,47.4772414 L100.738126,47.4772414 C100.940982,47.4772414 101.128659,47.4289655 101.302535,47.3517241 C101.349454,47.3310345 101.385334,47.2910345 101.429493,47.2648276 C101.550931,47.1931034 101.662709,47.1117241 101.757927,47.0082759 C101.773107,46.9917241 101.795186,46.9848276 101.808986,46.9682759 L112.847401,33.4165517 C113.048877,33.1710345 113.157895,32.8634483 113.157895,32.5475862 L113.157895,1.37931034 C113.157895,1.20827586 113.119255,1.04827586 113.059917,0.895172414 C113.041977,0.848275862 113.017137,0.806896552 112.996438,0.762758621 C112.942619,0.659310345 112.87914,0.565517241 112.804621,0.48 C112.771502,0.44 112.739763,0.404137931 112.701123,0.369655172 C112.607285,0.284137931 112.503787,0.213793103 112.386489,0.155862069 C112.35475,0.140689655 112.32991,0.11862069 112.295411,0.104827586 C112.287131,0.100689655 112.281611,0.0965517241 112.273331,0.0924137931 C112.124294,0.0344827586 111.969737,0.0110344828 111.8138,0.00827586207 C111.80138,0.00689655172 111.79172,0 111.77792,0 L45.5391528,0 Z M79.2712452,2.75862069 L108.667458,2.75862069 L100.125417,12.1958621 L70.7278241,12.1958621 L79.2712452,2.75862069 Z M46.1518614,2.75862069 L75.5480745,2.75862069 L67.0060334,12.1958621 L37.6084403,12.1958621 L46.1518614,2.75862069 Z M102.1181,14.1062069 L110.397946,4.96 L110.397946,32.0565517 L102.1181,42.2193103 L102.1181,14.1062069 Z M68.9973363,14.9544828 L99.3581515,14.9544828 L99.3581515,44.7186207 L78.6585366,44.7186207 L68.9973363,44.7186207 L68.9973363,14.9544828 Z M35.8793325,44.7186207 L66.2387677,44.7186207 L66.2387677,14.9544828 L35.8793325,14.9544828 L35.8793325,44.7186207 Z M13.0324775,35.28 L33.1193838,35.28 L33.1193838,44.7186207 L4.48905648,44.7186207 L13.0324775,35.28 Z M68.9973363,47.4772414 L77.2785623,47.4772414 L77.2785623,64.5793103 L68.9973363,74.742069 L68.9973363,47.4772414 Z M35.8793325,77.2413793 L66.2387677,77.2413793 L66.2387677,47.4772414 L35.8793325,47.4772414 L35.8793325,77.2413793 Z M2.75994865,77.2413793 L33.1207638,77.2413793 L33.1207638,47.4772414 L2.75994865,47.4772414 L2.75994865,77.2413793 Z" id="path-2"></path>
    </defs>
    <g id="Login-Screen" stroke="none" stroke-width="1" fill="none" fill-rule="evenodd">
        <g id="00.00.02" transform="translate(-860.000000, -96.000000)">
            <g id="Logo" transform="translate(860.000000, 96.000000)">
                <g id="Shape">
                    <mask id="mask-3" fill="white">
                        <use xlink:href="#path-2"></use>
                    </mask>
                    <use id="Logo" fill="url(#linearGradient-1)" xlink:href="#path-2"></use>
                </g>
                <g id="Text" transform="translate(132.456140, 21.978022)">
                    <path d="M33.4470301,31.6702928 C28.9436466,31.6702928 25.1984085,28.3186303 25.1143233,23.4815087 C25.1143233,18.4345608 28.9022932,14.9119801 33.4470301,14.9119801 C37.9917669,14.9119801 41.6542982,18.4762481 41.6542982,23.2702928 C41.6542982,28.0212605 37.9917669,31.6702928 33.4470301,31.6702928 M33.4470301,12.9610124 C29.9540476,12.9610124 26.7133208,14.7007643 25.1143233,17.6272159 L25.0715915,17.7411613 L25.0715915,1.64984615 C25.0715915,1.12180645 24.6484085,0.693816377 24.124599,0.693816377 C23.6021679,0.693816377 23.1776065,1.12180645 23.1776065,1.64984615 L23.1776065,33.6698958 C23.1776065,34.1979355 23.6021679,34.624536 24.124599,34.624536 C24.6484085,34.624536 25.0715915,34.1979355 25.0715915,33.6698958 L25.0715915,28.829995 L25.1143233,28.9119801 C26.7133208,31.798134 29.9540476,33.6226501 33.4470301,33.6226501 C39.0448997,33.6226501 43.5896366,29.2093499 43.5896366,23.2702928 C43.5896366,17.3312357 39.0448997,12.9610124 33.4470301,12.9610124" id="Fill-1" fill="#313638"></path>
                    <path d="M33.4470301,31.6702928 C28.9436466,31.6702928 25.1984085,28.3186303 25.1143233,23.4815087 C25.1143233,18.4345608 28.9022932,14.9119801 33.4470301,14.9119801 C37.9917669,14.9119801 41.6542982,18.4762481 41.6542982,23.2702928 C41.6542982,28.0212605 37.9917669,31.6702928 33.4470301,31.6702928 Z M33.4470301,12.9610124 C29.9540476,12.9610124 26.7133208,14.7007643 25.1143233,17.6272159 L25.0715915,17.7411613 L25.0715915,1.64984615 C25.0715915,1.12180645 24.6484085,0.693816377 24.124599,0.693816377 C23.6021679,0.693816377 23.1776065,1.12180645 23.1776065,1.64984615 L23.1776065,33.6698958 C23.1776065,34.1979355 23.6021679,34.624536 24.124599,34.624536 C24.6484085,34.624536 25.0715915,34.1979355 25.0715915,33.6698958 L25.0715915,28.829995 L25.1143233,28.9119801 C26.7133208,31.798134 29.9540476,33.6226501 33.4470301,33.6226501 C39.0448997,33.6226501 43.5896366,29.2093499 43.5896366,23.2702928 C43.5896366,17.3312357 39.0448997,12.9610124 33.4470301,12.9610124 Z" id="Stroke-3" stroke="#313638"></path>
                    <path d="M50.1930827,4.47513648 C49.2681454,4.47513648 48.51,5.1546402 48.51,6.0453598 C48.51,6.9360794 49.2681454,7.61558313 50.1930827,7.61558313 C51.1193985,7.61558313 51.834812,6.9360794 51.834812,6.0453598 C51.834812,5.1546402 51.1193985,4.47513648 50.1930827,4.47513648" id="Fill-5" fill="#313638"></path>
                    <path d="M50.1930827,4.47513648 C49.2681454,4.47513648 48.51,5.1546402 48.51,6.0453598 C48.51,6.9360794 49.2681454,7.61558313 50.1930827,7.61558313 C51.1193985,7.61558313 51.834812,6.9360794 51.834812,6.0453598 C51.834812,5.1546402 51.1193985,4.47513648 50.1930827,4.47513648 Z" id="Stroke-7" stroke="#313638"></path>
                    <path d="M17.5700877,13.6614988 C17.08901,13.4558412 16.5334962,13.6823424 16.3281078,14.1673052 L9.38763158,30.3239305 L2.50780702,14.1673052 C2.30379699,13.6823424 1.74828321,13.4558412 1.26582707,13.6614988 C0.784749373,13.8671563 0.560062657,14.4285459 0.765451128,14.9135087 L8.35241855,32.7334591 L4.60442356,41.4586203 C4.40041353,41.9435831 4.62510025,42.5035831 5.10617794,42.7106303 C5.58725564,42.9162878 6.14276942,42.6897866 6.34815789,42.2048238 L18.0718421,14.9135087 C18.2758521,14.4285459 18.0525439,13.8671563 17.5700877,13.6614988" id="Fill-9" fill="#313638"></path>
                    <path d="M17.5700877,13.6614988 C17.08901,13.4558412 16.5334962,13.6823424 16.3281078,14.1673052 L9.38763158,30.3239305 L2.50780702,14.1673052 C2.30379699,13.6823424 1.74828321,13.4558412 1.26582707,13.6614988 C0.784749373,13.8671563 0.560062657,14.4285459 0.765451128,14.9135087 L8.35241855,32.7334591 L4.60442356,41.4586203 C4.40041353,41.9435831 4.62510025,42.5035831 5.10617794,42.7106303 C5.58725564,42.9162878 6.14276942,42.6897866 6.34815789,42.2048238 L18.0718421,14.9135087 C18.2758521,14.4285459 18.0525439,13.8671563 17.5700877,13.6614988 Z" id="Stroke-11" stroke="#313638"></path>
                    <path d="M50.1728195,12.9090422 C49.64901,12.9090422 49.2258271,13.3370323 49.2258271,13.8636824 L49.2258271,33.6707295 C49.2258271,34.1973797 49.64901,34.6253697 50.1728195,34.6253697 C50.6952506,34.6253697 51.119812,34.1973797 51.119812,33.6707295 L51.119812,13.8636824 C51.119812,13.3370323 50.6952506,12.9090422 50.1728195,12.9090422" id="Fill-13" fill="#313638"></path>
                    <path d="M50.1728195,12.9090422 C49.64901,12.9090422 49.2258271,13.3370323 49.2258271,13.8636824 L49.2258271,33.6707295 C49.2258271,34.1973797 49.64901,34.6253697 50.1728195,34.6253697 C50.6952506,34.6253697 51.119812,34.1973797 51.119812,33.6707295 L51.119812,13.8636824 C51.119812,13.3370323 50.6952506,12.9090422 50.1728195,12.9090422 Z" id="Stroke-15" stroke="#313638"></path>
                    <path d="M66.3373058,13.295067 L61.3018421,13.295067 L61.3018421,5.43005459 C61.3018421,4.90201489 60.8786591,4.47541439 60.3548496,4.47541439 C59.8324185,4.47541439 59.4078571,4.90201489 59.4078571,5.43005459 L59.4078571,13.295067 L56.1092356,13.295067 C55.5854261,13.295067 55.1622431,13.7230571 55.1622431,14.2497072 C55.1622431,14.7763573 55.5854261,15.2043474 56.1092356,15.2043474 L59.4078571,15.2043474 L59.4078571,33.6704516 C59.4078571,34.1971017 59.8324185,34.6250918 60.3548496,34.6250918 C60.8786591,34.6250918 61.3018421,34.1971017 61.3018421,33.6704516 L61.3018421,15.2043474 L66.3373058,15.2043474 C66.8597368,15.2043474 67.2842982,14.7763573 67.2842982,14.2497072 C67.2842982,13.7230571 66.8597368,13.295067 66.3373058,13.295067" id="Fill-17" fill="#313638"></path>
                    <path d="M66.3373058,13.295067 L61.3018421,13.295067 L61.3018421,5.43005459 C61.3018421,4.90201489 60.8786591,4.47541439 60.3548496,4.47541439 C59.8324185,4.47541439 59.4078571,4.90201489 59.4078571,5.43005459 L59.4078571,13.295067 L56.1092356,13.295067 C55.5854261,13.295067 55.1622431,13.7230571 55.1622431,14.2497072 C55.1622431,14.7763573 55.5854261,15.2043474 56.1092356,15.2043474 L59.4078571,15.2043474 L59.4078571,33.6704516 C59.4078571,34.1971017 59.8324185,34.6250918 60.3548496,34.6250918 C60.8786591,34.6250918 61.3018421,34.1971017 61.3018421,33.6704516 L61.3018421,15.2043474 L66.3373058,15.2043474 C66.8597368,15.2043474 67.2842982,14.7763573 67.2842982,14.2497072 C67.2842982,13.7230571 66.8597368,13.295067 66.3373058,13.295067 Z" id="Stroke-19" stroke="#313638"></path>
                </g>
            </g>
        </g>
    </g>
</svg>
