<svg data-name="Layer 1" xmlns="http://www.w3.org/2000/svg" viewBox="0 0 16 16">
  <g data-name="Group 1818">
    <g data-name="Symbol 42 6">
      <path class="folder-outer" data-name="Path 3368" d="M0 15.3a.84.84 0 0 0 .8.7h14.4a.84.84 0 0 0 .8-.7V4.45a.79.79 0 0 0-.76-.82h-6.9l-1.25-1.4A.9.9 0 0 0 6.51 2H.8a.79.79 0 0 0-.8.78z" fill="#85B7D9"/>
    </g>
  </g>
  <path class="folder-brand" fill="#F5F8FA" d="M4 10.18h2.18v2.18H4zM6.91 10.18h2.18v2.18H6.91zM6.91 7.27h2.18v2.18H6.91zM9.82 7.27H12v2.18H9.82z"/>
</svg>