<svg data-name="Layer 1" xmlns="http://www.w3.org/2000/svg" viewBox="0 0 12.03 14.01">
  <path d="M12 10.29c-.27-3.78-3.1-6.74-6.43-6.74h-1C5.68 2.4 5.72 2.34 5.76 2.29A1.53 1.53 0 0 0 6 1.19 1.38 1.38 0 0 0 5.07.07 1.33 1.33 0 0 0 3.7.43L3.45.7.35 4.05l-.13.19a.52.52 0 0 0-.07.15v.1A2.39 2.39 0 0 0 0 5a1.48 1.48 0 0 0 .08.46v.11a1.18 1.18 0 0 0 .11.19l.09.14 3.4 3.57a1.34 1.34 0 0 0 .93.42 1.25 1.25 0 0 0 1-.35l.15-.17a1.49 1.49 0 0 0-.12-1.87l-1-1.11h1c2 0 3.67 2 3.72 4.39v1.77A1.37 1.37 0 0 0 10.48 14h.19a1.29 1.29 0 0 0 .82-.28 1.34 1.34 0 0 0 .53-.89 1 1 0 0 0 0-.3v-1.75c-.02-.17-.02-.48-.02-.49z" fill="#85b7d9"/>
</svg>