<svg xmlns="http://www.w3.org/2000/svg" width="20" height="20">
  <path d="M8 9H1a1 1 0 0 1-1-1V1a1 1 0 0 1 1-1h7a1 1 0 0 1 1 1v7a1 1 0 0 1-1 1zM2 7h5V2H2zM19 20h-7a1 1 0 0 1-1-1v-7a1 1 0 0 1 1-1h7a1 1 0 0 1 1 1v7a1 1 0 0 1-1 1zm-6-2h5v-5h-5z" fill="#3c4858"/>
  <path d="M8.5 18H7a2.25 2.25 0 0 1-2.25-2.25V13.1l1 .93A.75.75 0 0 0 6.78 13l-2.25-2.28a.75.75 0 0 0-1.06 0L1.22 13a.75.75 0 0 0 1.06 1l1-.93v2.65A3.75 3.75 0 0 0 7 19.5h3V18zM18.78 5.47a.75.75 0 0 0-1.06 0l-1 .93V3.75A3.75 3.75 0 0 0 13 0h-3v1.5h3a2.25 2.25 0 0 1 2.25 2.25V6.4l-1-.93a.75.75 0 0 0-1.06 1.06l2.25 2.25a.75.75 0 0 0 1.06 0l2.25-2.25a.75.75 0 0 0 .03-1.06z" fill="#85b7d9"/>
</svg>