<svg width="16" height="16" viewBox="0 0 16 16" xmlns="http://www.w3.org/2000/svg">
  <g fill-rule="nonzero" fill="none">
    <path class='fullscreen--2' d="M.0212766 1.0212766v4.58510638c0 .44065272.35721961.79787234.79787234.79787234.44065272 0 .79787234-.35721962.79787234-.79787234v-3.9893617H14.3829787V14.3829787H10.393617c-.4406527 0-.79787232.3572196-.79787232.7978724 0 .4406527.35721962.7978723.79787232.7978723h4.5851064c.5522848 0 1-.4477152 1-1V1.0212766c0-.55228475-.4477152-1-1-1H1.0212766c-.55228475 0-1 .44771525-1 1z" fill="#D6DBE1"/>
    <path class='fullscreen--1' d="M6.87234043 8H1.0212766c-.55228475 0-1 .44771525-1 1v5.9787234c0 .5522848.44771525 1 1 1H7c.55228475 0 1-.4477152 1-1V9.12765957L6.87234043 8zm-.46808511 6.3829787H1.61702128V9.59574468h4.78723404v4.78723402z" fill="#D6DBE1"/>
    <path class='fullscreen--1' d="M11.98811259 7.6613104c-.43996811-.00130894-.79630758-.3576484-.79761645-.79761644l.01697056-.92206725-3.62094354 3.65411816c-.31241943.31241944-.81895144.3124194-1.13137087-2e-8-.31241944-.31241944-.31241944-.81895142 0-1.13137085l3.62094353-3.65411816-.91641038.02262741c-.21330824.00087458-.4181325-.08347489-.56896546-.23430785-.15083297-.15083297-.23518243-.35565722-.23430785-.56896545.01278461-.45385556.37770202-.81877297.83155758-.83155758l2.88499566-.05656854a.55999967.55999967 0 0 1 .1979899.03959798l.11313709.01131371.0622254.0622254c.02149227.0117497.03916197.0294194.05091168.05091169l.21496046.21496046c.02149228.0117497.03916198.0294194.0509117.05091168l.06222539.0622254.03959798.14142136.00565688.08485284.00565686.08485281-.00565686.0735391-.05091169 2.81145657c-.01278464.45385551-.37770205.81877292-.83155757.83155758z" fill="#D6DBE1"/>
  </g>
</svg>