<svg xmlns="http://www.w3.org/2000/svg" width="16.01" height="14">
  <path d="M15.89 7.31c-.13.19-3 4.62-7.89 4.62a8.15 8.15 0 0 1-1.42-.13l1.3-1.31H8c3.3 0 5.64-2.57 6.41-3.57A10.15 10.15 0 0 0 13 5.41l1-1a11.6 11.6 0 0 1 1.88 2.16.72.72 0 0 1 .01.74z" fill="#3c4858"/>
  <path d="M8 4.66a2.25 2.25 0 0 0 0 4.5 2.23 2.23 0 0 0 2.23-2.23A2.25 2.25 0 0 0 8 4.66z" fill="#85b7d9"/>
  <path d="M14.76.24a.8.8 0 0 0-1.13 0l-.82.81-.05.05-1.52 1.5A8.28 8.28 0 0 0 8 1.93C3.07 1.93.23 6.35.11 6.54a.72.72 0 0 0 0 .77 12 12 0 0 0 3.24 3.17l-2.16 2.16a.8.8 0 0 0 0 1.13.83.83 0 0 0 .57.23.81.81 0 0 0 .57-.23l12.43-12.4a.8.8 0 0 0 0-1.13zm-8.18 7L4.4 9.45a10.36 10.36 0 0 1-2.81-2.52c.76-1 3.06-3.57 6.41-3.57a6.5 6.5 0 0 1 2.12.36L6.61 7.23z" fill="#3c4858"/>
</svg>