<svg xmlns="http://www.w3.org/2000/svg" viewBox="0 0 16 16">
  <path class="copy-icon--1" d="M10 6c-.7-.8-1.7-1.1-2.7-1.1-1.1 0-2.3.5-3.1 1.3L1.3 9.1C.5 9.9 0 10.9 0 12c0 1.1.4 2.1 1.1 2.9.7.7 1.7 1.1 2.7 1.1 1.1 0 2.3-.5 3.1-1.3l2-2H8c-.4 0-.9-.1-1.3-.2l-.9.9c-.4.5-1.1.7-1.7.7-.6 0-1.1-.2-1.5-.6-.4-.4-.6-1-.6-1.6 0-.6.3-1.2.7-1.6l2.8-2.8c.3-.5.9-.7 1.6-.7.6 0 1.1.2 1.5.6.2.1.4.2.6.2.2 0 .4-.1.6-.2.5-.4.5-1 .2-1.4z" fill="#D6DBE1"/>
  <path class="copy-icon--2" d="M14.7 6.9C15.5 6.1 16 5 16 3.8c0-1-.4-2-1.1-2.7C14.2.4 13.2 0 12.2 0 11 0 9.9.5 9.1 1.3l-2 2h1c.4 0 .9.1 1.3.2l.9-.9c.5-.5 1.1-.7 1.7-.7.6 0 1.1.2 1.5.6.4.4.6 1 .6 1.6 0 .6-.3 1.2-.7 1.6l-2.8 2.8c-.4.5-1 .7-1.7.7-.5 0-1.1-.2-1.4-.6-.2-.1-.4-.2-.7-.2-.3 0-.6.2-.8.4-.3.4-.3.9 0 1.2.7.7 1.7 1.1 2.7 1.1 1.1 0 2.3-.5 3.1-1.3l2.9-2.9z" fill="#D6DBE1"/>
</svg>