<svg xmlns="http://www.w3.org/2000/svg" width="20.13" height="20.13">
  <path d="M8 1.08a.94.94 0 0 0-1-1H1a1.08 1.08 0 0 0-1 1v6a.94.94 0 0 0 1 1 .94.94 0 0 0 1-1v-3.6l4.35 4.31a1 1 0 0 0 1.4 0 1 1 0 0 0 0-1.4L3.41 2.11h3.6A1 1 0 0 0 8 1.08zM19.08 12a.94.94 0 0 0-1 1v3.6l-4.33-4.27a1 1 0 1 0-1.39 1.41L16.72 18h-3.6a1 1 0 0 0 0 2h6a1.08 1.08 0 0 0 1-1v-6a1 1 0 0 0-1.04-1z" fill="#3c4858"/>
  <path d="M19 0h-6a1 1 0 0 0-1 1 .94.94 0 0 0 1 1h3.6l-4.26 4.35a1 1 0 0 0 1.41 1.39L18 3.41V7a1 1 0 0 0 1 1 .94.94 0 0 0 1-1V1a.94.94 0 0 0-1-1zM7.78 12.38a1 1 0 0 0-1.4 0l-4.27 4.34v-3.6a1 1 0 0 0-1-1 .94.94 0 0 0-1 1v6a.94.94 0 0 0 1 1h6a1 1 0 1 0 0-2h-3.6l4.27-4.33a1 1 0 0 0 0-1.41z" fill="#85b7d9"/>
</svg>