<svg xmlns="http://www.w3.org/2000/svg" viewBox="0 0 17 22">
  <path class='share-icon--1' d="M11.71 4.38a1 1 0 0 1-1.41 0l-.8-.83V14a1 1 0 1 1-2 0V3.55l-.79.83a1 1 0 0 1-1.42 0 1.07 1.07 0 0 1 0-1.47l2.5-2.6A.7.7 0 0 1 8 .17l.11-.09h.11a.16.16 0 0 1 .09 0h.38a.16.16 0 0 1 .09 0h.11l.16.09.08.07.08.07.06.07 2.44 2.53a1.07 1.07 0 0 1 0 1.47z" fill="#85b7d9"/>
  <path  class='share-icon--2' d="M17 8.1v11.8a2.17 2.17 0 0 1-2.24 2.1H2.24A2.17 2.17 0 0 1 0 19.9V8.1A2.17 2.17 0 0 1 2.24 6h2.45a1.05 1.05 0 1 1 0 2.1H2.24v11.8h12.52V8.1h-2.24a1.05 1.05 0 1 1 0-2.1h2.24A2.17 2.17 0 0 1 17 8.1z" fill="#3c4858"/>
</svg>