<svg xmlns="http://www.w3.org/2000/svg" viewBox="0 0 32 24.5">
  <g data-name="Layer 2">
    <rect fill="#3c4858" y="16.5" width="8" height="8" rx=".89" ry=".89"/>
    <rect fill="#3c4858" x="24" y="16.5" width="8" height="8" rx=".89" ry=".89"/>
    <path fill="#85b7d9" d="M31.35 6.51A1.22 1.22 0 0 0 29.7 7l-1.13 2a13.83 13.83 0 0 0-1.79-3.28 13.74 13.74 0 0 0-4.37-3.94 13.94 13.94 0 0 0-7-1.84A13.57 13.57 0 0 0 1.69 13.36a1.08 1.08 0 0 0 1.05 1.08 1.08 1.08 0 0 0 1-1.08 11.43 11.43 0 0 1 11.7-11.17 11.94 11.94 0 0 1 9.21 4.3 17.64 17.64 0 0 1 2 3.39l-2.31-1.21a1.22 1.22 0 0 0-1.65.51 1.24 1.24 0 0 0 .5 1.67l4.58 2.45a1.2 1.2 0 0 0 1.65-.51l2.44-4.61a1.25 1.25 0 0 0-.51-1.67z"/>
    <path fill="#3c4858" d="M19.11 24.5h-6.22a.89.89 0 0 1-.89-.89v-6.22a.89.89 0 0 1 .89-.89h6.22a.89.89 0 0 1 .89.89v6.22a.89.89 0 0 1-.89.89zm-5.33-1.78h4.44v-4.44h-4.44z"/>
  </g>
</svg>