<svg xmlns="http://www.w3.org/2000/svg" viewBox="0 0 24 16">
    <defs>
        <style>.apparatus-svg-1{fill:#15489f;}.apparatus-svg-2{fill:#007dff;}.apparatus-svg-3{fill:#144886;}.apparatus-svg-4{fill:#1c368e;}.apparatus-svg-5{fill:#1e2d46;}.apparatus-svg-6{fill:#00aed9;}.apparatus-svg-7{fill:#085cbb;}.apparatus-svg-8{fill:#7ac943;}</style></defs><g id="Layer_2" data-name="Layer 2"><g id="Layer_1-2" data-name="Layer 1"><path class="apparatus-svg-1" d="M18.54,7c0-.12,0-.24,0-.36a14.36,14.36,0,0,0-.22-2.54A4.32,4.32,0,0,0,14.39.2,18.53,18.53,0,0,0,6.73.73a.77.77,0,0,0-.66,1c.12.66.24,1.31.35,2s.47.82,1.2.69a30.47,30.47,0,0,1,4-.54c1.79-.11,2.59.81,2.35,2.35a44.6,44.6,0,0,0-4.91,0A5.49,5.49,0,0,0,6.89,7H18.54Z"/><rect class="apparatus-svg-2" x="6.7" y="8.74" width="0.62" height="0.61"/><rect class="apparatus-svg-2" x="15.43" y="8.74" width="0.62" height="0.61"/><rect class="apparatus-svg-2" x="16.68" y="9.95" width="0.62" height="0.61"/><rect class="apparatus-svg-2" x="17.93" y="12.97" width="0.62" height="0.61"/><rect class="apparatus-svg-2" x="16.05" y="11.16" width="0.62" height="0.61"/><rect class="apparatus-svg-2" x="17.3" y="11.76" width="0.62" height="0.61"/><rect class="apparatus-svg-2" x="7.95" y="9.34" width="0.62" height="0.61"/><rect class="apparatus-svg-2" x="7.95" y="11.76" width="0.62" height="0.61"/><rect class="apparatus-svg-2" x="9.19" y="11.16" width="0.62" height="0.61"/><rect class="apparatus-svg-2" x="9.82" y="13.58" width="0.62" height="0.61"/><rect class="apparatus-svg-2" x="10.44" y="11.76" width="0.62" height="0.61"/><rect class="apparatus-svg-2" x="11.69" y="13.58" width="0.62" height="0.61"/><rect class="apparatus-svg-3" x="5.45" y="8.13" width="0.62" height="0.61"/><rect class="apparatus-svg-3" x="5.45" y="11.76" width="0.62" height="0.61"/><rect class="apparatus-svg-3" x="6.7" y="11.16" width="0.62" height="0.61"/><rect class="apparatus-svg-3" x="15.43" y="10.55" width="0.62" height="0.61"/><rect class="apparatus-svg-3" x="15.43" y="9.95" width="0.62" height="0.61"/><rect class="apparatus-svg-3" x="16.05" y="9.34" width="0.62" height="0.61"/><rect class="apparatus-svg-3" x="16.68" y="10.55" width="0.62" height="0.61"/><rect class="apparatus-svg-3" x="16.68" y="8.13" width="0.62" height="0.61"/><rect class="apparatus-svg-3" x="17.93" y="11.16" width="0.62" height="0.61"/><rect class="apparatus-svg-3" x="14.81" y="8.13" width="0.62" height="0.61"/><rect class="apparatus-svg-3" x="9.82" y="8.13" width="0.62" height="0.61"/><rect class="apparatus-svg-3" x="16.68" y="14.79" width="0.62" height="0.61"/><rect class="apparatus-svg-3" x="7.32" y="9.95" width="0.62" height="0.61"/><rect class="apparatus-svg-3" x="7.95" y="14.18" width="0.62" height="0.61"/><rect class="apparatus-svg-3" x="7.95" y="8.13" width="0.62" height="0.61"/><rect class="apparatus-svg-3" x="7.95" y="8.74" width="0.62" height="0.61"/><rect class="apparatus-svg-3" x="9.82" y="11.76" width="0.62" height="0.61"/><rect class="apparatus-svg-3" x="12.94" y="11.76" width="0.62" height="0.61"/><rect class="apparatus-svg-4" x="5.45" y="9.34" width="0.62" height="0.61"/><rect class="apparatus-svg-4" x="6.07" y="8.74" width="0.62" height="0.61"/><rect class="apparatus-svg-4" x="6.07" y="11.76" width="0.62" height="0.61"/><rect class="apparatus-svg-4" x="6.07" y="8.13" width="0.62" height="0.61"/><rect class="apparatus-svg-4" x="6.07" y="9.95" width="0.62" height="0.61"/><rect class="apparatus-svg-4" x="6.07" y="12.37" width="0.62" height="0.61"/><rect class="apparatus-svg-4" x="14.18" y="9.95" width="0.62" height="0.61"/><rect class="apparatus-svg-4" x="14.18" y="11.76" width="0.62" height="0.61"/><rect class="apparatus-svg-4" x="14.18" y="12.97" width="0.62" height="0.61"/><rect class="apparatus-svg-4" x="15.43" y="11.76" width="0.62" height="0.61"/><rect class="apparatus-svg-4" x="14.81" y="9.34" width="0.62" height="0.61"/><rect class="apparatus-svg-4" x="16.68" y="7.53" width="0.62" height="0.61"/><rect class="apparatus-svg-4" x="17.3" y="9.34" width="0.62" height="0.61"/><rect class="apparatus-svg-4" x="17.93" y="7.53" width="0.62" height="0.61"/><rect class="apparatus-svg-4" x="17.93" y="8.74" width="0.62" height="0.61"/><rect class="apparatus-svg-4" x="17.93" y="12.37" width="0.62" height="0.61"/><rect class="apparatus-svg-4" x="14.81" y="7.53" width="0.62" height="0.61"/><rect class="apparatus-svg-4" x="12.31" y="7.53" width="0.62" height="0.61"/><rect class="apparatus-svg-4" x="9.82" y="7.53" width="0.62" height="0.61"/><rect class="apparatus-svg-4" x="14.18" y="8.13" width="0.62" height="0.61"/><rect class="apparatus-svg-4" x="16.05" y="10.55" width="0.62" height="0.61"/><rect class="apparatus-svg-4" x="16.05" y="8.74" width="0.62" height="0.61"/><rect class="apparatus-svg-4" x="15.43" y="13.58" width="0.62" height="0.61"/><rect class="apparatus-svg-4" x="17.3" y="14.18" width="0.62" height="0.61"/><rect class="apparatus-svg-4" x="7.32" y="9.34" width="0.62" height="0.61"/><rect class="apparatus-svg-4" x="7.32" y="11.16" width="0.62" height="0.61"/><rect class="apparatus-svg-4" x="7.32" y="7.53" width="0.62" height="0.61"/><rect class="apparatus-svg-4" x="7.95" y="9.95" width="0.62" height="0.61"/><rect class="apparatus-svg-4" x="7.95" y="13.58" width="0.62" height="0.61"/><rect class="apparatus-svg-4" x="8.57" y="11.76" width="0.62" height="0.61"/><rect class="apparatus-svg-4" x="8.57" y="8.13" width="0.62" height="0.61"/><rect class="apparatus-svg-4" x="9.19" y="9.95" width="0.62" height="0.61"/><rect class="apparatus-svg-4" x="9.19" y="12.97" width="0.62" height="0.61"/><rect class="apparatus-svg-4" x="9.19" y="10.55" width="0.62" height="0.61"/><rect class="apparatus-svg-4" x="9.82" y="14.79" width="0.62" height="0.61"/><rect class="apparatus-svg-4" x="9.82" y="11.16" width="0.62" height="0.61"/><rect class="apparatus-svg-4" x="11.06" y="11.76" width="0.62" height="0.61"/><rect class="apparatus-svg-4" x="11.69" y="12.97" width="0.62" height="0.61"/><rect class="apparatus-svg-4" x="12.94" y="12.37" width="0.62" height="0.61"/><rect class="apparatus-svg-5" x="6.07" y="7.53" width="0.62" height="0.61"/><rect class="apparatus-svg-5" x="6.7" y="12.37" width="0.62" height="0.61"/><rect class="apparatus-svg-5" x="14.18" y="11.16" width="0.62" height="0.61"/><rect class="apparatus-svg-5" x="14.18" y="12.37" width="0.62" height="0.61"/><rect class="apparatus-svg-5" x="14.81" y="9.95" width="0.62" height="0.61"/><rect class="apparatus-svg-5" x="16.05" y="8.13" width="0.62" height="0.61"/><rect class="apparatus-svg-5" x="17.3" y="8.74" width="0.62" height="0.61"/><rect class="apparatus-svg-5" x="14.18" y="7.53" width="0.62" height="0.61"/><rect class="apparatus-svg-5" x="10.44" y="7.53" width="0.62" height="0.61"/><rect class="apparatus-svg-5" x="13.56" y="8.13" width="0.62" height="0.61"/><rect class="apparatus-svg-5" x="16.05" y="12.97" width="0.62" height="0.61"/><rect class="apparatus-svg-5" x="16.68" y="11.16" width="0.62" height="0.61"/><rect class="apparatus-svg-5" x="16.68" y="12.37" width="0.62" height="0.61"/><rect class="apparatus-svg-5" x="6.7" y="9.95" width="0.62" height="0.61"/><rect class="apparatus-svg-5" x="7.95" y="7.53" width="0.62" height="0.61"/><rect class="apparatus-svg-5" x="7.95" y="10.55" width="0.62" height="0.61"/><rect class="apparatus-svg-5" x="8.57" y="13.58" width="0.62" height="0.61"/><rect class="apparatus-svg-5" x="8.57" y="8.74" width="0.62" height="0.61"/><rect class="apparatus-svg-5" x="9.19" y="7.53" width="0.62" height="0.61"/><rect class="apparatus-svg-5" x="11.06" y="12.97" width="0.62" height="0.61"/><rect class="apparatus-svg-5" x="13.56" y="13.58" width="0.62" height="0.61"/><rect class="apparatus-svg-6" x="5.45" y="10.55" width="0.62" height="0.61"/><rect class="apparatus-svg-6" x="6.07" y="12.97" width="0.62" height="0.61"/><rect class="apparatus-svg-6" x="15.43" y="12.97" width="0.62" height="0.61"/><rect class="apparatus-svg-6" x="15.43" y="7.53" width="0.62" height="0.61"/><rect class="apparatus-svg-6" x="15.43" y="9.34" width="0.62" height="0.61"/><rect class="apparatus-svg-6" x="17.3" y="10.55" width="0.62" height="0.61"/><rect class="apparatus-svg-6" x="17.93" y="9.95" width="0.62" height="0.61"/><rect class="apparatus-svg-6" x="14.18" y="8.74" width="0.62" height="0.61"/><rect class="apparatus-svg-6" x="6.7" y="8.13" width="0.62" height="0.61"/><rect class="apparatus-svg-6" x="9.19" y="12.37" width="0.62" height="0.61"/><rect class="apparatus-svg-6" x="11.69" y="11.76" width="0.62" height="0.61"/><rect class="apparatus-svg-6" x="12.94" y="14.18" width="0.62" height="0.61"/><rect class="apparatus-svg-7" x="5.45" y="8.74" width="0.62" height="0.61"/><rect class="apparatus-svg-7" x="6.07" y="10.55" width="0.62" height="0.61"/><rect class="apparatus-svg-7" x="6.7" y="13.58" width="0.62" height="0.61"/><rect class="apparatus-svg-7" x="14.18" y="10.55" width="0.62" height="0.61"/><rect class="apparatus-svg-7" x="14.81" y="12.37" width="0.62" height="0.61"/><rect class="apparatus-svg-7" x="16.68" y="8.74" width="0.62" height="0.61"/><rect class="apparatus-svg-7" x="17.3" y="7.53" width="0.62" height="0.61"/><rect class="apparatus-svg-7" x="17.93" y="9.34" width="0.62" height="0.61"/><rect class="apparatus-svg-7" x="17.93" y="14.18" width="0.62" height="0.61"/><rect class="apparatus-svg-7" x="14.81" y="8.74" width="0.62" height="0.61"/><rect class="apparatus-svg-7" x="13.56" y="7.53" width="0.62" height="0.61"/><rect class="apparatus-svg-7" x="11.69" y="7.53" width="0.62" height="0.61"/><rect class="apparatus-svg-7" x="16.05" y="14.18" width="0.62" height="0.61"/><rect class="apparatus-svg-7" x="6.7" y="7.53" width="0.62" height="0.61"/><rect class="apparatus-svg-7" x="7.32" y="8.13" width="0.62" height="0.61"/><rect class="apparatus-svg-7" x="7.32" y="12.97" width="0.62" height="0.61"/><rect class="apparatus-svg-7" x="8.57" y="7.53" width="0.62" height="0.61"/><rect class="apparatus-svg-7" x="9.19" y="8.13" width="0.62" height="0.61"/><rect class="apparatus-svg-7" x="9.19" y="8.74" width="0.62" height="0.61"/><rect class="apparatus-svg-7" x="11.69" y="14.18" width="0.62" height="0.61"/><rect class="apparatus-svg-7" x="13.56" y="11.76" width="0.62" height="0.61"/><rect class="apparatus-svg-1" x="14.81" y="11.16" width="0.62" height="0.61"/><rect class="apparatus-svg-1" x="14.81" y="11.76" width="0.62" height="0.61"/><rect class="apparatus-svg-1" x="15.43" y="8.13" width="0.62" height="0.61"/><rect class="apparatus-svg-1" x="16.05" y="7.53" width="0.62" height="0.61"/><rect class="apparatus-svg-1" x="16.68" y="9.34" width="0.62" height="0.61"/><rect class="apparatus-svg-1" x="17.3" y="8.13" width="0.62" height="0.61"/><rect class="apparatus-svg-1" x="17.3" y="9.95" width="0.62" height="0.61"/><rect class="apparatus-svg-1" x="17.93" y="8.13" width="0.62" height="0.61"/><rect class="apparatus-svg-1" x="17.3" y="13.58" width="0.62" height="0.61"/><rect class="apparatus-svg-1" x="12.94" y="7.53" width="0.62" height="0.61"/><rect class="apparatus-svg-1" x="11.06" y="7.53" width="0.62" height="0.61"/><rect class="apparatus-svg-1" x="16.68" y="11.76" width="0.62" height="0.61"/><rect class="apparatus-svg-1" x="6.7" y="10.55" width="0.62" height="0.61"/><rect class="apparatus-svg-1" x="7.95" y="12.37" width="0.62" height="0.61"/><rect class="apparatus-svg-1" x="8.57" y="9.34" width="0.62" height="0.61"/><rect class="apparatus-svg-1" x="8.57" y="9.95" width="0.62" height="0.61"/><rect class="apparatus-svg-1" x="8.57" y="15.39" width="0.62" height="0.61"/><rect class="apparatus-svg-1" x="9.82" y="12.97" width="0.62" height="0.61"/><rect class="apparatus-svg-1" x="10.44" y="12.37" width="0.62" height="0.61"/><rect class="apparatus-svg-1" x="12.31" y="12.37" width="0.62" height="0.61"/><rect class="apparatus-svg-1" x="12.31" y="12.97" width="0.62" height="0.61"/><rect class="apparatus-svg-1" x="13.56" y="11.16" width="0.62" height="0.61"/><path class="apparatus-svg-8" d="M23.53,6.92H.47a.46.46,0,1,0,0,.92H23.53a.46.46,0,1,0,0-.92Z"/></g></g></svg>