<?xml version="1.0" encoding="UTF-8"?>
<svg width="116px" height="120px" viewBox="0 0 116 120" version="1.1" xmlns="http://www.w3.org/2000/svg" xmlns:xlink="http://www.w3.org/1999/xlink">
    <g id="Pin-Board" stroke="none" stroke-width="1" fill="none" fill-rule="evenodd">
        <g id="Pinboard---Empty-State" transform="translate(-902.000000, -434.000000)" fill-rule="nonzero">
            <g id="pinboard" transform="translate(902.000000, 434.000000)">
                <circle id="Oval-3_1_" fill="#E0E6ED" cx="96" cy="17.76" r="12.48"></circle>
                <path d="M115.68,105.12 C115.68,106.56 115.2,107.52 114.72,108.48 C113.76,109.44 112.8,109.92 111.36,109.92 L13.92,119.04 C11.04,119.04 9.12,117.12 9.12,115.2 L6.72,90.72 L0,29.28 C0,26.88 1.44,24.48 3.84,24.48 L67.2,17.76 C67.2,21.12 67.68,24 68.64,26.88 L46.08,28.8 L44.16,28.8 L9.6,33.12 L17.28,109.44 L105.6,101.76 L100.32,46.08 C103.68,45.6 106.56,44.64 109.44,43.2 L115.68,105.12 Z" id="Path" fill="#E0E6ED"></path>
                <path d="M96,0 C85.92,0 78.24,8.16 78.24,18.24 C78.24,22.56 79.68,26.4 82.08,29.76 L74.88,37.44 L65.28,48 C63.84,49.92 63.84,52.32 65.28,54.24 C65.76,55.2 67.2,55.68 68.16,55.68 C69.12,55.68 70.08,55.2 71.04,54.24 L81.6,42.72 L88.8,35.04 C91.2,36 93.6,36.96 96,36.96 C96.96,36.96 98.4,36.96 99.36,36.48 C102.72,36 105.6,34.56 108,32.16 C111.84,28.8 114.24,24 114.24,18.24 C114.24,8.16 105.6,0 96,0 Z M84,17.76 C84,11.04 89.28,5.76 96,5.76 C102.72,5.76 108,11.04 108,17.76 C108,24.48 102.72,29.76 96,29.76 C89.28,29.76 84,24.48 84,17.76 Z" id="Shape" fill="#85B7D9"></path>
            </g>
        </g>
    </g>
</svg>