<svg xmlns="http://www.w3.org/2000/svg" viewBox="0 0 24.1 24.8">
  <path class="pin-0" fill="#D6DBE1" d="M24.1 21.9c0 .3-.1.5-.2.7-.2.2-.4.3-.7.3L2.9 24.8c-.6 0-1-.4-1-.8l-.5-5.1L0 6.1c0-.5.3-1 .8-1L14 3.7v.1c0 .6.2 1.2.4 1.8L9.6 6c-.1 0-.3.1-.4 0L2 6.9l1.6 15.9L22 21.2 20.7 7.4c.7-.1 1.3-.4 1.8-.9l1.6 15.4z"/>
  <path class="pin-1" fill="#D6DBE1" d="M18.5 7.2l-3.7 4.1c-.2.2-.4.3-.6.3-.2 0-.5-.1-.6-.3-.3-.4-.3-.9 0-1.3l3.6-3.9c.2.4.7.8 1.3 1.1z"/>
  <ellipse fill="#D6DBE1" class="pin-0" cx="20" cy="3.7" rx="2.5" ry="2.5"/>
  <path class="pin-1" fill="#D6DBE1" d="M20 0c-2.1 0-3.7 1.7-3.7 3.8S18 7.6 20 7.6c2.1 0 3.8-1.7 3.8-3.8S22 0 20 0zm0 6.2c-1.4 0-2.5-1.1-2.5-2.5s1.1-2.5 2.5-2.5 2.5 1.1 2.5 2.5-1.1 2.5-2.5 2.5z"/>
</svg>